<?xml version="1.0" encoding="utf-8" standalone="no"?>
<!DOCTYPE svg PUBLIC "-//W3C//DTD SVG 1.1//EN"
  "http://www.w3.org/Graphics/SVG/1.1/DTD/svg11.dtd">
<svg xmlns:xlink="http://www.w3.org/1999/xlink" width="220.563062pt" height="123.270627pt" viewBox="0 0 220.563062 123.270627" xmlns="http://www.w3.org/2000/svg" version="1.1">
 <metadata>
  <rdf:RDF xmlns:dc="http://purl.org/dc/elements/1.1/" xmlns:cc="http://creativecommons.org/ns#" xmlns:rdf="http://www.w3.org/1999/02/22-rdf-syntax-ns#">
   <cc:Work>
    <dc:type rdf:resource="http://purl.org/dc/dcmitype/StillImage"/>
    <dc:date>2024-08-15T00:03:44.473733</dc:date>
    <dc:format>image/svg+xml</dc:format>
    <dc:creator>
     <cc:Agent>
      <dc:title>Matplotlib v3.5.1, https://matplotlib.org/</dc:title>
     </cc:Agent>
    </dc:creator>
   </cc:Work>
  </rdf:RDF>
 </metadata>
 <defs>
  <style type="text/css">*{stroke-linejoin: round; stroke-linecap: butt}</style>
 </defs>
 <g id="figure_1">
  <g id="patch_1">
   <path d="M 0 123.270627 
L 220.563062 123.270627 
L 220.563062 0 
L 0 0 
z
" style="fill: #ffffff"/>
  </g>
  <g id="axes_1">
   <g id="patch_2">
    <path d="M 31.791912 99.58254 
L 220.563062 99.58254 
L 220.563062 2.940359 
L 31.791912 2.940359 
z
" style="fill: #ffffff"/>
   </g>
   <g id="matplotlib.axis_1">
    <g id="xtick_1">
     <g id="line2d_1">
      <path d="M 31.791912 99.58254 
L 31.791912 2.940359 
" clip-path="url(#p446f6dd71f)" style="fill: none; stroke: #cccccc; stroke-width: 0.5; stroke-linecap: round"/>
     </g>
     <g id="text_1">
      <!-- 0 -->
      <g style="fill: #262626" transform="translate(29.542504 109.963258)scale(0.085 -0.085)">
       <defs>
        <path id="CMSS17-30" d="M 2758 2073 
C 2758 2439 2752 3120 2490 3647 
C 2227 4153 1805 4288 1504 4288 
C 1069 4288 698 4031 506 3621 
C 301 3191 243 2748 243 2073 
C 243 1611 262 1046 493 551 
C 755 6 1197 -128 1498 -128 
C 1894 -128 2278 83 2496 525 
C 2720 988 2758 1495 2758 2073 
z
M 1498 262 
C 1011 262 864 821 819 1007 
C 742 1328 730 1636 730 2144 
C 730 2542 730 2992 851 3345 
C 998 3756 1254 3897 1498 3897 
C 1971 3897 2125 3422 2176 3255 
C 2272 2915 2272 2516 2272 2144 
C 2272 1546 2272 262 1498 262 
z
" transform="scale(0.015625)"/>
       </defs>
       <use xlink:href="#CMSS17-30" transform="scale(0.996264)"/>
      </g>
     </g>
    </g>
    <g id="xtick_2">
     <g id="line2d_2">
      <path d="M 67.186503 99.58254 
L 67.186503 2.940359 
" clip-path="url(#p446f6dd71f)" style="fill: none; stroke: #cccccc; stroke-width: 0.5; stroke-linecap: round"/>
     </g>
     <g id="text_2">
      <!-- 300 -->
      <g style="fill: #262626" transform="translate(60.43828 109.963258)scale(0.085 -0.085)">
       <defs>
        <path id="CMSS17-33" d="M 1005 2060 
L 1440 2060 
C 2042 2060 2214 1532 2214 1164 
C 2214 662 1933 268 1472 268 
C 1114 268 608 449 320 926 
C 275 700 275 687 250 533 
C 550 89 1037 -128 1485 -128 
C 2214 -128 2752 481 2752 1158 
C 2752 1667 2400 2092 1920 2252 
C 2304 2463 2586 2860 2586 3321 
C 2586 3859 2093 4288 1491 4288 
C 941 4288 512 3948 333 3583 
C 378 3519 493 3334 550 3238 
C 691 3615 1056 3897 1485 3897 
C 1843 3897 2080 3660 2080 3321 
C 2080 2969 1856 2585 1478 2496 
C 1453 2496 1056 2457 1005 2451 
L 1005 2060 
z
" transform="scale(0.015625)"/>
       </defs>
       <use xlink:href="#CMSS17-33" transform="scale(0.996264)"/>
       <use xlink:href="#CMSS17-30" transform="translate(46.843624 0)scale(0.996264)"/>
       <use xlink:href="#CMSS17-30" transform="translate(93.687247 0)scale(0.996264)"/>
      </g>
     </g>
    </g>
    <g id="xtick_3">
     <g id="line2d_3">
      <path d="M 102.581093 99.58254 
L 102.581093 2.940359 
" clip-path="url(#p446f6dd71f)" style="fill: none; stroke: #cccccc; stroke-width: 0.5; stroke-linecap: round"/>
     </g>
     <g id="text_3">
      <!-- 600 -->
      <g style="fill: #262626" transform="translate(95.83287 109.963258)scale(0.085 -0.085)">
       <defs>
        <path id="CMSS17-36" d="M 2496 4159 
C 2227 4268 2035 4288 1856 4288 
C 1024 4288 250 3408 250 2023 
C 250 268 986 -128 1510 -128 
C 1798 -128 2086 -39 2362 281 
C 2643 619 2752 900 2752 1392 
C 2752 2183 2362 2886 1779 2886 
C 1357 2886 992 2662 768 2381 
C 832 3290 1254 3897 1862 3897 
C 2029 3897 2246 3871 2496 3760 
L 2496 4159 
z
M 774 1372 
C 774 1423 774 1455 781 1551 
C 781 2049 1069 2496 1536 2496 
C 1837 2496 1990 2336 2106 2138 
C 2240 1889 2246 1653 2246 1392 
C 2246 1143 2246 894 2099 638 
C 1978 441 1818 268 1510 268 
C 902 268 800 1117 774 1372 
z
" transform="scale(0.015625)"/>
       </defs>
       <use xlink:href="#CMSS17-36" transform="scale(0.996264)"/>
       <use xlink:href="#CMSS17-30" transform="translate(46.843624 0)scale(0.996264)"/>
       <use xlink:href="#CMSS17-30" transform="translate(93.687247 0)scale(0.996264)"/>
      </g>
     </g>
    </g>
    <g id="xtick_4">
     <g id="line2d_4">
      <path d="M 137.975684 99.58254 
L 137.975684 2.940359 
" clip-path="url(#p446f6dd71f)" style="fill: none; stroke: #cccccc; stroke-width: 0.5; stroke-linecap: round"/>
     </g>
     <g id="text_4">
      <!-- 900 -->
      <g style="fill: #262626" transform="translate(131.227461 109.963258)scale(0.085 -0.085)">
       <defs>
        <path id="CMSS17-39" d="M 435 172 
C 614 19 845 -128 1235 -128 
C 2010 -128 2752 738 2752 2136 
C 2752 3987 1952 4288 1523 4288 
C 1094 4288 819 4095 582 3789 
C 301 3438 250 3125 250 2761 
C 250 2327 326 2059 506 1753 
C 749 1356 973 1273 1222 1273 
C 1600 1273 1978 1459 2234 1778 
C 2189 908 1798 268 1235 268 
C 1005 268 819 340 634 516 
L 435 172 
z
M 2214 2774 
C 2221 2729 2221 2646 2221 2621 
C 2221 2085 1914 1664 1466 1664 
C 1171 1664 1018 1817 902 2015 
C 762 2263 755 2506 755 2761 
C 755 3010 755 3284 934 3559 
C 1069 3757 1235 3897 1523 3897 
C 2112 3897 2208 3036 2214 2774 
z
" transform="scale(0.015625)"/>
       </defs>
       <use xlink:href="#CMSS17-39" transform="scale(0.996264)"/>
       <use xlink:href="#CMSS17-30" transform="translate(46.843624 0)scale(0.996264)"/>
       <use xlink:href="#CMSS17-30" transform="translate(93.687247 0)scale(0.996264)"/>
      </g>
     </g>
    </g>
    <g id="xtick_5">
     <g id="line2d_5">
      <path d="M 173.370275 99.58254 
L 173.370275 2.940359 
" clip-path="url(#p446f6dd71f)" style="fill: none; stroke: #cccccc; stroke-width: 0.5; stroke-linecap: round"/>
     </g>
     <g id="text_5">
      <!-- 1200 -->
      <g style="fill: #262626" transform="translate(164.372644 109.963258)scale(0.085 -0.085)">
       <defs>
        <path id="CMSS17-31" d="M 1818 4288 
L 1696 4288 
C 1350 3949 947 3902 538 3891 
L 538 3520 
C 723 3526 1024 3539 1325 3673 
L 1325 371 
L 570 371 
L 570 0 
L 2573 0 
L 2573 371 
L 1818 371 
L 1818 4288 
z
" transform="scale(0.015625)"/>
        <path id="CMSS17-32" d="M 1651 1353 
C 1830 1538 2099 1761 2285 1984 
C 2464 2201 2701 2507 2701 2953 
C 2701 3655 2227 4288 1421 4288 
C 787 4288 422 3891 250 3272 
L 499 2928 
C 640 3508 838 3878 1338 3878 
C 1888 3878 2195 3431 2195 2940 
C 2195 2354 1747 1901 1408 1563 
C 1030 1187 659 805 301 409 
L 301 0 
L 2701 0 
L 2701 435 
L 1613 435 
C 1536 435 1459 428 1382 428 
L 742 428 
L 742 435 
L 1651 1353 
z
" transform="scale(0.015625)"/>
       </defs>
       <use xlink:href="#CMSS17-31" transform="scale(0.996264)"/>
       <use xlink:href="#CMSS17-32" transform="translate(46.843624 0)scale(0.996264)"/>
       <use xlink:href="#CMSS17-30" transform="translate(93.687247 0)scale(0.996264)"/>
       <use xlink:href="#CMSS17-30" transform="translate(140.530871 0)scale(0.996264)"/>
      </g>
     </g>
    </g>
    <g id="xtick_6">
     <g id="line2d_6">
      <path d="M 208.764866 99.58254 
L 208.764866 2.940359 
" clip-path="url(#p446f6dd71f)" style="fill: none; stroke: #cccccc; stroke-width: 0.5; stroke-linecap: round"/>
     </g>
     <g id="text_6">
      <!-- 1500 -->
      <g style="fill: #262626" transform="translate(199.767235 109.963258)scale(0.085 -0.085)">
       <defs>
        <path id="CMSS17-35" d="M 934 3814 
L 2502 3814 
L 2502 4224 
L 467 4224 
L 467 1830 
L 896 1830 
C 1011 2103 1248 2304 1555 2304 
C 1843 2304 2163 2044 2163 1299 
C 2163 502 1709 268 1376 268 
C 966 268 589 521 422 871 
L 218 508 
C 512 51 992 -128 1376 -128 
C 2118 -128 2701 508 2701 1286 
C 2701 2083 2182 2694 1562 2694 
C 1338 2694 1120 2617 934 2464 
L 934 3814 
z
" transform="scale(0.015625)"/>
       </defs>
       <use xlink:href="#CMSS17-31" transform="scale(0.996264)"/>
       <use xlink:href="#CMSS17-35" transform="translate(46.843624 0)scale(0.996264)"/>
       <use xlink:href="#CMSS17-30" transform="translate(93.687247 0)scale(0.996264)"/>
       <use xlink:href="#CMSS17-30" transform="translate(140.530871 0)scale(0.996264)"/>
      </g>
     </g>
    </g>
    <g id="text_7">
     <!-- Thousand Queries/s -->
     <g style="fill: #262626" transform="translate(82.067851 120.655434)scale(0.105 -0.105)">
      <defs>
       <path id="CMSS17-54" d="M 2317 3987 
L 2848 3987 
C 2925 3987 3002 3980 3078 3980 
L 3878 3980 
L 3878 4396 
L 218 4396 
L 218 3980 
L 1018 3980 
C 1094 3980 1171 3987 1248 3987 
L 1779 3987 
L 1779 0 
L 2317 0 
L 2317 3987 
z
" transform="scale(0.015625)"/>
       <path id="CMSS17-68" d="M 2618 1878 
C 2618 2283 2522 2816 1798 2816 
C 1395 2816 1133 2617 947 2399 
L 947 4416 
L 474 4416 
L 474 0 
L 960 0 
L 960 1556 
C 960 1962 1114 2425 1549 2425 
C 2112 2425 2131 2045 2131 1826 
L 2131 0 
L 2618 0 
L 2618 1878 
z
" transform="scale(0.015625)"/>
       <path id="CMSS17-6f" d="M 2829 1356 
C 2829 2175 2221 2816 1504 2816 
C 768 2816 173 2156 173 1356 
C 173 544 787 -64 1498 -64 
C 2227 -64 2829 563 2829 1356 
z
M 1504 339 
C 1050 339 659 710 659 1407 
C 659 2150 1114 2425 1498 2425 
C 1914 2425 2342 2124 2342 1407 
C 2342 684 1926 339 1504 339 
z
" transform="scale(0.015625)"/>
       <path id="CMSS17-75" d="M 2618 2752 
L 2131 2752 
L 2131 976 
C 2131 500 1786 307 1421 307 
C 998 307 960 448 960 712 
L 960 2752 
L 474 2752 
L 474 680 
C 474 179 646 -64 1088 -64 
C 1306 -64 1798 -13 2144 307 
L 2144 -13 
L 2618 -13 
L 2618 2752 
z
" transform="scale(0.015625)"/>
       <path id="CMSS17-73" d="M 2061 2623 
C 1683 2803 1389 2816 1197 2816 
C 742 2816 198 2655 198 2009 
C 198 1363 902 1222 1094 1183 
C 1389 1126 1715 1062 1715 742 
C 1715 339 1254 339 1171 339 
C 915 339 563 409 243 639 
L 166 211 
C 531 0 883 -64 1178 -64 
C 1965 -64 2163 416 2163 780 
C 2163 1094 1984 1305 1862 1401 
C 1651 1567 1574 1587 1050 1695 
C 960 1708 646 1779 646 2067 
C 646 2431 1050 2431 1139 2431 
C 1555 2431 1811 2303 1984 2207 
L 2061 2623 
z
" transform="scale(0.015625)"/>
       <path id="CMSS17-61" d="M 2406 1789 
C 2406 2399 1978 2816 1402 2816 
C 1120 2816 813 2764 461 2559 
L 499 2133 
C 659 2250 934 2438 1395 2438 
C 1722 2438 1920 2185 1920 1782 
L 1920 1536 
C 896 1504 256 1209 256 711 
C 256 452 416 -64 947 -64 
C 1043 -64 1562 -52 1933 224 
L 1933 -13 
L 2406 -13 
L 2406 1789 
z
M 1920 824 
C 1920 711 1920 559 1728 446 
C 1562 339 1350 326 1261 326 
C 941 326 723 503 723 723 
C 723 1165 1722 1209 1920 1216 
L 1920 824 
z
" transform="scale(0.015625)"/>
       <path id="CMSS17-6e" d="M 2618 1878 
C 2618 2283 2522 2816 1798 2816 
C 1389 2816 1120 2604 941 2386 
L 941 2783 
L 474 2783 
L 474 0 
L 960 0 
L 960 1556 
C 960 1962 1114 2425 1549 2425 
C 2112 2425 2131 2045 2131 1826 
L 2131 0 
L 2618 0 
L 2618 1878 
z
" transform="scale(0.015625)"/>
       <path id="CMSS17-64" d="M 2611 4416 
L 2138 4416 
L 2138 2495 
C 1939 2662 1613 2816 1254 2816 
C 672 2816 211 2179 211 1375 
C 211 572 666 -64 1235 -64 
C 1677 -64 1971 172 2125 307 
L 2125 -13 
L 2611 -13 
L 2611 4416 
z
M 2125 851 
C 2125 760 2125 663 1926 488 
C 1798 378 1645 326 1498 326 
C 1152 326 698 585 698 1369 
C 698 2185 1210 2425 1562 2425 
C 1798 2425 1990 2308 2125 2114 
L 2125 851 
z
" transform="scale(0.015625)"/>
       <path id="CMSS17-51" d="M 3200 211 
C 3981 848 4096 1711 4096 2201 
C 4096 3541 3219 4544 2214 4544 
C 1210 4544 333 3535 333 2201 
C 333 855 1222 -128 2214 -128 
C 2438 -128 2630 -77 2765 -26 
L 3302 -832 
L 3930 -832 
L 3200 211 
z
M 2528 326 
C 2438 294 2330 275 2214 275 
C 1523 275 858 1003 858 2201 
C 858 3393 1517 4140 2214 4140 
C 2918 4140 3571 3386 3571 2201 
C 3571 1789 3507 1099 2950 571 
L 2490 1222 
L 1939 1222 
L 2528 326 
z
" transform="scale(0.015625)"/>
       <path id="CMSS17-65" d="M 2502 1375 
C 2502 1587 2490 2001 2285 2347 
C 2061 2713 1696 2816 1421 2816 
C 755 2816 192 2184 192 1363 
C 192 579 774 -64 1510 -64 
C 1798 -64 2150 19 2470 249 
C 2470 275 2458 414 2451 421 
C 2451 433 2432 629 2432 655 
C 2125 408 1773 326 1517 326 
C 1107 326 666 667 646 1375 
L 2502 1375 
z
M 698 1728 
C 781 2086 1062 2425 1421 2425 
C 1517 2425 1965 2412 2080 1728 
L 698 1728 
z
" transform="scale(0.015625)"/>
       <path id="CMSS17-72" d="M 954 1369 
C 954 1974 1395 2379 1958 2392 
L 1958 2816 
C 1549 2809 1165 2604 934 2270 
L 934 2783 
L 480 2783 
L 480 0 
L 954 0 
L 954 1369 
z
" transform="scale(0.015625)"/>
       <path id="CMSS17-69" d="M 979 4224 
L 442 4224 
L 442 3686 
L 979 3686 
L 979 4224 
z
M 947 2752 
L 474 2752 
L 474 0 
L 947 0 
L 947 2752 
z
" transform="scale(0.015625)"/>
       <path id="CMSS17-2f" d="M 2637 4575 
C 2669 4658 2669 4671 2669 4684 
C 2669 4761 2611 4800 2560 4800 
C 2483 4800 2458 4748 2432 4671 
L 365 -1376 
C 333 -1460 333 -1472 333 -1485 
C 333 -1562 390 -1600 442 -1600 
C 518 -1600 544 -1549 570 -1472 
L 2637 4575 
z
" transform="scale(0.015625)"/>
      </defs>
      <use xlink:href="#CMSS17-54" transform="scale(0.996264)"/>
      <use xlink:href="#CMSS17-68" transform="translate(63.819454 0)scale(0.996264)"/>
      <use xlink:href="#CMSS17-6f" transform="translate(112.024397 0)scale(0.996264)"/>
      <use xlink:href="#CMSS17-75" transform="translate(158.868021 0)scale(0.996264)"/>
      <use xlink:href="#CMSS17-73" transform="translate(207.072964 0)scale(0.996264)"/>
      <use xlink:href="#CMSS17-61" transform="translate(242.986506 0)scale(0.996264)"/>
      <use xlink:href="#CMSS17-6e" transform="translate(287.908426 0)scale(0.996264)"/>
      <use xlink:href="#CMSS17-64" transform="translate(336.113369 0)scale(0.996264)"/>
      <use xlink:href="#CMSS17-51" transform="translate(415.547425 0)scale(0.996264)"/>
      <use xlink:href="#CMSS17-75" transform="translate(484.571681 0)scale(0.996264)"/>
      <use xlink:href="#CMSS17-65" transform="translate(532.776624 0)scale(0.996264)"/>
      <use xlink:href="#CMSS17-72" transform="translate(574.415446 0)scale(0.996264)"/>
      <use xlink:href="#CMSS17-69" transform="translate(606.325218 0)scale(0.996264)"/>
      <use xlink:href="#CMSS17-65" transform="translate(628.505941 0)scale(0.996264)"/>
      <use xlink:href="#CMSS17-73" transform="translate(670.144764 0)scale(0.996264)"/>
      <use xlink:href="#CMSS17-2f" transform="translate(706.058306 0)scale(0.996264)"/>
      <use xlink:href="#CMSS17-73" transform="translate(752.901929 0)scale(0.996264)"/>
     </g>
    </g>
   </g>
   <g id="matplotlib.axis_2">
    <g id="ytick_1">
     <g id="line2d_7">
      <path d="M 31.791912 99.58254 
L 220.563062 99.58254 
" clip-path="url(#p446f6dd71f)" style="fill: none; stroke: #cccccc; stroke-width: 0.5; stroke-linecap: round"/>
     </g>
     <g id="text_8">
      <!-- $\mathdefault{0.0}$ -->
      <g style="fill: #262626" transform="translate(15.794941 102.522899)scale(0.085 -0.085)">
       <defs>
        <path id="CMR17-30" d="M 2688 2038 
C 2688 2430 2682 3099 2413 3613 
C 2176 4063 1798 4224 1466 4224 
C 1158 4224 768 4082 525 3620 
C 269 3137 243 2539 243 2038 
C 243 1671 250 1112 448 623 
C 723 -39 1216 -128 1466 -128 
C 1760 -128 2208 -7 2470 604 
C 2662 1048 2688 1568 2688 2038 
z
M 1466 -26 
C 1056 -26 813 328 723 816 
C 653 1196 653 1749 653 2109 
C 653 2604 653 3015 736 3407 
C 858 3954 1216 4121 1466 4121 
C 1728 4121 2067 3947 2189 3420 
C 2272 3054 2278 2623 2278 2109 
C 2278 1691 2278 1176 2202 797 
C 2067 96 1690 -26 1466 -26 
z
" transform="scale(0.015625)"/>
        <path id="CMMI12-3a" d="M 1178 307 
C 1178 492 1024 620 870 620 
C 685 620 557 467 557 313 
C 557 128 710 0 864 0 
C 1050 0 1178 153 1178 307 
z
" transform="scale(0.015625)"/>
       </defs>
       <use xlink:href="#CMR17-30" transform="scale(0.996264)"/>
       <use xlink:href="#CMMI12-3a" transform="translate(45.690477 0)scale(0.996264)"/>
       <use xlink:href="#CMR17-30" transform="translate(72.787654 0)scale(0.996264)"/>
      </g>
     </g>
    </g>
    <g id="ytick_2">
     <g id="line2d_8">
      <path d="M 31.791912 88.84452 
L 220.563062 88.84452 
" clip-path="url(#p446f6dd71f)" style="fill: none; stroke: #cccccc; stroke-width: 0.5; stroke-linecap: round"/>
     </g>
     <g id="text_9">
      <!-- $\mathdefault{0.2}$ -->
      <g style="fill: #262626" transform="translate(15.794941 91.784879)scale(0.085 -0.085)">
       <defs>
        <path id="CMR17-32" d="M 2669 990 
L 2554 990 
C 2490 537 2438 460 2413 422 
C 2381 371 1920 371 1830 371 
L 602 371 
C 832 620 1280 1073 1824 1596 
C 2214 1966 2669 2400 2669 3033 
C 2669 3788 2067 4224 1395 4224 
C 691 4224 262 3603 262 3027 
C 262 2777 448 2745 525 2745 
C 589 2745 781 2783 781 3007 
C 781 3206 614 3264 525 3264 
C 486 3264 448 3257 422 3244 
C 544 3788 915 4057 1306 4057 
C 1862 4057 2227 3616 2227 3033 
C 2227 2477 1901 1998 1536 1583 
L 262 147 
L 262 0 
L 2515 0 
L 2669 990 
z
" transform="scale(0.015625)"/>
       </defs>
       <use xlink:href="#CMR17-30" transform="scale(0.996264)"/>
       <use xlink:href="#CMMI12-3a" transform="translate(45.690477 0)scale(0.996264)"/>
       <use xlink:href="#CMR17-32" transform="translate(72.787654 0)scale(0.996264)"/>
      </g>
     </g>
    </g>
    <g id="ytick_3">
     <g id="line2d_9">
      <path d="M 31.791912 78.1065 
L 220.563062 78.1065 
" clip-path="url(#p446f6dd71f)" style="fill: none; stroke: #cccccc; stroke-width: 0.5; stroke-linecap: round"/>
     </g>
     <g id="text_10">
      <!-- $\mathdefault{0.4}$ -->
      <g style="fill: #262626" transform="translate(15.794941 81.046859)scale(0.085 -0.085)">
       <defs>
        <path id="CMR17-34" d="M 2150 4147 
C 2150 4281 2144 4288 2029 4288 
L 128 1254 
L 128 1088 
L 1779 1088 
L 1779 460 
C 1779 230 1766 166 1318 166 
L 1197 166 
L 1197 0 
C 1402 12 1747 12 1965 12 
C 2182 12 2528 12 2733 0 
L 2733 166 
L 2611 166 
C 2163 166 2150 230 2150 460 
L 2150 1088 
L 2803 1088 
L 2803 1254 
L 2150 1254 
L 2150 4147 
z
M 1798 3723 
L 1798 1254 
L 256 1254 
L 1798 3723 
z
" transform="scale(0.015625)"/>
       </defs>
       <use xlink:href="#CMR17-30" transform="scale(0.996264)"/>
       <use xlink:href="#CMMI12-3a" transform="translate(45.690477 0)scale(0.996264)"/>
       <use xlink:href="#CMR17-34" transform="translate(72.787654 0)scale(0.996264)"/>
      </g>
     </g>
    </g>
    <g id="ytick_4">
     <g id="line2d_10">
      <path d="M 31.791912 67.36848 
L 220.563062 67.36848 
" clip-path="url(#p446f6dd71f)" style="fill: none; stroke: #cccccc; stroke-width: 0.5; stroke-linecap: round"/>
     </g>
     <g id="text_11">
      <!-- $\mathdefault{0.6}$ -->
      <g style="fill: #262626" transform="translate(15.794941 70.308839)scale(0.085 -0.085)">
       <defs>
        <path id="CMR17-36" d="M 678 2198 
C 678 3712 1395 4076 1811 4076 
C 1946 4076 2272 4049 2400 3782 
C 2298 3782 2106 3782 2106 3558 
C 2106 3385 2246 3328 2336 3328 
C 2394 3328 2566 3353 2566 3571 
C 2566 3987 2246 4224 1805 4224 
C 1043 4224 243 3411 243 2011 
C 243 257 966 -128 1478 -128 
C 2099 -128 2688 431 2688 1295 
C 2688 2101 2170 2688 1517 2688 
C 1126 2688 838 2430 678 1979 
L 678 2198 
z
M 1478 25 
C 691 25 691 1212 691 1450 
C 691 1914 909 2585 1504 2585 
C 1613 2585 1926 2585 2138 2140 
C 2253 1889 2253 1624 2253 1302 
C 2253 954 2253 696 2118 438 
C 1978 173 1773 25 1478 25 
z
" transform="scale(0.015625)"/>
       </defs>
       <use xlink:href="#CMR17-30" transform="scale(0.996264)"/>
       <use xlink:href="#CMMI12-3a" transform="translate(45.690477 0)scale(0.996264)"/>
       <use xlink:href="#CMR17-36" transform="translate(72.787654 0)scale(0.996264)"/>
      </g>
     </g>
    </g>
    <g id="ytick_5">
     <g id="line2d_11">
      <path d="M 31.791912 56.63046 
L 220.563062 56.63046 
" clip-path="url(#p446f6dd71f)" style="fill: none; stroke: #cccccc; stroke-width: 0.5; stroke-linecap: round"/>
     </g>
     <g id="text_12">
      <!-- $\mathdefault{0.8}$ -->
      <g style="fill: #262626" transform="translate(15.794941 59.570819)scale(0.085 -0.085)">
       <defs>
        <path id="CMR17-38" d="M 1741 2289 
C 2144 2494 2554 2803 2554 3298 
C 2554 3884 1990 4224 1472 4224 
C 890 4224 378 3800 378 3215 
C 378 3054 416 2777 666 2533 
C 730 2469 998 2276 1171 2154 
C 883 2006 211 1652 211 945 
C 211 282 838 -128 1459 -128 
C 2144 -128 2720 366 2720 1022 
C 2720 1607 2330 1877 2074 2051 
L 1741 2289 
z
M 902 2855 
C 851 2887 595 3086 595 3388 
C 595 3781 998 4076 1459 4076 
C 1965 4076 2336 3716 2336 3298 
C 2336 2700 1670 2359 1638 2359 
C 1632 2359 1626 2359 1574 2398 
L 902 2855 
z
M 2080 1536 
C 2176 1466 2483 1253 2483 861 
C 2483 385 2010 25 1472 25 
C 890 25 448 443 448 951 
C 448 1459 838 1884 1280 2083 
L 2080 1536 
z
" transform="scale(0.015625)"/>
       </defs>
       <use xlink:href="#CMR17-30" transform="scale(0.996264)"/>
       <use xlink:href="#CMMI12-3a" transform="translate(45.690477 0)scale(0.996264)"/>
       <use xlink:href="#CMR17-38" transform="translate(72.787654 0)scale(0.996264)"/>
      </g>
     </g>
    </g>
    <g id="ytick_6">
     <g id="line2d_12">
      <path d="M 31.791912 45.89244 
L 220.563062 45.89244 
" clip-path="url(#p446f6dd71f)" style="fill: none; stroke: #cccccc; stroke-width: 0.5; stroke-linecap: round"/>
     </g>
     <g id="text_13">
      <!-- $\mathdefault{1.0}$ -->
      <g style="fill: #262626" transform="translate(15.794941 48.832799)scale(0.085 -0.085)">
       <defs>
        <path id="CMR17-31" d="M 1702 4083 
C 1702 4217 1696 4224 1606 4224 
C 1357 3927 979 3833 621 3820 
C 602 3820 570 3820 563 3808 
C 557 3795 557 3782 557 3648 
C 755 3648 1088 3686 1344 3839 
L 1344 467 
C 1344 243 1331 166 781 166 
L 589 166 
L 589 0 
C 896 6 1216 12 1523 12 
C 1830 12 2150 6 2458 0 
L 2458 166 
L 2266 166 
C 1715 166 1702 236 1702 467 
L 1702 4083 
z
" transform="scale(0.015625)"/>
       </defs>
       <use xlink:href="#CMR17-31" transform="scale(0.996264)"/>
       <use xlink:href="#CMMI12-3a" transform="translate(45.690477 0)scale(0.996264)"/>
       <use xlink:href="#CMR17-30" transform="translate(72.787654 0)scale(0.996264)"/>
      </g>
     </g>
    </g>
    <g id="ytick_7">
     <g id="line2d_13">
      <path d="M 31.791912 35.154419 
L 220.563062 35.154419 
" clip-path="url(#p446f6dd71f)" style="fill: none; stroke: #cccccc; stroke-width: 0.5; stroke-linecap: round"/>
     </g>
     <g id="text_14">
      <!-- $\mathdefault{1.2}$ -->
      <g style="fill: #262626" transform="translate(15.794941 38.094779)scale(0.085 -0.085)">
       <use xlink:href="#CMR17-31" transform="scale(0.996264)"/>
       <use xlink:href="#CMMI12-3a" transform="translate(45.690477 0)scale(0.996264)"/>
       <use xlink:href="#CMR17-32" transform="translate(72.787654 0)scale(0.996264)"/>
      </g>
     </g>
    </g>
    <g id="ytick_8">
     <g id="line2d_14">
      <path d="M 31.791912 24.416399 
L 220.563062 24.416399 
" clip-path="url(#p446f6dd71f)" style="fill: none; stroke: #cccccc; stroke-width: 0.5; stroke-linecap: round"/>
     </g>
     <g id="text_15">
      <!-- $\mathdefault{1.4}$ -->
      <g style="fill: #262626" transform="translate(15.794941 27.356758)scale(0.085 -0.085)">
       <use xlink:href="#CMR17-31" transform="scale(0.996264)"/>
       <use xlink:href="#CMMI12-3a" transform="translate(45.690477 0)scale(0.996264)"/>
       <use xlink:href="#CMR17-34" transform="translate(72.787654 0)scale(0.996264)"/>
      </g>
     </g>
    </g>
    <g id="ytick_9">
     <g id="line2d_15">
      <path d="M 31.791912 13.678379 
L 220.563062 13.678379 
" clip-path="url(#p446f6dd71f)" style="fill: none; stroke: #cccccc; stroke-width: 0.5; stroke-linecap: round"/>
     </g>
     <g id="text_16">
      <!-- $\mathdefault{1.6}$ -->
      <g style="fill: #262626" transform="translate(15.794941 16.618738)scale(0.085 -0.085)">
       <use xlink:href="#CMR17-31" transform="scale(0.996264)"/>
       <use xlink:href="#CMMI12-3a" transform="translate(45.690477 0)scale(0.996264)"/>
       <use xlink:href="#CMR17-36" transform="translate(72.787654 0)scale(0.996264)"/>
      </g>
     </g>
    </g>
    <g id="ytick_10">
     <g id="line2d_16">
      <path d="M 31.791912 2.940359 
L 220.563062 2.940359 
" clip-path="url(#p446f6dd71f)" style="fill: none; stroke: #cccccc; stroke-width: 0.5; stroke-linecap: round"/>
     </g>
     <g id="text_17">
      <!-- $\mathdefault{1.8}$ -->
      <g style="fill: #262626" transform="translate(15.794941 5.880718)scale(0.085 -0.085)">
       <use xlink:href="#CMR17-31" transform="scale(0.996264)"/>
       <use xlink:href="#CMMI12-3a" transform="translate(45.690477 0)scale(0.996264)"/>
       <use xlink:href="#CMR17-38" transform="translate(72.787654 0)scale(0.996264)"/>
      </g>
     </g>
    </g>
    <g id="text_18">
     <!-- Latency/query (ms) -->
     <g style="fill: #262626" transform="translate(7.845579 99.607543)rotate(-90)scale(0.105 -0.105)">
      <defs>
       <path id="CMSS17-4c" d="M 1670 416 
C 1594 416 1517 409 1440 409 
L 1101 409 
L 1101 4416 
L 563 4416 
L 563 0 
L 3002 0 
L 3002 416 
L 1670 416 
z
" transform="scale(0.015625)"/>
       <path id="CMSS17-74" d="M 1069 2380 
L 1901 2380 
L 1901 2752 
L 1069 2752 
L 1069 3520 
L 614 3520 
L 614 2752 
L 109 2752 
L 109 2380 
L 602 2380 
L 602 751 
C 602 384 685 -64 1107 -64 
C 1427 -64 1722 25 2003 172 
L 1901 551 
C 1747 416 1562 339 1363 339 
C 1082 339 1069 699 1069 860 
L 1069 2380 
z
" transform="scale(0.015625)"/>
       <path id="CMSS17-63" d="M 2464 2540 
C 2464 2585 2170 2713 2093 2739 
C 1882 2816 1613 2816 1542 2816 
C 710 2816 211 2092 211 1363 
C 211 595 768 -64 1517 -64 
C 1946 -64 2253 76 2502 243 
L 2464 665 
C 2189 454 1869 339 1523 339 
C 1024 339 698 774 698 1369 
C 698 1830 909 2412 1549 2412 
C 1901 2412 2099 2342 2394 2143 
L 2464 2540 
z
" transform="scale(0.015625)"/>
       <path id="CMSS17-79" d="M 2675 2752 
L 2176 2752 
C 1632 1293 1446 701 1434 383 
L 1427 383 
C 1408 695 1126 1459 902 2006 
L 602 2752 
L 83 2752 
L 1216 14 
C 1146 -177 1043 -464 1011 -527 
C 870 -884 774 -884 672 -884 
C 646 -884 442 -877 211 -807 
L 250 -1229 
C 410 -1261 570 -1280 685 -1280 
C 845 -1280 1165 -1280 1459 -495 
L 2675 2752 
z
" transform="scale(0.015625)"/>
       <path id="CMSS17-71" d="M 2611 2816 
L 2138 2816 
L 2138 2425 
C 2112 2457 1818 2816 1318 2816 
C 736 2816 211 2218 211 1369 
C 211 585 653 -64 1229 -64 
C 1498 -64 1837 32 2125 307 
L 2125 -1280 
L 2611 -1280 
L 2611 2816 
z
M 2138 870 
C 2138 786 2138 669 1939 501 
C 1888 456 1747 326 1504 326 
C 1050 326 698 805 698 1369 
C 698 1998 1126 2412 1562 2412 
C 1926 2412 2138 2049 2138 1777 
L 2138 870 
z
" transform="scale(0.015625)"/>
       <path id="CMSS17-28" d="M 1613 4800 
C 1267 4447 474 3627 474 1603 
C 474 -428 1267 -1242 1613 -1600 
L 2003 -1600 
C 1216 -781 960 366 960 1596 
C 960 2820 1203 3973 2003 4800 
L 1613 4800 
z
" transform="scale(0.015625)"/>
       <path id="CMSS17-6d" d="M 4288 1878 
C 4288 2309 4179 2816 3462 2816 
C 2982 2816 2694 2515 2566 2328 
C 2451 2668 2182 2816 1798 2816 
C 1363 2816 1088 2566 941 2386 
L 941 2783 
L 474 2783 
L 474 0 
L 960 0 
L 960 1556 
C 960 1936 1101 2425 1555 2425 
C 2138 2425 2138 2013 2138 1826 
L 2138 0 
L 2624 0 
L 2624 1556 
C 2624 1936 2765 2425 3219 2425 
C 3802 2425 3802 2013 3802 1826 
L 3802 0 
L 4288 0 
L 4288 1878 
z
" transform="scale(0.015625)"/>
       <path id="CMSS17-29" d="M 723 -1600 
C 1069 -1248 1862 -428 1862 1596 
C 1862 3627 1069 4440 723 4800 
L 333 4800 
C 1120 3979 1376 2833 1376 1603 
C 1376 379 1133 -774 333 -1600 
L 723 -1600 
z
" transform="scale(0.015625)"/>
      </defs>
      <use xlink:href="#CMSS17-4c" transform="scale(0.996264)"/>
      <use xlink:href="#CMSS17-61" transform="translate(50.687105 0)scale(0.996264)"/>
      <use xlink:href="#CMSS17-74" transform="translate(95.609026 0)scale(0.996264)"/>
      <use xlink:href="#CMSS17-65" transform="translate(129.440593 0)scale(0.996264)"/>
      <use xlink:href="#CMSS17-6e" transform="translate(171.079415 0)scale(0.996264)"/>
      <use xlink:href="#CMSS17-63" transform="translate(219.284358 0)scale(0.996264)"/>
      <use xlink:href="#CMSS17-79" transform="translate(260.92318 0)scale(0.996264)"/>
      <use xlink:href="#CMSS17-2f" transform="translate(303.923322 0)scale(0.996264)"/>
      <use xlink:href="#CMSS17-71" transform="translate(350.766945 0)scale(0.996264)"/>
      <use xlink:href="#CMSS17-75" transform="translate(398.971888 0)scale(0.996264)"/>
      <use xlink:href="#CMSS17-65" transform="translate(447.176831 0)scale(0.996264)"/>
      <use xlink:href="#CMSS17-72" transform="translate(488.815653 0)scale(0.996264)"/>
      <use xlink:href="#CMSS17-79" transform="translate(520.725426 0)scale(0.996264)"/>
      <use xlink:href="#CMSS17-28" transform="translate(594.95468 0)scale(0.996264)"/>
      <use xlink:href="#CMSS17-6d" transform="translate(631.388595 0)scale(0.996264)"/>
      <use xlink:href="#CMSS17-73" transform="translate(705.617849 0)scale(0.996264)"/>
      <use xlink:href="#CMSS17-29" transform="translate(741.531391 0)scale(0.996264)"/>
     </g>
    </g>
   </g>
   <g id="PolyCollection_1"/>
   <g id="PolyCollection_2"/>
   <g id="PolyCollection_3"/>
   <g id="line2d_17">
    <path d="M 62.470197 91.343975 
L 90.665895 90.996397 
L 114.819738 90.451312 
L 133.501833 89.642463 
L 149.100237 86.646283 
L 164.080841 84.287375 
L 174.870043 81.902389 
L 185.455588 79.824389 
L 195.6495 77.960492 
L 204.369314 76.120638 
L 204.470297 73.201451 
L 205.348403 70.413229 
L 211.289576 65.735004 
L 215.136847 55.387828 
L 212.999886 43.682255 
" clip-path="url(#p446f6dd71f)" style="fill: none; stroke: #4c72b0; stroke-width: 1.5; stroke-linecap: round"/>
    <defs>
     <path id="m3c6c2ba26a" d="M 0 3 
C 0.795609 3 1.55874 2.683901 2.12132 2.12132 
C 2.683901 1.55874 3 0.795609 3 0 
C 3 -0.795609 2.683901 -1.55874 2.12132 -2.12132 
C 1.55874 -2.683901 0.795609 -3 0 -3 
C -0.795609 -3 -1.55874 -2.683901 -2.12132 -2.12132 
C -2.683901 -1.55874 -3 -0.795609 -3 0 
C -3 0.795609 -2.683901 1.55874 -2.12132 2.12132 
C -1.55874 2.683901 -0.795609 3 0 3 
z
" style="stroke: #ffffff; stroke-width: 0.4"/>
    </defs>
    <g clip-path="url(#p446f6dd71f)">
     <use xlink:href="#m3c6c2ba26a" x="62.470197" y="91.343975" style="fill: #4c72b0; stroke: #ffffff; stroke-width: 0.4"/>
     <use xlink:href="#m3c6c2ba26a" x="90.665895" y="90.996397" style="fill: #4c72b0; stroke: #ffffff; stroke-width: 0.4"/>
     <use xlink:href="#m3c6c2ba26a" x="114.819738" y="90.451312" style="fill: #4c72b0; stroke: #ffffff; stroke-width: 0.4"/>
     <use xlink:href="#m3c6c2ba26a" x="133.501833" y="89.642463" style="fill: #4c72b0; stroke: #ffffff; stroke-width: 0.4"/>
     <use xlink:href="#m3c6c2ba26a" x="149.100237" y="86.646283" style="fill: #4c72b0; stroke: #ffffff; stroke-width: 0.4"/>
     <use xlink:href="#m3c6c2ba26a" x="164.080841" y="84.287375" style="fill: #4c72b0; stroke: #ffffff; stroke-width: 0.4"/>
     <use xlink:href="#m3c6c2ba26a" x="174.870043" y="81.902389" style="fill: #4c72b0; stroke: #ffffff; stroke-width: 0.4"/>
     <use xlink:href="#m3c6c2ba26a" x="185.455588" y="79.824389" style="fill: #4c72b0; stroke: #ffffff; stroke-width: 0.4"/>
     <use xlink:href="#m3c6c2ba26a" x="195.6495" y="77.960492" style="fill: #4c72b0; stroke: #ffffff; stroke-width: 0.4"/>
     <use xlink:href="#m3c6c2ba26a" x="204.369314" y="76.120638" style="fill: #4c72b0; stroke: #ffffff; stroke-width: 0.4"/>
     <use xlink:href="#m3c6c2ba26a" x="204.470297" y="73.201451" style="fill: #4c72b0; stroke: #ffffff; stroke-width: 0.4"/>
     <use xlink:href="#m3c6c2ba26a" x="205.348403" y="70.413229" style="fill: #4c72b0; stroke: #ffffff; stroke-width: 0.4"/>
     <use xlink:href="#m3c6c2ba26a" x="211.289576" y="65.735004" style="fill: #4c72b0; stroke: #ffffff; stroke-width: 0.4"/>
     <use xlink:href="#m3c6c2ba26a" x="215.136847" y="55.387828" style="fill: #4c72b0; stroke: #ffffff; stroke-width: 0.4"/>
     <use xlink:href="#m3c6c2ba26a" x="212.999886" y="43.682255" style="fill: #4c72b0; stroke: #ffffff; stroke-width: 0.4"/>
    </g>
   </g>
   <g id="line2d_18">
    <path d="M 37.1109 75.781563 
L 42.01521 74.818819 
L 46.318463 73.434352 
L 49.280736 70.626798 
L 50.656442 66.023805 
L 52.929382 63.642937 
L 56.392008 58.406564 
L 54.569365 43.985671 
L 55.766623 36.19095 
L 58.163769 32.351808 
L 57.092722 9.466801 
" clip-path="url(#p446f6dd71f)" style="fill: none; stroke: #dd8452; stroke-width: 1.5; stroke-linecap: round"/>
    <defs>
     <path id="m2a6482ce84" d="M -1.5 3 
L 0 1.5 
L 1.5 3 
L 3 1.5 
L 1.5 0 
L 3 -1.5 
L 1.5 -3 
L 0 -1.5 
L -1.5 -3 
L -3 -1.5 
L -1.5 0 
L -3 1.5 
z
" style="stroke: #ffffff; stroke-width: 0.4; stroke-linejoin: miter"/>
    </defs>
    <g clip-path="url(#p446f6dd71f)">
     <use xlink:href="#m2a6482ce84" x="37.1109" y="75.781563" style="fill: #dd8452; stroke: #ffffff; stroke-width: 0.4; stroke-linejoin: miter"/>
     <use xlink:href="#m2a6482ce84" x="42.01521" y="74.818819" style="fill: #dd8452; stroke: #ffffff; stroke-width: 0.4; stroke-linejoin: miter"/>
     <use xlink:href="#m2a6482ce84" x="46.318463" y="73.434352" style="fill: #dd8452; stroke: #ffffff; stroke-width: 0.4; stroke-linejoin: miter"/>
     <use xlink:href="#m2a6482ce84" x="49.280736" y="70.626798" style="fill: #dd8452; stroke: #ffffff; stroke-width: 0.4; stroke-linejoin: miter"/>
     <use xlink:href="#m2a6482ce84" x="50.656442" y="66.023805" style="fill: #dd8452; stroke: #ffffff; stroke-width: 0.4; stroke-linejoin: miter"/>
     <use xlink:href="#m2a6482ce84" x="52.929382" y="63.642937" style="fill: #dd8452; stroke: #ffffff; stroke-width: 0.4; stroke-linejoin: miter"/>
     <use xlink:href="#m2a6482ce84" x="56.392008" y="58.406564" style="fill: #dd8452; stroke: #ffffff; stroke-width: 0.4; stroke-linejoin: miter"/>
     <use xlink:href="#m2a6482ce84" x="54.569365" y="43.985671" style="fill: #dd8452; stroke: #ffffff; stroke-width: 0.4; stroke-linejoin: miter"/>
     <use xlink:href="#m2a6482ce84" x="55.766623" y="36.19095" style="fill: #dd8452; stroke: #ffffff; stroke-width: 0.4; stroke-linejoin: miter"/>
     <use xlink:href="#m2a6482ce84" x="58.163769" y="32.351808" style="fill: #dd8452; stroke: #ffffff; stroke-width: 0.4; stroke-linejoin: miter"/>
     <use xlink:href="#m2a6482ce84" x="57.092722" y="9.466801" style="fill: #dd8452; stroke: #ffffff; stroke-width: 0.4; stroke-linejoin: miter"/>
    </g>
   </g>
   <g id="line2d_19">
    <path d="M 47.152215 91.35007 
L 55.168242 88.764514 
L 59.553629 85.914222 
L 65.960494 84.773159 
L 68.88987 82.52979 
L 69.263777 79.316529 
L 68.832881 72.243409 
L 70.201063 60.024982 
" clip-path="url(#p446f6dd71f)" style="fill: none; stroke: #55a868; stroke-width: 1.5; stroke-linecap: round"/>
    <defs>
     <path id="m1e235fbf87" d="M -2.12132 -2.12132 
L -2.12132 2.12132 
L 2.12132 2.12132 
L 2.12132 -2.12132 
z
" style="stroke: #ffffff; stroke-width: 0.4; stroke-linejoin: miter"/>
    </defs>
    <g clip-path="url(#p446f6dd71f)">
     <use xlink:href="#m1e235fbf87" x="47.152215" y="91.35007" style="fill: #55a868; stroke: #ffffff; stroke-width: 0.4; stroke-linejoin: miter"/>
     <use xlink:href="#m1e235fbf87" x="55.168242" y="88.764514" style="fill: #55a868; stroke: #ffffff; stroke-width: 0.4; stroke-linejoin: miter"/>
     <use xlink:href="#m1e235fbf87" x="59.553629" y="85.914222" style="fill: #55a868; stroke: #ffffff; stroke-width: 0.4; stroke-linejoin: miter"/>
     <use xlink:href="#m1e235fbf87" x="65.960494" y="84.773159" style="fill: #55a868; stroke: #ffffff; stroke-width: 0.4; stroke-linejoin: miter"/>
     <use xlink:href="#m1e235fbf87" x="68.88987" y="82.52979" style="fill: #55a868; stroke: #ffffff; stroke-width: 0.4; stroke-linejoin: miter"/>
     <use xlink:href="#m1e235fbf87" x="69.263777" y="79.316529" style="fill: #55a868; stroke: #ffffff; stroke-width: 0.4; stroke-linejoin: miter"/>
     <use xlink:href="#m1e235fbf87" x="68.832881" y="72.243409" style="fill: #55a868; stroke: #ffffff; stroke-width: 0.4; stroke-linejoin: miter"/>
     <use xlink:href="#m1e235fbf87" x="70.201063" y="60.024982" style="fill: #55a868; stroke: #ffffff; stroke-width: 0.4; stroke-linejoin: miter"/>
    </g>
   </g>
   <g id="line2d_20"/>
   <g id="line2d_21"/>
   <g id="line2d_22"/>
   <g id="patch_3">
    <path d="M 31.791912 99.58254 
L 31.791912 2.940359 
" style="fill: none; stroke: #cccccc; stroke-width: 0.5; stroke-linejoin: miter; stroke-linecap: square"/>
   </g>
   <g id="patch_4">
    <path d="M 31.791912 99.58254 
L 220.563062 99.58254 
" style="fill: none; stroke: #cccccc; stroke-width: 0.5; stroke-linejoin: miter; stroke-linecap: square"/>
   </g>
  </g>
  <g id="legend_1">
   <g id="patch_5">
    <path d="M 133.03067 39.447545 
L 206.733337 39.447545 
Q 208.433337 39.447545 208.433337 37.747545 
L 208.433337 4.757756 
Q 208.433337 3.057756 206.733337 3.057756 
L 133.03067 3.057756 
Q 131.33067 3.057756 131.33067 4.757756 
L 131.33067 37.747545 
Q 131.33067 39.447545 133.03067 39.447545 
z
" style="fill: #ffffff; opacity: 0.8; stroke: #cccccc; stroke-linejoin: miter"/>
   </g>
   <g id="line2d_23">
    <path d="M 134.30567 9.007756 
L 141.74317 9.007756 
L 149.18067 9.007756 
" style="fill: none; stroke: #4c72b0; stroke-width: 1.5; stroke-linecap: round"/>
    <defs>
     <path id="m122a23abec" d="M 0 2.25 
C 0.596707 2.25 1.169055 2.012926 1.59099 1.59099 
C 2.012926 1.169055 2.25 0.596707 2.25 0 
C 2.25 -0.596707 2.012926 -1.169055 1.59099 -1.59099 
C 1.169055 -2.012926 0.596707 -2.25 0 -2.25 
C -0.596707 -2.25 -1.169055 -2.012926 -1.59099 -1.59099 
C -2.012926 -1.169055 -2.25 -0.596707 -2.25 0 
C -2.25 0.596707 -2.012926 1.169055 -1.59099 1.59099 
C -1.169055 2.012926 -0.596707 2.25 0 2.25 
z
" style="stroke: #4c72b0"/>
    </defs>
    <g>
     <use xlink:href="#m122a23abec" x="141.74317" y="9.007756" style="fill: #4c72b0; stroke: #4c72b0"/>
    </g>
   </g>
   <g id="text_19">
    <!-- PotionDB 9Q -->
    <g style="fill: #262626" transform="translate(154.28067 11.982756)scale(0.085 -0.085)">
     <defs>
      <path id="CMSS17-50" d="M 2106 1856 
C 2874 1856 3501 2447 3501 3139 
C 3501 3818 2899 4416 2067 4416 
L 570 4416 
L 570 0 
L 1107 0 
L 1107 1856 
L 2106 1856 
z
M 1926 4057 
C 2669 4057 2995 3598 2995 3139 
C 2995 2711 2694 2227 1926 2227 
L 1094 2227 
L 1094 4057 
L 1926 4057 
z
" transform="scale(0.015625)"/>
      <path id="CMSS17-44" d="M 570 4416 
L 570 0 
L 2144 0 
C 3194 0 4000 981 4000 2169 
C 4000 3396 3194 4416 2144 4416 
L 570 4416 
z
M 1094 358 
L 1094 4057 
L 2003 4057 
C 2861 4057 3475 3275 3475 2169 
C 3475 1108 2867 358 2003 358 
L 1094 358 
z
" transform="scale(0.015625)"/>
      <path id="CMSS17-42" d="M 570 4416 
L 570 0 
L 2163 0 
C 3034 0 3667 575 3667 1200 
C 3667 1684 3251 2175 2502 2316 
C 3334 2559 3501 3039 3501 3311 
C 3501 3880 2874 4416 1997 4416 
L 570 4416 
z
M 1088 2496 
L 1088 4057 
L 1824 4057 
C 2483 4057 3002 3722 3002 3305 
C 3002 2925 2592 2496 1766 2496 
L 1088 2496 
z
M 1088 358 
L 1088 2105 
L 1939 2105 
C 2630 2105 3162 1678 3162 1206 
C 3162 772 2694 358 1984 358 
L 1088 358 
z
" transform="scale(0.015625)"/>
     </defs>
     <use xlink:href="#CMSS17-50" transform="scale(0.996264)"/>
     <use xlink:href="#CMSS17-6f" transform="translate(57.133132 0)scale(0.996264)"/>
     <use xlink:href="#CMSS17-74" transform="translate(103.976756 0)scale(0.996264)"/>
     <use xlink:href="#CMSS17-69" transform="translate(137.808323 0)scale(0.996264)"/>
     <use xlink:href="#CMSS17-6f" transform="translate(159.989046 0)scale(0.996264)"/>
     <use xlink:href="#CMSS17-6e" transform="translate(206.832669 0)scale(0.996264)"/>
     <use xlink:href="#CMSS17-44" transform="translate(255.037612 0)scale(0.996264)"/>
     <use xlink:href="#CMSS17-42" transform="translate(322.580454 0)scale(0.996264)"/>
     <use xlink:href="#CMSS17-39" transform="translate(416.147607 0)scale(0.996264)"/>
     <use xlink:href="#CMSS17-51" transform="translate(462.99123 0)scale(0.996264)"/>
    </g>
   </g>
   <g id="line2d_24">
    <path d="M 134.30567 20.429352 
L 141.74317 20.429352 
L 149.18067 20.429352 
" style="fill: none; stroke: #dd8452; stroke-width: 1.5; stroke-linecap: round"/>
    <defs>
     <path id="m2d40eb6fdd" d="M -1.125 2.25 
L 0 1.125 
L 1.125 2.25 
L 2.25 1.125 
L 1.125 0 
L 2.25 -1.125 
L 1.125 -2.25 
L 0 -1.125 
L -1.125 -2.25 
L -2.25 -1.125 
L -1.125 0 
L -2.25 1.125 
z
" style="stroke: #dd8452; stroke-linejoin: miter"/>
    </defs>
    <g>
     <use xlink:href="#m2d40eb6fdd" x="141.74317" y="20.429352" style="fill: #dd8452; stroke: #dd8452; stroke-linejoin: miter"/>
    </g>
   </g>
   <g id="text_20">
    <!-- Local 9Q -->
    <g style="fill: #262626" transform="translate(154.28067 23.404352)scale(0.085 -0.085)">
     <defs>
      <path id="CMSS17-6c" d="M 947 4416 
L 474 4416 
L 474 0 
L 947 0 
L 947 4416 
z
" transform="scale(0.015625)"/>
     </defs>
     <use xlink:href="#CMSS17-4c" transform="scale(0.996264)"/>
     <use xlink:href="#CMSS17-6f" transform="translate(50.687105 0)scale(0.996264)"/>
     <use xlink:href="#CMSS17-63" transform="translate(100.133168 0)scale(0.996264)"/>
     <use xlink:href="#CMSS17-61" transform="translate(141.77199 0)scale(0.996264)"/>
     <use xlink:href="#CMSS17-6c" transform="translate(186.69391 0)scale(0.996264)"/>
     <use xlink:href="#CMSS17-39" transform="translate(240.103746 0)scale(0.996264)"/>
     <use xlink:href="#CMSS17-51" transform="translate(286.94737 0)scale(0.996264)"/>
    </g>
   </g>
   <g id="line2d_25">
    <path d="M 134.30567 31.850949 
L 141.74317 31.850949 
L 149.18067 31.850949 
" style="fill: none; stroke: #55a868; stroke-width: 1.5; stroke-linecap: round"/>
    <defs>
     <path id="m2c140544f8" d="M -1.59099 -1.59099 
L -1.59099 1.59099 
L 1.59099 1.59099 
L 1.59099 -1.59099 
z
" style="stroke: #55a868; stroke-linejoin: miter"/>
    </defs>
    <g>
     <use xlink:href="#m2c140544f8" x="141.74317" y="31.850949" style="fill: #55a868; stroke: #55a868; stroke-linejoin: miter"/>
    </g>
   </g>
   <g id="text_21">
    <!-- Single 9Q -->
    <g style="fill: #262626" transform="translate(154.28067 34.825949)scale(0.085 -0.085)">
     <defs>
      <path id="CMSS17-53" d="M 2797 4230 
C 2515 4396 2208 4544 1690 4544 
C 864 4544 333 3934 333 3309 
C 333 3064 403 2787 653 2504 
C 902 2220 1184 2143 1542 2053 
C 1690 2014 1939 1943 1984 1924 
C 2342 1782 2515 1454 2515 1144 
C 2515 738 2202 307 1645 307 
C 1453 307 890 339 358 829 
L 269 320 
C 794 -64 1363 -128 1651 -128 
C 2438 -128 3002 494 3002 1202 
C 3002 1460 2925 1789 2656 2092 
C 2394 2381 2163 2446 1638 2588 
C 1338 2665 1146 2717 986 2916 
C 877 3058 819 3193 819 3367 
C 819 3728 1126 4121 1690 4121 
C 1971 4121 2336 4063 2707 3715 
L 2797 4230 
z
" transform="scale(0.015625)"/>
      <path id="CMSS17-67" d="M 2848 2816 
C 2483 2809 2170 2739 1914 2617 
C 1702 2783 1485 2816 1338 2816 
C 781 2816 358 2356 358 1824 
C 358 1481 550 1222 563 1209 
C 448 1049 384 876 384 684 
C 384 460 474 300 544 211 
C 211 6 166 -308 166 -429 
C 166 -896 749 -1280 1498 -1280 
C 2253 -1280 2835 -896 2835 -423 
C 2835 460 1856 467 1587 467 
L 1069 467 
C 973 467 717 467 717 793 
C 717 921 774 1004 781 1011 
C 877 940 1075 832 1338 832 
C 1869 832 2310 1279 2310 1824 
C 2310 2128 2170 2349 2112 2425 
L 2131 2425 
C 2150 2425 2419 2444 2515 2444 
C 2720 2444 2739 2438 2918 2419 
L 2848 2816 
z
M 1338 1184 
C 1120 1184 813 1317 813 1824 
C 813 2375 1165 2463 1331 2463 
C 1549 2463 1856 2330 1856 1824 
C 1856 1272 1504 1184 1338 1184 
z
M 1581 0 
C 1734 0 2381 0 2381 -436 
C 2381 -711 1984 -928 1504 -928 
C 1018 -928 621 -717 621 -429 
C 621 -397 621 0 1062 0 
L 1581 0 
z
" transform="scale(0.015625)"/>
     </defs>
     <use xlink:href="#CMSS17-53" transform="scale(0.996264)"/>
     <use xlink:href="#CMSS17-69" transform="translate(52.048516 0)scale(0.996264)"/>
     <use xlink:href="#CMSS17-6e" transform="translate(74.229239 0)scale(0.996264)"/>
     <use xlink:href="#CMSS17-67" transform="translate(122.434182 0)scale(0.996264)"/>
     <use xlink:href="#CMSS17-6c" transform="translate(169.277806 0)scale(0.996264)"/>
     <use xlink:href="#CMSS17-65" transform="translate(191.458529 0)scale(0.996264)"/>
     <use xlink:href="#CMSS17-39" transform="translate(264.326464 0)scale(0.996264)"/>
     <use xlink:href="#CMSS17-51" transform="translate(311.170087 0)scale(0.996264)"/>
    </g>
   </g>
  </g>
 </g>
 <defs>
  <clipPath id="p446f6dd71f">
   <rect x="31.791912" y="2.940359" width="188.77115" height="96.642181"/>
  </clipPath>
 </defs>
</svg>
