<svg width="1389" height="867" xmlns="http://www.w3.org/2000/svg" xmlns:xlink="http://www.w3.org/1999/xlink" overflow="hidden"><defs><clipPath id="clip0"><rect x="297" y="68" width="1389" height="867"/></clipPath><clipPath id="clip1"><rect x="299" y="73" width="1386" height="861"/></clipPath><clipPath id="clip2"><rect x="299" y="73" width="1386" height="861"/></clipPath><clipPath id="clip3"><rect x="299" y="73" width="1386" height="861"/></clipPath><clipPath id="clip4"><rect x="299" y="73" width="1386" height="861"/></clipPath><clipPath id="clip5"><rect x="485" y="107" width="1102" height="701"/></clipPath><clipPath id="clip6"><rect x="299" y="73" width="1386" height="861"/></clipPath><clipPath id="clip7"><rect x="485" y="107" width="1102" height="701"/></clipPath><clipPath id="clip8"><rect x="299" y="73" width="1386" height="861"/></clipPath><clipPath id="clip9"><rect x="485" y="107" width="1102" height="701"/></clipPath><clipPath id="clip10"><rect x="299" y="73" width="1386" height="861"/></clipPath><clipPath id="clip11"><rect x="485" y="107" width="1102" height="701"/></clipPath><clipPath id="clip12"><rect x="299" y="73" width="1386" height="861"/></clipPath><clipPath id="clip13"><rect x="485" y="107" width="1102" height="701"/></clipPath><clipPath id="clip14"><rect x="299" y="73" width="1386" height="861"/></clipPath><clipPath id="clip15"><rect x="485" y="107" width="1102" height="701"/></clipPath><clipPath id="clip16"><rect x="299" y="73" width="1386" height="861"/></clipPath><clipPath id="clip17"><rect x="299" y="73" width="1386" height="861"/></clipPath><clipPath id="clip18"><rect x="299" y="73" width="1386" height="861"/></clipPath><clipPath id="clip19"><rect x="299" y="73" width="1386" height="861"/></clipPath><clipPath id="clip20"><rect x="299" y="73" width="1386" height="861"/></clipPath><clipPath id="clip21"><rect x="299" y="73" width="1386" height="861"/></clipPath><clipPath id="clip22"><rect x="299" y="73" width="1386" height="861"/></clipPath><clipPath id="clip23"><rect x="299" y="73" width="1386" height="861"/></clipPath><clipPath id="clip24"><rect x="299" y="73" width="1386" height="861"/></clipPath><clipPath id="clip25"><rect x="299" y="73" width="1386" height="861"/></clipPath><clipPath id="clip26"><rect x="299" y="73" width="1386" height="861"/></clipPath><clipPath id="clip27"><rect x="299" y="73" width="1386" height="861"/></clipPath><clipPath id="clip28"><rect x="299" y="73" width="1386" height="861"/></clipPath><clipPath id="clip29"><rect x="299" y="73" width="1386" height="861"/></clipPath><clipPath id="clip30"><rect x="299" y="73" width="1386" height="861"/></clipPath><clipPath id="clip31"><rect x="299" y="73" width="1386" height="861"/></clipPath><clipPath id="clip32"><rect x="299" y="73" width="1386" height="861"/></clipPath><clipPath id="clip33"><rect x="299" y="73" width="1386" height="861"/></clipPath><clipPath id="clip34"><rect x="299" y="73" width="1386" height="861"/></clipPath><clipPath id="clip35"><rect x="299" y="73" width="1386" height="861"/></clipPath><clipPath id="clip36"><rect x="299" y="73" width="1386" height="861"/></clipPath><clipPath id="clip37"><rect x="299" y="73" width="1386" height="861"/></clipPath><clipPath id="clip38"><rect x="299" y="73" width="1386" height="861"/></clipPath><clipPath id="clip39"><rect x="299" y="73" width="1386" height="861"/></clipPath><clipPath id="clip40"><rect x="299" y="73" width="1386" height="861"/></clipPath><clipPath id="clip41"><rect x="299" y="73" width="1386" height="861"/></clipPath><clipPath id="clip42"><rect x="299" y="73" width="1386" height="861"/></clipPath><clipPath id="clip43"><rect x="299" y="73" width="1386" height="861"/></clipPath><clipPath id="clip44"><rect x="299" y="73" width="1386" height="861"/></clipPath><clipPath id="clip45"><rect x="299" y="73" width="1386" height="861"/></clipPath><clipPath id="clip46"><rect x="299" y="73" width="1386" height="861"/></clipPath><clipPath id="clip47"><rect x="299" y="73" width="1386" height="861"/></clipPath><clipPath id="clip48"><rect x="299" y="73" width="1386" height="861"/></clipPath><clipPath id="clip49"><rect x="299" y="73" width="1386" height="861"/></clipPath><clipPath id="clip50"><rect x="299" y="73" width="1386" height="861"/></clipPath><clipPath id="clip51"><rect x="299" y="73" width="1386" height="861"/></clipPath><clipPath id="clip52"><rect x="299" y="73" width="1386" height="861"/></clipPath><clipPath id="clip53"><rect x="299" y="73" width="1386" height="861"/></clipPath><clipPath id="clip54"><rect x="299" y="73" width="1386" height="861"/></clipPath></defs><g clip-path="url(#clip0)" transform="translate(-297 -68)"><rect x="299" y="72.9999" width="1386" height="861" fill="#FFFFFF" fill-opacity="1"/><g clip-path="url(#clip1)"><path d="M485.5 735.524 1584.5 735.524M485.5 665.522 1584.5 665.522M485.5 595.52 1584.5 595.52M485.5 526.517 1584.5 526.517M485.5 456.515 1584.5 456.515M485.5 386.513 1584.5 386.513M485.5 317.511 1584.5 317.511M485.5 247.508 1584.5 247.508M485.5 177.506 1584.5 177.506M485.5 107.5 1584.5 107.5" stroke="#D9D9D9" stroke-width="3.4375" stroke-linecap="butt" stroke-linejoin="round" stroke-miterlimit="10" stroke-opacity="1" fill="none" fill-rule="evenodd"/></g><g clip-path="url(#clip2)"><path d="M704.523 107.5 704.523 805.5M924.531 107.5 924.531 805.5M1144.54 107.5 1144.54 805.5M1364.54 107.5 1364.54 805.5M1584.5 107.5 1584.5 805.5" stroke="#D9D9D9" stroke-width="3.4375" stroke-linecap="butt" stroke-linejoin="round" stroke-miterlimit="10" stroke-opacity="1" fill="none" fill-rule="evenodd"/></g><g clip-path="url(#clip3)"><path d="M0 0 0.000360892 698" stroke="#BFBFBF" stroke-width="3.4375" stroke-linecap="butt" stroke-linejoin="round" stroke-miterlimit="10" stroke-opacity="1" fill="none" fill-rule="evenodd" transform="matrix(1 0 0 -1 485.5 805.5)"/></g><g clip-path="url(#clip4)"><path d="M485.5 805.5 1584.5 805.5" stroke="#BFBFBF" stroke-width="3.4375" stroke-linecap="butt" stroke-linejoin="round" stroke-miterlimit="10" stroke-opacity="1" fill="none" fill-rule="evenodd"/></g><g clip-path="url(#clip5)"><path d="M706.5 708.5 908.53 703.523 1071.54 695.523 1199.54 685.523 1283.54 670.522 1338.54 654.522 1375.55 636.521 1413.55 620.521 1454.55 583.519 1474.5 545.5" stroke="#4472C4" stroke-width="6.875" stroke-linecap="round" stroke-linejoin="round" stroke-miterlimit="10" stroke-opacity="1" fill="none" fill-rule="evenodd"/></g><g clip-path="url(#clip6)"><path d="M717.943 708.833C717.943 714.908 713.019 719.833 706.944 719.833 700.869 719.833 695.944 714.908 695.944 708.833 695.944 702.759 700.869 697.834 706.944 697.834 713.019 697.834 717.943 702.759 717.943 708.833Z" stroke="#4472C4" stroke-width="3.4375" stroke-linecap="butt" stroke-linejoin="round" stroke-miterlimit="10" stroke-opacity="1" fill="#4472C4" fill-rule="evenodd" fill-opacity="1"/><path d="M919.944 703.834C919.944 709.909 915.019 714.833 908.944 714.833 902.869 714.833 897.944 709.909 897.944 703.834 897.944 697.759 902.869 692.834 908.944 692.834 915.019 692.834 919.944 697.759 919.944 703.834Z" stroke="#4472C4" stroke-width="3.4375" stroke-linecap="butt" stroke-linejoin="round" stroke-miterlimit="10" stroke-opacity="1" fill="#4472C4" fill-rule="evenodd" fill-opacity="1"/><path d="M1082.94 695.833C1082.94 701.908 1078.02 706.833 1071.94 706.833 1065.87 706.833 1060.94 701.908 1060.94 695.833 1060.94 689.758 1065.87 684.834 1071.94 684.834 1078.02 684.834 1082.94 689.758 1082.94 695.833Z" stroke="#4472C4" stroke-width="3.4375" stroke-linecap="butt" stroke-linejoin="round" stroke-miterlimit="10" stroke-opacity="1" fill="#4472C4" fill-rule="evenodd" fill-opacity="1"/><path d="M1210.94 685.833C1210.94 691.908 1206.02 696.833 1199.94 696.833 1193.87 696.833 1188.94 691.908 1188.94 685.833 1188.94 679.758 1193.87 674.834 1199.94 674.834 1206.02 674.834 1210.94 679.758 1210.94 685.833Z" stroke="#4472C4" stroke-width="3.4375" stroke-linecap="butt" stroke-linejoin="round" stroke-miterlimit="10" stroke-opacity="1" fill="#4472C4" fill-rule="evenodd" fill-opacity="1"/><path d="M1294.94 670.834C1294.94 676.909 1290.02 681.833 1283.94 681.833 1277.87 681.833 1272.94 676.909 1272.94 670.834 1272.94 664.759 1277.87 659.834 1283.94 659.834 1290.02 659.834 1294.94 664.759 1294.94 670.834Z" stroke="#4472C4" stroke-width="3.4375" stroke-linecap="butt" stroke-linejoin="round" stroke-miterlimit="10" stroke-opacity="1" fill="#4472C4" fill-rule="evenodd" fill-opacity="1"/><path d="M1349.94 654.833C1349.94 660.908 1345.02 665.833 1338.94 665.833 1332.87 665.833 1327.94 660.908 1327.94 654.833 1327.94 648.759 1332.87 643.834 1338.94 643.834 1345.02 643.834 1349.94 648.759 1349.94 654.833Z" stroke="#4472C4" stroke-width="3.4375" stroke-linecap="butt" stroke-linejoin="round" stroke-miterlimit="10" stroke-opacity="1" fill="#4472C4" fill-rule="evenodd" fill-opacity="1"/><path d="M1387.94 636.834C1387.94 642.909 1383.02 647.833 1376.94 647.833 1370.87 647.833 1365.94 642.909 1365.94 636.834 1365.94 630.759 1370.87 625.834 1376.94 625.834 1383.02 625.834 1387.94 630.759 1387.94 636.834Z" stroke="#4472C4" stroke-width="3.4375" stroke-linecap="butt" stroke-linejoin="round" stroke-miterlimit="10" stroke-opacity="1" fill="#4472C4" fill-rule="evenodd" fill-opacity="1"/><path d="M1424.94 620.833C1424.94 626.908 1420.02 631.833 1413.94 631.833 1407.87 631.833 1402.94 626.908 1402.94 620.833 1402.94 614.759 1407.87 609.834 1413.94 609.834 1420.02 609.834 1424.94 614.759 1424.94 620.833Z" stroke="#4472C4" stroke-width="3.4375" stroke-linecap="butt" stroke-linejoin="round" stroke-miterlimit="10" stroke-opacity="1" fill="#4472C4" fill-rule="evenodd" fill-opacity="1"/><path d="M1465.94 583.834C1465.94 589.909 1461.02 594.833 1454.94 594.833 1448.87 594.833 1443.94 589.909 1443.94 583.834 1443.94 577.759 1448.87 572.834 1454.94 572.834 1461.02 572.834 1465.94 577.759 1465.94 583.834Z" stroke="#4472C4" stroke-width="3.4375" stroke-linecap="butt" stroke-linejoin="round" stroke-miterlimit="10" stroke-opacity="1" fill="#4472C4" fill-rule="evenodd" fill-opacity="1"/><path d="M1485.94 545.833C1485.94 551.908 1481.02 556.833 1474.94 556.833 1468.87 556.833 1463.94 551.908 1463.94 545.833 1463.94 539.759 1468.87 534.834 1474.94 534.834 1481.02 534.834 1485.94 539.759 1485.94 545.833Z" stroke="#4472C4" stroke-width="3.4375" stroke-linecap="butt" stroke-linejoin="round" stroke-miterlimit="10" stroke-opacity="1" fill="#4472C4" fill-rule="evenodd" fill-opacity="1"/></g><g clip-path="url(#clip7)"><path d="M494.5 409.514 505.517 429.5 523.517 405.513 537.518 362.512 545.518 297.51 551.518 225.508 555.5 150.5" stroke="#ED7D31" stroke-width="6.875" stroke-linecap="round" stroke-linejoin="round" stroke-miterlimit="10" stroke-opacity="1" fill="none" fill-rule="evenodd"/></g><g clip-path="url(#clip8)"><path d="M505.944 409.833C505.944 415.908 501.019 420.833 494.944 420.833 488.869 420.833 483.944 415.908 483.944 409.833 483.944 403.758 488.869 398.834 494.944 398.834 501.019 398.834 505.944 403.758 505.944 409.833Z" stroke="#ED7D31" stroke-width="3.4375" stroke-linecap="butt" stroke-linejoin="round" stroke-miterlimit="10" stroke-opacity="1" fill="#ED7D31" fill-rule="evenodd" fill-opacity="1"/><path d="M516.944 429.834C516.944 435.909 512.019 440.833 505.944 440.833 499.869 440.833 494.944 435.909 494.944 429.834 494.944 423.759 499.869 418.834 505.944 418.834 512.019 418.834 516.944 423.759 516.944 429.834Z" stroke="#ED7D31" stroke-width="3.4375" stroke-linecap="butt" stroke-linejoin="round" stroke-miterlimit="10" stroke-opacity="1" fill="#ED7D31" fill-rule="evenodd" fill-opacity="1"/><path d="M534.944 405.834C534.944 411.909 530.019 416.833 523.944 416.833 517.869 416.833 512.944 411.909 512.944 405.834 512.944 399.759 517.869 394.834 523.944 394.834 530.019 394.834 534.944 399.759 534.944 405.834Z" stroke="#ED7D31" stroke-width="3.4375" stroke-linecap="butt" stroke-linejoin="round" stroke-miterlimit="10" stroke-opacity="1" fill="#ED7D31" fill-rule="evenodd" fill-opacity="1"/><path d="M548.944 362.834C548.944 368.909 544.019 373.833 537.944 373.833 531.869 373.833 526.944 368.909 526.944 362.834 526.944 356.759 531.869 351.834 537.944 351.834 544.019 351.834 548.944 356.759 548.944 362.834Z" stroke="#ED7D31" stroke-width="3.4375" stroke-linecap="butt" stroke-linejoin="round" stroke-miterlimit="10" stroke-opacity="1" fill="#ED7D31" fill-rule="evenodd" fill-opacity="1"/><path d="M556.944 297.834C556.944 303.909 552.019 308.833 545.944 308.833 539.869 308.833 534.944 303.909 534.944 297.834 534.944 291.759 539.869 286.834 545.944 286.834 552.019 286.834 556.944 291.759 556.944 297.834Z" stroke="#ED7D31" stroke-width="3.4375" stroke-linecap="butt" stroke-linejoin="round" stroke-miterlimit="10" stroke-opacity="1" fill="#ED7D31" fill-rule="evenodd" fill-opacity="1"/><path d="M562.943 225.833C562.943 231.908 558.019 236.833 551.944 236.833 545.869 236.833 540.944 231.908 540.944 225.833 540.944 219.759 545.869 214.834 551.944 214.834 558.019 214.834 562.943 219.759 562.943 225.833Z" stroke="#ED7D31" stroke-width="3.4375" stroke-linecap="butt" stroke-linejoin="round" stroke-miterlimit="10" stroke-opacity="1" fill="#ED7D31" fill-rule="evenodd" fill-opacity="1"/><path d="M566.944 150.834C566.944 156.908 562.019 161.833 555.944 161.833 549.869 161.833 544.944 156.908 544.944 150.834 544.944 144.759 549.869 139.834 555.944 139.834 562.019 139.834 566.944 144.759 566.944 150.834Z" stroke="#ED7D31" stroke-width="3.4375" stroke-linecap="butt" stroke-linejoin="round" stroke-miterlimit="10" stroke-opacity="1" fill="#ED7D31" fill-rule="evenodd" fill-opacity="1"/></g><g clip-path="url(#clip9)"><path d="M497.5 582.519 513.517 612.52 548.518 634.521 580.519 635.5 608.52 630.521 650.522 609.52 671.522 574.519 684.523 535.518 690.523 491.516 692.523 443.515 694.5 395.5" stroke="#548235" stroke-width="6.875" stroke-linecap="round" stroke-linejoin="round" stroke-miterlimit="10" stroke-opacity="1" fill="none" fill-rule="evenodd"/></g><g clip-path="url(#clip10)"><path d="M508.943 582.834C508.943 588.909 504.019 593.833 497.944 593.833 491.869 593.833 486.944 588.909 486.944 582.834 486.944 576.759 491.869 571.834 497.944 571.834 504.019 571.834 508.943 576.759 508.943 582.834Z" stroke="#548235" stroke-width="3.4375" stroke-linecap="butt" stroke-linejoin="round" stroke-miterlimit="10" stroke-opacity="1" fill="#548235" fill-rule="evenodd" fill-opacity="1"/><path d="M524.944 612.833C524.944 618.908 520.019 623.833 513.944 623.833 507.869 623.833 502.944 618.908 502.944 612.833 502.944 606.759 507.869 601.834 513.944 601.834 520.019 601.834 524.944 606.759 524.944 612.833Z" stroke="#548235" stroke-width="3.4375" stroke-linecap="butt" stroke-linejoin="round" stroke-miterlimit="10" stroke-opacity="1" fill="#548235" fill-rule="evenodd" fill-opacity="1"/><path d="M559.944 634.833C559.944 640.908 555.019 645.833 548.944 645.833 542.869 645.833 537.944 640.908 537.944 634.833 537.944 628.759 542.869 623.834 548.944 623.834 555.019 623.834 559.944 628.759 559.944 634.833Z" stroke="#548235" stroke-width="3.4375" stroke-linecap="butt" stroke-linejoin="round" stroke-miterlimit="10" stroke-opacity="1" fill="#548235" fill-rule="evenodd" fill-opacity="1"/><path d="M591.944 635.834C591.944 641.909 587.019 646.833 580.944 646.833 574.869 646.833 569.944 641.909 569.944 635.834 569.944 629.759 574.869 624.834 580.944 624.834 587.019 624.834 591.944 629.759 591.944 635.834Z" stroke="#548235" stroke-width="3.4375" stroke-linecap="butt" stroke-linejoin="round" stroke-miterlimit="10" stroke-opacity="1" fill="#548235" fill-rule="evenodd" fill-opacity="1"/><path d="M619.943 630.833C619.943 636.908 615.019 641.833 608.944 641.833 602.869 641.833 597.944 636.908 597.944 630.833 597.944 624.758 602.869 619.834 608.944 619.834 615.019 619.834 619.943 624.758 619.943 630.833Z" stroke="#548235" stroke-width="3.4375" stroke-linecap="butt" stroke-linejoin="round" stroke-miterlimit="10" stroke-opacity="1" fill="#548235" fill-rule="evenodd" fill-opacity="1"/><path d="M661.943 609.833C661.943 615.908 657.019 620.833 650.944 620.833 644.869 620.833 639.944 615.908 639.944 609.833 639.944 603.759 644.869 598.834 650.944 598.834 657.019 598.834 661.943 603.759 661.943 609.833Z" stroke="#548235" stroke-width="3.4375" stroke-linecap="butt" stroke-linejoin="round" stroke-miterlimit="10" stroke-opacity="1" fill="#548235" fill-rule="evenodd" fill-opacity="1"/><path d="M682.944 574.833C682.944 580.908 678.019 585.833 671.944 585.833 665.869 585.833 660.944 580.908 660.944 574.833 660.944 568.758 665.869 563.834 671.944 563.834 678.019 563.834 682.944 568.758 682.944 574.833Z" stroke="#548235" stroke-width="3.4375" stroke-linecap="butt" stroke-linejoin="round" stroke-miterlimit="10" stroke-opacity="1" fill="#548235" fill-rule="evenodd" fill-opacity="1"/><path d="M695.943 535.833C695.943 541.908 691.019 546.833 684.944 546.833 678.869 546.833 673.944 541.908 673.944 535.833 673.944 529.759 678.869 524.834 684.944 524.834 691.019 524.834 695.943 529.759 695.943 535.833Z" stroke="#548235" stroke-width="3.4375" stroke-linecap="butt" stroke-linejoin="round" stroke-miterlimit="10" stroke-opacity="1" fill="#548235" fill-rule="evenodd" fill-opacity="1"/><path d="M701.944 491.834C701.944 497.908 697.019 502.833 690.944 502.833 684.869 502.833 679.944 497.908 679.944 491.834 679.944 485.759 684.869 480.834 690.944 480.834 697.019 480.834 701.944 485.759 701.944 491.834Z" stroke="#548235" stroke-width="3.4375" stroke-linecap="butt" stroke-linejoin="round" stroke-miterlimit="10" stroke-opacity="1" fill="#548235" fill-rule="evenodd" fill-opacity="1"/><path d="M703.944 443.833C703.944 449.908 699.019 454.833 692.944 454.833 686.869 454.833 681.944 449.908 681.944 443.833 681.944 437.758 686.869 432.834 692.944 432.834 699.019 432.834 703.944 437.758 703.944 443.833Z" stroke="#548235" stroke-width="3.4375" stroke-linecap="butt" stroke-linejoin="round" stroke-miterlimit="10" stroke-opacity="1" fill="#548235" fill-rule="evenodd" fill-opacity="1"/><path d="M705.943 395.834C705.943 401.909 701.019 406.833 694.944 406.833 688.869 406.833 683.944 401.909 683.944 395.834 683.944 389.759 688.869 384.834 694.944 384.834 701.019 384.834 705.943 389.759 705.943 395.834Z" stroke="#548235" stroke-width="3.4375" stroke-linecap="butt" stroke-linejoin="round" stroke-miterlimit="10" stroke-opacity="1" fill="#548235" fill-rule="evenodd" fill-opacity="1"/></g><g clip-path="url(#clip11)"><path d="M720.357 723.065 734.095 722.492C735.991 722.413 737.593 723.886 737.673 725.783 737.752 727.68 736.278 729.281 734.381 729.361L720.643 729.934C718.747 730.014 717.145 728.54 717.065 726.643 716.986 724.746 718.46 723.145 720.357 723.065ZM747.833 721.918 761.571 721.344C763.468 721.265 765.069 722.739 765.149 724.636 765.228 726.532 763.754 728.134 761.857 728.214L748.119 728.787C746.223 728.866 744.621 727.393 744.542 725.496 744.462 723.599 745.936 721.997 747.833 721.918ZM775.309 720.771 789.047 720.197C790.944 720.118 792.545 721.592 792.625 723.488 792.704 725.385 791.23 726.987 789.334 727.066L775.596 727.64C773.699 727.719 772.097 726.246 772.018 724.349 771.938 722.452 773.412 720.85 775.309 720.771ZM802.785 719.624 816.523 719.05C818.42 718.971 820.022 720.444 820.101 722.341 820.18 724.238 818.706 725.84 816.81 725.919L803.072 726.493C801.175 726.572 799.573 725.098 799.494 723.202 799.414 721.305 800.888 719.703 802.785 719.624ZM830.261 718.476 843.999 717.903C845.896 717.824 847.498 719.297 847.577 721.194 847.656 723.091 846.182 724.693 844.286 724.772L830.548 725.346C828.651 725.425 827.049 723.951 826.97 722.054 826.891 720.158 828.364 718.556 830.261 718.476ZM857.737 717.329 871.475 716.756C873.372 716.676 874.974 718.15 875.053 720.047 875.132 721.944 873.659 723.545 871.762 723.625L858.024 724.198C856.127 724.277 854.525 722.804 854.446 720.907 854.367 719.01 855.84 717.408 857.737 717.329ZM885.213 716.182 898.951 715.608C900.848 715.529 902.45 717.003 902.529 718.9 902.608 720.796 901.135 722.398 899.238 722.477L885.5 723.051C883.603 723.13 882.001 721.657 881.922 719.76 881.843 717.863 883.316 716.261 885.213 716.182ZM912.558 714.994 926.265 713.909C928.158 713.76 929.814 715.172 929.963 717.065 930.113 718.958 928.7 720.613 926.808 720.763L913.101 721.848C911.208 721.997 909.552 720.585 909.403 718.692 909.253 716.799 910.666 715.144 912.558 714.994ZM939.973 712.825 953.68 711.74C955.572 711.59 957.228 713.003 957.378 714.896 957.527 716.788 956.115 718.444 954.222 718.593L940.515 719.678C938.622 719.828 936.967 718.415 936.817 716.523 936.667 714.63 938.08 712.974 939.973 712.825ZM967.387 710.655 981.094 709.57C982.987 709.421 984.642 710.833 984.792 712.726 984.942 714.619 983.529 716.274 981.636 716.424L967.929 717.509C966.037 717.659 964.381 716.246 964.231 714.353 964.082 712.461 965.494 710.805 967.387 710.655ZM994.801 708.486 1008.51 707.401C1010.4 707.251 1012.06 708.664 1012.21 710.557 1012.36 712.449 1010.94 714.105 1009.05 714.255L995.344 715.339C993.451 715.489 991.795 714.076 991.646 712.184 991.496 710.291 992.909 708.635 994.801 708.486ZM1022.22 706.316 1035.92 705.231C1037.82 705.082 1039.47 706.495 1039.62 708.387 1039.77 710.28 1038.36 711.935 1036.46 712.085L1022.76 713.17C1020.87 713.32 1019.21 711.907 1019.06 710.014 1018.91 708.122 1020.32 706.466 1022.22 706.316ZM1049.63 704.147 1050.26 704.097 1063.17 702.619C1065.06 702.403 1066.76 703.758 1066.98 705.644 1067.19 707.53 1065.84 709.234 1063.95 709.45L1050.81 710.95 1050.17 711C1048.28 711.15 1046.62 709.737 1046.47 707.845 1046.32 705.952 1047.74 704.297 1049.63 704.147ZM1076.83 701.058 1090.5 699.496C1092.38 699.281 1094.09 700.635 1094.3 702.521 1094.52 704.408 1093.16 706.111 1091.28 706.327L1077.62 707.888C1075.73 708.104 1074.03 706.75 1073.81 704.863 1073.59 702.977 1074.95 701.273 1076.83 701.058ZM1104.16 697.935 1117.82 696.374C1119.7 696.158 1121.41 697.513 1121.62 699.399 1121.84 701.285 1120.48 702.989 1118.6 703.204L1104.94 704.766C1103.05 704.981 1101.35 703.627 1101.13 701.741 1100.92 699.855 1102.27 698.151 1104.16 697.935ZM1131.48 694.813 1145.14 693.251C1147.03 693.036 1148.73 694.39 1148.95 696.276 1149.16 698.163 1147.81 699.866 1145.92 700.082L1132.26 701.643C1130.37 701.859 1128.67 700.504 1128.45 698.618 1128.24 696.732 1129.59 695.028 1131.48 694.813ZM1158.51 691.462 1172.02 688.906C1173.89 688.553 1175.69 689.779 1176.04 691.644 1176.39 693.51 1175.17 695.308 1173.3 695.661L1159.79 698.217C1157.92 698.57 1156.13 697.344 1155.77 695.478 1155.42 693.613 1156.65 691.815 1158.51 691.462ZM1185.53 686.35 1199.04 683.794C1200.91 683.441 1202.71 684.667 1203.06 686.532 1203.41 688.398 1202.19 690.196 1200.32 690.549L1186.81 693.105C1184.95 693.458 1183.15 692.232 1182.79 690.366 1182.44 688.501 1183.67 686.703 1185.53 686.35ZM1212.55 681.238 1226.06 678.682C1227.93 678.329 1229.73 679.555 1230.08 681.42 1230.43 683.286 1229.21 685.084 1227.34 685.437L1213.83 687.993C1211.97 688.346 1210.17 687.12 1209.82 685.254 1209.46 683.389 1210.69 681.591 1212.55 681.238ZM1239.34 675.707 1252.73 672.582C1254.58 672.151 1256.43 673.3 1256.86 675.149 1257.29 676.998 1256.14 678.846 1254.29 679.277L1240.9 682.402C1239.05 682.833 1237.2 681.684 1236.77 679.835 1236.34 677.987 1237.49 676.138 1239.34 675.707ZM1266.12 669.458 1279.51 666.333C1281.36 665.902 1283.21 667.051 1283.64 668.9 1284.07 670.749 1282.92 672.597 1281.07 673.029L1267.68 676.153C1265.83 676.584 1263.98 675.435 1263.55 673.587 1263.12 671.738 1264.27 669.889 1266.12 669.458ZM1292.79 663.126 1306.1 659.666C1307.93 659.188 1309.81 660.291 1310.29 662.128 1310.77 663.965 1309.66 665.842 1307.83 666.32L1294.52 669.78C1292.68 670.258 1290.81 669.155 1290.33 667.318 1289.85 665.481 1290.95 663.604 1292.79 663.126ZM1319.4 656.206 1332.71 652.746C1334.55 652.268 1336.43 653.371 1336.9 655.208 1337.38 657.045 1336.28 658.922 1334.44 659.4L1321.13 662.86C1319.3 663.338 1317.42 662.235 1316.94 660.398 1316.46 658.561 1317.57 656.684 1319.4 656.206ZM1345.16 648.374 1357.8 642.958C1359.54 642.21 1361.57 643.018 1362.31 644.763 1363.06 646.508 1362.25 648.529 1360.51 649.277L1347.87 654.694C1346.12 655.441 1344.1 654.633 1343.36 652.888 1342.61 651.143 1343.42 649.122 1345.16 648.374ZM1370.44 637.542 1373.19 636.362 1371.52 637.889 1376.62 628.424C1377.53 626.753 1379.61 626.129 1381.28 627.03 1382.95 627.931 1383.58 630.016 1382.68 631.687L1377.57 641.153C1377.2 641.836 1376.61 642.375 1375.9 642.681L1373.15 643.861C1371.4 644.609 1369.38 643.8 1368.63 642.055 1367.88 640.31 1368.69 638.289 1370.44 637.542ZM1383.15 616.322 1389.68 604.219C1390.58 602.548 1392.66 601.924 1394.34 602.826 1396.01 603.727 1396.63 605.812 1395.73 607.483L1389.2 619.585C1388.3 621.256 1386.22 621.88 1384.55 620.979 1382.87 620.078 1382.25 617.993 1383.15 616.322ZM1389.89 593.039 1388.24 579.388C1388.02 577.503 1389.36 575.791 1391.24 575.563 1393.13 575.335 1394.84 576.679 1395.07 578.564L1396.72 592.214C1396.95 594.099 1395.6 595.812 1393.72 596.039 1391.83 596.267 1390.12 594.924 1389.89 593.039ZM1386.6 565.737 1386.13 561.912C1385.91 560.027 1387.25 558.315 1389.13 558.087 1391.02 557.859 1392.73 559.203 1392.96 561.088L1393.42 564.913C1393.65 566.798 1392.3 568.51 1390.42 568.738 1388.54 568.965 1386.82 567.622 1386.6 565.737Z" fill="#4472C4" fill-rule="evenodd" fill-opacity="1"/></g><g clip-path="url(#clip12)"><path d="M732.444 738.333 709.444 715.334M709.444 738.333 732.444 715.334" stroke="#4472C4" stroke-width="6.875" stroke-linecap="butt" stroke-linejoin="round" stroke-miterlimit="10" stroke-opacity="1" fill="none" fill-rule="evenodd"/><path d="M923.444 730.333 900.444 707.334M900.444 730.333 923.444 707.334" stroke="#4472C4" stroke-width="6.875" stroke-linecap="butt" stroke-linejoin="round" stroke-miterlimit="10" stroke-opacity="1" fill="none" fill-rule="evenodd"/><path d="M1062.44 719.333 1039.44 696.334M1039.44 719.333 1062.44 696.334" stroke="#4472C4" stroke-width="6.875" stroke-linecap="butt" stroke-linejoin="round" stroke-miterlimit="10" stroke-opacity="1" fill="none" fill-rule="evenodd"/><path d="M1167.44 707.333 1144.44 684.334M1144.44 707.333 1167.44 684.334" stroke="#4472C4" stroke-width="6.875" stroke-linecap="butt" stroke-linejoin="round" stroke-miterlimit="10" stroke-opacity="1" fill="none" fill-rule="evenodd"/><path d="M1241.44 693.333 1218.44 670.334M1218.44 693.333 1241.44 670.334" stroke="#4472C4" stroke-width="6.875" stroke-linecap="butt" stroke-linejoin="round" stroke-miterlimit="10" stroke-opacity="1" fill="none" fill-rule="evenodd"/><path d="M1302.44 679.333 1279.44 656.334M1279.44 679.333 1302.44 656.334" stroke="#4472C4" stroke-width="6.875" stroke-linecap="butt" stroke-linejoin="round" stroke-miterlimit="10" stroke-opacity="1" fill="none" fill-rule="evenodd"/><path d="M1351.44 666.333 1328.44 643.334M1328.44 666.333 1351.44 643.334" stroke="#4472C4" stroke-width="6.875" stroke-linecap="butt" stroke-linejoin="round" stroke-miterlimit="10" stroke-opacity="1" fill="none" fill-rule="evenodd"/><path d="M1386.44 651.333 1363.44 628.333M1363.44 651.333 1386.44 628.333" stroke="#4472C4" stroke-width="6.875" stroke-linecap="butt" stroke-linejoin="round" stroke-miterlimit="10" stroke-opacity="1" fill="none" fill-rule="evenodd"/><path d="M1406.44 614.333 1383.44 591.334M1383.44 614.333 1406.44 591.334" stroke="#4472C4" stroke-width="6.875" stroke-linecap="butt" stroke-linejoin="round" stroke-miterlimit="10" stroke-opacity="1" fill="none" fill-rule="evenodd"/><path d="M1401.44 573.333 1378.44 550.334M1378.44 573.333 1401.44 550.334" stroke="#4472C4" stroke-width="6.875" stroke-linecap="butt" stroke-linejoin="round" stroke-miterlimit="10" stroke-opacity="1" fill="none" fill-rule="evenodd"/></g><g clip-path="url(#clip13)"><path d="M562.716 742.094 576.439 742.957C578.333 743.076 579.773 744.709 579.654 746.603 579.534 748.498 577.902 749.938 576.007 749.818L562.284 748.955C560.389 748.836 558.95 747.204 559.069 745.309 559.188 743.414 560.821 741.975 562.716 742.094ZM590.161 743.82 603.884 744.683C605.779 744.802 607.218 746.435 607.099 748.329 606.98 750.224 605.348 751.663 603.453 751.544L589.73 750.681C587.835 750.562 586.396 748.93 586.515 747.035 586.634 745.14 588.267 743.701 590.161 743.82ZM617.607 745.546 631.33 746.409C633.225 746.528 634.664 748.16 634.545 750.055 634.426 751.95 632.793 753.389 630.899 753.27L617.176 752.407C615.281 752.288 613.842 750.655 613.961 748.761 614.08 746.866 615.712 745.427 617.607 745.546ZM645.053 747.272 657.737 748.069 658.563 748.063C660.461 748.063 662 749.602 662 751.501 661.999 753.399 660.46 754.938 658.562 754.938L657.306 754.931 644.622 754.133C642.727 754.014 641.287 752.381 641.406 750.487 641.526 748.592 643.158 747.152 645.053 747.272ZM672.313 748.065 686.063 748.067C687.961 748.067 689.5 749.606 689.5 751.505 689.499 753.403 687.96 754.942 686.062 754.942L672.312 754.94C670.413 754.939 668.874 753.4 668.875 751.502 668.875 749.603 670.414 748.064 672.313 748.065ZM699.813 748.069 713.563 748.071C715.461 748.071 717 749.61 717 751.509 716.999 753.407 715.46 754.946 713.562 754.946L699.812 754.944C697.913 754.943 696.374 753.404 696.375 751.506 696.375 749.607 697.914 748.068 699.813 748.069ZM727.313 748.073 741.063 748.075C742.961 748.075 744.5 749.614 744.5 751.513 744.499 753.411 742.96 754.95 741.062 754.95L727.312 754.948C725.413 754.947 723.874 753.408 723.875 751.51 723.875 749.611 725.414 748.073 727.313 748.073ZM754.813 748.077 768.563 748.079C770.461 748.079 772 749.618 772 751.517 771.999 753.415 770.46 754.954 768.562 754.954L754.812 754.952C752.913 754.952 751.374 753.412 751.375 751.514 751.375 749.615 752.914 748.077 754.813 748.077ZM782.313 748.081 796.063 748.083C797.961 748.083 799.5 749.622 799.5 751.521 799.499 753.419 797.96 754.958 796.062 754.958L782.312 754.956C780.413 754.956 778.874 753.416 778.875 751.518 778.875 749.619 780.414 748.081 782.313 748.081ZM809.813 748.085 823.563 748.087C825.461 748.087 827 749.626 827 751.525 826.999 753.423 825.46 754.962 823.562 754.962L809.812 754.96C807.913 754.96 806.374 753.42 806.375 751.522 806.375 749.623 807.914 748.085 809.813 748.085ZM837.211 747.785 850.956 747.398C852.853 747.344 854.435 748.839 854.489 750.737 854.542 752.635 853.047 754.217 851.149 754.27L837.405 754.657C835.507 754.711 833.925 753.216 833.872 751.318 833.818 749.42 835.313 747.839 837.211 747.785ZM864.7 747.011 878.445 746.624C880.342 746.57 881.924 748.065 881.978 749.963 882.031 751.861 880.536 753.442 878.638 753.496L864.894 753.883C862.996 753.936 861.414 752.441 861.361 750.544 861.307 748.646 862.802 747.064 864.7 747.011ZM892.189 746.236 905.934 745.849C907.832 745.796 909.413 747.291 909.467 749.189 909.52 751.086 908.025 752.668 906.127 752.721L892.383 753.109C890.485 753.162 888.903 751.667 888.85 749.769 888.797 747.872 890.292 746.29 892.189 746.236ZM919.678 745.462 933.423 745.075C935.321 745.021 936.902 746.516 936.956 748.414 937.009 750.312 935.514 751.894 933.617 751.947L919.872 752.334C917.974 752.388 916.392 750.893 916.339 748.995 916.286 747.097 917.781 745.516 919.678 745.462ZM947.167 744.688 960.912 744.301C962.81 744.247 964.392 745.742 964.445 747.64 964.498 749.538 963.003 751.119 961.106 751.173L947.361 751.56C945.463 751.613 943.882 750.118 943.828 748.221 943.775 746.323 945.27 744.741 947.167 744.688ZM974.592 743.806 988.327 743.176C990.224 743.089 991.832 744.555 991.919 746.452 992.006 748.348 990.539 749.956 988.642 750.043L974.907 750.673C973.01 750.76 971.402 749.294 971.315 747.397 971.228 745.501 972.695 743.893 974.592 743.806ZM1002.06 742.545 1015.8 741.915C1017.7 741.828 1019.3 743.295 1019.39 745.192 1019.48 747.088 1018.01 748.696 1016.11 748.783L1002.38 749.413C1000.48 749.5 998.874 748.033 998.787 746.137 998.7 744.24 1000.17 742.633 1002.06 742.545ZM1029.53 741.285 1043.27 740.655C1045.17 740.568 1046.77 742.035 1046.86 743.932 1046.95 745.828 1045.48 747.436 1043.58 747.523L1029.85 748.153C1027.95 748.24 1026.34 746.773 1026.26 744.877 1026.17 742.98 1027.64 741.372 1029.53 741.285ZM1057.01 740.025 1070.74 739.395C1072.64 739.308 1074.25 740.775 1074.33 742.672 1074.42 744.568 1072.95 746.176 1071.06 746.263L1057.32 746.893C1055.42 746.98 1053.82 745.513 1053.73 743.617 1053.64 741.72 1055.11 740.112 1057.01 740.025ZM1084.43 738.673 1098.15 737.861C1100.05 737.749 1101.67 739.194 1101.79 741.09 1101.9 742.985 1100.45 744.612 1098.56 744.724L1084.83 745.536C1082.94 745.648 1081.31 744.203 1081.2 742.308 1081.09 740.413 1082.53 738.785 1084.43 738.673ZM1111.88 737.049 1125.6 736.237C1127.5 736.125 1129.13 737.57 1129.24 739.465 1129.35 741.36 1127.91 742.988 1126.01 743.1L1112.28 743.912C1110.39 744.024 1108.76 742.579 1108.65 740.684 1108.54 738.788 1109.98 737.161 1111.88 737.049ZM1139.33 735.425 1153.06 734.612C1154.95 734.5 1156.58 735.946 1156.69 737.841 1156.8 739.736 1155.36 741.363 1153.46 741.475L1139.74 742.288C1137.84 742.4 1136.21 740.954 1136.1 739.059 1135.99 737.164 1137.43 735.537 1139.33 735.425ZM1166.78 733.8 1180.51 732.988C1182.4 732.876 1184.03 734.321 1184.14 736.216 1184.25 738.112 1182.81 739.739 1180.91 739.851L1167.19 740.663C1165.29 740.775 1163.67 739.33 1163.55 737.435 1163.44 735.54 1164.89 733.912 1166.78 733.8ZM1194.23 732.176 1207.96 731.364C1209.85 731.252 1211.48 732.697 1211.59 734.592 1211.71 736.487 1210.26 738.115 1208.37 738.227L1194.64 739.039C1192.74 739.151 1191.12 737.706 1191.01 735.81 1190.89 733.915 1192.34 732.288 1194.23 732.176ZM1221.69 730.551 1235.41 729.739C1237.31 729.627 1238.93 731.073 1239.05 732.968 1239.16 734.863 1237.71 736.49 1235.82 736.602L1222.09 737.414C1220.2 737.527 1218.57 736.081 1218.46 734.186 1218.35 732.291 1219.79 730.664 1221.69 730.551ZM1248.38 728.489 1261.69 725.01C1263.52 724.529 1265.4 725.629 1265.88 727.466 1266.36 729.302 1265.26 731.181 1263.43 731.661L1250.12 735.14C1248.29 735.621 1246.41 734.521 1245.93 732.684 1245.45 730.848 1246.55 728.969 1248.38 728.489ZM1274.99 721.531 1288.29 718.052C1290.13 717.571 1292.01 718.671 1292.49 720.507 1292.97 722.344 1291.87 724.222 1290.03 724.703L1276.73 728.182C1274.89 728.662 1273.01 727.563 1272.53 725.726 1272.05 723.889 1273.15 722.011 1274.99 721.531ZM1301.59 714.572 1310.67 712.198 1308.98 713.232 1311.89 709.978C1313.16 708.563 1315.33 708.442 1316.75 709.708 1318.16 710.974 1318.28 713.147 1317.02 714.562L1314.1 717.816C1313.65 718.319 1313.07 718.678 1312.41 718.849L1303.33 721.224C1301.5 721.704 1299.62 720.605 1299.14 718.768 1298.66 716.931 1299.76 715.053 1301.59 714.572ZM1321.06 699.731 1325.98 694.231 1325.14 696.059 1326 689.747C1326.26 687.866 1327.99 686.549 1329.87 686.805 1331.75 687.062 1333.07 688.795 1332.81 690.676L1331.95 696.988C1331.86 697.667 1331.56 698.304 1331.11 698.815L1326.18 704.315C1324.92 705.73 1322.75 705.851 1321.33 704.585 1319.92 703.319 1319.8 701.146 1321.06 699.731ZM1327.86 676.123 1328.14 674.058C1328.23 673.38 1328.52 672.746 1328.98 672.235L1336.74 663.527C1338 662.109 1340.18 661.985 1341.59 663.248 1343.01 664.511 1343.14 666.684 1341.87 668.101L1334.11 676.81 1334.95 674.987 1334.67 677.052C1334.41 678.933 1332.68 680.25 1330.8 679.993 1328.92 679.737 1327.6 678.004 1327.86 676.123ZM1345.89 653.263 1345.93 653.213C1347.2 651.796 1349.37 651.671 1350.79 652.934 1352.2 654.197 1352.33 656.37 1351.07 657.787L1351.02 657.837C1349.76 659.254 1347.59 659.379 1346.17 658.116 1344.75 656.853 1344.63 654.68 1345.89 653.263Z" fill="#ED7D31" fill-rule="evenodd" fill-opacity="1"/></g><g clip-path="url(#clip14)"><path d="M574.444 757.333 551.444 734.334M551.444 757.333 574.444 734.334" stroke="#ED7D31" stroke-width="6.875" stroke-linecap="butt" stroke-linejoin="round" stroke-miterlimit="10" stroke-opacity="1" fill="none" fill-rule="evenodd"/><path d="M669.444 763.333 646.444 740.334M646.444 763.333 669.444 740.334" stroke="#ED7D31" stroke-width="6.875" stroke-linecap="butt" stroke-linejoin="round" stroke-miterlimit="10" stroke-opacity="1" fill="none" fill-rule="evenodd"/><path d="M838.444 763.333 815.444 740.334M815.444 763.333 838.444 740.334" stroke="#ED7D31" stroke-width="6.875" stroke-linecap="butt" stroke-linejoin="round" stroke-miterlimit="10" stroke-opacity="1" fill="none" fill-rule="evenodd"/><path d="M980.444 759.333 957.444 736.334M957.444 759.333 980.444 736.334" stroke="#ED7D31" stroke-width="6.875" stroke-linecap="butt" stroke-linejoin="round" stroke-miterlimit="10" stroke-opacity="1" fill="none" fill-rule="evenodd"/><path d="M1089.44 754.333 1066.44 731.334M1066.44 754.333 1089.44 731.334" stroke="#ED7D31" stroke-width="6.875" stroke-linecap="butt" stroke-linejoin="round" stroke-miterlimit="10" stroke-opacity="1" fill="none" fill-rule="evenodd"/><path d="M1258.44 744.333 1235.44 721.334M1235.44 744.333 1258.44 721.334" stroke="#ED7D31" stroke-width="6.875" stroke-linecap="butt" stroke-linejoin="round" stroke-miterlimit="10" stroke-opacity="1" fill="none" fill-rule="evenodd"/><path d="M1323.44 728.333 1300.44 705.333M1300.44 728.333 1323.44 705.333" stroke="#ED7D31" stroke-width="6.875" stroke-linecap="butt" stroke-linejoin="round" stroke-miterlimit="10" stroke-opacity="1" fill="none" fill-rule="evenodd"/><path d="M1340.44 708.333 1317.44 685.334M1317.44 708.333 1340.44 685.334" stroke="#ED7D31" stroke-width="6.875" stroke-linecap="butt" stroke-linejoin="round" stroke-miterlimit="10" stroke-opacity="1" fill="none" fill-rule="evenodd"/><path d="M1343.44 686.333 1320.44 663.334M1320.44 686.333 1343.44 663.334" stroke="#ED7D31" stroke-width="6.875" stroke-linecap="butt" stroke-linejoin="round" stroke-miterlimit="10" stroke-opacity="1" fill="none" fill-rule="evenodd"/><path d="M1360.44 667.333 1337.44 644.334M1337.44 667.333 1360.44 644.334" stroke="#ED7D31" stroke-width="6.875" stroke-linecap="butt" stroke-linejoin="round" stroke-miterlimit="10" stroke-opacity="1" fill="none" fill-rule="evenodd"/></g><g clip-path="url(#clip15)"><path d="M501.002 600.163 510.431 610.171C511.733 611.552 511.668 613.728 510.286 615.03 508.904 616.332 506.729 616.267 505.427 614.885L495.998 604.877C494.696 603.495 494.761 601.32 496.143 600.018 497.525 598.716 499.7 598.781 501.002 600.163ZM519.672 617.971 532.333 623.334C534.081 624.075 534.898 626.092 534.158 627.84 533.417 629.589 531.4 630.405 529.652 629.665L516.991 624.302C515.243 623.561 514.426 621.544 515.166 619.796 515.907 618.047 517.924 617.231 519.672 617.971ZM544.994 628.698 548.859 630.335 547.52 630.062 557.073 630.069C558.972 630.07 560.51 631.61 560.508 633.509 560.507 635.407 558.967 636.945 557.069 636.944L547.516 636.938C547.056 636.937 546.601 636.845 546.177 636.665L542.312 635.028C540.564 634.288 539.748 632.27 540.488 630.522 541.229 628.774 543.246 627.957 544.994 628.698ZM570.823 630.078 578.521 630.083 577.395 630.273 583.113 628.293C584.908 627.672 586.865 628.623 587.486 630.417 588.107 632.211 587.156 634.169 585.362 634.79L579.644 636.769C579.281 636.895 578.9 636.959 578.517 636.958L570.819 636.953C568.92 636.952 567.382 635.412 567.383 633.513 567.385 631.615 568.925 630.077 570.823 630.078ZM596.107 623.795 603.396 621.272 602.458 621.771 607.287 618.148C608.806 617.009 610.961 617.317 612.1 618.836 613.239 620.355 612.931 622.509 611.412 623.648L606.583 627.271C606.297 627.484 605.981 627.653 605.644 627.769L598.356 630.292C596.562 630.913 594.604 629.962 593.983 628.168 593.362 626.374 594.313 624.416 596.107 623.795ZM618.287 609.898 629.287 601.648C630.806 600.509 632.961 600.817 634.1 602.336 635.239 603.855 634.931 606.009 633.412 607.148L622.412 615.398C620.893 616.537 618.739 616.23 617.6 614.711 616.461 613.192 616.768 611.037 618.287 609.898ZM638.469 593.938 644.618 581.64C645.467 579.942 647.532 579.253 649.23 580.102 650.928 580.951 651.616 583.016 650.767 584.714L644.618 597.013C643.769 598.711 641.704 599.399 640.006 598.55 638.308 597.701 637.62 595.636 638.469 593.938ZM650.767 569.341 656.447 557.981 656.163 558.788 656.386 557.763C656.789 555.908 658.62 554.731 660.475 555.134 662.33 555.538 663.507 557.369 663.104 559.224L662.881 560.249C662.82 560.529 662.724 560.8 662.596 561.056L656.916 572.416C656.067 574.114 654.003 574.802 652.304 573.953 650.606 573.104 649.918 571.039 650.767 569.341ZM659.307 544.327 662.227 530.891C662.631 529.036 664.462 527.859 666.317 528.262 668.172 528.665 669.349 530.496 668.945 532.351L666.025 545.788C665.621 547.643 663.79 548.82 661.935 548.416 660.08 548.013 658.903 546.182 659.307 544.327ZM665.148 517.455 666.163 512.787 666.09 513.32 666.603 504.362C666.712 502.467 668.336 501.018 670.232 501.127 672.127 501.235 673.576 502.86 673.467 504.755L672.954 513.714C672.944 513.893 672.919 514.071 672.881 514.247L671.866 518.915C671.463 520.77 669.632 521.947 667.777 521.544 665.922 521.141 664.745 519.31 665.148 517.455ZM667.389 490.635 668.175 476.907C668.284 475.012 669.908 473.563 671.804 473.672 673.699 473.78 675.148 475.405 675.039 477.3L674.253 491.028C674.145 492.923 672.52 494.372 670.625 494.263 668.729 494.154 667.281 492.53 667.389 490.635ZM668.961 463.18 669.068 461.319 668.866 449.688C668.835 447.79 670.348 446.225 672.246 446.194 674.144 446.162 675.709 447.676 675.74 449.574L675.932 461.712 675.825 463.573C675.717 465.468 674.092 466.917 672.197 466.808 670.301 466.699 668.853 465.075 668.961 463.18ZM668.638 435.94 668.41 422.192C668.379 420.293 669.892 418.729 671.791 418.698 673.689 418.666 675.253 420.179 675.284 422.078L675.512 435.826C675.544 437.724 674.03 439.288 672.132 439.32 670.234 439.351 668.67 437.838 668.638 435.94ZM668.183 408.443 668.085 402.557C668.054 400.659 669.567 399.094 671.465 399.063 673.363 399.032 674.928 400.545 674.959 402.443L675.057 408.33C675.088 410.228 673.575 411.792 671.677 411.823 669.778 411.855 668.214 410.342 668.183 408.443Z" fill="#548235" fill-rule="evenodd" fill-opacity="1"/></g><g clip-path="url(#clip16)"><path d="M510.444 614.333 487.444 591.334M487.444 614.333 510.444 591.334" stroke="#548235" stroke-width="6.875" stroke-linecap="butt" stroke-linejoin="round" stroke-miterlimit="10" stroke-opacity="1" fill="none" fill-rule="evenodd"/><path d="M526.444 631.333 503.444 608.334M503.444 631.333 526.444 608.334" stroke="#548235" stroke-width="6.875" stroke-linecap="butt" stroke-linejoin="round" stroke-miterlimit="10" stroke-opacity="1" fill="none" fill-rule="evenodd"/><path d="M559.444 645.333 536.444 622.334M536.444 645.333 559.444 622.334" stroke="#548235" stroke-width="6.875" stroke-linecap="butt" stroke-linejoin="round" stroke-miterlimit="10" stroke-opacity="1" fill="none" fill-rule="evenodd"/><path d="M590.444 645.333 567.444 622.334M567.444 645.333 590.444 622.334" stroke="#548235" stroke-width="6.875" stroke-linecap="butt" stroke-linejoin="round" stroke-miterlimit="10" stroke-opacity="1" fill="none" fill-rule="evenodd"/><path d="M616.444 636.333 593.444 613.334M593.444 636.333 616.444 613.334" stroke="#548235" stroke-width="6.875" stroke-linecap="butt" stroke-linejoin="round" stroke-miterlimit="10" stroke-opacity="1" fill="none" fill-rule="evenodd"/><path d="M652.444 609.333 629.444 586.334M629.444 609.333 652.444 586.334" stroke="#548235" stroke-width="6.875" stroke-linecap="butt" stroke-linejoin="round" stroke-miterlimit="10" stroke-opacity="1" fill="none" fill-rule="evenodd"/><path d="M671.444 571.333 648.444 548.334M648.444 571.333 671.444 548.334" stroke="#548235" stroke-width="6.875" stroke-linecap="butt" stroke-linejoin="round" stroke-miterlimit="10" stroke-opacity="1" fill="none" fill-rule="evenodd"/><path d="M681.444 525.333 658.444 502.334M658.444 525.333 681.444 502.334" stroke="#548235" stroke-width="6.875" stroke-linecap="butt" stroke-linejoin="round" stroke-miterlimit="10" stroke-opacity="1" fill="none" fill-rule="evenodd"/><path d="M684.444 473.333 661.444 450.334M661.444 473.333 684.444 450.334" stroke="#548235" stroke-width="6.875" stroke-linecap="butt" stroke-linejoin="round" stroke-miterlimit="10" stroke-opacity="1" fill="none" fill-rule="evenodd"/><path d="M683.444 414.333 660.444 391.334M660.444 414.333 683.444 391.334" stroke="#548235" stroke-width="6.875" stroke-linecap="butt" stroke-linejoin="round" stroke-miterlimit="10" stroke-opacity="1" fill="none" fill-rule="evenodd"/></g><g clip-path="url(#clip17)"><text fill="#595959" fill-opacity="1" font-family="Calibri,Calibri_MSFontService,sans-serif" font-style="normal" font-variant="normal" font-weight="400" font-stretch="normal" font-size="41" text-anchor="start" direction="ltr" writing-mode="lr-tb" unicode-bidi="normal" text-decoration="none" transform="matrix(1 0 0 1 426.04 815)">0</text></g><g clip-path="url(#clip18)"><text fill="#595959" fill-opacity="1" font-family="Calibri,Calibri_MSFontService,sans-serif" font-style="normal" font-variant="normal" font-weight="400" font-stretch="normal" font-size="41" text-anchor="start" direction="ltr" writing-mode="lr-tb" unicode-bidi="normal" text-decoration="none" transform="matrix(1 0 0 1 394.85 745)">0,2</text></g><g clip-path="url(#clip19)"><text fill="#595959" fill-opacity="1" font-family="Calibri,Calibri_MSFontService,sans-serif" font-style="normal" font-variant="normal" font-weight="400" font-stretch="normal" font-size="41" text-anchor="start" direction="ltr" writing-mode="lr-tb" unicode-bidi="normal" text-decoration="none" transform="matrix(1 0 0 1 394.85 676)">0,4</text></g><g clip-path="url(#clip20)"><text fill="#595959" fill-opacity="1" font-family="Calibri,Calibri_MSFontService,sans-serif" font-style="normal" font-variant="normal" font-weight="400" font-stretch="normal" font-size="41" text-anchor="start" direction="ltr" writing-mode="lr-tb" unicode-bidi="normal" text-decoration="none" transform="matrix(1 0 0 1 394.85 606)">0,6</text></g><g clip-path="url(#clip21)"><text fill="#595959" fill-opacity="1" font-family="Calibri,Calibri_MSFontService,sans-serif" font-style="normal" font-variant="normal" font-weight="400" font-stretch="normal" font-size="41" text-anchor="start" direction="ltr" writing-mode="lr-tb" unicode-bidi="normal" text-decoration="none" transform="matrix(1 0 0 1 394.85 536)">0,8</text></g><g clip-path="url(#clip22)"><text fill="#595959" fill-opacity="1" font-family="Calibri,Calibri_MSFontService,sans-serif" font-style="normal" font-variant="normal" font-weight="400" font-stretch="normal" font-size="41" text-anchor="start" direction="ltr" writing-mode="lr-tb" unicode-bidi="normal" text-decoration="none" transform="matrix(1 0 0 1 426.04 467)">1</text></g><g clip-path="url(#clip23)"><text fill="#595959" fill-opacity="1" font-family="Calibri,Calibri_MSFontService,sans-serif" font-style="normal" font-variant="normal" font-weight="400" font-stretch="normal" font-size="41" text-anchor="start" direction="ltr" writing-mode="lr-tb" unicode-bidi="normal" text-decoration="none" transform="matrix(1 0 0 1 394.85 397)">1,2</text></g><g clip-path="url(#clip24)"><text fill="#595959" fill-opacity="1" font-family="Calibri,Calibri_MSFontService,sans-serif" font-style="normal" font-variant="normal" font-weight="400" font-stretch="normal" font-size="41" text-anchor="start" direction="ltr" writing-mode="lr-tb" unicode-bidi="normal" text-decoration="none" transform="matrix(1 0 0 1 394.85 327)">1,4</text></g><g clip-path="url(#clip25)"><text fill="#595959" fill-opacity="1" font-family="Calibri,Calibri_MSFontService,sans-serif" font-style="normal" font-variant="normal" font-weight="400" font-stretch="normal" font-size="41" text-anchor="start" direction="ltr" writing-mode="lr-tb" unicode-bidi="normal" text-decoration="none" transform="matrix(1 0 0 1 394.85 257)">1,6</text></g><g clip-path="url(#clip26)"><text fill="#595959" fill-opacity="1" font-family="Calibri,Calibri_MSFontService,sans-serif" font-style="normal" font-variant="normal" font-weight="400" font-stretch="normal" font-size="41" text-anchor="start" direction="ltr" writing-mode="lr-tb" unicode-bidi="normal" text-decoration="none" transform="matrix(1 0 0 1 394.85 188)">1,8</text></g><g clip-path="url(#clip27)"><text fill="#595959" fill-opacity="1" font-family="Calibri,Calibri_MSFontService,sans-serif" font-style="normal" font-variant="normal" font-weight="400" font-stretch="normal" font-size="41" text-anchor="start" direction="ltr" writing-mode="lr-tb" unicode-bidi="normal" text-decoration="none" transform="matrix(1 0 0 1 426.04 118)">2</text></g><g clip-path="url(#clip28)"><text fill="#595959" fill-opacity="1" font-family="Calibri,Calibri_MSFontService,sans-serif" font-style="normal" font-variant="normal" font-weight="400" font-stretch="normal" font-size="41" text-anchor="start" direction="ltr" writing-mode="lr-tb" unicode-bidi="normal" text-decoration="none" transform="matrix(1 0 0 1 474.757 870)">0</text></g><g clip-path="url(#clip29)"><text fill="#595959" fill-opacity="1" font-family="Calibri,Calibri_MSFontService,sans-serif" font-style="normal" font-variant="normal" font-weight="400" font-stretch="normal" font-size="41" text-anchor="start" direction="ltr" writing-mode="lr-tb" unicode-bidi="normal" text-decoration="none" transform="matrix(1 0 0 1 694.573 870)">1</text></g><g clip-path="url(#clip30)"><text fill="#595959" fill-opacity="1" font-family="Calibri,Calibri_MSFontService,sans-serif" font-style="normal" font-variant="normal" font-weight="400" font-stretch="normal" font-size="41" text-anchor="start" direction="ltr" writing-mode="lr-tb" unicode-bidi="normal" text-decoration="none" transform="matrix(1 0 0 1 914.389 870)">2</text></g><g clip-path="url(#clip31)"><text fill="#595959" fill-opacity="1" font-family="Calibri,Calibri_MSFontService,sans-serif" font-style="normal" font-variant="normal" font-weight="400" font-stretch="normal" font-size="41" text-anchor="start" direction="ltr" writing-mode="lr-tb" unicode-bidi="normal" text-decoration="none" transform="matrix(1 0 0 1 1134.2 870)">3</text></g><g clip-path="url(#clip32)"><text fill="#595959" fill-opacity="1" font-family="Calibri,Calibri_MSFontService,sans-serif" font-style="normal" font-variant="normal" font-weight="400" font-stretch="normal" font-size="41" text-anchor="start" direction="ltr" writing-mode="lr-tb" unicode-bidi="normal" text-decoration="none" transform="matrix(1 0 0 1 1354.02 870)">4</text></g><g clip-path="url(#clip33)"><text fill="#595959" fill-opacity="1" font-family="Calibri,Calibri_MSFontService,sans-serif" font-style="normal" font-variant="normal" font-weight="400" font-stretch="normal" font-size="41" text-anchor="start" direction="ltr" writing-mode="lr-tb" unicode-bidi="normal" text-decoration="none" transform="matrix(1 0 0 1 1573.84 870)">5</text></g><g clip-path="url(#clip34)"><text fill="#595959" fill-opacity="1" font-family="Calibri,Calibri_MSFontService,sans-serif" font-style="normal" font-variant="normal" font-weight="400" font-stretch="normal" font-size="46" text-anchor="start" direction="ltr" writing-mode="lr-tb" unicode-bidi="normal" text-decoration="none" transform="matrix(6.12323e-17 -1 1 6.12323e-17 362.492 790)">Latency per transaction (ms)</text></g><g clip-path="url(#clip35)"><text fill="#595959" fill-opacity="1" font-family="Calibri,Calibri_MSFontService,sans-serif" font-style="normal" font-variant="normal" font-weight="400" font-stretch="normal" font-size="46" text-anchor="start" direction="ltr" writing-mode="lr-tb" unicode-bidi="normal" text-decoration="none" transform="matrix(1 0 0 1 849.565 915)">Millions Queries/s</text></g><g clip-path="url(#clip36)"><rect x="1079.5" y="126.5" width="473" height="294" stroke="#000000" stroke-width="3.4375" stroke-linecap="butt" stroke-linejoin="round" stroke-miterlimit="10" stroke-opacity="1" fill="#FFFFFF" fill-opacity="1"/></g><g clip-path="url(#clip37)"><path d="M1147.5 150.5 1262.5 150.5" stroke="#4472C4" stroke-width="6.875" stroke-linecap="round" stroke-linejoin="round" stroke-miterlimit="10" stroke-opacity="1" fill="none" fill-rule="evenodd"/></g><g clip-path="url(#clip38)"><path d="M1215 150C1215 156.075 1210.08 160.999 1204 160.999 1197.93 160.999 1193 156.075 1193 150 1193 143.925 1197.93 139 1204 139 1210.08 139 1215 143.925 1215 150Z" stroke="#4472C4" stroke-width="3.4375" stroke-linecap="butt" stroke-linejoin="round" stroke-miterlimit="10" stroke-opacity="1" fill="#4472C4" fill-rule="evenodd" fill-opacity="1"/></g><g clip-path="url(#clip39)"><text fill="#595959" fill-opacity="1" font-family="Calibri,Calibri_MSFontService,sans-serif" font-style="normal" font-variant="normal" font-weight="400" font-stretch="normal" font-size="41" text-anchor="start" direction="ltr" writing-mode="lr-tb" unicode-bidi="normal" text-decoration="none" transform="matrix(1 0 0 1 1275.26 161)">Q3 PotionDB</text></g><g clip-path="url(#clip40)"><path d="M1147.5 199.5 1262.5 199.5" stroke="#ED7D31" stroke-width="6.875" stroke-linecap="round" stroke-linejoin="round" stroke-miterlimit="10" stroke-opacity="1" fill="none" fill-rule="evenodd"/></g><g clip-path="url(#clip41)"><path d="M1215 198.999C1215 205.075 1210.08 209.999 1204 209.999 1197.93 209.999 1193 205.075 1193 198.999 1193 192.924 1197.93 188 1204 188 1210.08 188 1215 192.924 1215 198.999Z" stroke="#ED7D31" stroke-width="3.4375" stroke-linecap="butt" stroke-linejoin="round" stroke-miterlimit="10" stroke-opacity="1" fill="#ED7D31" fill-rule="evenodd" fill-opacity="1"/></g><g clip-path="url(#clip42)"><text fill="#595959" fill-opacity="1" font-family="Calibri,Calibri_MSFontService,sans-serif" font-style="normal" font-variant="normal" font-weight="400" font-stretch="normal" font-size="41" text-anchor="start" direction="ltr" writing-mode="lr-tb" unicode-bidi="normal" text-decoration="none" transform="matrix(1 0 0 1 1275.26 210)">Q3 Local</text></g><g clip-path="url(#clip43)"><path d="M1147.5 248.5 1262.5 248.5" stroke="#548235" stroke-width="6.875" stroke-linecap="round" stroke-linejoin="round" stroke-miterlimit="10" stroke-opacity="1" fill="none" fill-rule="evenodd"/></g><g clip-path="url(#clip44)"><path d="M1215 248C1215 254.075 1210.08 258.999 1204 258.999 1197.93 258.999 1193 254.075 1193 248 1193 241.925 1197.93 237 1204 237 1210.08 237 1215 241.925 1215 248Z" stroke="#548235" stroke-width="3.4375" stroke-linecap="butt" stroke-linejoin="round" stroke-miterlimit="10" stroke-opacity="1" fill="#548235" fill-rule="evenodd" fill-opacity="1"/></g><g clip-path="url(#clip45)"><text fill="#595959" fill-opacity="1" font-family="Calibri,Calibri_MSFontService,sans-serif" font-style="normal" font-variant="normal" font-weight="400" font-stretch="normal" font-size="41" text-anchor="start" direction="ltr" writing-mode="lr-tb" unicode-bidi="normal" text-decoration="none" transform="matrix(1 0 0 1 1275.26 259)">Q3 Single</text></g><g clip-path="url(#clip46)"><path d="M1147.5 294.062 1161.25 294.062C1163.15 294.062 1164.69 295.601 1164.69 297.5 1164.69 299.398 1163.15 300.937 1161.25 300.937L1147.5 300.937C1145.6 300.937 1144.06 299.398 1144.06 297.5 1144.06 295.601 1145.6 294.062 1147.5 294.062ZM1175 294.062 1188.75 294.062C1190.65 294.062 1192.19 295.602 1192.19 297.5 1192.19 299.398 1190.65 300.937 1188.75 300.937L1175 300.937C1173.1 300.937 1171.56 299.398 1171.56 297.5 1171.56 295.601 1173.1 294.062 1175 294.062ZM1202.5 294.063 1216.25 294.063C1218.15 294.063 1219.69 295.602 1219.69 297.5 1219.69 299.399 1218.15 300.938 1216.25 300.938L1202.5 300.938C1200.6 300.938 1199.06 299.398 1199.06 297.5 1199.06 295.602 1200.6 294.062 1202.5 294.063ZM1230 294.063 1243.75 294.063C1245.65 294.063 1247.19 295.602 1247.19 297.5 1247.19 299.399 1245.65 300.938 1243.75 300.938L1230 300.938C1228.1 300.938 1226.56 299.399 1226.56 297.5 1226.56 295.602 1228.1 294.063 1230 294.063ZM1257.5 294.063 1262.5 294.063C1264.4 294.063 1265.94 295.602 1265.94 297.5 1265.94 299.399 1264.4 300.938 1262.5 300.938L1257.5 300.938C1255.6 300.938 1254.06 299.399 1254.06 297.5 1254.06 295.602 1255.6 294.063 1257.5 294.063Z" fill="#4472C4" fill-rule="evenodd" fill-opacity="1"/></g><g clip-path="url(#clip47)"><path d="M1215.5 308.5 1192.5 286.5M1192.5 308.5 1215.5 286.5" stroke="#4472C4" stroke-width="6.875" stroke-linecap="butt" stroke-linejoin="round" stroke-miterlimit="10" stroke-opacity="1" fill="none" fill-rule="evenodd"/></g><g clip-path="url(#clip48)"><text fill="#595959" fill-opacity="1" font-family="Calibri,Calibri_MSFontService,sans-serif" font-style="normal" font-variant="normal" font-weight="400" font-stretch="normal" font-size="41" text-anchor="start" direction="ltr" writing-mode="lr-tb" unicode-bidi="normal" text-decoration="none" transform="matrix(1 0 0 1 1275.26 308)">Q5 PotionDB</text></g><g clip-path="url(#clip49)"><path d="M1147.5 343.062 1161.25 343.063C1163.15 343.063 1164.69 344.602 1164.69 346.5 1164.69 348.399 1163.15 349.938 1161.25 349.938L1147.5 349.938C1145.6 349.938 1144.06 348.398 1144.06 346.5 1144.06 344.602 1145.6 343.062 1147.5 343.062ZM1175 343.063 1188.75 343.063C1190.65 343.063 1192.19 344.602 1192.19 346.5 1192.19 348.399 1190.65 349.938 1188.75 349.938L1175 349.938C1173.1 349.938 1171.56 348.399 1171.56 346.5 1171.56 344.602 1173.1 343.063 1175 343.063ZM1202.5 343.063 1216.25 343.063C1218.15 343.063 1219.69 344.602 1219.69 346.5 1219.69 348.399 1218.15 349.938 1216.25 349.938L1202.5 349.938C1200.6 349.938 1199.06 348.399 1199.06 346.5 1199.06 344.602 1200.6 343.063 1202.5 343.063ZM1230 343.063 1243.75 343.063C1245.65 343.063 1247.19 344.602 1247.19 346.5 1247.19 348.399 1245.65 349.938 1243.75 349.938L1230 349.938C1228.1 349.938 1226.56 348.399 1226.56 346.5 1226.56 344.602 1228.1 343.063 1230 343.063ZM1257.5 343.063 1262.5 343.063C1264.4 343.063 1265.94 344.602 1265.94 346.5 1265.94 348.399 1264.4 349.938 1262.5 349.938L1257.5 349.938C1255.6 349.938 1254.06 348.399 1254.06 346.5 1254.06 344.602 1255.6 343.063 1257.5 343.063Z" fill="#ED7D31" fill-rule="evenodd" fill-opacity="1"/></g><g clip-path="url(#clip50)"><path d="M1215.5 357.5 1192.5 334.5M1192.5 357.5 1215.5 334.5" stroke="#ED7D31" stroke-width="6.875" stroke-linecap="butt" stroke-linejoin="round" stroke-miterlimit="10" stroke-opacity="1" fill="none" fill-rule="evenodd"/></g><g clip-path="url(#clip51)"><text fill="#595959" fill-opacity="1" font-family="Calibri,Calibri_MSFontService,sans-serif" font-style="normal" font-variant="normal" font-weight="400" font-stretch="normal" font-size="41" text-anchor="start" direction="ltr" writing-mode="lr-tb" unicode-bidi="normal" text-decoration="none" transform="matrix(1 0 0 1 1275.26 357)">Q5 Local</text></g><g clip-path="url(#clip52)"><path d="M1147.5 392.063 1161.25 392.063C1163.15 392.063 1164.69 393.602 1164.69 395.5 1164.69 397.399 1163.15 398.938 1161.25 398.938L1147.5 398.938C1145.6 398.938 1144.06 397.399 1144.06 395.5 1144.06 393.602 1145.6 392.063 1147.5 392.063ZM1175 392.063 1188.75 392.063C1190.65 392.063 1192.19 393.602 1192.19 395.5 1192.19 397.399 1190.65 398.938 1188.75 398.938L1175 398.938C1173.1 398.938 1171.56 397.399 1171.56 395.5 1171.56 393.602 1173.1 392.063 1175 392.063ZM1202.5 392.063 1216.25 392.063C1218.15 392.063 1219.69 393.602 1219.69 395.5 1219.69 397.399 1218.15 398.938 1216.25 398.938L1202.5 398.938C1200.6 398.938 1199.06 397.399 1199.06 395.5 1199.06 393.602 1200.6 392.063 1202.5 392.063ZM1230 392.063 1243.75 392.063C1245.65 392.063 1247.19 393.602 1247.19 395.5 1247.19 397.399 1245.65 398.938 1243.75 398.938L1230 398.938C1228.1 398.938 1226.56 397.399 1226.56 395.5 1226.56 393.602 1228.1 392.063 1230 392.063ZM1257.5 392.063 1262.5 392.063C1264.4 392.063 1265.94 393.602 1265.94 395.501 1265.94 397.399 1264.4 398.938 1262.5 398.938L1257.5 398.938C1255.6 398.938 1254.06 397.399 1254.06 395.5 1254.06 393.602 1255.6 392.063 1257.5 392.063Z" fill="#548235" fill-rule="evenodd" fill-opacity="1"/></g><g clip-path="url(#clip53)"><path d="M1215.5 406.5 1192.5 383.5M1192.5 406.5 1215.5 383.5" stroke="#548235" stroke-width="6.875" stroke-linecap="butt" stroke-linejoin="round" stroke-miterlimit="10" stroke-opacity="1" fill="none" fill-rule="evenodd"/></g><g clip-path="url(#clip54)"><text fill="#595959" fill-opacity="1" font-family="Calibri,Calibri_MSFontService,sans-serif" font-style="normal" font-variant="normal" font-weight="400" font-stretch="normal" font-size="41" text-anchor="start" direction="ltr" writing-mode="lr-tb" unicode-bidi="normal" text-decoration="none" transform="matrix(1 0 0 1 1275.26 406)">Q5 Single</text></g></g></svg>