<svg width="1150" height="738" xmlns="http://www.w3.org/2000/svg" xmlns:xlink="http://www.w3.org/1999/xlink" overflow="hidden"><defs><clipPath id="clip0"><rect x="26927" y="362" width="1150" height="738"/></clipPath><clipPath id="clip1"><rect x="26929" y="366" width="1145" height="709"/></clipPath><clipPath id="clip2"><rect x="27091" y="396" width="983" height="635"/></clipPath><clipPath id="clip3"><rect x="27091" y="396" width="983" height="635"/></clipPath><clipPath id="clip4"><rect x="27091" y="396" width="983" height="635"/></clipPath><clipPath id="clip5"><rect x="26929" y="366" width="1145" height="709"/></clipPath><clipPath id="clip6"><rect x="26929" y="366" width="1145" height="709"/></clipPath><clipPath id="clip7"><rect x="26929" y="366" width="1145" height="709"/></clipPath><clipPath id="clip8"><rect x="26929" y="366" width="1145" height="709"/></clipPath><clipPath id="clip9"><rect x="26929" y="366" width="1145" height="709"/></clipPath><clipPath id="clip10"><rect x="26929" y="366" width="1145" height="709"/></clipPath><clipPath id="clip11"><rect x="26929" y="366" width="1145" height="709"/></clipPath><clipPath id="clip12"><rect x="26929" y="366" width="1145" height="709"/></clipPath><clipPath id="clip13"><rect x="26929" y="366" width="1145" height="709"/></clipPath><clipPath id="clip14"><rect x="26929" y="366" width="1145" height="709"/></clipPath><clipPath id="clip15"><rect x="26929" y="366" width="1145" height="709"/></clipPath><clipPath id="clip16"><rect x="26929" y="366" width="1145" height="709"/></clipPath><clipPath id="clip17"><rect x="26929" y="366" width="1145" height="709"/></clipPath><clipPath id="clip18"><rect x="27121" y="1029" width="152" height="67"/></clipPath><clipPath id="clip19"><rect x="27313" y="1030" width="150" height="67"/></clipPath><clipPath id="clip20"><rect x="27504" y="1031" width="152" height="67"/></clipPath><clipPath id="clip21"><rect x="27702" y="1032" width="152" height="67"/></clipPath><clipPath id="clip22"><rect x="27894" y="1031" width="150" height="67"/></clipPath></defs><g clip-path="url(#clip0)" transform="translate(-26927 -362)"><rect x="26930" y="367" width="1144" height="709" fill="#FFFFFF" fill-opacity="1"/><g clip-path="url(#clip1)"><path d="M27091.5 1028.5 28074.5 1028.5M27091.5 870.529 28074.5 870.529M27091.5 712.524 28074.5 712.524M27091.5 554.518 28074.5 554.518M27091.5 396.5 28074.5 396.5" stroke="#D9D9D9" stroke-width="3.4375" stroke-linecap="butt" stroke-linejoin="round" stroke-miterlimit="10" stroke-opacity="1" fill="none" fill-rule="evenodd"/></g><g clip-path="url(#clip2)"><path d="M27119.9 481.016 27166.9 481.016 27166.9 1028 27119.9 1028ZM27315.9 573.019 27362.9 573.019 27362.9 1028 27315.9 1028ZM27512.9 673.022 27559.9 673.022 27559.9 1028 27512.9 1028ZM27708.9 777.026 27755.9 777.026 27755.9 1028 27708.9 1028ZM27905.9 891.029 27952.9 891.029 27952.9 1028 27905.9 1028Z" fill="#4472C4" fill-rule="evenodd" fill-opacity="1"/></g><g clip-path="url(#clip3)"><path d="M27166.9 480.016 27213.9 480.016 27213.9 1028 27166.9 1028ZM27362.9 575.019 27409.9 575.019 27409.9 1028 27362.9 1028ZM27559.9 669.022 27606.9 669.022 27606.9 1028 27559.9 1028ZM27755.9 775.025 27802.9 775.025 27802.9 1028 27755.9 1028ZM27952.9 890.029 27999.9 890.029 27999.9 1028 27952.9 1028Z" fill="#ED7D31" fill-rule="evenodd" fill-opacity="1"/></g><g clip-path="url(#clip4)"><path d="M27213.9 430.014 27259.9 430.014 27259.9 1028 27213.9 1028ZM27409.9 539.018 27456.9 539.018 27456.9 1028 27409.9 1028ZM27606.9 642.021 27652.9 642.021 27652.9 1028 27606.9 1028ZM27802.9 757.025 27849.9 757.025 27849.9 1028 27802.9 1028ZM27999.9 885.029 28045.9 885.029 28045.9 1028 27999.9 1028Z" fill="#A5A5A5" fill-rule="evenodd" fill-opacity="1"/></g><g clip-path="url(#clip5)"><text fill="#595959" fill-opacity="1" font-family="Calibri,Calibri_MSFontService,sans-serif" font-style="normal" font-variant="normal" font-weight="400" font-stretch="normal" font-size="48" text-anchor="start" direction="ltr" writing-mode="lr-tb" unicode-bidi="normal" text-decoration="none" transform="matrix(1 0 0 1 27022.8 1041)">0</text></g><g clip-path="url(#clip6)"><text fill="#595959" fill-opacity="1" font-family="Calibri,Calibri_MSFontService,sans-serif" font-style="normal" font-variant="normal" font-weight="400" font-stretch="normal" font-size="48" text-anchor="start" direction="ltr" writing-mode="lr-tb" unicode-bidi="normal" text-decoration="none" transform="matrix(1 0 0 1 27022.8 883)">1</text></g><g clip-path="url(#clip7)"><text fill="#595959" fill-opacity="1" font-family="Calibri,Calibri_MSFontService,sans-serif" font-style="normal" font-variant="normal" font-weight="400" font-stretch="normal" font-size="48" text-anchor="start" direction="ltr" writing-mode="lr-tb" unicode-bidi="normal" text-decoration="none" transform="matrix(1 0 0 1 27022.8 725)">2</text></g><g clip-path="url(#clip8)"><text fill="#595959" fill-opacity="1" font-family="Calibri,Calibri_MSFontService,sans-serif" font-style="normal" font-variant="normal" font-weight="400" font-stretch="normal" font-size="48" text-anchor="start" direction="ltr" writing-mode="lr-tb" unicode-bidi="normal" text-decoration="none" transform="matrix(1 0 0 1 27022.8 567)">3</text></g><g clip-path="url(#clip9)"><text fill="#595959" fill-opacity="1" font-family="Calibri,Calibri_MSFontService,sans-serif" font-style="normal" font-variant="normal" font-weight="400" font-stretch="normal" font-size="48" text-anchor="start" direction="ltr" writing-mode="lr-tb" unicode-bidi="normal" text-decoration="none" transform="matrix(1 0 0 1 27022.8 409)">4</text></g><g clip-path="url(#clip10)"><text fill="#595959" fill-opacity="1" font-family="Calibri,Calibri_MSFontService,sans-serif" font-style="normal" font-variant="normal" font-weight="400" font-stretch="normal" font-size="50" text-anchor="start" direction="ltr" writing-mode="lr-tb" unicode-bidi="normal" text-decoration="none" transform="matrix(6.12323e-17 -1 1 6.12323e-17 26998.3 1003)">Throughput (M ops/s)</text></g><g clip-path="url(#clip11)"><rect x="27733.5" y="405.5" width="303" height="164" stroke="#000000" stroke-width="3.4375" stroke-linecap="butt" stroke-linejoin="round" stroke-miterlimit="10" stroke-opacity="1" fill="#FFFFFF" fill-opacity="1"/></g><g clip-path="url(#clip12)"><rect x="27795" y="420" width="27" height="25.9998" fill="#4472C4" fill-opacity="1"/></g><g clip-path="url(#clip13)"><text fill="#595959" fill-opacity="1" font-family="Calibri,Calibri_MSFontService,sans-serif" font-style="normal" font-variant="normal" font-weight="400" font-stretch="normal" font-size="48" text-anchor="start" direction="ltr" writing-mode="lr-tb" unicode-bidi="normal" text-decoration="none" transform="matrix(1 0 0 1 27833.2 446)">Counter</text></g><g clip-path="url(#clip14)"><rect x="27795" y="474" width="27" height="26.9998" fill="#ED7D31" fill-opacity="1"/></g><g clip-path="url(#clip15)"><text fill="#595959" fill-opacity="1" font-family="Calibri,Calibri_MSFontService,sans-serif" font-style="normal" font-variant="normal" font-weight="400" font-stretch="normal" font-size="48" text-anchor="start" direction="ltr" writing-mode="lr-tb" unicode-bidi="normal" text-decoration="none" transform="matrix(1 0 0 1 27833.2 500)">Average</text></g><g clip-path="url(#clip16)"><rect x="27795" y="529" width="27" height="26.0001" fill="#A5A5A5" fill-opacity="1"/></g><g clip-path="url(#clip17)"><text fill="#595959" fill-opacity="1" font-family="Calibri,Calibri_MSFontService,sans-serif" font-style="normal" font-variant="normal" font-weight="400" font-stretch="normal" font-size="48" text-anchor="start" direction="ltr" writing-mode="lr-tb" unicode-bidi="normal" text-decoration="none" transform="matrix(1 0 0 1 27833.2 555)">TopK</text></g><g clip-path="url(#clip18)"><text fill="#595959" fill-opacity="1" font-family="Calibri,Calibri_MSFontService,sans-serif" font-style="normal" font-variant="normal" font-weight="400" font-stretch="normal" font-size="48" text-anchor="start" direction="ltr" writing-mode="lr-tb" unicode-bidi="normal" text-decoration="none" transform="matrix(1 0 0 1 27122 1076)">5 Rep.</text></g><g clip-path="url(#clip19)"><text fill="#595959" fill-opacity="1" font-family="Calibri,Calibri_MSFontService,sans-serif" font-style="normal" font-variant="normal" font-weight="400" font-stretch="normal" font-size="48" text-anchor="start" direction="ltr" writing-mode="lr-tb" unicode-bidi="normal" text-decoration="none" transform="matrix(1 0 0 1 27313.5 1077)">4 Rep.</text></g><g clip-path="url(#clip20)"><text fill="#595959" fill-opacity="1" font-family="Calibri,Calibri_MSFontService,sans-serif" font-style="normal" font-variant="normal" font-weight="400" font-stretch="normal" font-size="48" text-anchor="start" direction="ltr" writing-mode="lr-tb" unicode-bidi="normal" text-decoration="none" transform="matrix(1 0 0 1 27504.8 1078)">3 Rep.</text></g><g clip-path="url(#clip21)"><text fill="#595959" fill-opacity="1" font-family="Calibri,Calibri_MSFontService,sans-serif" font-style="normal" font-variant="normal" font-weight="400" font-stretch="normal" font-size="48" text-anchor="start" direction="ltr" writing-mode="lr-tb" unicode-bidi="normal" text-decoration="none" transform="matrix(1 0 0 1 27702.5 1078)">2 Rep.</text></g><g clip-path="url(#clip22)"><text fill="#595959" fill-opacity="1" font-family="Calibri,Calibri_MSFontService,sans-serif" font-style="normal" font-variant="normal" font-weight="400" font-stretch="normal" font-size="48" text-anchor="start" direction="ltr" writing-mode="lr-tb" unicode-bidi="normal" text-decoration="none" transform="matrix(1 0 0 1 27894.7 1078)">1 Rep.</text></g></g></svg>