<svg width="1142" height="711" xmlns="http://www.w3.org/2000/svg" xmlns:xlink="http://www.w3.org/1999/xlink" overflow="hidden"><defs><clipPath id="clip0"><rect x="26752" y="1104" width="1142" height="711"/></clipPath><clipPath id="clip1"><rect x="26755" y="1106" width="1137" height="707"/></clipPath><clipPath id="clip2"><rect x="26906" y="1135" width="985" height="613"/></clipPath><clipPath id="clip3"><rect x="26906" y="1135" width="985" height="613"/></clipPath><clipPath id="clip4"><rect x="26906" y="1135" width="985" height="613"/></clipPath><clipPath id="clip5"><rect x="26755" y="1106" width="1137" height="707"/></clipPath><clipPath id="clip6"><rect x="26755" y="1106" width="1137" height="707"/></clipPath><clipPath id="clip7"><rect x="26755" y="1106" width="1137" height="707"/></clipPath><clipPath id="clip8"><rect x="26755" y="1106" width="1137" height="707"/></clipPath><clipPath id="clip9"><rect x="26755" y="1106" width="1137" height="707"/></clipPath><clipPath id="clip10"><rect x="26755" y="1106" width="1137" height="707"/></clipPath><clipPath id="clip11"><rect x="26755" y="1106" width="1137" height="707"/></clipPath><clipPath id="clip12"><rect x="26755" y="1106" width="1137" height="707"/></clipPath><clipPath id="clip13"><rect x="26755" y="1106" width="1137" height="707"/></clipPath><clipPath id="clip14"><rect x="26755" y="1106" width="1137" height="707"/></clipPath><clipPath id="clip15"><rect x="26755" y="1106" width="1137" height="707"/></clipPath><clipPath id="clip16"><rect x="26755" y="1106" width="1137" height="707"/></clipPath><clipPath id="clip17"><rect x="26755" y="1106" width="1137" height="707"/></clipPath><clipPath id="clip18"><rect x="26755" y="1106" width="1137" height="707"/></clipPath><clipPath id="clip19"><rect x="26931" y="1743" width="150" height="66"/></clipPath><clipPath id="clip20"><rect x="27127" y="1744" width="149" height="66"/></clipPath><clipPath id="clip21"><rect x="27318" y="1745" width="150" height="67"/></clipPath><clipPath id="clip22"><rect x="27517" y="1745" width="150" height="67"/></clipPath><clipPath id="clip23"><rect x="27713" y="1745" width="150" height="67"/></clipPath></defs><g clip-path="url(#clip0)" transform="translate(-26752 -1104)"><rect x="26755" y="1106" width="1137" height="708" fill="#FFFFFF" fill-opacity="1"/><g clip-path="url(#clip1)"><path d="M26906.5 1744.5 27888.5 1744.5M26906.5 1622.55 27888.5 1622.55M26906.5 1500.55 27888.5 1500.55M26906.5 1379.55 27888.5 1379.55M26906.5 1257.54 27888.5 1257.54M26906.5 1135.5 27888.5 1135.5" stroke="#D9D9D9" stroke-width="3.4375" stroke-linecap="butt" stroke-linejoin="round" stroke-miterlimit="10" stroke-opacity="1" fill="none" fill-rule="evenodd"/></g><g clip-path="url(#clip2)"><path d="M26934.9 1188.04 26981.9 1188.04 26981.9 1745 26934.9 1745ZM27130.9 1290.04 27177.9 1290.04 27177.9 1745 27130.9 1745ZM27327.9 1383.05 27373.9 1383.05 27373.9 1745 27327.9 1745ZM27523.9 1484.05 27570.9 1484.05 27570.9 1745 27523.9 1745ZM27719.9 1605.05 27766.9 1605.05 27766.9 1745 27719.9 1745Z" fill="#4472C4" fill-rule="evenodd" fill-opacity="1"/></g><g clip-path="url(#clip3)"><path d="M26981.9 1188.04 27028.9 1188.04 27028.9 1745 26981.9 1745ZM27177.9 1286.04 27224.9 1286.04 27224.9 1745 27177.9 1745ZM27373.9 1375.05 27420.9 1375.05 27420.9 1745 27373.9 1745ZM27570.9 1489.05 27616.9 1489.05 27616.9 1745 27570.9 1745ZM27766.9 1605.05 27813.9 1605.05 27813.9 1745 27766.9 1745Z" fill="#ED7D31" fill-rule="evenodd" fill-opacity="1"/></g><g clip-path="url(#clip4)"><path d="M27028.9 1196.04 27074.9 1196.04 27074.9 1745 27028.9 1745ZM27224.9 1286.04 27271.9 1286.04 27271.9 1745 27224.9 1745ZM27420.9 1396.05 27467.9 1396.05 27467.9 1745 27420.9 1745ZM27616.9 1503.05 27663.9 1503.05 27663.9 1745 27616.9 1745ZM27813.9 1620.05 27859.9 1620.05 27859.9 1745 27813.9 1745Z" fill="#A5A5A5" fill-rule="evenodd" fill-opacity="1"/></g><g clip-path="url(#clip5)"><text fill="#595959" fill-opacity="1" font-family="Calibri,Calibri_MSFontService,sans-serif" font-style="normal" font-variant="normal" font-weight="400" font-stretch="normal" font-size="48" text-anchor="start" direction="ltr" writing-mode="lr-tb" unicode-bidi="normal" text-decoration="none" transform="matrix(1 0 0 1 26837.9 1758)">0</text></g><g clip-path="url(#clip6)"><text fill="#595959" fill-opacity="1" font-family="Calibri,Calibri_MSFontService,sans-serif" font-style="normal" font-variant="normal" font-weight="400" font-stretch="normal" font-size="48" text-anchor="start" direction="ltr" writing-mode="lr-tb" unicode-bidi="normal" text-decoration="none" transform="matrix(1 0 0 1 26837.9 1636)">1</text></g><g clip-path="url(#clip7)"><text fill="#595959" fill-opacity="1" font-family="Calibri,Calibri_MSFontService,sans-serif" font-style="normal" font-variant="normal" font-weight="400" font-stretch="normal" font-size="48" text-anchor="start" direction="ltr" writing-mode="lr-tb" unicode-bidi="normal" text-decoration="none" transform="matrix(1 0 0 1 26837.9 1514)">2</text></g><g clip-path="url(#clip8)"><text fill="#595959" fill-opacity="1" font-family="Calibri,Calibri_MSFontService,sans-serif" font-style="normal" font-variant="normal" font-weight="400" font-stretch="normal" font-size="48" text-anchor="start" direction="ltr" writing-mode="lr-tb" unicode-bidi="normal" text-decoration="none" transform="matrix(1 0 0 1 26837.9 1392)">3</text></g><g clip-path="url(#clip9)"><text fill="#595959" fill-opacity="1" font-family="Calibri,Calibri_MSFontService,sans-serif" font-style="normal" font-variant="normal" font-weight="400" font-stretch="normal" font-size="48" text-anchor="start" direction="ltr" writing-mode="lr-tb" unicode-bidi="normal" text-decoration="none" transform="matrix(1 0 0 1 26837.9 1270)">4</text></g><g clip-path="url(#clip10)"><text fill="#595959" fill-opacity="1" font-family="Calibri,Calibri_MSFontService,sans-serif" font-style="normal" font-variant="normal" font-weight="400" font-stretch="normal" font-size="48" text-anchor="start" direction="ltr" writing-mode="lr-tb" unicode-bidi="normal" text-decoration="none" transform="matrix(1 0 0 1 26837.9 1148)">5</text></g><g clip-path="url(#clip11)"><text fill="#595959" fill-opacity="1" font-family="Calibri,Calibri_MSFontService,sans-serif" font-style="normal" font-variant="normal" font-weight="400" font-stretch="normal" font-size="50" text-anchor="start" direction="ltr" writing-mode="lr-tb" unicode-bidi="normal" text-decoration="none" transform="matrix(6.12323e-17 -1 1 6.12323e-17 26811.6 1725)">Throughput (M ops/s)</text></g><g clip-path="url(#clip12)"><rect x="27548.5" y="1142.5" width="304" height="159" stroke="#000000" stroke-width="3.4375" stroke-linecap="butt" stroke-linejoin="round" stroke-miterlimit="10" stroke-opacity="1" fill="#FFFFFF" fill-opacity="1"/></g><g clip-path="url(#clip13)"><rect x="27611" y="1156" width="26" height="26.9998" fill="#4472C4" fill-opacity="1"/></g><g clip-path="url(#clip14)"><text fill="#595959" fill-opacity="1" font-family="Calibri,Calibri_MSFontService,sans-serif" font-style="normal" font-variant="normal" font-weight="400" font-stretch="normal" font-size="48" text-anchor="start" direction="ltr" writing-mode="lr-tb" unicode-bidi="normal" text-decoration="none" transform="matrix(1 0 0 1 27648.4 1182)">Counter</text></g><g clip-path="url(#clip15)"><rect x="27611" y="1209" width="26" height="27.0001" fill="#ED7D31" fill-opacity="1"/></g><g clip-path="url(#clip16)"><text fill="#595959" fill-opacity="1" font-family="Calibri,Calibri_MSFontService,sans-serif" font-style="normal" font-variant="normal" font-weight="400" font-stretch="normal" font-size="48" text-anchor="start" direction="ltr" writing-mode="lr-tb" unicode-bidi="normal" text-decoration="none" transform="matrix(1 0 0 1 27648.4 1235)">Average</text></g><g clip-path="url(#clip17)"><rect x="27611" y="1262" width="26" height="27.0001" fill="#A5A5A5" fill-opacity="1"/></g><g clip-path="url(#clip18)"><text fill="#595959" fill-opacity="1" font-family="Calibri,Calibri_MSFontService,sans-serif" font-style="normal" font-variant="normal" font-weight="400" font-stretch="normal" font-size="48" text-anchor="start" direction="ltr" writing-mode="lr-tb" unicode-bidi="normal" text-decoration="none" transform="matrix(1 0 0 1 27648.4 1288)">TopK</text></g><g clip-path="url(#clip19)"><text fill="#595959" fill-opacity="1" font-family="Calibri,Calibri_MSFontService,sans-serif" font-style="normal" font-variant="normal" font-weight="400" font-stretch="normal" font-size="48" text-anchor="start" direction="ltr" writing-mode="lr-tb" unicode-bidi="normal" text-decoration="none" transform="matrix(1 0 0 1 26931.4 1789)">5 Rep.</text></g><g clip-path="url(#clip20)"><text fill="#595959" fill-opacity="1" font-family="Calibri,Calibri_MSFontService,sans-serif" font-style="normal" font-variant="normal" font-weight="400" font-stretch="normal" font-size="48" text-anchor="start" direction="ltr" writing-mode="lr-tb" unicode-bidi="normal" text-decoration="none" transform="matrix(1 0 0 1 27127 1790)">4 Rep.</text></g><g clip-path="url(#clip21)"><text fill="#595959" fill-opacity="1" font-family="Calibri,Calibri_MSFontService,sans-serif" font-style="normal" font-variant="normal" font-weight="400" font-stretch="normal" font-size="48" text-anchor="start" direction="ltr" writing-mode="lr-tb" unicode-bidi="normal" text-decoration="none" transform="matrix(1 0 0 1 27318.3 1791)">3 Rep.</text></g><g clip-path="url(#clip22)"><text fill="#595959" fill-opacity="1" font-family="Calibri,Calibri_MSFontService,sans-serif" font-style="normal" font-variant="normal" font-weight="400" font-stretch="normal" font-size="48" text-anchor="start" direction="ltr" writing-mode="lr-tb" unicode-bidi="normal" text-decoration="none" transform="matrix(1 0 0 1 27517.1 1792)">2 Rep.</text></g><g clip-path="url(#clip23)"><text fill="#595959" fill-opacity="1" font-family="Calibri,Calibri_MSFontService,sans-serif" font-style="normal" font-variant="normal" font-weight="400" font-stretch="normal" font-size="48" text-anchor="start" direction="ltr" writing-mode="lr-tb" unicode-bidi="normal" text-decoration="none" transform="matrix(1 0 0 1 27713.3 1791)">1 Rep.</text></g></g></svg>