<svg width="1324" height="683" xmlns="http://www.w3.org/2000/svg" xmlns:xlink="http://www.w3.org/1999/xlink" overflow="hidden"><defs><clipPath id="clip0"><rect x="307" y="5298" width="1324" height="683"/></clipPath><clipPath id="clip1"><rect x="311" y="5301" width="1318" height="676"/></clipPath><clipPath id="clip2"><rect x="311" y="5301" width="1318" height="676"/></clipPath><clipPath id="clip3"><rect x="311" y="5301" width="1318" height="676"/></clipPath><clipPath id="clip4"><rect x="311" y="5301" width="1318" height="676"/></clipPath><clipPath id="clip5"><rect x="499" y="5326" width="1001" height="535"/></clipPath><clipPath id="clip6"><rect x="311" y="5301" width="1318" height="676"/></clipPath><clipPath id="clip7"><rect x="499" y="5326" width="1001" height="535"/></clipPath><clipPath id="clip8"><rect x="311" y="5301" width="1318" height="676"/></clipPath><clipPath id="clip9"><rect x="499" y="5326" width="1001" height="535"/></clipPath><clipPath id="clip10"><rect x="311" y="5301" width="1318" height="676"/></clipPath><clipPath id="clip11"><rect x="311" y="5301" width="1318" height="676"/></clipPath><clipPath id="clip12"><rect x="311" y="5301" width="1318" height="676"/></clipPath><clipPath id="clip13"><rect x="311" y="5301" width="1318" height="676"/></clipPath><clipPath id="clip14"><rect x="311" y="5301" width="1318" height="676"/></clipPath><clipPath id="clip15"><rect x="311" y="5301" width="1318" height="676"/></clipPath><clipPath id="clip16"><rect x="311" y="5301" width="1318" height="676"/></clipPath><clipPath id="clip17"><rect x="311" y="5301" width="1318" height="676"/></clipPath><clipPath id="clip18"><rect x="311" y="5301" width="1318" height="676"/></clipPath><clipPath id="clip19"><rect x="311" y="5301" width="1318" height="676"/></clipPath><clipPath id="clip20"><rect x="311" y="5301" width="1318" height="676"/></clipPath><clipPath id="clip21"><rect x="311" y="5301" width="1318" height="676"/></clipPath><clipPath id="clip22"><rect x="311" y="5301" width="1318" height="676"/></clipPath><clipPath id="clip23"><rect x="311" y="5301" width="1318" height="676"/></clipPath><clipPath id="clip24"><rect x="311" y="5301" width="1318" height="676"/></clipPath><clipPath id="clip25"><rect x="311" y="5301" width="1318" height="676"/></clipPath><clipPath id="clip26"><rect x="311" y="5301" width="1318" height="676"/></clipPath><clipPath id="clip27"><rect x="311" y="5301" width="1318" height="676"/></clipPath><clipPath id="clip28"><rect x="311" y="5301" width="1318" height="676"/></clipPath><clipPath id="clip29"><rect x="311" y="5301" width="1318" height="676"/></clipPath><clipPath id="clip30"><rect x="311" y="5301" width="1318" height="676"/></clipPath><clipPath id="clip31"><rect x="311" y="5301" width="1319" height="677"/></clipPath></defs><g clip-path="url(#clip0)" transform="translate(-307 -5298)"><rect x="312" y="5301" width="1317" height="677" fill="#FFFFFF" fill-opacity="1"/><g clip-path="url(#clip1)"><path d="M499.5 5724.69 1497.5 5724.69M499.5 5591.68 1497.5 5591.68M499.5 5459.68 1497.5 5459.68M499.5 5326.5 1497.5 5326.5" stroke="#D9D9D9" stroke-width="3.4375" stroke-linecap="butt" stroke-linejoin="round" stroke-miterlimit="10" stroke-opacity="1" fill="none" fill-rule="evenodd"/></g><g clip-path="url(#clip2)"><path d="M831.527 5326.5 831.527 5857.5M1164.54 5326.5 1164.54 5857.5M1497.5 5326.5 1497.5 5857.5" stroke="#D9D9D9" stroke-width="3.4375" stroke-linecap="butt" stroke-linejoin="round" stroke-miterlimit="10" stroke-opacity="1" fill="none" fill-rule="evenodd"/></g><g clip-path="url(#clip3)"><path d="M0 0 0.000360892 531" stroke="#BFBFBF" stroke-width="3.4375" stroke-linecap="butt" stroke-linejoin="round" stroke-miterlimit="10" stroke-opacity="1" fill="none" fill-rule="evenodd" transform="matrix(1 0 0 -1 499.5 5857.5)"/></g><g clip-path="url(#clip4)"><path d="M499.5 5857.5 1497.5 5857.5" stroke="#BFBFBF" stroke-width="3.4375" stroke-linecap="butt" stroke-linejoin="round" stroke-miterlimit="10" stroke-opacity="1" fill="none" fill-rule="evenodd"/></g><g clip-path="url(#clip5)"><path d="M1165.5 5798.5 1259.54 5795.69 1306.54 5791.69 1335.54 5786.69 1351.54 5779.69 1360.54 5772.69 1366.54 5766.69 1372.55 5761.69 1379.55 5750.69 1382.5 5741.5" stroke="#4472C4" stroke-width="6.875" stroke-linecap="round" stroke-linejoin="round" stroke-miterlimit="10" stroke-opacity="1" fill="none" fill-rule="evenodd"/></g><g clip-path="url(#clip6)"><path d="M1176.5 5798.7C1176.5 5804.78 1171.57 5809.7 1165.5 5809.7 1159.42 5809.7 1154.5 5804.78 1154.5 5798.7 1154.5 5792.63 1159.42 5787.7 1165.5 5787.7 1171.57 5787.7 1176.5 5792.63 1176.5 5798.7Z" stroke="#4472C4" stroke-width="3.4375" stroke-linecap="butt" stroke-linejoin="round" stroke-miterlimit="10" stroke-opacity="1" fill="#4472C4" fill-rule="evenodd" fill-opacity="1"/><path d="M1270.5 5796.71C1270.5 5802.78 1265.57 5807.7 1259.5 5807.7 1253.42 5807.7 1248.5 5802.78 1248.5 5796.71 1248.5 5790.63 1253.42 5785.71 1259.5 5785.71 1265.57 5785.71 1270.5 5790.63 1270.5 5796.71Z" stroke="#4472C4" stroke-width="3.4375" stroke-linecap="butt" stroke-linejoin="round" stroke-miterlimit="10" stroke-opacity="1" fill="#4472C4" fill-rule="evenodd" fill-opacity="1"/><path d="M1317.5 5791.7C1317.5 5797.78 1312.57 5802.7 1306.5 5802.7 1300.42 5802.7 1295.5 5797.78 1295.5 5791.7 1295.5 5785.63 1300.42 5780.7 1306.5 5780.7 1312.57 5780.7 1317.5 5785.63 1317.5 5791.7Z" stroke="#4472C4" stroke-width="3.4375" stroke-linecap="butt" stroke-linejoin="round" stroke-miterlimit="10" stroke-opacity="1" fill="#4472C4" fill-rule="evenodd" fill-opacity="1"/><path d="M1346.5 5786.71C1346.5 5792.78 1341.57 5797.7 1335.5 5797.7 1329.42 5797.7 1324.5 5792.78 1324.5 5786.71 1324.5 5780.63 1329.42 5775.71 1335.5 5775.71 1341.57 5775.71 1346.5 5780.63 1346.5 5786.71Z" stroke="#4472C4" stroke-width="3.4375" stroke-linecap="butt" stroke-linejoin="round" stroke-miterlimit="10" stroke-opacity="1" fill="#4472C4" fill-rule="evenodd" fill-opacity="1"/><path d="M1362.5 5779.7C1362.5 5785.78 1357.57 5790.7 1351.5 5790.7 1345.42 5790.7 1340.5 5785.78 1340.5 5779.7 1340.5 5773.63 1345.42 5768.7 1351.5 5768.7 1357.57 5768.7 1362.5 5773.63 1362.5 5779.7Z" stroke="#4472C4" stroke-width="3.4375" stroke-linecap="butt" stroke-linejoin="round" stroke-miterlimit="10" stroke-opacity="1" fill="#4472C4" fill-rule="evenodd" fill-opacity="1"/><path d="M1371.5 5773.71C1371.5 5779.78 1366.57 5784.7 1360.5 5784.7 1354.42 5784.7 1349.5 5779.78 1349.5 5773.71 1349.5 5767.63 1354.42 5762.71 1360.5 5762.71 1366.57 5762.71 1371.5 5767.63 1371.5 5773.71Z" stroke="#4472C4" stroke-width="3.4375" stroke-linecap="butt" stroke-linejoin="round" stroke-miterlimit="10" stroke-opacity="1" fill="#4472C4" fill-rule="evenodd" fill-opacity="1"/><path d="M1377.5 5766.7C1377.5 5772.78 1372.57 5777.7 1366.5 5777.7 1360.42 5777.7 1355.5 5772.78 1355.5 5766.7 1355.5 5760.63 1360.42 5755.7 1366.5 5755.7 1372.57 5755.7 1377.5 5760.63 1377.5 5766.7Z" stroke="#4472C4" stroke-width="3.4375" stroke-linecap="butt" stroke-linejoin="round" stroke-miterlimit="10" stroke-opacity="1" fill="#4472C4" fill-rule="evenodd" fill-opacity="1"/><path d="M1383.5 5761.71C1383.5 5767.78 1378.57 5772.7 1372.5 5772.7 1366.42 5772.7 1361.5 5767.78 1361.5 5761.71 1361.5 5755.63 1366.42 5750.71 1372.5 5750.71 1378.57 5750.71 1383.5 5755.63 1383.5 5761.71Z" stroke="#4472C4" stroke-width="3.4375" stroke-linecap="butt" stroke-linejoin="round" stroke-miterlimit="10" stroke-opacity="1" fill="#4472C4" fill-rule="evenodd" fill-opacity="1"/><path d="M1390.5 5751.71C1390.5 5757.78 1385.57 5762.7 1379.5 5762.7 1373.42 5762.7 1368.5 5757.78 1368.5 5751.71 1368.5 5745.63 1373.42 5740.71 1379.5 5740.71 1385.57 5740.71 1390.5 5745.63 1390.5 5751.71Z" stroke="#4472C4" stroke-width="3.4375" stroke-linecap="butt" stroke-linejoin="round" stroke-miterlimit="10" stroke-opacity="1" fill="#4472C4" fill-rule="evenodd" fill-opacity="1"/><path d="M1393.5 5741.71C1393.5 5747.78 1388.57 5752.7 1382.5 5752.7 1376.42 5752.7 1371.5 5747.78 1371.5 5741.71 1371.5 5735.63 1376.42 5730.71 1382.5 5730.71 1388.57 5730.71 1393.5 5735.63 1393.5 5741.71Z" stroke="#4472C4" stroke-width="3.4375" stroke-linecap="butt" stroke-linejoin="round" stroke-miterlimit="10" stroke-opacity="1" fill="#4472C4" fill-rule="evenodd" fill-opacity="1"/></g><g clip-path="url(#clip7)"><path d="M459.5 5416.68 559.519 5416.68 659.522 5416.5 759.525 5415.68 775.526 5415.68 782.5 5412.68 778.526 5400.5" stroke="#ED7D31" stroke-width="6.875" stroke-linecap="round" stroke-linejoin="round" stroke-miterlimit="10" stroke-opacity="1" fill="none" fill-rule="evenodd"/></g><g clip-path="url(#clip8)"><path d="M570.497 5416.7C570.497 5422.78 565.572 5427.7 559.497 5427.7 553.422 5427.7 548.498 5422.78 548.498 5416.7 548.498 5410.63 553.422 5405.7 559.497 5405.7 565.572 5405.7 570.497 5410.63 570.497 5416.7Z" stroke="#ED7D31" stroke-width="3.4375" stroke-linecap="butt" stroke-linejoin="round" stroke-miterlimit="10" stroke-opacity="1" fill="#ED7D31" fill-rule="evenodd" fill-opacity="1"/><path d="M670.497 5416.7C670.497 5422.78 665.572 5427.7 659.497 5427.7 653.422 5427.7 648.498 5422.78 648.498 5416.7 648.498 5410.63 653.422 5405.7 659.497 5405.7 665.572 5405.7 670.497 5410.63 670.497 5416.7Z" stroke="#ED7D31" stroke-width="3.4375" stroke-linecap="butt" stroke-linejoin="round" stroke-miterlimit="10" stroke-opacity="1" fill="#ED7D31" fill-rule="evenodd" fill-opacity="1"/><path d="M770.497 5416.7C770.497 5422.78 765.572 5427.7 759.497 5427.7 753.422 5427.7 748.498 5422.78 748.498 5416.7 748.498 5410.63 753.422 5405.7 759.497 5405.7 765.572 5405.7 770.497 5410.63 770.497 5416.7Z" stroke="#ED7D31" stroke-width="3.4375" stroke-linecap="butt" stroke-linejoin="round" stroke-miterlimit="10" stroke-opacity="1" fill="#ED7D31" fill-rule="evenodd" fill-opacity="1"/><path d="M786.497 5415.7C786.497 5421.78 781.572 5426.7 775.497 5426.7 769.422 5426.7 764.497 5421.78 764.497 5415.7 764.497 5409.63 769.422 5404.7 775.497 5404.7 781.572 5404.7 786.497 5409.63 786.497 5415.7Z" stroke="#ED7D31" stroke-width="3.4375" stroke-linecap="butt" stroke-linejoin="round" stroke-miterlimit="10" stroke-opacity="1" fill="#ED7D31" fill-rule="evenodd" fill-opacity="1"/><path d="M793.497 5412.71C793.497 5418.78 788.572 5423.7 782.497 5423.7 776.422 5423.7 771.497 5418.78 771.497 5412.71 771.497 5406.63 776.422 5401.71 782.497 5401.71 788.572 5401.71 793.497 5406.63 793.497 5412.71Z" stroke="#ED7D31" stroke-width="3.4375" stroke-linecap="butt" stroke-linejoin="round" stroke-miterlimit="10" stroke-opacity="1" fill="#ED7D31" fill-rule="evenodd" fill-opacity="1"/><path d="M789.497 5400.71C789.497 5406.78 784.572 5411.7 778.497 5411.7 772.422 5411.7 767.498 5406.78 767.498 5400.71 767.498 5394.63 772.422 5389.71 778.497 5389.71 784.572 5389.71 789.497 5394.63 789.497 5400.71Z" stroke="#ED7D31" stroke-width="3.4375" stroke-linecap="butt" stroke-linejoin="round" stroke-miterlimit="10" stroke-opacity="1" fill="#ED7D31" fill-rule="evenodd" fill-opacity="1"/></g><g clip-path="url(#clip9)"><path d="M933.5 5705.5 1031.53 5704.69 1110.54 5696.69 1137.54 5683.69 1151.54 5672.69 1155.54 5661.69 1159.54 5652.69 1160.5 5644.69 1160.54 5636.5" stroke="#548235" stroke-width="6.875" stroke-linecap="round" stroke-linejoin="round" stroke-miterlimit="10" stroke-opacity="1" fill="none" fill-rule="evenodd"/></g><g clip-path="url(#clip10)"><path d="M944.497 5705.71C944.497 5711.78 939.572 5716.7 933.497 5716.7 927.422 5716.7 922.498 5711.78 922.498 5705.71 922.498 5699.63 927.422 5694.71 933.497 5694.71 939.572 5694.71 944.497 5699.63 944.497 5705.71Z" stroke="#548235" stroke-width="3.4375" stroke-linecap="butt" stroke-linejoin="round" stroke-miterlimit="10" stroke-opacity="1" fill="#548235" fill-rule="evenodd" fill-opacity="1"/><path d="M1042.5 5705.71C1042.5 5711.78 1037.57 5716.7 1031.5 5716.7 1025.42 5716.7 1020.5 5711.78 1020.5 5705.71 1020.5 5699.63 1025.42 5694.71 1031.5 5694.71 1037.57 5694.71 1042.5 5699.63 1042.5 5705.71Z" stroke="#548235" stroke-width="3.4375" stroke-linecap="butt" stroke-linejoin="round" stroke-miterlimit="10" stroke-opacity="1" fill="#548235" fill-rule="evenodd" fill-opacity="1"/><path d="M1121.5 5696.71C1121.5 5702.78 1116.57 5707.7 1110.5 5707.7 1104.42 5707.7 1099.5 5702.78 1099.5 5696.71 1099.5 5690.63 1104.42 5685.71 1110.5 5685.71 1116.57 5685.71 1121.5 5690.63 1121.5 5696.71Z" stroke="#548235" stroke-width="3.4375" stroke-linecap="butt" stroke-linejoin="round" stroke-miterlimit="10" stroke-opacity="1" fill="#548235" fill-rule="evenodd" fill-opacity="1"/><path d="M1148.5 5683.71C1148.5 5689.78 1143.57 5694.7 1137.5 5694.7 1131.42 5694.7 1126.5 5689.78 1126.5 5683.71 1126.5 5677.63 1131.42 5672.71 1137.5 5672.71 1143.57 5672.71 1148.5 5677.63 1148.5 5683.71Z" stroke="#548235" stroke-width="3.4375" stroke-linecap="butt" stroke-linejoin="round" stroke-miterlimit="10" stroke-opacity="1" fill="#548235" fill-rule="evenodd" fill-opacity="1"/><path d="M1162.5 5672.71C1162.5 5678.78 1157.57 5683.7 1151.5 5683.7 1145.42 5683.7 1140.5 5678.78 1140.5 5672.71 1140.5 5666.63 1145.42 5661.71 1151.5 5661.71 1157.57 5661.71 1162.5 5666.63 1162.5 5672.71Z" stroke="#548235" stroke-width="3.4375" stroke-linecap="butt" stroke-linejoin="round" stroke-miterlimit="10" stroke-opacity="1" fill="#548235" fill-rule="evenodd" fill-opacity="1"/><path d="M1166.5 5661.71C1166.5 5667.78 1161.57 5672.7 1155.5 5672.7 1149.42 5672.7 1144.5 5667.78 1144.5 5661.71 1144.5 5655.63 1149.42 5650.71 1155.5 5650.71 1161.57 5650.71 1166.5 5655.63 1166.5 5661.71Z" stroke="#548235" stroke-width="3.4375" stroke-linecap="butt" stroke-linejoin="round" stroke-miterlimit="10" stroke-opacity="1" fill="#548235" fill-rule="evenodd" fill-opacity="1"/><path d="M1170.5 5652.71C1170.5 5658.78 1165.57 5663.7 1159.5 5663.7 1153.42 5663.7 1148.5 5658.78 1148.5 5652.71 1148.5 5646.63 1153.42 5641.71 1159.5 5641.71 1165.57 5641.71 1170.5 5646.63 1170.5 5652.71Z" stroke="#548235" stroke-width="3.4375" stroke-linecap="butt" stroke-linejoin="round" stroke-miterlimit="10" stroke-opacity="1" fill="#548235" fill-rule="evenodd" fill-opacity="1"/><path d="M1171.5 5644.7C1171.5 5650.78 1166.57 5655.7 1160.5 5655.7 1154.42 5655.7 1149.5 5650.78 1149.5 5644.7 1149.5 5638.63 1154.42 5633.7 1160.5 5633.7 1166.57 5633.7 1171.5 5638.63 1171.5 5644.7Z" stroke="#548235" stroke-width="3.4375" stroke-linecap="butt" stroke-linejoin="round" stroke-miterlimit="10" stroke-opacity="1" fill="#548235" fill-rule="evenodd" fill-opacity="1"/><path d="M1171.5 5636.7C1171.5 5642.78 1166.57 5647.7 1160.5 5647.7 1154.42 5647.7 1149.5 5642.78 1149.5 5636.7 1149.5 5630.63 1154.42 5625.7 1160.5 5625.7 1166.57 5625.7 1171.5 5630.63 1171.5 5636.7Z" stroke="#548235" stroke-width="3.4375" stroke-linecap="butt" stroke-linejoin="round" stroke-miterlimit="10" stroke-opacity="1" fill="#548235" fill-rule="evenodd" fill-opacity="1"/></g><g clip-path="url(#clip11)"><text fill="#595959" fill-opacity="1" font-family="Calibri,Calibri_MSFontService,sans-serif" font-style="normal" font-variant="normal" font-weight="400" font-stretch="normal" font-size="41" text-anchor="start" direction="ltr" writing-mode="lr-tb" unicode-bidi="normal" text-decoration="none" transform="matrix(1 0 0 1 408.916 5868)">0,1</text></g><g clip-path="url(#clip12)"><text fill="#595959" fill-opacity="1" font-family="Calibri,Calibri_MSFontService,sans-serif" font-style="normal" font-variant="normal" font-weight="400" font-stretch="normal" font-size="41" text-anchor="start" direction="ltr" writing-mode="lr-tb" unicode-bidi="normal" text-decoration="none" transform="matrix(1 0 0 1 440.106 5735)">1</text></g><g clip-path="url(#clip13)"><text fill="#595959" fill-opacity="1" font-family="Calibri,Calibri_MSFontService,sans-serif" font-style="normal" font-variant="normal" font-weight="400" font-stretch="normal" font-size="41" text-anchor="start" direction="ltr" writing-mode="lr-tb" unicode-bidi="normal" text-decoration="none" transform="matrix(1 0 0 1 419.206 5602)">10</text></g><g clip-path="url(#clip14)"><text fill="#595959" fill-opacity="1" font-family="Calibri,Calibri_MSFontService,sans-serif" font-style="normal" font-variant="normal" font-weight="400" font-stretch="normal" font-size="41" text-anchor="start" direction="ltr" writing-mode="lr-tb" unicode-bidi="normal" text-decoration="none" transform="matrix(1 0 0 1 398.306 5469)">100</text></g><g clip-path="url(#clip15)"><text fill="#595959" fill-opacity="1" font-family="Calibri,Calibri_MSFontService,sans-serif" font-style="normal" font-variant="normal" font-weight="400" font-stretch="normal" font-size="41" text-anchor="start" direction="ltr" writing-mode="lr-tb" unicode-bidi="normal" text-decoration="none" transform="matrix(1 0 0 1 377.406 5336)">1000</text></g><g clip-path="url(#clip16)"><text fill="#595959" fill-opacity="1" font-family="Calibri,Calibri_MSFontService,sans-serif" font-style="normal" font-variant="normal" font-weight="400" font-stretch="normal" font-size="41" text-anchor="start" direction="ltr" writing-mode="lr-tb" unicode-bidi="normal" text-decoration="none" transform="matrix(1 0 0 1 447.023 5923)">10000</text></g><g clip-path="url(#clip17)"><text fill="#595959" fill-opacity="1" font-family="Calibri,Calibri_MSFontService,sans-serif" font-style="normal" font-variant="normal" font-weight="400" font-stretch="normal" font-size="41" text-anchor="start" direction="ltr" writing-mode="lr-tb" unicode-bidi="normal" text-decoration="none" transform="matrix(1 0 0 1 769.297 5923)">100000</text></g><g clip-path="url(#clip18)"><text fill="#595959" fill-opacity="1" font-family="Calibri,Calibri_MSFontService,sans-serif" font-style="normal" font-variant="normal" font-weight="400" font-stretch="normal" font-size="41" text-anchor="start" direction="ltr" writing-mode="lr-tb" unicode-bidi="normal" text-decoration="none" transform="matrix(1 0 0 1 1091.57 5923)">1000000</text></g><g clip-path="url(#clip19)"><text fill="#595959" fill-opacity="1" font-family="Calibri,Calibri_MSFontService,sans-serif" font-style="normal" font-variant="normal" font-weight="400" font-stretch="normal" font-size="41" text-anchor="start" direction="ltr" writing-mode="lr-tb" unicode-bidi="normal" text-decoration="none" transform="matrix(1 0 0 1 1413.85 5923)">10000000</text></g><g clip-path="url(#clip20)"><text fill="#595959" fill-opacity="1" font-family="Calibri,Calibri_MSFontService,sans-serif" font-style="normal" font-variant="normal" font-weight="400" font-stretch="normal" font-size="41" text-anchor="start" direction="ltr" writing-mode="lr-tb" unicode-bidi="normal" text-decoration="none" transform="matrix(1 0 0 1 917.085 5959)">Queries/s</text></g><g clip-path="url(#clip21)"><rect x="1154.5" y="5338.5" width="339" height="146" stroke="#000000" stroke-width="3.4375" stroke-linecap="butt" stroke-linejoin="round" stroke-miterlimit="10" stroke-opacity="1" fill="#FFFFFF" fill-opacity="1"/></g><g clip-path="url(#clip22)"><path d="M1197.5 5362.5 1285.5 5362.5" stroke="#4472C4" stroke-width="6.875" stroke-linecap="round" stroke-linejoin="round" stroke-miterlimit="10" stroke-opacity="1" fill="none" fill-rule="evenodd"/></g><g clip-path="url(#clip23)"><path d="M1252 5362C1252 5368.07 1247.08 5373 1241 5373 1234.93 5373 1230 5368.07 1230 5362 1230 5355.92 1234.93 5351 1241 5351 1247.08 5351 1252 5355.92 1252 5362Z" stroke="#4472C4" stroke-width="3.4375" stroke-linecap="butt" stroke-linejoin="round" stroke-miterlimit="10" stroke-opacity="1" fill="#4472C4" fill-rule="evenodd" fill-opacity="1"/></g><g clip-path="url(#clip24)"><text fill="#595959" fill-opacity="1" font-family="Calibri,Calibri_MSFontService,sans-serif" font-style="normal" font-variant="normal" font-weight="400" font-stretch="normal" font-size="41" text-anchor="start" direction="ltr" writing-mode="lr-tb" unicode-bidi="normal" text-decoration="none" transform="matrix(1 0 0 1 1294.61 5373)">PotionDB</text></g><g clip-path="url(#clip25)"><path d="M1197.5 5411.5 1285.5 5411.5" stroke="#ED7D31" stroke-width="6.875" stroke-linecap="round" stroke-linejoin="round" stroke-miterlimit="10" stroke-opacity="1" fill="none" fill-rule="evenodd"/></g><g clip-path="url(#clip26)"><path d="M1252 5411C1252 5417.07 1247.08 5422 1241 5422 1234.93 5422 1230 5417.07 1230 5411 1230 5404.92 1234.93 5400 1241 5400 1247.08 5400 1252 5404.92 1252 5411Z" stroke="#ED7D31" stroke-width="3.4375" stroke-linecap="butt" stroke-linejoin="round" stroke-miterlimit="10" stroke-opacity="1" fill="#ED7D31" fill-rule="evenodd" fill-opacity="1"/></g><g clip-path="url(#clip27)"><text fill="#595959" fill-opacity="1" font-family="Calibri,Calibri_MSFontService,sans-serif" font-style="normal" font-variant="normal" font-weight="400" font-stretch="normal" font-size="41" text-anchor="start" direction="ltr" writing-mode="lr-tb" unicode-bidi="normal" text-decoration="none" transform="matrix(1 0 0 1 1294.61 5422)">Local</text></g><g clip-path="url(#clip28)"><path d="M1197.5 5460.5 1285.5 5460.5" stroke="#548235" stroke-width="6.875" stroke-linecap="round" stroke-linejoin="round" stroke-miterlimit="10" stroke-opacity="1" fill="none" fill-rule="evenodd"/></g><g clip-path="url(#clip29)"><path d="M1252 5460C1252 5466.07 1247.08 5471 1241 5471 1234.93 5471 1230 5466.07 1230 5460 1230 5453.92 1234.93 5449 1241 5449 1247.08 5449 1252 5453.92 1252 5460Z" stroke="#548235" stroke-width="3.4375" stroke-linecap="butt" stroke-linejoin="round" stroke-miterlimit="10" stroke-opacity="1" fill="#548235" fill-rule="evenodd" fill-opacity="1"/></g><g clip-path="url(#clip30)"><text fill="#595959" fill-opacity="1" font-family="Calibri,Calibri_MSFontService,sans-serif" font-style="normal" font-variant="normal" font-weight="400" font-stretch="normal" font-size="41" text-anchor="start" direction="ltr" writing-mode="lr-tb" unicode-bidi="normal" text-decoration="none" transform="matrix(1 0 0 1 1294.61 5470)">Single</text></g><rect x="312.5" y="5301.5" width="1317" height="677" stroke="#D9D9D9" stroke-width="3.4375" stroke-linecap="butt" stroke-linejoin="round" stroke-miterlimit="10" stroke-opacity="1" fill="none"/><g clip-path="url(#clip31)"><text fill="#595959" fill-opacity="1" font-family="Calibri,Calibri_MSFontService,sans-serif" font-style="normal" font-variant="normal" font-weight="400" font-stretch="normal" font-size="41" text-anchor="start" direction="ltr" writing-mode="lr-tb" unicode-bidi="normal" text-decoration="none" transform="matrix(-1.83697e-16 -1 1 -1.83697e-16 367.502 5950)">Latency per transaction (ms)</text></g></g></svg>