<svg width="1325" height="683" xmlns="http://www.w3.org/2000/svg" xmlns:xlink="http://www.w3.org/1999/xlink" overflow="hidden"><defs><clipPath id="clip0"><rect x="1787" y="5289" width="1325" height="683"/></clipPath><clipPath id="clip1"><rect x="1789" y="5292" width="1317" height="677"/></clipPath><clipPath id="clip2"><rect x="1789" y="5292" width="1317" height="677"/></clipPath><clipPath id="clip3"><rect x="1789" y="5292" width="1317" height="677"/></clipPath><clipPath id="clip4"><rect x="1789" y="5292" width="1317" height="677"/></clipPath><clipPath id="clip5"><rect x="1976" y="5318" width="1002" height="534"/></clipPath><clipPath id="clip6"><rect x="1789" y="5292" width="1317" height="677"/></clipPath><clipPath id="clip7"><rect x="1976" y="5318" width="1002" height="534"/></clipPath><clipPath id="clip8"><rect x="1789" y="5292" width="1317" height="677"/></clipPath><clipPath id="clip9"><rect x="1976" y="5318" width="1002" height="534"/></clipPath><clipPath id="clip10"><rect x="1789" y="5292" width="1317" height="677"/></clipPath><clipPath id="clip11"><rect x="1789" y="5292" width="1317" height="677"/></clipPath><clipPath id="clip12"><rect x="1789" y="5292" width="1317" height="677"/></clipPath><clipPath id="clip13"><rect x="1789" y="5292" width="1317" height="677"/></clipPath><clipPath id="clip14"><rect x="1789" y="5292" width="1317" height="677"/></clipPath><clipPath id="clip15"><rect x="1789" y="5292" width="1317" height="677"/></clipPath><clipPath id="clip16"><rect x="1789" y="5292" width="1317" height="677"/></clipPath><clipPath id="clip17"><rect x="1789" y="5292" width="1317" height="677"/></clipPath><clipPath id="clip18"><rect x="1789" y="5292" width="1317" height="677"/></clipPath><clipPath id="clip19"><rect x="1789" y="5292" width="1317" height="677"/></clipPath><clipPath id="clip20"><rect x="1789" y="5292" width="1317" height="677"/></clipPath><clipPath id="clip21"><rect x="1789" y="5292" width="1317" height="677"/></clipPath><clipPath id="clip22"><rect x="1789" y="5292" width="1317" height="677"/></clipPath><clipPath id="clip23"><rect x="1789" y="5292" width="1317" height="677"/></clipPath><clipPath id="clip24"><rect x="1789" y="5292" width="1317" height="677"/></clipPath><clipPath id="clip25"><rect x="1789" y="5292" width="1317" height="677"/></clipPath><clipPath id="clip26"><rect x="1789" y="5292" width="1317" height="677"/></clipPath><clipPath id="clip27"><rect x="1789" y="5292" width="1317" height="677"/></clipPath><clipPath id="clip28"><rect x="1789" y="5292" width="1317" height="677"/></clipPath><clipPath id="clip29"><rect x="1789" y="5292" width="1317" height="677"/></clipPath><clipPath id="clip30"><rect x="1789" y="5292" width="1317" height="677"/></clipPath><clipPath id="clip31"><rect x="1789" y="5292" width="1317" height="677"/></clipPath><clipPath id="clip32"><rect x="1789" y="5292" width="1317" height="677"/></clipPath><clipPath id="clip33"><rect x="1789" y="5292" width="1317" height="677"/></clipPath><clipPath id="clip34"><rect x="1789" y="5292" width="1317" height="677"/></clipPath><clipPath id="clip35"><rect x="1789" y="5292" width="1318" height="678"/></clipPath></defs><g clip-path="url(#clip0)" transform="translate(-1787 -5289)"><rect x="1789" y="5293" width="1317" height="676" fill="#FFFFFF" fill-opacity="1"/><g clip-path="url(#clip1)"><path d="M1976.5 5773.69 2974.5 5773.69M1976.5 5697.69 2974.5 5697.69M1976.5 5621.68 2974.5 5621.68M1976.5 5545.68 2974.5 5545.68M1976.5 5469.68 2974.5 5469.68M1976.5 5393.68 2974.5 5393.68M1976.5 5318.5 2974.5 5318.5" stroke="#D9D9D9" stroke-width="3.4375" stroke-linecap="butt" stroke-linejoin="round" stroke-miterlimit="10" stroke-opacity="1" fill="none" fill-rule="evenodd"/></g><g clip-path="url(#clip2)"><path d="M2198.57 5318.5 2198.57 5849.5M2419.58 5318.5 2419.58 5849.5M2641.59 5318.5 2641.59 5849.5M2863.5 5318.5 2863.5 5849.5" stroke="#D9D9D9" stroke-width="3.4375" stroke-linecap="butt" stroke-linejoin="round" stroke-miterlimit="10" stroke-opacity="1" fill="none" fill-rule="evenodd"/></g><g clip-path="url(#clip3)"><path d="M0 0 0.000360892 531" stroke="#BFBFBF" stroke-width="3.4375" stroke-linecap="butt" stroke-linejoin="round" stroke-miterlimit="10" stroke-opacity="1" fill="none" fill-rule="evenodd" transform="matrix(1 0 0 -1 1976.5 5849.5)"/></g><g clip-path="url(#clip4)"><path d="M1976.5 5849.5 2974.5 5849.5" stroke="#BFBFBF" stroke-width="3.4375" stroke-linecap="butt" stroke-linejoin="round" stroke-miterlimit="10" stroke-opacity="1" fill="none" fill-rule="evenodd"/></g><g clip-path="url(#clip5)"><path d="M2214.5 5815.5 2406.58 5811.69 2546.58 5806.69 2652.59 5801.69 2727.59 5795.69 2788.59 5789.69 2838.59 5783.69 2873.59 5777.69 2893.5 5761.69 2889.59 5743.5" stroke="#4472C4" stroke-width="6.875" stroke-linecap="round" stroke-linejoin="round" stroke-miterlimit="10" stroke-opacity="1" fill="none" fill-rule="evenodd"/></g><g clip-path="url(#clip6)"><path d="M2225.66 5815.42C2225.66 5821.5 2220.73 5826.42 2214.66 5826.42 2208.58 5826.42 2203.66 5821.5 2203.66 5815.42 2203.66 5809.35 2208.58 5804.42 2214.66 5804.42 2220.73 5804.42 2225.66 5809.35 2225.66 5815.42Z" stroke="#4472C4" stroke-width="3.4375" stroke-linecap="butt" stroke-linejoin="round" stroke-miterlimit="10" stroke-opacity="1" fill="#4472C4" fill-rule="evenodd" fill-opacity="1"/><path d="M2417.66 5811.42C2417.66 5817.5 2412.73 5822.42 2406.66 5822.42 2400.58 5822.42 2395.66 5817.5 2395.66 5811.42 2395.66 5805.35 2400.58 5800.42 2406.66 5800.42 2412.73 5800.42 2417.66 5805.35 2417.66 5811.42Z" stroke="#4472C4" stroke-width="3.4375" stroke-linecap="butt" stroke-linejoin="round" stroke-miterlimit="10" stroke-opacity="1" fill="#4472C4" fill-rule="evenodd" fill-opacity="1"/><path d="M2557.66 5806.42C2557.66 5812.5 2552.73 5817.42 2546.66 5817.42 2540.58 5817.42 2535.66 5812.5 2535.66 5806.42 2535.66 5800.35 2540.58 5795.42 2546.66 5795.42 2552.73 5795.42 2557.66 5800.35 2557.66 5806.42Z" stroke="#4472C4" stroke-width="3.4375" stroke-linecap="butt" stroke-linejoin="round" stroke-miterlimit="10" stroke-opacity="1" fill="#4472C4" fill-rule="evenodd" fill-opacity="1"/><path d="M2663.66 5801.42C2663.66 5807.5 2658.73 5812.42 2652.66 5812.42 2646.58 5812.42 2641.66 5807.5 2641.66 5801.42 2641.66 5795.35 2646.58 5790.42 2652.66 5790.42 2658.73 5790.42 2663.66 5795.35 2663.66 5801.42Z" stroke="#4472C4" stroke-width="3.4375" stroke-linecap="butt" stroke-linejoin="round" stroke-miterlimit="10" stroke-opacity="1" fill="#4472C4" fill-rule="evenodd" fill-opacity="1"/><path d="M2738.66 5795.42C2738.66 5801.5 2733.73 5806.42 2727.66 5806.42 2721.58 5806.42 2716.66 5801.5 2716.66 5795.42 2716.66 5789.35 2721.58 5784.42 2727.66 5784.42 2733.73 5784.42 2738.66 5789.35 2738.66 5795.42Z" stroke="#4472C4" stroke-width="3.4375" stroke-linecap="butt" stroke-linejoin="round" stroke-miterlimit="10" stroke-opacity="1" fill="#4472C4" fill-rule="evenodd" fill-opacity="1"/><path d="M2799.66 5789.42C2799.66 5795.5 2794.73 5800.42 2788.66 5800.42 2782.58 5800.42 2777.66 5795.5 2777.66 5789.42 2777.66 5783.35 2782.58 5778.42 2788.66 5778.42 2794.73 5778.42 2799.66 5783.35 2799.66 5789.42Z" stroke="#4472C4" stroke-width="3.4375" stroke-linecap="butt" stroke-linejoin="round" stroke-miterlimit="10" stroke-opacity="1" fill="#4472C4" fill-rule="evenodd" fill-opacity="1"/><path d="M2849.66 5783.42C2849.66 5789.5 2844.73 5794.42 2838.66 5794.42 2832.58 5794.42 2827.66 5789.5 2827.66 5783.42 2827.66 5777.35 2832.58 5772.42 2838.66 5772.42 2844.73 5772.42 2849.66 5777.35 2849.66 5783.42Z" stroke="#4472C4" stroke-width="3.4375" stroke-linecap="butt" stroke-linejoin="round" stroke-miterlimit="10" stroke-opacity="1" fill="#4472C4" fill-rule="evenodd" fill-opacity="1"/><path d="M2884.66 5777.42C2884.66 5783.5 2879.73 5788.42 2873.66 5788.42 2867.58 5788.42 2862.66 5783.5 2862.66 5777.42 2862.66 5771.35 2867.58 5766.42 2873.66 5766.42 2879.73 5766.42 2884.66 5771.35 2884.66 5777.42Z" stroke="#4472C4" stroke-width="3.4375" stroke-linecap="butt" stroke-linejoin="round" stroke-miterlimit="10" stroke-opacity="1" fill="#4472C4" fill-rule="evenodd" fill-opacity="1"/><path d="M2904.66 5761.42C2904.66 5767.5 2899.73 5772.42 2893.66 5772.42 2887.58 5772.42 2882.66 5767.5 2882.66 5761.42 2882.66 5755.35 2887.58 5750.42 2893.66 5750.42 2899.73 5750.42 2904.66 5755.35 2904.66 5761.42Z" stroke="#4472C4" stroke-width="3.4375" stroke-linecap="butt" stroke-linejoin="round" stroke-miterlimit="10" stroke-opacity="1" fill="#4472C4" fill-rule="evenodd" fill-opacity="1"/><path d="M2900.66 5743.42C2900.66 5749.5 2895.73 5754.42 2889.66 5754.42 2883.58 5754.42 2878.66 5749.5 2878.66 5743.42 2878.66 5737.35 2883.58 5732.42 2889.66 5732.42 2895.73 5732.42 2900.66 5737.35 2900.66 5743.42Z" stroke="#4472C4" stroke-width="3.4375" stroke-linecap="butt" stroke-linejoin="round" stroke-miterlimit="10" stroke-opacity="1" fill="#4472C4" fill-rule="evenodd" fill-opacity="1"/></g><g clip-path="url(#clip7)"><path d="M2054.5 5823.69 2149.57 5826.5 2320.58 5825.69 2463.58 5824.69 2573.58 5822.69 2744.59 5817.69 2810.59 5810.69 2827.59 5801.69 2830.59 5792.69 2847.5 5784.69 2845.59 5774.69 2834.59 5755.5" stroke="#ED7D31" stroke-width="6.875" stroke-linecap="round" stroke-linejoin="round" stroke-miterlimit="10" stroke-opacity="1" fill="none" fill-rule="evenodd"/></g><g clip-path="url(#clip8)"><path d="M2065.66 5823.42C2065.66 5829.5 2060.73 5834.42 2054.66 5834.42 2048.58 5834.42 2043.66 5829.5 2043.66 5823.42 2043.66 5817.35 2048.58 5812.42 2054.66 5812.42 2060.73 5812.42 2065.66 5817.35 2065.66 5823.42Z" stroke="#ED7D31" stroke-width="3.4375" stroke-linecap="butt" stroke-linejoin="round" stroke-miterlimit="10" stroke-opacity="1" fill="#ED7D31" fill-rule="evenodd" fill-opacity="1"/><path d="M2160.66 5826.42C2160.66 5832.5 2155.73 5837.42 2149.66 5837.42 2143.58 5837.42 2138.66 5832.5 2138.66 5826.42 2138.66 5820.35 2143.58 5815.42 2149.66 5815.42 2155.73 5815.42 2160.66 5820.35 2160.66 5826.42Z" stroke="#ED7D31" stroke-width="3.4375" stroke-linecap="butt" stroke-linejoin="round" stroke-miterlimit="10" stroke-opacity="1" fill="#ED7D31" fill-rule="evenodd" fill-opacity="1"/><path d="M2332.66 5825.42C2332.66 5831.5 2327.73 5836.42 2321.66 5836.42 2315.58 5836.42 2310.66 5831.5 2310.66 5825.42 2310.66 5819.35 2315.58 5814.42 2321.66 5814.42 2327.73 5814.42 2332.66 5819.35 2332.66 5825.42Z" stroke="#ED7D31" stroke-width="3.4375" stroke-linecap="butt" stroke-linejoin="round" stroke-miterlimit="10" stroke-opacity="1" fill="#ED7D31" fill-rule="evenodd" fill-opacity="1"/><path d="M2474.66 5824.42C2474.66 5830.5 2469.73 5835.42 2463.66 5835.42 2457.58 5835.42 2452.66 5830.5 2452.66 5824.42 2452.66 5818.35 2457.58 5813.42 2463.66 5813.42 2469.73 5813.42 2474.66 5818.35 2474.66 5824.42Z" stroke="#ED7D31" stroke-width="3.4375" stroke-linecap="butt" stroke-linejoin="round" stroke-miterlimit="10" stroke-opacity="1" fill="#ED7D31" fill-rule="evenodd" fill-opacity="1"/><path d="M2585.66 5822.42C2585.66 5828.5 2580.73 5833.42 2574.66 5833.42 2568.58 5833.42 2563.66 5828.5 2563.66 5822.42 2563.66 5816.35 2568.58 5811.42 2574.66 5811.42 2580.73 5811.42 2585.66 5816.35 2585.66 5822.42Z" stroke="#ED7D31" stroke-width="3.4375" stroke-linecap="butt" stroke-linejoin="round" stroke-miterlimit="10" stroke-opacity="1" fill="#ED7D31" fill-rule="evenodd" fill-opacity="1"/><path d="M2755.66 5817.42C2755.66 5823.5 2750.73 5828.42 2744.66 5828.42 2738.58 5828.42 2733.66 5823.5 2733.66 5817.42 2733.66 5811.35 2738.58 5806.42 2744.66 5806.42 2750.73 5806.42 2755.66 5811.35 2755.66 5817.42Z" stroke="#ED7D31" stroke-width="3.4375" stroke-linecap="butt" stroke-linejoin="round" stroke-miterlimit="10" stroke-opacity="1" fill="#ED7D31" fill-rule="evenodd" fill-opacity="1"/><path d="M2821.66 5810.42C2821.66 5816.5 2816.73 5821.42 2810.66 5821.42 2804.58 5821.42 2799.66 5816.5 2799.66 5810.42 2799.66 5804.35 2804.58 5799.42 2810.66 5799.42 2816.73 5799.42 2821.66 5804.35 2821.66 5810.42Z" stroke="#ED7D31" stroke-width="3.4375" stroke-linecap="butt" stroke-linejoin="round" stroke-miterlimit="10" stroke-opacity="1" fill="#ED7D31" fill-rule="evenodd" fill-opacity="1"/><path d="M2838.66 5801.42C2838.66 5807.5 2833.73 5812.42 2827.66 5812.42 2821.58 5812.42 2816.66 5807.5 2816.66 5801.42 2816.66 5795.35 2821.58 5790.42 2827.66 5790.42 2833.73 5790.42 2838.66 5795.35 2838.66 5801.42Z" stroke="#ED7D31" stroke-width="3.4375" stroke-linecap="butt" stroke-linejoin="round" stroke-miterlimit="10" stroke-opacity="1" fill="#ED7D31" fill-rule="evenodd" fill-opacity="1"/><path d="M2841.66 5792.42C2841.66 5798.5 2836.73 5803.42 2830.66 5803.42 2824.58 5803.42 2819.66 5798.5 2819.66 5792.42 2819.66 5786.35 2824.58 5781.42 2830.66 5781.42 2836.73 5781.42 2841.66 5786.35 2841.66 5792.42Z" stroke="#ED7D31" stroke-width="3.4375" stroke-linecap="butt" stroke-linejoin="round" stroke-miterlimit="10" stroke-opacity="1" fill="#ED7D31" fill-rule="evenodd" fill-opacity="1"/><path d="M2858.66 5784.42C2858.66 5790.5 2853.73 5795.42 2847.66 5795.42 2841.58 5795.42 2836.66 5790.5 2836.66 5784.42 2836.66 5778.35 2841.58 5773.42 2847.66 5773.42 2853.73 5773.42 2858.66 5778.35 2858.66 5784.42Z" stroke="#ED7D31" stroke-width="3.4375" stroke-linecap="butt" stroke-linejoin="round" stroke-miterlimit="10" stroke-opacity="1" fill="#ED7D31" fill-rule="evenodd" fill-opacity="1"/><path d="M2856.66 5774.42C2856.66 5780.5 2851.73 5785.42 2845.66 5785.42 2839.58 5785.42 2834.66 5780.5 2834.66 5774.42 2834.66 5768.35 2839.58 5763.42 2845.66 5763.42 2851.73 5763.42 2856.66 5768.35 2856.66 5774.42Z" stroke="#ED7D31" stroke-width="3.4375" stroke-linecap="butt" stroke-linejoin="round" stroke-miterlimit="10" stroke-opacity="1" fill="#ED7D31" fill-rule="evenodd" fill-opacity="1"/><path d="M2846.66 5755.42C2846.66 5761.5 2841.73 5766.42 2835.66 5766.42 2829.58 5766.42 2824.66 5761.5 2824.66 5755.42 2824.66 5749.35 2829.58 5744.42 2835.66 5744.42 2841.73 5744.42 2846.66 5749.35 2846.66 5755.42Z" stroke="#ED7D31" stroke-width="3.4375" stroke-linecap="butt" stroke-linejoin="round" stroke-miterlimit="10" stroke-opacity="1" fill="#ED7D31" fill-rule="evenodd" fill-opacity="1"/></g><g clip-path="url(#clip9)"><path d="M2023.5 5646.69 2069.57 5647.5 2116.57 5580.68 2147.57 5518.68 2173.57 5466.68 2177.5 5380.5" stroke="#548235" stroke-width="6.875" stroke-linecap="round" stroke-linejoin="round" stroke-miterlimit="10" stroke-opacity="1" fill="none" fill-rule="evenodd"/></g><g clip-path="url(#clip10)"><path d="M2034.66 5647.42C2034.66 5653.5 2029.73 5658.42 2023.66 5658.42 2017.58 5658.42 2012.66 5653.5 2012.66 5647.42 2012.66 5641.35 2017.58 5636.42 2023.66 5636.42 2029.73 5636.42 2034.66 5641.35 2034.66 5647.42Z" stroke="#548235" stroke-width="3.4375" stroke-linecap="butt" stroke-linejoin="round" stroke-miterlimit="10" stroke-opacity="1" fill="#548235" fill-rule="evenodd" fill-opacity="1"/><path d="M2080.66 5647.42C2080.66 5653.5 2075.73 5658.42 2069.66 5658.42 2063.58 5658.42 2058.66 5653.5 2058.66 5647.42 2058.66 5641.35 2063.58 5636.42 2069.66 5636.42 2075.73 5636.42 2080.66 5641.35 2080.66 5647.42Z" stroke="#548235" stroke-width="3.4375" stroke-linecap="butt" stroke-linejoin="round" stroke-miterlimit="10" stroke-opacity="1" fill="#548235" fill-rule="evenodd" fill-opacity="1"/><path d="M2127.66 5580.42C2127.66 5586.5 2122.73 5591.42 2116.66 5591.42 2110.58 5591.42 2105.66 5586.5 2105.66 5580.42 2105.66 5574.35 2110.58 5569.42 2116.66 5569.42 2122.73 5569.42 2127.66 5574.35 2127.66 5580.42Z" stroke="#548235" stroke-width="3.4375" stroke-linecap="butt" stroke-linejoin="round" stroke-miterlimit="10" stroke-opacity="1" fill="#548235" fill-rule="evenodd" fill-opacity="1"/><path d="M2158.66 5518.42C2158.66 5524.5 2153.73 5529.42 2147.66 5529.42 2141.58 5529.42 2136.66 5524.5 2136.66 5518.42 2136.66 5512.35 2141.58 5507.42 2147.66 5507.42 2153.73 5507.42 2158.66 5512.35 2158.66 5518.42Z" stroke="#548235" stroke-width="3.4375" stroke-linecap="butt" stroke-linejoin="round" stroke-miterlimit="10" stroke-opacity="1" fill="#548235" fill-rule="evenodd" fill-opacity="1"/><path d="M2184.66 5466.42C2184.66 5472.5 2179.73 5477.42 2173.66 5477.42 2167.58 5477.42 2162.66 5472.5 2162.66 5466.42 2162.66 5460.35 2167.58 5455.42 2173.66 5455.42 2179.73 5455.42 2184.66 5460.35 2184.66 5466.42Z" stroke="#548235" stroke-width="3.4375" stroke-linecap="butt" stroke-linejoin="round" stroke-miterlimit="10" stroke-opacity="1" fill="#548235" fill-rule="evenodd" fill-opacity="1"/><path d="M2188.66 5380.42C2188.66 5386.5 2183.73 5391.42 2177.66 5391.42 2171.58 5391.42 2166.66 5386.5 2166.66 5380.42 2166.66 5374.35 2171.58 5369.42 2177.66 5369.42 2183.73 5369.42 2188.66 5374.35 2188.66 5380.42Z" stroke="#548235" stroke-width="3.4375" stroke-linecap="butt" stroke-linejoin="round" stroke-miterlimit="10" stroke-opacity="1" fill="#548235" fill-rule="evenodd" fill-opacity="1"/></g><g clip-path="url(#clip11)"><text fill="#595959" fill-opacity="1" font-family="Calibri,Calibri_MSFontService,sans-serif" font-style="normal" font-variant="normal" font-weight="400" font-stretch="normal" font-size="41" text-anchor="start" direction="ltr" writing-mode="lr-tb" unicode-bidi="normal" text-decoration="none" transform="matrix(1 0 0 1 1917.26 5859)">0</text></g><g clip-path="url(#clip12)"><text fill="#595959" fill-opacity="1" font-family="Calibri,Calibri_MSFontService,sans-serif" font-style="normal" font-variant="normal" font-weight="400" font-stretch="normal" font-size="41" text-anchor="start" direction="ltr" writing-mode="lr-tb" unicode-bidi="normal" text-decoration="none" transform="matrix(1 0 0 1 1886.08 5783)">0,5</text></g><g clip-path="url(#clip13)"><text fill="#595959" fill-opacity="1" font-family="Calibri,Calibri_MSFontService,sans-serif" font-style="normal" font-variant="normal" font-weight="400" font-stretch="normal" font-size="41" text-anchor="start" direction="ltr" writing-mode="lr-tb" unicode-bidi="normal" text-decoration="none" transform="matrix(1 0 0 1 1917.26 5708)">1</text></g><g clip-path="url(#clip14)"><text fill="#595959" fill-opacity="1" font-family="Calibri,Calibri_MSFontService,sans-serif" font-style="normal" font-variant="normal" font-weight="400" font-stretch="normal" font-size="41" text-anchor="start" direction="ltr" writing-mode="lr-tb" unicode-bidi="normal" text-decoration="none" transform="matrix(1 0 0 1 1886.08 5632)">1,5</text></g><g clip-path="url(#clip15)"><text fill="#595959" fill-opacity="1" font-family="Calibri,Calibri_MSFontService,sans-serif" font-style="normal" font-variant="normal" font-weight="400" font-stretch="normal" font-size="41" text-anchor="start" direction="ltr" writing-mode="lr-tb" unicode-bidi="normal" text-decoration="none" transform="matrix(1 0 0 1 1917.26 5556)">2</text></g><g clip-path="url(#clip16)"><text fill="#595959" fill-opacity="1" font-family="Calibri,Calibri_MSFontService,sans-serif" font-style="normal" font-variant="normal" font-weight="400" font-stretch="normal" font-size="41" text-anchor="start" direction="ltr" writing-mode="lr-tb" unicode-bidi="normal" text-decoration="none" transform="matrix(1 0 0 1 1886.08 5480)">2,5</text></g><g clip-path="url(#clip17)"><text fill="#595959" fill-opacity="1" font-family="Calibri,Calibri_MSFontService,sans-serif" font-style="normal" font-variant="normal" font-weight="400" font-stretch="normal" font-size="41" text-anchor="start" direction="ltr" writing-mode="lr-tb" unicode-bidi="normal" text-decoration="none" transform="matrix(1 0 0 1 1917.26 5404)">3</text></g><g clip-path="url(#clip18)"><text fill="#595959" fill-opacity="1" font-family="Calibri,Calibri_MSFontService,sans-serif" font-style="normal" font-variant="normal" font-weight="400" font-stretch="normal" font-size="41" text-anchor="start" direction="ltr" writing-mode="lr-tb" unicode-bidi="normal" text-decoration="none" transform="matrix(1 0 0 1 1886.08 5328)">3,5</text></g><g clip-path="url(#clip19)"><text fill="#595959" fill-opacity="1" font-family="Calibri,Calibri_MSFontService,sans-serif" font-style="normal" font-variant="normal" font-weight="400" font-stretch="normal" font-size="41" text-anchor="start" direction="ltr" writing-mode="lr-tb" unicode-bidi="normal" text-decoration="none" transform="matrix(1 0 0 1 1965.98 5914)">0</text></g><g clip-path="url(#clip20)"><text fill="#595959" fill-opacity="1" font-family="Calibri,Calibri_MSFontService,sans-serif" font-style="normal" font-variant="normal" font-weight="400" font-stretch="normal" font-size="41" text-anchor="start" direction="ltr" writing-mode="lr-tb" unicode-bidi="normal" text-decoration="none" transform="matrix(1 0 0 1 2125.1 5914)">1000000</text></g><g clip-path="url(#clip21)"><text fill="#595959" fill-opacity="1" font-family="Calibri,Calibri_MSFontService,sans-serif" font-style="normal" font-variant="normal" font-weight="400" font-stretch="normal" font-size="41" text-anchor="start" direction="ltr" writing-mode="lr-tb" unicode-bidi="normal" text-decoration="none" transform="matrix(1 0 0 1 2346.91 5914)">2000000</text></g><g clip-path="url(#clip22)"><text fill="#595959" fill-opacity="1" font-family="Calibri,Calibri_MSFontService,sans-serif" font-style="normal" font-variant="normal" font-weight="400" font-stretch="normal" font-size="41" text-anchor="start" direction="ltr" writing-mode="lr-tb" unicode-bidi="normal" text-decoration="none" transform="matrix(1 0 0 1 2568.73 5914)">3000000</text></g><g clip-path="url(#clip23)"><text fill="#595959" fill-opacity="1" font-family="Calibri,Calibri_MSFontService,sans-serif" font-style="normal" font-variant="normal" font-weight="400" font-stretch="normal" font-size="41" text-anchor="start" direction="ltr" writing-mode="lr-tb" unicode-bidi="normal" text-decoration="none" transform="matrix(1 0 0 1 2790.55 5914)">4000000</text></g><g clip-path="url(#clip24)"><text fill="#595959" fill-opacity="1" font-family="Calibri,Calibri_MSFontService,sans-serif" font-style="normal" font-variant="normal" font-weight="400" font-stretch="normal" font-size="41" text-anchor="start" direction="ltr" writing-mode="lr-tb" unicode-bidi="normal" text-decoration="none" transform="matrix(1 0 0 1 2394.24 5951)">Queries/s</text></g><g clip-path="url(#clip25)"><rect x="2631.5" y="5330.5" width="339" height="146" stroke="#000000" stroke-width="3.4375" stroke-linecap="butt" stroke-linejoin="round" stroke-miterlimit="10" stroke-opacity="1" fill="#FFFFFF" fill-opacity="1"/></g><g clip-path="url(#clip26)"><path d="M2674.5 5354.5 2762.5 5354.5" stroke="#4472C4" stroke-width="6.875" stroke-linecap="round" stroke-linejoin="round" stroke-miterlimit="10" stroke-opacity="1" fill="none" fill-rule="evenodd"/></g><g clip-path="url(#clip27)"><path d="M2729 5354C2729 5360.07 2724.07 5365 2718 5365 2711.92 5365 2707 5360.07 2707 5354 2707 5347.92 2711.92 5343 2718 5343 2724.07 5343 2729 5347.92 2729 5354Z" stroke="#4472C4" stroke-width="3.4375" stroke-linecap="butt" stroke-linejoin="round" stroke-miterlimit="10" stroke-opacity="1" fill="#4472C4" fill-rule="evenodd" fill-opacity="1"/></g><g clip-path="url(#clip28)"><text fill="#595959" fill-opacity="1" font-family="Calibri,Calibri_MSFontService,sans-serif" font-style="normal" font-variant="normal" font-weight="400" font-stretch="normal" font-size="41" text-anchor="start" direction="ltr" writing-mode="lr-tb" unicode-bidi="normal" text-decoration="none" transform="matrix(1 0 0 1 2771.77 5364)">PotionDB</text></g><g clip-path="url(#clip29)"><path d="M2674.5 5403.5 2762.5 5403.5" stroke="#ED7D31" stroke-width="6.875" stroke-linecap="round" stroke-linejoin="round" stroke-miterlimit="10" stroke-opacity="1" fill="none" fill-rule="evenodd"/></g><g clip-path="url(#clip30)"><path d="M2729 5403C2729 5409.07 2724.07 5414 2718 5414 2711.92 5414 2707 5409.07 2707 5403 2707 5396.92 2711.92 5392 2718 5392 2724.07 5392 2729 5396.92 2729 5403Z" stroke="#ED7D31" stroke-width="3.4375" stroke-linecap="butt" stroke-linejoin="round" stroke-miterlimit="10" stroke-opacity="1" fill="#ED7D31" fill-rule="evenodd" fill-opacity="1"/></g><g clip-path="url(#clip31)"><text fill="#595959" fill-opacity="1" font-family="Calibri,Calibri_MSFontService,sans-serif" font-style="normal" font-variant="normal" font-weight="400" font-stretch="normal" font-size="41" text-anchor="start" direction="ltr" writing-mode="lr-tb" unicode-bidi="normal" text-decoration="none" transform="matrix(1 0 0 1 2771.77 5413)">Local</text></g><g clip-path="url(#clip32)"><path d="M2674.5 5452.5 2762.5 5452.5" stroke="#548235" stroke-width="6.875" stroke-linecap="round" stroke-linejoin="round" stroke-miterlimit="10" stroke-opacity="1" fill="none" fill-rule="evenodd"/></g><g clip-path="url(#clip33)"><path d="M2729 5452C2729 5458.07 2724.07 5463 2718 5463 2711.92 5463 2707 5458.07 2707 5452 2707 5445.92 2711.92 5441 2718 5441 2724.07 5441 2729 5445.92 2729 5452Z" stroke="#548235" stroke-width="3.4375" stroke-linecap="butt" stroke-linejoin="round" stroke-miterlimit="10" stroke-opacity="1" fill="#548235" fill-rule="evenodd" fill-opacity="1"/></g><g clip-path="url(#clip34)"><text fill="#595959" fill-opacity="1" font-family="Calibri,Calibri_MSFontService,sans-serif" font-style="normal" font-variant="normal" font-weight="400" font-stretch="normal" font-size="41" text-anchor="start" direction="ltr" writing-mode="lr-tb" unicode-bidi="normal" text-decoration="none" transform="matrix(1 0 0 1 2771.77 5462)">Single</text></g><rect x="1789.5" y="5293.5" width="1317" height="676" stroke="#D9D9D9" stroke-width="3.4375" stroke-linecap="butt" stroke-linejoin="round" stroke-miterlimit="10" stroke-opacity="1" fill="none"/><g clip-path="url(#clip35)"><text fill="#595959" fill-opacity="1" font-family="Calibri,Calibri_MSFontService,sans-serif" font-style="normal" font-variant="normal" font-weight="400" font-stretch="normal" font-size="41" text-anchor="start" direction="ltr" writing-mode="lr-tb" unicode-bidi="normal" text-decoration="none" transform="matrix(-1.83697e-16 -1 1 -1.83697e-16 1844.66 5941)">Latency per transaction (ms)</text></g></g></svg>