<svg width="1288" height="651" xmlns="http://www.w3.org/2000/svg" xmlns:xlink="http://www.w3.org/1999/xlink" overflow="hidden"><defs><clipPath id="clip0"><rect x="1828" y="3776" width="1288" height="651"/></clipPath><clipPath id="clip1"><rect x="1832" y="3778" width="1281" height="647"/></clipPath><clipPath id="clip2"><rect x="1832" y="3778" width="1281" height="647"/></clipPath><clipPath id="clip3"><rect x="1832" y="3778" width="1281" height="647"/></clipPath><clipPath id="clip4"><rect x="1832" y="3778" width="1281" height="647"/></clipPath><clipPath id="clip5"><rect x="1982" y="3811" width="1010" height="485"/></clipPath><clipPath id="clip6"><rect x="1832" y="3778" width="1281" height="647"/></clipPath><clipPath id="clip7"><rect x="1982" y="3811" width="1010" height="485"/></clipPath><clipPath id="clip8"><rect x="1832" y="3778" width="1281" height="647"/></clipPath><clipPath id="clip9"><rect x="1982" y="3811" width="1010" height="485"/></clipPath><clipPath id="clip10"><rect x="1832" y="3778" width="1281" height="647"/></clipPath><clipPath id="clip11"><rect x="1982" y="3811" width="1010" height="485"/></clipPath><clipPath id="clip12"><rect x="1832" y="3778" width="1281" height="647"/></clipPath><clipPath id="clip13"><rect x="1832" y="3778" width="1281" height="647"/></clipPath><clipPath id="clip14"><rect x="1832" y="3778" width="1281" height="647"/></clipPath><clipPath id="clip15"><rect x="1832" y="3778" width="1281" height="647"/></clipPath><clipPath id="clip16"><rect x="1832" y="3778" width="1281" height="647"/></clipPath><clipPath id="clip17"><rect x="1832" y="3778" width="1281" height="647"/></clipPath><clipPath id="clip18"><rect x="1832" y="3778" width="1281" height="647"/></clipPath><clipPath id="clip19"><rect x="1832" y="3778" width="1281" height="647"/></clipPath><clipPath id="clip20"><rect x="1832" y="3778" width="1281" height="647"/></clipPath><clipPath id="clip21"><rect x="1832" y="3778" width="1281" height="647"/></clipPath><clipPath id="clip22"><rect x="1832" y="3778" width="1281" height="647"/></clipPath><clipPath id="clip23"><rect x="1832" y="3778" width="1281" height="647"/></clipPath><clipPath id="clip24"><rect x="1832" y="3778" width="1281" height="647"/></clipPath><clipPath id="clip25"><rect x="1832" y="3778" width="1281" height="647"/></clipPath><clipPath id="clip26"><rect x="1832" y="3778" width="1281" height="647"/></clipPath><clipPath id="clip27"><rect x="1832" y="3778" width="1281" height="647"/></clipPath><clipPath id="clip28"><rect x="1832" y="3778" width="1281" height="647"/></clipPath><clipPath id="clip29"><rect x="1832" y="3778" width="1281" height="647"/></clipPath><clipPath id="clip30"><rect x="1832" y="3778" width="1281" height="647"/></clipPath><clipPath id="clip31"><rect x="1832" y="3778" width="1281" height="647"/></clipPath><clipPath id="clip32"><rect x="1832" y="3778" width="1281" height="647"/></clipPath><clipPath id="clip33"><rect x="1832" y="3778" width="1281" height="647"/></clipPath><clipPath id="clip34"><rect x="1832" y="3778" width="1281" height="647"/></clipPath></defs><g clip-path="url(#clip0)" transform="translate(-1828 -3776)"><rect x="1833" y="3778" width="1281" height="648" fill="#FFFFFF" fill-opacity="1"/><g clip-path="url(#clip1)"><path d="M1982.5 4083.63 2988.5 4083.63M1982.5 3874.5 2988.5 3874.5" stroke="#D9D9D9" stroke-width="3.4375" stroke-linecap="butt" stroke-linejoin="round" stroke-miterlimit="10" stroke-opacity="1" fill="none" fill-rule="evenodd"/></g><g clip-path="url(#clip2)"><path d="M2318.58 3811.5 2318.58 4292.5M2653.59 3811.5 2653.59 4292.5M2988.5 3811.5 2988.5 4292.5" stroke="#D9D9D9" stroke-width="3.4375" stroke-linecap="butt" stroke-linejoin="round" stroke-miterlimit="10" stroke-opacity="1" fill="none" fill-rule="evenodd"/></g><g clip-path="url(#clip3)"><path d="M0 0 0.000360892 481" stroke="#BFBFBF" stroke-width="3.4375" stroke-linecap="butt" stroke-linejoin="round" stroke-miterlimit="10" stroke-opacity="1" fill="none" fill-rule="evenodd" transform="matrix(1 0 0 -1 1982.5 4292.5)"/></g><g clip-path="url(#clip4)"><path d="M1982.5 4292.5 2988.5 4292.5" stroke="#BFBFBF" stroke-width="3.4375" stroke-linecap="butt" stroke-linejoin="round" stroke-miterlimit="10" stroke-opacity="1" fill="none" fill-rule="evenodd"/></g><g clip-path="url(#clip5)"><path d="M2673.5 4211.5 2757.59 4201.64 2798.59 4163.64 2846.59 4157.64 2851.59 4145.64 2852.59 4134.64 2852.59 4123.64 2853.5 4114.5" stroke="#4472C4" stroke-width="6.875" stroke-linecap="round" stroke-linejoin="round" stroke-miterlimit="10" stroke-opacity="1" fill="none" fill-rule="evenodd"/></g><g clip-path="url(#clip6)"><path d="M2681.26 4211.39C2681.26 4216.08 2677.45 4219.89 2672.76 4219.89 2668.07 4219.89 2664.26 4216.08 2664.26 4211.39 2664.26 4206.69 2668.07 4202.89 2672.76 4202.89 2677.45 4202.89 2681.26 4206.69 2681.26 4211.39Z" stroke="#4472C4" stroke-width="3.4375" stroke-linecap="butt" stroke-linejoin="round" stroke-miterlimit="10" stroke-opacity="1" fill="#4472C4" fill-rule="evenodd" fill-opacity="1"/><path d="M2765.26 4201.39C2765.26 4206.08 2761.45 4209.89 2756.76 4209.89 2752.07 4209.89 2748.26 4206.08 2748.26 4201.39 2748.26 4196.69 2752.07 4192.89 2756.76 4192.89 2761.45 4192.89 2765.26 4196.69 2765.26 4201.39Z" stroke="#4472C4" stroke-width="3.4375" stroke-linecap="butt" stroke-linejoin="round" stroke-miterlimit="10" stroke-opacity="1" fill="#4472C4" fill-rule="evenodd" fill-opacity="1"/><path d="M2806.26 4163.39C2806.26 4168.08 2802.45 4171.89 2797.76 4171.89 2793.07 4171.89 2789.26 4168.08 2789.26 4163.39 2789.26 4158.69 2793.07 4154.89 2797.76 4154.89 2802.45 4154.89 2806.26 4158.69 2806.26 4163.39Z" stroke="#4472C4" stroke-width="3.4375" stroke-linecap="butt" stroke-linejoin="round" stroke-miterlimit="10" stroke-opacity="1" fill="#4472C4" fill-rule="evenodd" fill-opacity="1"/><path d="M2854.26 4157.39C2854.26 4162.08 2850.45 4165.89 2845.76 4165.89 2841.07 4165.89 2837.26 4162.08 2837.26 4157.39 2837.26 4152.69 2841.07 4148.89 2845.76 4148.89 2850.45 4148.89 2854.26 4152.69 2854.26 4157.39Z" stroke="#4472C4" stroke-width="3.4375" stroke-linecap="butt" stroke-linejoin="round" stroke-miterlimit="10" stroke-opacity="1" fill="#4472C4" fill-rule="evenodd" fill-opacity="1"/><path d="M2859.26 4145.39C2859.26 4150.08 2855.45 4153.89 2850.76 4153.89 2846.07 4153.89 2842.26 4150.08 2842.26 4145.39 2842.26 4140.69 2846.07 4136.89 2850.76 4136.89 2855.45 4136.89 2859.26 4140.69 2859.26 4145.39Z" stroke="#4472C4" stroke-width="3.4375" stroke-linecap="butt" stroke-linejoin="round" stroke-miterlimit="10" stroke-opacity="1" fill="#4472C4" fill-rule="evenodd" fill-opacity="1"/><path d="M2860.26 4134.39C2860.26 4139.08 2856.45 4142.89 2851.76 4142.89 2847.07 4142.89 2843.26 4139.08 2843.26 4134.39 2843.26 4129.69 2847.07 4125.89 2851.76 4125.89 2856.45 4125.89 2860.26 4129.69 2860.26 4134.39Z" stroke="#4472C4" stroke-width="3.4375" stroke-linecap="butt" stroke-linejoin="round" stroke-miterlimit="10" stroke-opacity="1" fill="#4472C4" fill-rule="evenodd" fill-opacity="1"/><path d="M2860.26 4123.39C2860.26 4128.08 2856.45 4131.89 2851.76 4131.89 2847.07 4131.89 2843.26 4128.08 2843.26 4123.39 2843.26 4118.69 2847.07 4114.89 2851.76 4114.89 2856.45 4114.89 2860.26 4118.69 2860.26 4123.39Z" stroke="#4472C4" stroke-width="3.4375" stroke-linecap="butt" stroke-linejoin="round" stroke-miterlimit="10" stroke-opacity="1" fill="#4472C4" fill-rule="evenodd" fill-opacity="1"/><path d="M2861.26 4114.39C2861.26 4119.08 2857.45 4122.89 2852.76 4122.89 2848.07 4122.89 2844.26 4119.08 2844.26 4114.39 2844.26 4109.69 2848.07 4105.89 2852.76 4105.89 2857.45 4105.89 2861.26 4109.69 2861.26 4114.39Z" stroke="#4472C4" stroke-width="3.4375" stroke-linecap="butt" stroke-linejoin="round" stroke-miterlimit="10" stroke-opacity="1" fill="#4472C4" fill-rule="evenodd" fill-opacity="1"/></g><g clip-path="url(#clip7)"><path d="M2640.5 4191.5 2726.59 4181.64 2769.59 4171.64 2780.59 4152.64 2803.59 4146.64 2824.59 4142.64 2834.59 4135.64 2838.59 4125.64 2840.59 4116.64 2842.5 4107.5" stroke="#ED7D31" stroke-width="6.875" stroke-linecap="round" stroke-linejoin="round" stroke-miterlimit="10" stroke-opacity="1" fill="none" fill-rule="evenodd"/></g><g clip-path="url(#clip8)"><path d="M2648.26 4191.39C2648.26 4196.08 2644.45 4199.89 2639.76 4199.89 2635.07 4199.89 2631.26 4196.08 2631.26 4191.39 2631.26 4186.69 2635.07 4182.89 2639.76 4182.89 2644.45 4182.89 2648.26 4186.69 2648.26 4191.39Z" stroke="#ED7D31" stroke-width="3.4375" stroke-linecap="butt" stroke-linejoin="round" stroke-miterlimit="10" stroke-opacity="1" fill="#ED7D31" fill-rule="evenodd" fill-opacity="1"/><path d="M2734.26 4181.39C2734.26 4186.08 2730.45 4189.89 2725.76 4189.89 2721.07 4189.89 2717.26 4186.08 2717.26 4181.39 2717.26 4176.69 2721.07 4172.89 2725.76 4172.89 2730.45 4172.89 2734.26 4176.69 2734.26 4181.39Z" stroke="#ED7D31" stroke-width="3.4375" stroke-linecap="butt" stroke-linejoin="round" stroke-miterlimit="10" stroke-opacity="1" fill="#ED7D31" fill-rule="evenodd" fill-opacity="1"/><path d="M2777.26 4171.39C2777.26 4176.08 2773.45 4179.89 2768.76 4179.89 2764.07 4179.89 2760.26 4176.08 2760.26 4171.39 2760.26 4166.69 2764.07 4162.89 2768.76 4162.89 2773.45 4162.89 2777.26 4166.69 2777.26 4171.39Z" stroke="#ED7D31" stroke-width="3.4375" stroke-linecap="butt" stroke-linejoin="round" stroke-miterlimit="10" stroke-opacity="1" fill="#ED7D31" fill-rule="evenodd" fill-opacity="1"/><path d="M2788.26 4152.39C2788.26 4157.08 2784.45 4160.89 2779.76 4160.89 2775.07 4160.89 2771.26 4157.08 2771.26 4152.39 2771.26 4147.69 2775.07 4143.89 2779.76 4143.89 2784.45 4143.89 2788.26 4147.69 2788.26 4152.39Z" stroke="#ED7D31" stroke-width="3.4375" stroke-linecap="butt" stroke-linejoin="round" stroke-miterlimit="10" stroke-opacity="1" fill="#ED7D31" fill-rule="evenodd" fill-opacity="1"/><path d="M2811.26 4146.39C2811.26 4151.08 2807.45 4154.89 2802.76 4154.89 2798.07 4154.89 2794.26 4151.08 2794.26 4146.39 2794.26 4141.69 2798.07 4137.89 2802.76 4137.89 2807.45 4137.89 2811.26 4141.69 2811.26 4146.39Z" stroke="#ED7D31" stroke-width="3.4375" stroke-linecap="butt" stroke-linejoin="round" stroke-miterlimit="10" stroke-opacity="1" fill="#ED7D31" fill-rule="evenodd" fill-opacity="1"/><path d="M2832.26 4142.39C2832.26 4147.08 2828.45 4150.89 2823.76 4150.89 2819.07 4150.89 2815.26 4147.08 2815.26 4142.39 2815.26 4137.69 2819.07 4133.89 2823.76 4133.89 2828.45 4133.89 2832.26 4137.69 2832.26 4142.39Z" stroke="#ED7D31" stroke-width="3.4375" stroke-linecap="butt" stroke-linejoin="round" stroke-miterlimit="10" stroke-opacity="1" fill="#ED7D31" fill-rule="evenodd" fill-opacity="1"/><path d="M2842.26 4135.39C2842.26 4140.08 2838.45 4143.89 2833.76 4143.89 2829.07 4143.89 2825.26 4140.08 2825.26 4135.39 2825.26 4130.69 2829.07 4126.89 2833.76 4126.89 2838.45 4126.89 2842.26 4130.69 2842.26 4135.39Z" stroke="#ED7D31" stroke-width="3.4375" stroke-linecap="butt" stroke-linejoin="round" stroke-miterlimit="10" stroke-opacity="1" fill="#ED7D31" fill-rule="evenodd" fill-opacity="1"/><path d="M2847.26 4126.39C2847.26 4131.08 2843.45 4134.89 2838.76 4134.89 2834.07 4134.89 2830.26 4131.08 2830.26 4126.39 2830.26 4121.69 2834.07 4117.89 2838.76 4117.89 2843.45 4117.89 2847.26 4121.69 2847.26 4126.39Z" stroke="#ED7D31" stroke-width="3.4375" stroke-linecap="butt" stroke-linejoin="round" stroke-miterlimit="10" stroke-opacity="1" fill="#ED7D31" fill-rule="evenodd" fill-opacity="1"/><path d="M2848.26 4116.39C2848.26 4121.08 2844.45 4124.89 2839.76 4124.89 2835.07 4124.89 2831.26 4121.08 2831.26 4116.39 2831.26 4111.69 2835.07 4107.89 2839.76 4107.89 2844.45 4107.89 2848.26 4111.69 2848.26 4116.39Z" stroke="#ED7D31" stroke-width="3.4375" stroke-linecap="butt" stroke-linejoin="round" stroke-miterlimit="10" stroke-opacity="1" fill="#ED7D31" fill-rule="evenodd" fill-opacity="1"/><path d="M2850.26 4107.39C2850.26 4112.08 2846.45 4115.89 2841.76 4115.89 2837.07 4115.89 2833.26 4112.08 2833.26 4107.39 2833.26 4102.69 2837.07 4098.89 2841.76 4098.89 2846.45 4098.89 2850.26 4102.69 2850.26 4107.39Z" stroke="#ED7D31" stroke-width="3.4375" stroke-linecap="butt" stroke-linejoin="round" stroke-miterlimit="10" stroke-opacity="1" fill="#ED7D31" fill-rule="evenodd" fill-opacity="1"/></g><g clip-path="url(#clip9)"><path d="M2505.5 4106.5 2592.59 4098.63 2661.59 4078.63 2694.59 4061.63 2715.59 4048.63 2730.59 4037.63 2740.59 4027.63 2747.59 4018.63 2753.59 4009.63 2767.59 3998.63 2782.59 3990.63 2796.59 3973.63 2795.59 3972.63 2801.59 3956.63 2803.59 3941.63 2807.5 3917.5" stroke="#548235" stroke-width="6.875" stroke-linecap="round" stroke-linejoin="round" stroke-miterlimit="10" stroke-opacity="1" fill="none" fill-rule="evenodd"/></g><g clip-path="url(#clip10)"><path d="M2513.26 4106.39C2513.26 4111.08 2509.45 4114.89 2504.76 4114.89 2500.07 4114.89 2496.26 4111.08 2496.26 4106.39 2496.26 4101.69 2500.07 4097.89 2504.76 4097.89 2509.45 4097.89 2513.26 4101.69 2513.26 4106.39Z" stroke="#548235" stroke-width="3.4375" stroke-linecap="butt" stroke-linejoin="round" stroke-miterlimit="10" stroke-opacity="1" fill="#548235" fill-rule="evenodd" fill-opacity="1"/><path d="M2600.26 4098.39C2600.26 4103.08 2596.45 4106.89 2591.76 4106.89 2587.07 4106.89 2583.26 4103.08 2583.26 4098.39 2583.26 4093.69 2587.07 4089.89 2591.76 4089.89 2596.45 4089.89 2600.26 4093.69 2600.26 4098.39Z" stroke="#548235" stroke-width="3.4375" stroke-linecap="butt" stroke-linejoin="round" stroke-miterlimit="10" stroke-opacity="1" fill="#548235" fill-rule="evenodd" fill-opacity="1"/><path d="M2669.26 4078.39C2669.26 4083.08 2665.45 4086.89 2660.76 4086.89 2656.07 4086.89 2652.26 4083.08 2652.26 4078.39 2652.26 4073.69 2656.07 4069.89 2660.76 4069.89 2665.45 4069.89 2669.26 4073.69 2669.26 4078.39Z" stroke="#548235" stroke-width="3.4375" stroke-linecap="butt" stroke-linejoin="round" stroke-miterlimit="10" stroke-opacity="1" fill="#548235" fill-rule="evenodd" fill-opacity="1"/><path d="M2702.26 4062.39C2702.26 4067.08 2698.45 4070.89 2693.76 4070.89 2689.07 4070.89 2685.26 4067.08 2685.26 4062.39 2685.26 4057.69 2689.07 4053.89 2693.76 4053.89 2698.45 4053.89 2702.26 4057.69 2702.26 4062.39Z" stroke="#548235" stroke-width="3.4375" stroke-linecap="butt" stroke-linejoin="round" stroke-miterlimit="10" stroke-opacity="1" fill="#548235" fill-rule="evenodd" fill-opacity="1"/><path d="M2723.26 4049.39C2723.26 4054.08 2719.45 4057.89 2714.76 4057.89 2710.07 4057.89 2706.26 4054.08 2706.26 4049.39 2706.26 4044.69 2710.07 4040.89 2714.76 4040.89 2719.45 4040.89 2723.26 4044.69 2723.26 4049.39Z" stroke="#548235" stroke-width="3.4375" stroke-linecap="butt" stroke-linejoin="round" stroke-miterlimit="10" stroke-opacity="1" fill="#548235" fill-rule="evenodd" fill-opacity="1"/><path d="M2738.26 4037.39C2738.26 4042.08 2734.45 4045.89 2729.76 4045.89 2725.07 4045.89 2721.26 4042.08 2721.26 4037.39 2721.26 4032.69 2725.07 4028.89 2729.76 4028.89 2734.45 4028.89 2738.26 4032.69 2738.26 4037.39Z" stroke="#548235" stroke-width="3.4375" stroke-linecap="butt" stroke-linejoin="round" stroke-miterlimit="10" stroke-opacity="1" fill="#548235" fill-rule="evenodd" fill-opacity="1"/><path d="M2748.26 4027.39C2748.26 4032.08 2744.45 4035.89 2739.76 4035.89 2735.07 4035.89 2731.26 4032.08 2731.26 4027.39 2731.26 4022.69 2735.07 4018.89 2739.76 4018.89 2744.45 4018.89 2748.26 4022.69 2748.26 4027.39Z" stroke="#548235" stroke-width="3.4375" stroke-linecap="butt" stroke-linejoin="round" stroke-miterlimit="10" stroke-opacity="1" fill="#548235" fill-rule="evenodd" fill-opacity="1"/><path d="M2755.26 4018.39C2755.26 4023.08 2751.45 4026.89 2746.76 4026.89 2742.07 4026.89 2738.26 4023.08 2738.26 4018.39 2738.26 4013.69 2742.07 4009.89 2746.76 4009.89 2751.45 4009.89 2755.26 4013.69 2755.26 4018.39Z" stroke="#548235" stroke-width="3.4375" stroke-linecap="butt" stroke-linejoin="round" stroke-miterlimit="10" stroke-opacity="1" fill="#548235" fill-rule="evenodd" fill-opacity="1"/><path d="M2761.26 4009.39C2761.26 4014.08 2757.45 4017.89 2752.76 4017.89 2748.07 4017.89 2744.26 4014.08 2744.26 4009.39 2744.26 4004.69 2748.07 4000.89 2752.76 4000.89 2757.45 4000.89 2761.26 4004.69 2761.26 4009.39Z" stroke="#548235" stroke-width="3.4375" stroke-linecap="butt" stroke-linejoin="round" stroke-miterlimit="10" stroke-opacity="1" fill="#548235" fill-rule="evenodd" fill-opacity="1"/><path d="M2775.26 3998.39C2775.26 4003.08 2771.45 4006.89 2766.76 4006.89 2762.07 4006.89 2758.26 4003.08 2758.26 3998.39 2758.26 3993.69 2762.07 3989.89 2766.76 3989.89 2771.45 3989.89 2775.26 3993.69 2775.26 3998.39Z" stroke="#548235" stroke-width="3.4375" stroke-linecap="butt" stroke-linejoin="round" stroke-miterlimit="10" stroke-opacity="1" fill="#548235" fill-rule="evenodd" fill-opacity="1"/><path d="M2790.26 3990.39C2790.26 3995.08 2786.45 3998.89 2781.76 3998.89 2777.07 3998.89 2773.26 3995.08 2773.26 3990.39 2773.26 3985.69 2777.07 3981.89 2781.76 3981.89 2786.45 3981.89 2790.26 3985.69 2790.26 3990.39Z" stroke="#548235" stroke-width="3.4375" stroke-linecap="butt" stroke-linejoin="round" stroke-miterlimit="10" stroke-opacity="1" fill="#548235" fill-rule="evenodd" fill-opacity="1"/><path d="M2804.26 3973.39C2804.26 3978.08 2800.45 3981.89 2795.76 3981.89 2791.07 3981.89 2787.26 3978.08 2787.26 3973.39 2787.26 3968.69 2791.07 3964.89 2795.76 3964.89 2800.45 3964.89 2804.26 3968.69 2804.26 3973.39Z" stroke="#548235" stroke-width="3.4375" stroke-linecap="butt" stroke-linejoin="round" stroke-miterlimit="10" stroke-opacity="1" fill="#548235" fill-rule="evenodd" fill-opacity="1"/><path d="M2803.26 3972.39C2803.26 3977.08 2799.45 3980.89 2794.76 3980.89 2790.07 3980.89 2786.26 3977.08 2786.26 3972.39 2786.26 3967.69 2790.07 3963.89 2794.76 3963.89 2799.45 3963.89 2803.26 3967.69 2803.26 3972.39Z" stroke="#548235" stroke-width="3.4375" stroke-linecap="butt" stroke-linejoin="round" stroke-miterlimit="10" stroke-opacity="1" fill="#548235" fill-rule="evenodd" fill-opacity="1"/><path d="M2809.26 3956.39C2809.26 3961.08 2805.45 3964.89 2800.76 3964.89 2796.07 3964.89 2792.26 3961.08 2792.26 3956.39 2792.26 3951.69 2796.07 3947.89 2800.76 3947.89 2805.45 3947.89 2809.26 3951.69 2809.26 3956.39Z" stroke="#548235" stroke-width="3.4375" stroke-linecap="butt" stroke-linejoin="round" stroke-miterlimit="10" stroke-opacity="1" fill="#548235" fill-rule="evenodd" fill-opacity="1"/><path d="M2811.26 3941.39C2811.26 3946.08 2807.45 3949.89 2802.76 3949.89 2798.07 3949.89 2794.26 3946.08 2794.26 3941.39 2794.26 3936.69 2798.07 3932.89 2802.76 3932.89 2807.45 3932.89 2811.26 3936.69 2811.26 3941.39Z" stroke="#548235" stroke-width="3.4375" stroke-linecap="butt" stroke-linejoin="round" stroke-miterlimit="10" stroke-opacity="1" fill="#548235" fill-rule="evenodd" fill-opacity="1"/><path d="M2815.26 3917.39C2815.26 3922.08 2811.45 3925.89 2806.76 3925.89 2802.07 3925.89 2798.26 3922.08 2798.26 3917.39 2798.26 3912.69 2802.07 3908.89 2806.76 3908.89 2811.45 3908.89 2815.26 3912.69 2815.26 3917.39Z" stroke="#548235" stroke-width="3.4375" stroke-linecap="butt" stroke-linejoin="round" stroke-miterlimit="10" stroke-opacity="1" fill="#548235" fill-rule="evenodd" fill-opacity="1"/></g><g clip-path="url(#clip11)"><path d="M2147.5 3946.63 2254.57 3950.5 2347.58 3944.63 2417.58 3925.63 2449.58 3909.63 2469.58 3895.63 2481.58 3882.63 2490.58 3871.63 2500.58 3863.63 2510.58 3857.63 2521.58 3844.63 2526.58 3831.63 2528.58 3818.63 2529.58 3806.63 2530.5 3787.5" stroke="#FFC000" stroke-width="6.875" stroke-linecap="round" stroke-linejoin="round" stroke-miterlimit="10" stroke-opacity="1" fill="none" fill-rule="evenodd"/></g><g clip-path="url(#clip12)"><path d="M2155.26 3946.39C2155.26 3951.08 2151.45 3954.89 2146.76 3954.89 2142.07 3954.89 2138.26 3951.08 2138.26 3946.39 2138.26 3941.69 2142.07 3937.89 2146.76 3937.89 2151.45 3937.89 2155.26 3941.69 2155.26 3946.39Z" stroke="#FFC000" stroke-width="3.4375" stroke-linecap="butt" stroke-linejoin="round" stroke-miterlimit="10" stroke-opacity="1" fill="#FFC000" fill-rule="evenodd" fill-opacity="1"/><path d="M2262.26 3950.39C2262.26 3955.08 2258.45 3958.89 2253.76 3958.89 2249.07 3958.89 2245.26 3955.08 2245.26 3950.39 2245.26 3945.69 2249.07 3941.89 2253.76 3941.89 2258.45 3941.89 2262.26 3945.69 2262.26 3950.39Z" stroke="#FFC000" stroke-width="3.4375" stroke-linecap="butt" stroke-linejoin="round" stroke-miterlimit="10" stroke-opacity="1" fill="#FFC000" fill-rule="evenodd" fill-opacity="1"/><path d="M2355.26 3945.39C2355.26 3950.08 2351.45 3953.89 2346.76 3953.89 2342.07 3953.89 2338.26 3950.08 2338.26 3945.39 2338.26 3940.69 2342.07 3936.89 2346.76 3936.89 2351.45 3936.89 2355.26 3940.69 2355.26 3945.39Z" stroke="#FFC000" stroke-width="3.4375" stroke-linecap="butt" stroke-linejoin="round" stroke-miterlimit="10" stroke-opacity="1" fill="#FFC000" fill-rule="evenodd" fill-opacity="1"/><path d="M2425.26 3926.39C2425.26 3931.08 2421.45 3934.89 2416.76 3934.89 2412.07 3934.89 2408.26 3931.08 2408.26 3926.39 2408.26 3921.69 2412.07 3917.89 2416.76 3917.89 2421.45 3917.89 2425.26 3921.69 2425.26 3926.39Z" stroke="#FFC000" stroke-width="3.4375" stroke-linecap="butt" stroke-linejoin="round" stroke-miterlimit="10" stroke-opacity="1" fill="#FFC000" fill-rule="evenodd" fill-opacity="1"/><path d="M2457.26 3909.39C2457.26 3914.08 2453.45 3917.89 2448.76 3917.89 2444.07 3917.89 2440.26 3914.08 2440.26 3909.39 2440.26 3904.69 2444.07 3900.89 2448.76 3900.89 2453.45 3900.89 2457.26 3904.69 2457.26 3909.39Z" stroke="#FFC000" stroke-width="3.4375" stroke-linecap="butt" stroke-linejoin="round" stroke-miterlimit="10" stroke-opacity="1" fill="#FFC000" fill-rule="evenodd" fill-opacity="1"/><path d="M2477.26 3895.39C2477.26 3900.08 2473.45 3903.89 2468.76 3903.89 2464.07 3903.89 2460.26 3900.08 2460.26 3895.39 2460.26 3890.69 2464.07 3886.89 2468.76 3886.89 2473.45 3886.89 2477.26 3890.69 2477.26 3895.39Z" stroke="#FFC000" stroke-width="3.4375" stroke-linecap="butt" stroke-linejoin="round" stroke-miterlimit="10" stroke-opacity="1" fill="#FFC000" fill-rule="evenodd" fill-opacity="1"/><path d="M2489.26 3882.39C2489.26 3887.08 2485.45 3890.89 2480.76 3890.89 2476.07 3890.89 2472.26 3887.08 2472.26 3882.39 2472.26 3877.69 2476.07 3873.89 2480.76 3873.89 2485.45 3873.89 2489.26 3877.69 2489.26 3882.39Z" stroke="#FFC000" stroke-width="3.4375" stroke-linecap="butt" stroke-linejoin="round" stroke-miterlimit="10" stroke-opacity="1" fill="#FFC000" fill-rule="evenodd" fill-opacity="1"/><path d="M2498.26 3871.39C2498.26 3876.08 2494.45 3879.89 2489.76 3879.89 2485.07 3879.89 2481.26 3876.08 2481.26 3871.39 2481.26 3866.69 2485.07 3862.89 2489.76 3862.89 2494.45 3862.89 2498.26 3866.69 2498.26 3871.39Z" stroke="#FFC000" stroke-width="3.4375" stroke-linecap="butt" stroke-linejoin="round" stroke-miterlimit="10" stroke-opacity="1" fill="#FFC000" fill-rule="evenodd" fill-opacity="1"/><path d="M2508.26 3863.39C2508.26 3868.08 2504.45 3871.89 2499.76 3871.89 2495.07 3871.89 2491.26 3868.08 2491.26 3863.39 2491.26 3858.69 2495.07 3854.89 2499.76 3854.89 2504.45 3854.89 2508.26 3858.69 2508.26 3863.39Z" stroke="#FFC000" stroke-width="3.4375" stroke-linecap="butt" stroke-linejoin="round" stroke-miterlimit="10" stroke-opacity="1" fill="#FFC000" fill-rule="evenodd" fill-opacity="1"/><path d="M2518.26 3857.39C2518.26 3862.08 2514.45 3865.89 2509.76 3865.89 2505.07 3865.89 2501.26 3862.08 2501.26 3857.39 2501.26 3852.69 2505.07 3848.89 2509.76 3848.89 2514.45 3848.89 2518.26 3852.69 2518.26 3857.39Z" stroke="#FFC000" stroke-width="3.4375" stroke-linecap="butt" stroke-linejoin="round" stroke-miterlimit="10" stroke-opacity="1" fill="#FFC000" fill-rule="evenodd" fill-opacity="1"/><path d="M2529.26 3844.39C2529.26 3849.08 2525.45 3852.89 2520.76 3852.89 2516.07 3852.89 2512.26 3849.08 2512.26 3844.39 2512.26 3839.69 2516.07 3835.89 2520.76 3835.89 2525.45 3835.89 2529.26 3839.69 2529.26 3844.39Z" stroke="#FFC000" stroke-width="3.4375" stroke-linecap="butt" stroke-linejoin="round" stroke-miterlimit="10" stroke-opacity="1" fill="#FFC000" fill-rule="evenodd" fill-opacity="1"/><path d="M2534.26 3831.39C2534.26 3836.08 2530.45 3839.89 2525.76 3839.89 2521.07 3839.89 2517.26 3836.08 2517.26 3831.39 2517.26 3826.69 2521.07 3822.89 2525.76 3822.89 2530.45 3822.89 2534.26 3826.69 2534.26 3831.39Z" stroke="#FFC000" stroke-width="3.4375" stroke-linecap="butt" stroke-linejoin="round" stroke-miterlimit="10" stroke-opacity="1" fill="#FFC000" fill-rule="evenodd" fill-opacity="1"/><path d="M2536.26 3818.39C2536.26 3823.08 2532.45 3826.89 2527.76 3826.89 2523.07 3826.89 2519.26 3823.08 2519.26 3818.39 2519.26 3813.69 2523.07 3809.89 2527.76 3809.89 2532.45 3809.89 2536.26 3813.69 2536.26 3818.39Z" stroke="#FFC000" stroke-width="3.4375" stroke-linecap="butt" stroke-linejoin="round" stroke-miterlimit="10" stroke-opacity="1" fill="#FFC000" fill-rule="evenodd" fill-opacity="1"/></g><g clip-path="url(#clip13)"><text fill="#595959" fill-opacity="1" font-family="Calibri,Calibri_MSFontService,sans-serif" font-style="normal" font-variant="normal" font-weight="400" font-stretch="normal" font-size="41" text-anchor="start" direction="ltr" writing-mode="lr-tb" unicode-bidi="normal" text-decoration="none" transform="matrix(1 0 0 1 1892.62 4303)">0,1</text></g><g clip-path="url(#clip14)"><text fill="#595959" fill-opacity="1" font-family="Calibri,Calibri_MSFontService,sans-serif" font-style="normal" font-variant="normal" font-weight="400" font-stretch="normal" font-size="41" text-anchor="start" direction="ltr" writing-mode="lr-tb" unicode-bidi="normal" text-decoration="none" transform="matrix(1 0 0 1 1923.81 4094)">1</text></g><g clip-path="url(#clip15)"><text fill="#595959" fill-opacity="1" font-family="Calibri,Calibri_MSFontService,sans-serif" font-style="normal" font-variant="normal" font-weight="400" font-stretch="normal" font-size="41" text-anchor="start" direction="ltr" writing-mode="lr-tb" unicode-bidi="normal" text-decoration="none" transform="matrix(1 0 0 1 1902.91 3884)">10</text></g><g clip-path="url(#clip16)"><text fill="#595959" fill-opacity="1" font-family="Calibri,Calibri_MSFontService,sans-serif" font-style="normal" font-variant="normal" font-weight="400" font-stretch="normal" font-size="41" text-anchor="start" direction="ltr" writing-mode="lr-tb" unicode-bidi="normal" text-decoration="none" transform="matrix(1 0 0 1 1930.73 4358)">10000</text></g><g clip-path="url(#clip17)"><text fill="#595959" fill-opacity="1" font-family="Calibri,Calibri_MSFontService,sans-serif" font-style="normal" font-variant="normal" font-weight="400" font-stretch="normal" font-size="41" text-anchor="start" direction="ltr" writing-mode="lr-tb" unicode-bidi="normal" text-decoration="none" transform="matrix(1 0 0 1 2255.6 4358)">100000</text></g><g clip-path="url(#clip18)"><text fill="#595959" fill-opacity="1" font-family="Calibri,Calibri_MSFontService,sans-serif" font-style="normal" font-variant="normal" font-weight="400" font-stretch="normal" font-size="41" text-anchor="start" direction="ltr" writing-mode="lr-tb" unicode-bidi="normal" text-decoration="none" transform="matrix(1 0 0 1 2580.48 4358)">1000000</text></g><g clip-path="url(#clip19)"><text fill="#595959" fill-opacity="1" font-family="Calibri,Calibri_MSFontService,sans-serif" font-style="normal" font-variant="normal" font-weight="400" font-stretch="normal" font-size="41" text-anchor="start" direction="ltr" writing-mode="lr-tb" unicode-bidi="normal" text-decoration="none" transform="matrix(1 0 0 1 2905.35 4358)">10000000</text></g><g clip-path="url(#clip20)"><text fill="#595959" fill-opacity="1" font-family="Calibri,Calibri_MSFontService,sans-serif" font-style="normal" font-variant="normal" font-weight="400" font-stretch="normal" font-size="46" text-anchor="start" direction="ltr" writing-mode="lr-tb" unicode-bidi="normal" text-decoration="none" transform="matrix(6.12323e-17 -1 1 6.12323e-17 1883.64 4311)">Latency (ms) (log)</text></g><g clip-path="url(#clip21)"><text fill="#595959" fill-opacity="1" font-family="Calibri,Calibri_MSFontService,sans-serif" font-style="normal" font-variant="normal" font-weight="400" font-stretch="normal" font-size="46" text-anchor="start" direction="ltr" writing-mode="lr-tb" unicode-bidi="normal" text-decoration="none" transform="matrix(1 0 0 1 2127.33 4407)">Throughput (ops/s) (log scale)</text></g><g clip-path="url(#clip22)"><rect x="1999.5" y="4097.5" width="319" height="183" stroke="#000000" stroke-width="3.4375" stroke-linecap="butt" stroke-linejoin="round" stroke-miterlimit="10" stroke-opacity="1" fill="#FFFFFF" fill-opacity="1"/></g><g clip-path="url(#clip23)"><path d="M2037.5 4120.5 2125.5 4120.5" stroke="#4472C4" stroke-width="6.875" stroke-linecap="round" stroke-linejoin="round" stroke-miterlimit="10" stroke-opacity="1" fill="none" fill-rule="evenodd"/></g><g clip-path="url(#clip24)"><path d="M2089 4119.5C2089 4124.19 2085.19 4128 2080.5 4128 2075.81 4128 2072 4124.19 2072 4119.5 2072 4114.81 2075.81 4111 2080.5 4111 2085.19 4111 2089 4114.81 2089 4119.5Z" stroke="#4472C4" stroke-width="3.4375" stroke-linecap="butt" stroke-linejoin="round" stroke-miterlimit="10" stroke-opacity="1" fill="#4472C4" fill-rule="evenodd" fill-opacity="1"/></g><g clip-path="url(#clip25)"><text fill="#595959" fill-opacity="1" font-family="Calibri,Calibri_MSFontService,sans-serif" font-style="normal" font-variant="normal" font-weight="400" font-stretch="normal" font-size="41" text-anchor="start" direction="ltr" writing-mode="lr-tb" unicode-bidi="normal" text-decoration="none" transform="matrix(1 0 0 1 2135.08 4131)">Top1</text></g><g clip-path="url(#clip26)"><path d="M2037.5 4166.5 2125.5 4166.5" stroke="#ED7D31" stroke-width="6.875" stroke-linecap="round" stroke-linejoin="round" stroke-miterlimit="10" stroke-opacity="1" fill="none" fill-rule="evenodd"/></g><g clip-path="url(#clip27)"><path d="M2089 4165.5C2089 4170.19 2085.19 4174 2080.5 4174 2075.81 4174 2072 4170.19 2072 4165.5 2072 4160.81 2075.81 4157 2080.5 4157 2085.19 4157 2089 4160.81 2089 4165.5Z" stroke="#ED7D31" stroke-width="3.4375" stroke-linecap="butt" stroke-linejoin="round" stroke-miterlimit="10" stroke-opacity="1" fill="#ED7D31" fill-rule="evenodd" fill-opacity="1"/></g><g clip-path="url(#clip28)"><text fill="#595959" fill-opacity="1" font-family="Calibri,Calibri_MSFontService,sans-serif" font-style="normal" font-variant="normal" font-weight="400" font-stretch="normal" font-size="41" text-anchor="start" direction="ltr" writing-mode="lr-tb" unicode-bidi="normal" text-decoration="none" transform="matrix(1 0 0 1 2135.08 4176)">Top10</text></g><g clip-path="url(#clip29)"><path d="M2037.5 4212.5 2125.5 4212.5" stroke="#548235" stroke-width="6.875" stroke-linecap="round" stroke-linejoin="round" stroke-miterlimit="10" stroke-opacity="1" fill="none" fill-rule="evenodd"/></g><g clip-path="url(#clip30)"><path d="M2089 4212C2089 4216.43 2085.19 4220.03 2080.5 4220.03 2075.81 4220.03 2072 4216.43 2072 4212 2072 4207.57 2075.81 4203.97 2080.5 4203.97 2085.19 4203.97 2089 4207.57 2089 4212Z" stroke="#548235" stroke-width="3.4375" stroke-linecap="butt" stroke-linejoin="round" stroke-miterlimit="10" stroke-opacity="1" fill="#548235" fill-rule="evenodd" fill-opacity="1"/></g><g clip-path="url(#clip31)"><text fill="#595959" fill-opacity="1" font-family="Calibri,Calibri_MSFontService,sans-serif" font-style="normal" font-variant="normal" font-weight="400" font-stretch="normal" font-size="41" text-anchor="start" direction="ltr" writing-mode="lr-tb" unicode-bidi="normal" text-decoration="none" transform="matrix(1 0 0 1 2135.08 4222)">Top100</text></g><g clip-path="url(#clip32)"><path d="M2037.5 4257.5 2125.5 4257.5" stroke="#FFC000" stroke-width="6.875" stroke-linecap="round" stroke-linejoin="round" stroke-miterlimit="10" stroke-opacity="1" fill="none" fill-rule="evenodd"/></g><g clip-path="url(#clip33)"><path d="M2089 4257C2089 4261.43 2085.19 4265.03 2080.5 4265.03 2075.81 4265.03 2072 4261.43 2072 4257 2072 4252.57 2075.81 4248.97 2080.5 4248.97 2085.19 4248.97 2089 4252.57 2089 4257Z" stroke="#FFC000" stroke-width="3.4375" stroke-linecap="butt" stroke-linejoin="round" stroke-miterlimit="10" stroke-opacity="1" fill="#FFC000" fill-rule="evenodd" fill-opacity="1"/></g><g clip-path="url(#clip34)"><text fill="#595959" fill-opacity="1" font-family="Calibri,Calibri_MSFontService,sans-serif" font-style="normal" font-variant="normal" font-weight="400" font-stretch="normal" font-size="41" text-anchor="start" direction="ltr" writing-mode="lr-tb" unicode-bidi="normal" text-decoration="none" transform="matrix(1 0 0 1 2135.08 4268)">Top1000</text></g></g></svg>