<svg width="1316" height="688" xmlns="http://www.w3.org/2000/svg" xmlns:xlink="http://www.w3.org/1999/xlink" overflow="hidden"><defs><clipPath id="clip0"><rect x="311" y="5976" width="1316" height="688"/></clipPath><clipPath id="clip1"><rect x="313" y="5977" width="1311" height="683"/></clipPath><clipPath id="clip2"><rect x="313" y="5977" width="1311" height="683"/></clipPath><clipPath id="clip3"><rect x="313" y="5977" width="1311" height="683"/></clipPath><clipPath id="clip4"><rect x="313" y="5977" width="1311" height="683"/></clipPath><clipPath id="clip5"><rect x="469" y="6017" width="1069" height="523"/></clipPath><clipPath id="clip6"><rect x="313" y="5977" width="1311" height="683"/></clipPath><clipPath id="clip7"><rect x="469" y="6017" width="1069" height="523"/></clipPath><clipPath id="clip8"><rect x="313" y="5977" width="1311" height="683"/></clipPath><clipPath id="clip9"><rect x="469" y="6017" width="1069" height="523"/></clipPath><clipPath id="clip10"><rect x="313" y="5977" width="1311" height="683"/></clipPath><clipPath id="clip11"><rect x="469" y="6017" width="1069" height="523"/></clipPath><clipPath id="clip12"><rect x="313" y="5977" width="1311" height="683"/></clipPath><clipPath id="clip13"><rect x="469" y="6017" width="1069" height="523"/></clipPath><clipPath id="clip14"><rect x="313" y="5977" width="1311" height="683"/></clipPath><clipPath id="clip15"><rect x="313" y="5977" width="1311" height="683"/></clipPath><clipPath id="clip16"><rect x="313" y="5977" width="1311" height="683"/></clipPath><clipPath id="clip17"><rect x="313" y="5977" width="1311" height="683"/></clipPath><clipPath id="clip18"><rect x="313" y="5977" width="1311" height="683"/></clipPath><clipPath id="clip19"><rect x="313" y="5977" width="1311" height="683"/></clipPath><clipPath id="clip20"><rect x="313" y="5977" width="1311" height="683"/></clipPath><clipPath id="clip21"><rect x="313" y="5977" width="1311" height="683"/></clipPath><clipPath id="clip22"><rect x="313" y="5977" width="1311" height="683"/></clipPath><clipPath id="clip23"><rect x="313" y="5977" width="1311" height="683"/></clipPath><clipPath id="clip24"><rect x="313" y="5977" width="1311" height="683"/></clipPath><clipPath id="clip25"><rect x="313" y="5977" width="1311" height="683"/></clipPath><clipPath id="clip26"><rect x="313" y="5977" width="1311" height="683"/></clipPath><clipPath id="clip27"><rect x="313" y="5977" width="1311" height="683"/></clipPath><clipPath id="clip28"><rect x="313" y="5977" width="1311" height="683"/></clipPath><clipPath id="clip29"><rect x="313" y="5977" width="1311" height="683"/></clipPath><clipPath id="clip30"><rect x="313" y="5977" width="1311" height="683"/></clipPath><clipPath id="clip31"><rect x="313" y="5977" width="1311" height="683"/></clipPath><clipPath id="clip32"><rect x="313" y="5977" width="1311" height="683"/></clipPath><clipPath id="clip33"><rect x="313" y="5977" width="1311" height="683"/></clipPath><clipPath id="clip34"><rect x="313" y="5977" width="1311" height="683"/></clipPath><clipPath id="clip35"><rect x="313" y="5977" width="1311" height="683"/></clipPath><clipPath id="clip36"><rect x="313" y="5977" width="1311" height="683"/></clipPath><clipPath id="clip37"><rect x="313" y="5977" width="1311" height="683"/></clipPath><clipPath id="clip38"><rect x="313" y="5977" width="1311" height="683"/></clipPath><clipPath id="clip39"><rect x="313" y="5977" width="1311" height="683"/></clipPath><clipPath id="clip40"><rect x="313" y="5977" width="1311" height="683"/></clipPath><clipPath id="clip41"><rect x="313" y="5977" width="1311" height="683"/></clipPath><clipPath id="clip42"><rect x="313" y="5977" width="1311" height="683"/></clipPath><clipPath id="clip43"><rect x="313" y="5977" width="1311" height="683"/></clipPath><clipPath id="clip44"><rect x="313" y="5977" width="1311" height="683"/></clipPath><clipPath id="clip45"><rect x="313" y="5977" width="1311" height="683"/></clipPath><clipPath id="clip46"><rect x="313" y="5977" width="1311" height="683"/></clipPath><clipPath id="clip47"><rect x="313" y="5977" width="1311" height="683"/></clipPath><clipPath id="clip48"><rect x="313" y="5977" width="1312" height="684"/></clipPath></defs><g clip-path="url(#clip0)" transform="translate(-311 -5976)"><rect x="314" y="5978" width="1311" height="682" fill="#FFFFFF" fill-opacity="1"/><g clip-path="url(#clip1)"><path d="M469.5 6450.71 1534.5 6450.71M469.5 6363.71 1534.5 6363.71M469.5 6276.71 1534.5 6276.71M469.5 6190.7 1534.5 6190.7M469.5 6103.7 1534.5 6103.7M469.5 6017.5 1534.5 6017.5" stroke="#D9D9D9" stroke-width="3.4375" stroke-linecap="butt" stroke-linejoin="round" stroke-miterlimit="10" stroke-opacity="1" fill="none" fill-rule="evenodd"/></g><g clip-path="url(#clip2)"><path d="M621.521 6017.5 621.521 6536.5M774.526 6017.5 774.526 6536.5M926.531 6017.5 926.531 6536.5M1078.54 6017.5 1078.54 6536.5M1230.54 6017.5 1230.54 6536.5M1382.55 6017.5 1382.55 6536.5M1534.5 6017.5 1534.5 6536.5" stroke="#D9D9D9" stroke-width="3.4375" stroke-linecap="butt" stroke-linejoin="round" stroke-miterlimit="10" stroke-opacity="1" fill="none" fill-rule="evenodd"/></g><g clip-path="url(#clip3)"><path d="M0 0 0.000360892 519" stroke="#BFBFBF" stroke-width="3.4375" stroke-linecap="butt" stroke-linejoin="round" stroke-miterlimit="10" stroke-opacity="1" fill="none" fill-rule="evenodd" transform="matrix(1 0 0 -1 469.5 6536.5)"/></g><g clip-path="url(#clip4)"><path d="M469.5 6536.5 1534.5 6536.5" stroke="#BFBFBF" stroke-width="3.4375" stroke-linecap="butt" stroke-linejoin="round" stroke-miterlimit="10" stroke-opacity="1" fill="none" fill-rule="evenodd"/></g><g clip-path="url(#clip5)"><path d="M580.5 6393.71 710.523 6405.5 926.531 6398.71 1097.54 6385.71 1238.54 6371.71 1337.54 6354.71 1384.55 6329.71 1413.55 6302.71 1438.55 6275.71 1454.55 6247.71 1471.5 6220.5" stroke="#264478" stroke-width="6.875" stroke-linecap="round" stroke-linejoin="round" stroke-miterlimit="10" stroke-opacity="1" fill="none" fill-rule="evenodd"/></g><g clip-path="url(#clip6)"><path d="M591.12 6393.32C591.12 6399.39 586.195 6404.31 580.12 6404.31 574.046 6404.31 569.121 6399.39 569.121 6393.32 569.121 6387.24 574.046 6382.32 580.12 6382.32 586.195 6382.32 591.12 6387.24 591.12 6393.32Z" stroke="#264478" stroke-width="3.4375" stroke-linecap="butt" stroke-linejoin="round" stroke-miterlimit="10" stroke-opacity="1" fill="#264478" fill-rule="evenodd" fill-opacity="1"/><path d="M721.12 6405.32C721.12 6411.39 716.195 6416.32 710.12 6416.32 704.045 6416.32 699.121 6411.39 699.121 6405.32 699.121 6399.24 704.045 6394.32 710.12 6394.32 716.195 6394.32 721.12 6399.24 721.12 6405.32Z" stroke="#264478" stroke-width="3.4375" stroke-linecap="butt" stroke-linejoin="round" stroke-miterlimit="10" stroke-opacity="1" fill="#264478" fill-rule="evenodd" fill-opacity="1"/><path d="M937.12 6398.32C937.12 6404.39 932.195 6409.32 926.12 6409.32 920.045 6409.32 915.121 6404.39 915.121 6398.32 915.121 6392.24 920.045 6387.32 926.12 6387.32 932.195 6387.32 937.12 6392.24 937.12 6398.32Z" stroke="#264478" stroke-width="3.4375" stroke-linecap="butt" stroke-linejoin="round" stroke-miterlimit="10" stroke-opacity="1" fill="#264478" fill-rule="evenodd" fill-opacity="1"/><path d="M1108.12 6385.32C1108.12 6391.39 1103.2 6396.32 1097.12 6396.32 1091.05 6396.32 1086.12 6391.39 1086.12 6385.32 1086.12 6379.24 1091.05 6374.32 1097.12 6374.32 1103.2 6374.32 1108.12 6379.24 1108.12 6385.32Z" stroke="#264478" stroke-width="3.4375" stroke-linecap="butt" stroke-linejoin="round" stroke-miterlimit="10" stroke-opacity="1" fill="#264478" fill-rule="evenodd" fill-opacity="1"/><path d="M1249.12 6372.32C1249.12 6378.39 1244.2 6383.32 1238.12 6383.32 1232.05 6383.32 1227.12 6378.39 1227.12 6372.32 1227.12 6366.24 1232.05 6361.32 1238.12 6361.32 1244.2 6361.32 1249.12 6366.24 1249.12 6372.32Z" stroke="#264478" stroke-width="3.4375" stroke-linecap="butt" stroke-linejoin="round" stroke-miterlimit="10" stroke-opacity="1" fill="#264478" fill-rule="evenodd" fill-opacity="1"/><path d="M1348.12 6354.32C1348.12 6360.39 1343.2 6365.32 1337.12 6365.32 1331.05 6365.32 1326.12 6360.39 1326.12 6354.32 1326.12 6348.24 1331.05 6343.32 1337.12 6343.32 1343.2 6343.32 1348.12 6348.24 1348.12 6354.32Z" stroke="#264478" stroke-width="3.4375" stroke-linecap="butt" stroke-linejoin="round" stroke-miterlimit="10" stroke-opacity="1" fill="#264478" fill-rule="evenodd" fill-opacity="1"/><path d="M1395.12 6329.32C1395.12 6335.39 1390.2 6340.32 1384.12 6340.32 1378.05 6340.32 1373.12 6335.39 1373.12 6329.32 1373.12 6323.24 1378.05 6318.32 1384.12 6318.32 1390.2 6318.32 1395.12 6323.24 1395.12 6329.32Z" stroke="#264478" stroke-width="3.4375" stroke-linecap="butt" stroke-linejoin="round" stroke-miterlimit="10" stroke-opacity="1" fill="#264478" fill-rule="evenodd" fill-opacity="1"/><path d="M1424.12 6302.32C1424.12 6308.39 1419.2 6313.32 1413.12 6313.32 1407.05 6313.32 1402.12 6308.39 1402.12 6302.32 1402.12 6296.24 1407.05 6291.32 1413.12 6291.32 1419.2 6291.32 1424.12 6296.24 1424.12 6302.32Z" stroke="#264478" stroke-width="3.4375" stroke-linecap="butt" stroke-linejoin="round" stroke-miterlimit="10" stroke-opacity="1" fill="#264478" fill-rule="evenodd" fill-opacity="1"/><path d="M1449.12 6275.32C1449.12 6281.39 1444.2 6286.32 1438.12 6286.32 1432.05 6286.32 1427.12 6281.39 1427.12 6275.32 1427.12 6269.24 1432.05 6264.32 1438.12 6264.32 1444.2 6264.32 1449.12 6269.24 1449.12 6275.32Z" stroke="#264478" stroke-width="3.4375" stroke-linecap="butt" stroke-linejoin="round" stroke-miterlimit="10" stroke-opacity="1" fill="#264478" fill-rule="evenodd" fill-opacity="1"/><path d="M1465.12 6247.32C1465.12 6253.39 1460.2 6258.32 1454.12 6258.32 1448.05 6258.32 1443.12 6253.39 1443.12 6247.32 1443.12 6241.24 1448.05 6236.32 1454.12 6236.32 1460.2 6236.32 1465.12 6241.24 1465.12 6247.32Z" stroke="#264478" stroke-width="3.4375" stroke-linecap="butt" stroke-linejoin="round" stroke-miterlimit="10" stroke-opacity="1" fill="#264478" fill-rule="evenodd" fill-opacity="1"/><path d="M1482.12 6220.32C1482.12 6226.39 1477.2 6231.32 1471.12 6231.32 1465.05 6231.32 1460.12 6226.39 1460.12 6220.32 1460.12 6214.24 1465.05 6209.32 1471.12 6209.32 1477.2 6209.32 1482.12 6214.24 1482.12 6220.32Z" stroke="#264478" stroke-width="3.4375" stroke-linecap="butt" stroke-linejoin="round" stroke-miterlimit="10" stroke-opacity="1" fill="#264478" fill-rule="evenodd" fill-opacity="1"/></g><g clip-path="url(#clip7)"><path d="M574.5 6384.71 703.523 6400.5 906.53 6390.71 1069.54 6377.71 1209.54 6364.71 1301.54 6345.71 1360.54 6322.71 1403.55 6297.71 1426.55 6270.71 1449.55 6243.71 1461.55 6215.7 1488.5 6161.5" stroke="#9D47C4" stroke-width="6.875" stroke-linecap="round" stroke-linejoin="round" stroke-miterlimit="10" stroke-opacity="1" fill="none" fill-rule="evenodd"/></g><g clip-path="url(#clip8)"><path d="M585.12 6384.32C585.12 6390.39 580.195 6395.32 574.12 6395.32 568.045 6395.32 563.121 6390.39 563.121 6384.32 563.121 6378.24 568.045 6373.32 574.12 6373.32 580.195 6373.32 585.12 6378.24 585.12 6384.32Z" stroke="#9D47C4" stroke-width="3.4375" stroke-linecap="butt" stroke-linejoin="round" stroke-miterlimit="10" stroke-opacity="1" fill="#9D47C4" fill-rule="evenodd" fill-opacity="1"/><path d="M714.12 6400.32C714.12 6406.39 709.195 6411.32 703.12 6411.32 697.046 6411.32 692.121 6406.39 692.121 6400.32 692.121 6394.24 697.046 6389.32 703.12 6389.32 709.195 6389.32 714.12 6394.24 714.12 6400.32Z" stroke="#9D47C4" stroke-width="3.4375" stroke-linecap="butt" stroke-linejoin="round" stroke-miterlimit="10" stroke-opacity="1" fill="#9D47C4" fill-rule="evenodd" fill-opacity="1"/><path d="M917.12 6391.32C917.12 6397.39 912.195 6402.32 906.12 6402.32 900.045 6402.32 895.121 6397.39 895.121 6391.32 895.121 6385.24 900.045 6380.32 906.12 6380.32 912.195 6380.32 917.12 6385.24 917.12 6391.32Z" stroke="#9D47C4" stroke-width="3.4375" stroke-linecap="butt" stroke-linejoin="round" stroke-miterlimit="10" stroke-opacity="1" fill="#9D47C4" fill-rule="evenodd" fill-opacity="1"/><path d="M1080.12 6377.32C1080.12 6383.39 1075.2 6388.32 1069.12 6388.32 1063.05 6388.32 1058.12 6383.39 1058.12 6377.32 1058.12 6371.24 1063.05 6366.32 1069.12 6366.32 1075.2 6366.32 1080.12 6371.24 1080.12 6377.32Z" stroke="#9D47C4" stroke-width="3.4375" stroke-linecap="butt" stroke-linejoin="round" stroke-miterlimit="10" stroke-opacity="1" fill="#9D47C4" fill-rule="evenodd" fill-opacity="1"/><path d="M1220.12 6364.32C1220.12 6370.39 1215.2 6375.32 1209.12 6375.32 1203.05 6375.32 1198.12 6370.39 1198.12 6364.32 1198.12 6358.24 1203.05 6353.32 1209.12 6353.32 1215.2 6353.32 1220.12 6358.24 1220.12 6364.32Z" stroke="#9D47C4" stroke-width="3.4375" stroke-linecap="butt" stroke-linejoin="round" stroke-miterlimit="10" stroke-opacity="1" fill="#9D47C4" fill-rule="evenodd" fill-opacity="1"/><path d="M1312.12 6345.32C1312.12 6351.39 1307.2 6356.32 1301.12 6356.32 1295.05 6356.32 1290.12 6351.39 1290.12 6345.32 1290.12 6339.24 1295.05 6334.32 1301.12 6334.32 1307.2 6334.32 1312.12 6339.24 1312.12 6345.32Z" stroke="#9D47C4" stroke-width="3.4375" stroke-linecap="butt" stroke-linejoin="round" stroke-miterlimit="10" stroke-opacity="1" fill="#9D47C4" fill-rule="evenodd" fill-opacity="1"/><path d="M1371.12 6322.32C1371.12 6328.39 1366.2 6333.32 1360.12 6333.32 1354.05 6333.32 1349.12 6328.39 1349.12 6322.32 1349.12 6316.24 1354.05 6311.32 1360.12 6311.32 1366.2 6311.32 1371.12 6316.24 1371.12 6322.32Z" stroke="#9D47C4" stroke-width="3.4375" stroke-linecap="butt" stroke-linejoin="round" stroke-miterlimit="10" stroke-opacity="1" fill="#9D47C4" fill-rule="evenodd" fill-opacity="1"/><path d="M1414.12 6298.32C1414.12 6304.39 1409.2 6309.32 1403.12 6309.32 1397.05 6309.32 1392.12 6304.39 1392.12 6298.32 1392.12 6292.24 1397.05 6287.32 1403.12 6287.32 1409.2 6287.32 1414.12 6292.24 1414.12 6298.32Z" stroke="#9D47C4" stroke-width="3.4375" stroke-linecap="butt" stroke-linejoin="round" stroke-miterlimit="10" stroke-opacity="1" fill="#9D47C4" fill-rule="evenodd" fill-opacity="1"/><path d="M1437.12 6270.32C1437.12 6276.39 1432.2 6281.32 1426.12 6281.32 1420.05 6281.32 1415.12 6276.39 1415.12 6270.32 1415.12 6264.24 1420.05 6259.32 1426.12 6259.32 1432.2 6259.32 1437.12 6264.24 1437.12 6270.32Z" stroke="#9D47C4" stroke-width="3.4375" stroke-linecap="butt" stroke-linejoin="round" stroke-miterlimit="10" stroke-opacity="1" fill="#9D47C4" fill-rule="evenodd" fill-opacity="1"/><path d="M1460.12 6244.32C1460.12 6250.39 1455.2 6255.32 1449.12 6255.32 1443.05 6255.32 1438.12 6250.39 1438.12 6244.32 1438.12 6238.24 1443.05 6233.32 1449.12 6233.32 1455.2 6233.32 1460.12 6238.24 1460.12 6244.32Z" stroke="#9D47C4" stroke-width="3.4375" stroke-linecap="butt" stroke-linejoin="round" stroke-miterlimit="10" stroke-opacity="1" fill="#9D47C4" fill-rule="evenodd" fill-opacity="1"/><path d="M1472.12 6215.32C1472.12 6221.39 1467.2 6226.32 1461.12 6226.32 1455.05 6226.32 1450.12 6221.39 1450.12 6215.32 1450.12 6209.24 1455.05 6204.32 1461.12 6204.32 1467.2 6204.32 1472.12 6209.24 1472.12 6215.32Z" stroke="#9D47C4" stroke-width="3.4375" stroke-linecap="butt" stroke-linejoin="round" stroke-miterlimit="10" stroke-opacity="1" fill="#9D47C4" fill-rule="evenodd" fill-opacity="1"/><path d="M1499.12 6161.32C1499.12 6167.39 1494.2 6172.31 1488.12 6172.31 1482.05 6172.31 1477.12 6167.39 1477.12 6161.32 1477.12 6155.24 1482.05 6150.32 1488.12 6150.32 1494.2 6150.32 1499.12 6155.24 1499.12 6161.32Z" stroke="#9D47C4" stroke-width="3.4375" stroke-linecap="butt" stroke-linejoin="round" stroke-miterlimit="10" stroke-opacity="1" fill="#9D47C4" fill-rule="evenodd" fill-opacity="1"/></g><g clip-path="url(#clip9)"><path d="M577.5 6379.71 707.523 6393.5 900.53 6379.71 1058.53 6363.71 1191.54 6348.71 1294.54 6330.71 1357.54 6306.71 1398.55 6280.71 1444.55 6257.71 1456.55 6226.7 1458.55 6192.7 1476.5 6131.5" stroke="#ED7D31" stroke-width="6.875" stroke-linecap="round" stroke-linejoin="round" stroke-miterlimit="10" stroke-opacity="1" fill="none" fill-rule="evenodd"/></g><g clip-path="url(#clip10)"><path d="M588.12 6379.32C588.12 6385.39 583.195 6390.32 577.12 6390.32 571.045 6390.32 566.121 6385.39 566.121 6379.32 566.121 6373.24 571.045 6368.32 577.12 6368.32 583.195 6368.32 588.12 6373.24 588.12 6379.32Z" stroke="#ED7D31" stroke-width="3.4375" stroke-linecap="butt" stroke-linejoin="round" stroke-miterlimit="10" stroke-opacity="1" fill="#ED7D31" fill-rule="evenodd" fill-opacity="1"/><path d="M718.12 6393.32C718.12 6399.39 713.195 6404.31 707.12 6404.31 701.045 6404.31 696.121 6399.39 696.121 6393.32 696.121 6387.24 701.045 6382.32 707.12 6382.32 713.195 6382.32 718.12 6387.24 718.12 6393.32Z" stroke="#ED7D31" stroke-width="3.4375" stroke-linecap="butt" stroke-linejoin="round" stroke-miterlimit="10" stroke-opacity="1" fill="#ED7D31" fill-rule="evenodd" fill-opacity="1"/><path d="M912.12 6379.32C912.12 6385.39 907.195 6390.32 901.12 6390.32 895.046 6390.32 890.121 6385.39 890.121 6379.32 890.121 6373.24 895.046 6368.32 901.12 6368.32 907.195 6368.32 912.12 6373.24 912.12 6379.32Z" stroke="#ED7D31" stroke-width="3.4375" stroke-linecap="butt" stroke-linejoin="round" stroke-miterlimit="10" stroke-opacity="1" fill="#ED7D31" fill-rule="evenodd" fill-opacity="1"/><path d="M1069.12 6363.32C1069.12 6369.39 1064.2 6374.32 1058.12 6374.32 1052.05 6374.32 1047.12 6369.39 1047.12 6363.32 1047.12 6357.24 1052.05 6352.32 1058.12 6352.32 1064.2 6352.32 1069.12 6357.24 1069.12 6363.32Z" stroke="#ED7D31" stroke-width="3.4375" stroke-linecap="butt" stroke-linejoin="round" stroke-miterlimit="10" stroke-opacity="1" fill="#ED7D31" fill-rule="evenodd" fill-opacity="1"/><path d="M1202.12 6348.32C1202.12 6354.39 1197.2 6359.31 1191.12 6359.31 1185.05 6359.31 1180.12 6354.39 1180.12 6348.32 1180.12 6342.24 1185.05 6337.32 1191.12 6337.32 1197.2 6337.32 1202.12 6342.24 1202.12 6348.32Z" stroke="#ED7D31" stroke-width="3.4375" stroke-linecap="butt" stroke-linejoin="round" stroke-miterlimit="10" stroke-opacity="1" fill="#ED7D31" fill-rule="evenodd" fill-opacity="1"/><path d="M1305.12 6330.32C1305.12 6336.39 1300.2 6341.32 1294.12 6341.32 1288.05 6341.32 1283.12 6336.39 1283.12 6330.32 1283.12 6324.24 1288.05 6319.32 1294.12 6319.32 1300.2 6319.32 1305.12 6324.24 1305.12 6330.32Z" stroke="#ED7D31" stroke-width="3.4375" stroke-linecap="butt" stroke-linejoin="round" stroke-miterlimit="10" stroke-opacity="1" fill="#ED7D31" fill-rule="evenodd" fill-opacity="1"/><path d="M1368.12 6307.32C1368.12 6313.39 1363.2 6318.32 1357.12 6318.32 1351.05 6318.32 1346.12 6313.39 1346.12 6307.32 1346.12 6301.24 1351.05 6296.32 1357.12 6296.32 1363.2 6296.32 1368.12 6301.24 1368.12 6307.32Z" stroke="#ED7D31" stroke-width="3.4375" stroke-linecap="butt" stroke-linejoin="round" stroke-miterlimit="10" stroke-opacity="1" fill="#ED7D31" fill-rule="evenodd" fill-opacity="1"/><path d="M1409.12 6280.32C1409.12 6286.39 1404.2 6291.32 1398.12 6291.32 1392.05 6291.32 1387.12 6286.39 1387.12 6280.32 1387.12 6274.24 1392.05 6269.32 1398.12 6269.32 1404.2 6269.32 1409.12 6274.24 1409.12 6280.32Z" stroke="#ED7D31" stroke-width="3.4375" stroke-linecap="butt" stroke-linejoin="round" stroke-miterlimit="10" stroke-opacity="1" fill="#ED7D31" fill-rule="evenodd" fill-opacity="1"/><path d="M1455.12 6257.32C1455.12 6263.39 1450.2 6268.32 1444.12 6268.32 1438.05 6268.32 1433.12 6263.39 1433.12 6257.32 1433.12 6251.24 1438.05 6246.32 1444.12 6246.32 1450.2 6246.32 1455.12 6251.24 1455.12 6257.32Z" stroke="#ED7D31" stroke-width="3.4375" stroke-linecap="butt" stroke-linejoin="round" stroke-miterlimit="10" stroke-opacity="1" fill="#ED7D31" fill-rule="evenodd" fill-opacity="1"/><path d="M1467.12 6226.32C1467.12 6232.39 1462.2 6237.32 1456.12 6237.32 1450.05 6237.32 1445.12 6232.39 1445.12 6226.32 1445.12 6220.24 1450.05 6215.32 1456.12 6215.32 1462.2 6215.32 1467.12 6220.24 1467.12 6226.32Z" stroke="#ED7D31" stroke-width="3.4375" stroke-linecap="butt" stroke-linejoin="round" stroke-miterlimit="10" stroke-opacity="1" fill="#ED7D31" fill-rule="evenodd" fill-opacity="1"/><path d="M1469.12 6192.32C1469.12 6198.39 1464.2 6203.32 1458.12 6203.32 1452.05 6203.32 1447.12 6198.39 1447.12 6192.32 1447.12 6186.24 1452.05 6181.32 1458.12 6181.32 1464.2 6181.32 1469.12 6186.24 1469.12 6192.32Z" stroke="#ED7D31" stroke-width="3.4375" stroke-linecap="butt" stroke-linejoin="round" stroke-miterlimit="10" stroke-opacity="1" fill="#ED7D31" fill-rule="evenodd" fill-opacity="1"/><path d="M1487.12 6131.32C1487.12 6137.39 1482.2 6142.32 1476.12 6142.32 1470.05 6142.32 1465.12 6137.39 1465.12 6131.32 1465.12 6125.24 1470.05 6120.32 1476.12 6120.32 1482.2 6120.32 1487.12 6125.24 1487.12 6131.32Z" stroke="#ED7D31" stroke-width="3.4375" stroke-linecap="butt" stroke-linejoin="round" stroke-miterlimit="10" stroke-opacity="1" fill="#ED7D31" fill-rule="evenodd" fill-opacity="1"/></g><g clip-path="url(#clip11)"><path d="M590.5 6376.71 721.524 6384.5 914.53 6364.71 1077.54 6347.71 1202.54 6326.71 1260.54 6318.71 1311.54 6308.71 1330.54 6291.71 1375.55 6282.71 1373.55 6260.71 1390.5 6244.5" stroke="#FFC000" stroke-width="6.875" stroke-linecap="round" stroke-linejoin="round" stroke-miterlimit="10" stroke-opacity="1" fill="none" fill-rule="evenodd"/></g><g clip-path="url(#clip12)"><path d="M601.12 6377.32C601.12 6383.39 596.195 6388.32 590.12 6388.32 584.045 6388.32 579.121 6383.39 579.121 6377.32 579.121 6371.24 584.045 6366.32 590.12 6366.32 596.195 6366.32 601.12 6371.24 601.12 6377.32Z" stroke="#FFC000" stroke-width="3.4375" stroke-linecap="butt" stroke-linejoin="round" stroke-miterlimit="10" stroke-opacity="1" fill="#FFC000" fill-rule="evenodd" fill-opacity="1"/><path d="M732.12 6384.32C732.12 6390.39 727.195 6395.32 721.12 6395.32 715.045 6395.32 710.121 6390.39 710.121 6384.32 710.121 6378.24 715.045 6373.32 721.12 6373.32 727.195 6373.32 732.12 6378.24 732.12 6384.32Z" stroke="#FFC000" stroke-width="3.4375" stroke-linecap="butt" stroke-linejoin="round" stroke-miterlimit="10" stroke-opacity="1" fill="#FFC000" fill-rule="evenodd" fill-opacity="1"/><path d="M925.12 6364.32C925.12 6370.39 920.195 6375.32 914.12 6375.32 908.045 6375.32 903.121 6370.39 903.121 6364.32 903.121 6358.24 908.045 6353.32 914.12 6353.32 920.195 6353.32 925.12 6358.24 925.12 6364.32Z" stroke="#FFC000" stroke-width="3.4375" stroke-linecap="butt" stroke-linejoin="round" stroke-miterlimit="10" stroke-opacity="1" fill="#FFC000" fill-rule="evenodd" fill-opacity="1"/><path d="M1088.12 6347.32C1088.12 6353.39 1083.2 6358.32 1077.12 6358.32 1071.05 6358.32 1066.12 6353.39 1066.12 6347.32 1066.12 6341.24 1071.05 6336.32 1077.12 6336.32 1083.2 6336.32 1088.12 6341.24 1088.12 6347.32Z" stroke="#FFC000" stroke-width="3.4375" stroke-linecap="butt" stroke-linejoin="round" stroke-miterlimit="10" stroke-opacity="1" fill="#FFC000" fill-rule="evenodd" fill-opacity="1"/><path d="M1213.12 6327.32C1213.12 6333.39 1208.2 6338.31 1202.12 6338.31 1196.05 6338.31 1191.12 6333.39 1191.12 6327.32 1191.12 6321.24 1196.05 6316.32 1202.12 6316.32 1208.2 6316.32 1213.12 6321.24 1213.12 6327.32Z" stroke="#FFC000" stroke-width="3.4375" stroke-linecap="butt" stroke-linejoin="round" stroke-miterlimit="10" stroke-opacity="1" fill="#FFC000" fill-rule="evenodd" fill-opacity="1"/><path d="M1271.12 6318.32C1271.12 6324.39 1266.2 6329.32 1260.12 6329.32 1254.05 6329.32 1249.12 6324.39 1249.12 6318.32 1249.12 6312.24 1254.05 6307.32 1260.12 6307.32 1266.2 6307.32 1271.12 6312.24 1271.12 6318.32Z" stroke="#FFC000" stroke-width="3.4375" stroke-linecap="butt" stroke-linejoin="round" stroke-miterlimit="10" stroke-opacity="1" fill="#FFC000" fill-rule="evenodd" fill-opacity="1"/><path d="M1322.12 6308.32C1322.12 6314.39 1317.2 6319.32 1311.12 6319.32 1305.05 6319.32 1300.12 6314.39 1300.12 6308.32 1300.12 6302.24 1305.05 6297.32 1311.12 6297.32 1317.2 6297.32 1322.12 6302.24 1322.12 6308.32Z" stroke="#FFC000" stroke-width="3.4375" stroke-linecap="butt" stroke-linejoin="round" stroke-miterlimit="10" stroke-opacity="1" fill="#FFC000" fill-rule="evenodd" fill-opacity="1"/><path d="M1341.12 6291.32C1341.12 6297.39 1336.2 6302.32 1330.12 6302.32 1324.05 6302.32 1319.12 6297.39 1319.12 6291.32 1319.12 6285.24 1324.05 6280.32 1330.12 6280.32 1336.2 6280.32 1341.12 6285.24 1341.12 6291.32Z" stroke="#FFC000" stroke-width="3.4375" stroke-linecap="butt" stroke-linejoin="round" stroke-miterlimit="10" stroke-opacity="1" fill="#FFC000" fill-rule="evenodd" fill-opacity="1"/><path d="M1386.12 6282.32C1386.12 6288.39 1381.2 6293.31 1375.12 6293.31 1369.05 6293.31 1364.12 6288.39 1364.12 6282.32 1364.12 6276.24 1369.05 6271.32 1375.12 6271.32 1381.2 6271.32 1386.12 6276.24 1386.12 6282.32Z" stroke="#FFC000" stroke-width="3.4375" stroke-linecap="butt" stroke-linejoin="round" stroke-miterlimit="10" stroke-opacity="1" fill="#FFC000" fill-rule="evenodd" fill-opacity="1"/><path d="M1384.12 6260.32C1384.12 6266.39 1379.2 6271.31 1373.12 6271.31 1367.05 6271.31 1362.12 6266.39 1362.12 6260.32 1362.12 6254.24 1367.05 6249.32 1373.12 6249.32 1379.2 6249.32 1384.12 6254.24 1384.12 6260.32Z" stroke="#FFC000" stroke-width="3.4375" stroke-linecap="butt" stroke-linejoin="round" stroke-miterlimit="10" stroke-opacity="1" fill="#FFC000" fill-rule="evenodd" fill-opacity="1"/><path d="M1401.12 6244.32C1401.12 6250.39 1396.2 6255.32 1390.12 6255.32 1384.05 6255.32 1379.12 6250.39 1379.12 6244.32 1379.12 6238.24 1384.05 6233.32 1390.12 6233.32 1396.2 6233.32 1401.12 6238.24 1401.12 6244.32Z" stroke="#FFC000" stroke-width="3.4375" stroke-linecap="butt" stroke-linejoin="round" stroke-miterlimit="10" stroke-opacity="1" fill="#FFC000" fill-rule="evenodd" fill-opacity="1"/></g><g clip-path="url(#clip13)"><path d="M772.5 6321.5 891.529 6304.71 987.533 6284.71 1020.53 6240.7 1061.54 6206.7 1066.5 6154.7 1056.53 6092.5" stroke="#70AD47" stroke-width="6.875" stroke-linecap="round" stroke-linejoin="round" stroke-miterlimit="10" stroke-opacity="1" fill="none" fill-rule="evenodd"/></g><g clip-path="url(#clip14)"><path d="M783.12 6321.32C783.12 6327.39 778.195 6332.32 772.12 6332.32 766.045 6332.32 761.121 6327.39 761.121 6321.32 761.121 6315.24 766.045 6310.32 772.12 6310.32 778.195 6310.32 783.12 6315.24 783.12 6321.32Z" stroke="#70AD47" stroke-width="3.4375" stroke-linecap="butt" stroke-linejoin="round" stroke-miterlimit="10" stroke-opacity="1" fill="#70AD47" fill-rule="evenodd" fill-opacity="1"/><path d="M902.12 6304.32C902.12 6310.39 897.195 6315.31 891.121 6315.31 885.046 6315.31 880.121 6310.39 880.121 6304.32 880.121 6298.24 885.046 6293.32 891.121 6293.32 897.195 6293.32 902.12 6298.24 902.12 6304.32Z" stroke="#70AD47" stroke-width="3.4375" stroke-linecap="butt" stroke-linejoin="round" stroke-miterlimit="10" stroke-opacity="1" fill="#70AD47" fill-rule="evenodd" fill-opacity="1"/><path d="M998.12 6285.32C998.12 6291.39 993.195 6296.32 987.12 6296.32 981.046 6296.32 976.121 6291.39 976.121 6285.32 976.121 6279.24 981.046 6274.32 987.12 6274.32 993.195 6274.32 998.12 6279.24 998.12 6285.32Z" stroke="#70AD47" stroke-width="3.4375" stroke-linecap="butt" stroke-linejoin="round" stroke-miterlimit="10" stroke-opacity="1" fill="#70AD47" fill-rule="evenodd" fill-opacity="1"/><path d="M1031.12 6241.32C1031.12 6247.39 1026.2 6252.32 1020.12 6252.32 1014.05 6252.32 1009.12 6247.39 1009.12 6241.32 1009.12 6235.24 1014.05 6230.32 1020.12 6230.32 1026.2 6230.32 1031.12 6235.24 1031.12 6241.32Z" stroke="#70AD47" stroke-width="3.4375" stroke-linecap="butt" stroke-linejoin="round" stroke-miterlimit="10" stroke-opacity="1" fill="#70AD47" fill-rule="evenodd" fill-opacity="1"/><path d="M1072.12 6206.32C1072.12 6212.39 1067.2 6217.31 1061.12 6217.31 1055.05 6217.31 1050.12 6212.39 1050.12 6206.32 1050.12 6200.24 1055.05 6195.32 1061.12 6195.32 1067.2 6195.32 1072.12 6200.24 1072.12 6206.32Z" stroke="#70AD47" stroke-width="3.4375" stroke-linecap="butt" stroke-linejoin="round" stroke-miterlimit="10" stroke-opacity="1" fill="#70AD47" fill-rule="evenodd" fill-opacity="1"/><path d="M1077.12 6154.32C1077.12 6160.39 1072.2 6165.32 1066.12 6165.32 1060.05 6165.32 1055.12 6160.39 1055.12 6154.32 1055.12 6148.24 1060.05 6143.32 1066.12 6143.32 1072.2 6143.32 1077.12 6148.24 1077.12 6154.32Z" stroke="#70AD47" stroke-width="3.4375" stroke-linecap="butt" stroke-linejoin="round" stroke-miterlimit="10" stroke-opacity="1" fill="#70AD47" fill-rule="evenodd" fill-opacity="1"/><path d="M1067.12 6092.32C1067.12 6098.39 1062.2 6103.32 1056.12 6103.32 1050.05 6103.32 1045.12 6098.39 1045.12 6092.32 1045.12 6086.24 1050.05 6081.32 1056.12 6081.32 1062.2 6081.32 1067.12 6086.24 1067.12 6092.32Z" stroke="#70AD47" stroke-width="3.4375" stroke-linecap="butt" stroke-linejoin="round" stroke-miterlimit="10" stroke-opacity="1" fill="#70AD47" fill-rule="evenodd" fill-opacity="1"/></g><g clip-path="url(#clip15)"><text fill="#595959" fill-opacity="1" font-family="Calibri,Calibri_MSFontService,sans-serif" font-style="normal" font-variant="normal" font-weight="400" font-stretch="normal" font-size="41" text-anchor="start" direction="ltr" writing-mode="lr-tb" unicode-bidi="normal" text-decoration="none" transform="matrix(1 0 0 1 410.551 6547)">0</text></g><g clip-path="url(#clip16)"><text fill="#595959" fill-opacity="1" font-family="Calibri,Calibri_MSFontService,sans-serif" font-style="normal" font-variant="normal" font-weight="400" font-stretch="normal" font-size="41" text-anchor="start" direction="ltr" writing-mode="lr-tb" unicode-bidi="normal" text-decoration="none" transform="matrix(1 0 0 1 410.551 6460)">1</text></g><g clip-path="url(#clip17)"><text fill="#595959" fill-opacity="1" font-family="Calibri,Calibri_MSFontService,sans-serif" font-style="normal" font-variant="normal" font-weight="400" font-stretch="normal" font-size="41" text-anchor="start" direction="ltr" writing-mode="lr-tb" unicode-bidi="normal" text-decoration="none" transform="matrix(1 0 0 1 410.551 6374)">2</text></g><g clip-path="url(#clip18)"><text fill="#595959" fill-opacity="1" font-family="Calibri,Calibri_MSFontService,sans-serif" font-style="normal" font-variant="normal" font-weight="400" font-stretch="normal" font-size="41" text-anchor="start" direction="ltr" writing-mode="lr-tb" unicode-bidi="normal" text-decoration="none" transform="matrix(1 0 0 1 410.551 6287)">3</text></g><g clip-path="url(#clip19)"><text fill="#595959" fill-opacity="1" font-family="Calibri,Calibri_MSFontService,sans-serif" font-style="normal" font-variant="normal" font-weight="400" font-stretch="normal" font-size="41" text-anchor="start" direction="ltr" writing-mode="lr-tb" unicode-bidi="normal" text-decoration="none" transform="matrix(1 0 0 1 410.551 6200)">4</text></g><g clip-path="url(#clip20)"><text fill="#595959" fill-opacity="1" font-family="Calibri,Calibri_MSFontService,sans-serif" font-style="normal" font-variant="normal" font-weight="400" font-stretch="normal" font-size="41" text-anchor="start" direction="ltr" writing-mode="lr-tb" unicode-bidi="normal" text-decoration="none" transform="matrix(1 0 0 1 410.551 6114)">5</text></g><g clip-path="url(#clip21)"><text fill="#595959" fill-opacity="1" font-family="Calibri,Calibri_MSFontService,sans-serif" font-style="normal" font-variant="normal" font-weight="400" font-stretch="normal" font-size="41" text-anchor="start" direction="ltr" writing-mode="lr-tb" unicode-bidi="normal" text-decoration="none" transform="matrix(1 0 0 1 410.551 6027)">6</text></g><g clip-path="url(#clip22)"><text fill="#595959" fill-opacity="1" font-family="Calibri,Calibri_MSFontService,sans-serif" font-style="normal" font-variant="normal" font-weight="400" font-stretch="normal" font-size="41" text-anchor="start" direction="ltr" writing-mode="lr-tb" unicode-bidi="normal" text-decoration="none" transform="matrix(1 0 0 1 459.268 6602)">0</text></g><g clip-path="url(#clip23)"><text fill="#595959" fill-opacity="1" font-family="Calibri,Calibri_MSFontService,sans-serif" font-style="normal" font-variant="normal" font-weight="400" font-stretch="normal" font-size="41" text-anchor="start" direction="ltr" writing-mode="lr-tb" unicode-bidi="normal" text-decoration="none" transform="matrix(1 0 0 1 590.522 6602)">100</text></g><g clip-path="url(#clip24)"><text fill="#595959" fill-opacity="1" font-family="Calibri,Calibri_MSFontService,sans-serif" font-style="normal" font-variant="normal" font-weight="400" font-stretch="normal" font-size="41" text-anchor="start" direction="ltr" writing-mode="lr-tb" unicode-bidi="normal" text-decoration="none" transform="matrix(1 0 0 1 742.677 6602)">200</text></g><g clip-path="url(#clip25)"><text fill="#595959" fill-opacity="1" font-family="Calibri,Calibri_MSFontService,sans-serif" font-style="normal" font-variant="normal" font-weight="400" font-stretch="normal" font-size="41" text-anchor="start" direction="ltr" writing-mode="lr-tb" unicode-bidi="normal" text-decoration="none" transform="matrix(1 0 0 1 894.831 6602)">300</text></g><g clip-path="url(#clip26)"><text fill="#595959" fill-opacity="1" font-family="Calibri,Calibri_MSFontService,sans-serif" font-style="normal" font-variant="normal" font-weight="400" font-stretch="normal" font-size="41" text-anchor="start" direction="ltr" writing-mode="lr-tb" unicode-bidi="normal" text-decoration="none" transform="matrix(1 0 0 1 1046.99 6602)">400</text></g><g clip-path="url(#clip27)"><text fill="#595959" fill-opacity="1" font-family="Calibri,Calibri_MSFontService,sans-serif" font-style="normal" font-variant="normal" font-weight="400" font-stretch="normal" font-size="41" text-anchor="start" direction="ltr" writing-mode="lr-tb" unicode-bidi="normal" text-decoration="none" transform="matrix(1 0 0 1 1199.14 6602)">500</text></g><g clip-path="url(#clip28)"><text fill="#595959" fill-opacity="1" font-family="Calibri,Calibri_MSFontService,sans-serif" font-style="normal" font-variant="normal" font-weight="400" font-stretch="normal" font-size="41" text-anchor="start" direction="ltr" writing-mode="lr-tb" unicode-bidi="normal" text-decoration="none" transform="matrix(1 0 0 1 1351.3 6602)">600</text></g><g clip-path="url(#clip29)"><text fill="#595959" fill-opacity="1" font-family="Calibri,Calibri_MSFontService,sans-serif" font-style="normal" font-variant="normal" font-weight="400" font-stretch="normal" font-size="41" text-anchor="start" direction="ltr" writing-mode="lr-tb" unicode-bidi="normal" text-decoration="none" transform="matrix(1 0 0 1 1503.45 6602)">700</text></g><g clip-path="url(#clip30)"><text fill="#595959" fill-opacity="1" font-family="Calibri,Calibri_MSFontService,sans-serif" font-style="normal" font-variant="normal" font-weight="700" font-stretch="normal" font-size="46" text-anchor="start" direction="ltr" writing-mode="lr-tb" unicode-bidi="normal" text-decoration="none" transform="matrix(1 0 0 1 629.404 6641)">Thousands        </text></g><g clip-path="url(#clip31)"><text fill="#595959" fill-opacity="1" font-family="Calibri,Calibri_MSFontService,sans-serif" font-style="normal" font-variant="normal" font-weight="400" font-stretch="normal" font-size="46" text-anchor="start" direction="ltr" writing-mode="lr-tb" unicode-bidi="normal" text-decoration="none" transform="matrix(1 0 0 1 927.504 6641)">Ops/s (query + updates)</text></g><g clip-path="url(#clip32)"><rect x="508.5" y="6019.5" width="270" height="225" stroke="#000000" stroke-width="3.4375" stroke-linecap="butt" stroke-linejoin="round" stroke-miterlimit="10" stroke-opacity="1" fill="#FFFFFF" fill-opacity="1"/></g><g clip-path="url(#clip33)"><path d="M550.5 6041.5 638.5 6041.5" stroke="#264478" stroke-width="6.875" stroke-linecap="round" stroke-linejoin="round" stroke-miterlimit="10" stroke-opacity="1" fill="none" fill-rule="evenodd"/></g><g clip-path="url(#clip34)"><path d="M605.021 6041C605.021 6047.07 600.311 6052 594.5 6052 588.689 6052 583.978 6047.07 583.978 6041 583.978 6034.92 588.689 6030 594.5 6030 600.311 6030 605.021 6034.92 605.021 6041Z" stroke="#264478" stroke-width="3.4375" stroke-linecap="butt" stroke-linejoin="round" stroke-miterlimit="10" stroke-opacity="1" fill="#264478" fill-rule="evenodd" fill-opacity="1"/></g><g clip-path="url(#clip35)"><text fill="#595959" fill-opacity="1" font-family="Calibri,Calibri_MSFontService,sans-serif" font-style="normal" font-variant="normal" font-weight="400" font-stretch="normal" font-size="41" text-anchor="start" direction="ltr" writing-mode="lr-tb" unicode-bidi="normal" text-decoration="none" transform="matrix(1 0 0 1 647.703 6052)">0%</text></g><g clip-path="url(#clip36)"><path d="M550.5 6086.5 638.5 6086.5" stroke="#9D47C4" stroke-width="6.875" stroke-linecap="round" stroke-linejoin="round" stroke-miterlimit="10" stroke-opacity="1" fill="none" fill-rule="evenodd"/></g><g clip-path="url(#clip37)"><path d="M605.021 6086C605.021 6092.07 600.311 6097 594.5 6097 588.689 6097 583.978 6092.07 583.978 6086 583.978 6079.92 588.689 6075 594.5 6075 600.311 6075 605.021 6079.92 605.021 6086Z" stroke="#9D47C4" stroke-width="3.4375" stroke-linecap="butt" stroke-linejoin="round" stroke-miterlimit="10" stroke-opacity="1" fill="#9D47C4" fill-rule="evenodd" fill-opacity="1"/></g><g clip-path="url(#clip38)"><text fill="#595959" fill-opacity="1" font-family="Calibri,Calibri_MSFontService,sans-serif" font-style="normal" font-variant="normal" font-weight="400" font-stretch="normal" font-size="41" text-anchor="start" direction="ltr" writing-mode="lr-tb" unicode-bidi="normal" text-decoration="none" transform="matrix(1 0 0 1 647.703 6097)">1%</text></g><g clip-path="url(#clip39)"><path d="M550.5 6132.5 638.5 6132.5" stroke="#ED7D31" stroke-width="6.875" stroke-linecap="round" stroke-linejoin="round" stroke-miterlimit="10" stroke-opacity="1" fill="none" fill-rule="evenodd"/></g><g clip-path="url(#clip40)"><path d="M605.021 6132C605.021 6138.07 600.311 6143 594.5 6143 588.689 6143 583.978 6138.07 583.978 6132 583.978 6125.92 588.689 6121 594.5 6121 600.311 6121 605.021 6125.92 605.021 6132Z" stroke="#ED7D31" stroke-width="3.4375" stroke-linecap="butt" stroke-linejoin="round" stroke-miterlimit="10" stroke-opacity="1" fill="#ED7D31" fill-rule="evenodd" fill-opacity="1"/></g><g clip-path="url(#clip41)"><text fill="#595959" fill-opacity="1" font-family="Calibri,Calibri_MSFontService,sans-serif" font-style="normal" font-variant="normal" font-weight="400" font-stretch="normal" font-size="41" text-anchor="start" direction="ltr" writing-mode="lr-tb" unicode-bidi="normal" text-decoration="none" transform="matrix(1 0 0 1 647.703 6142)">10%</text></g><g clip-path="url(#clip42)"><path d="M550.5 6177.5 638.5 6177.5" stroke="#FFC000" stroke-width="6.875" stroke-linecap="round" stroke-linejoin="round" stroke-miterlimit="10" stroke-opacity="1" fill="none" fill-rule="evenodd"/></g><g clip-path="url(#clip43)"><path d="M605.021 6177C605.021 6183.07 600.311 6188 594.5 6188 588.689 6188 583.978 6183.07 583.978 6177 583.978 6170.92 588.689 6166 594.5 6166 600.311 6166 605.021 6170.92 605.021 6177Z" stroke="#FFC000" stroke-width="3.4375" stroke-linecap="butt" stroke-linejoin="round" stroke-miterlimit="10" stroke-opacity="1" fill="#FFC000" fill-rule="evenodd" fill-opacity="1"/></g><g clip-path="url(#clip44)"><text fill="#595959" fill-opacity="1" font-family="Calibri,Calibri_MSFontService,sans-serif" font-style="normal" font-variant="normal" font-weight="400" font-stretch="normal" font-size="41" text-anchor="start" direction="ltr" writing-mode="lr-tb" unicode-bidi="normal" text-decoration="none" transform="matrix(1 0 0 1 647.703 6187)">25%</text></g><g clip-path="url(#clip45)"><path d="M550.5 6222.5 638.5 6222.5" stroke="#70AD47" stroke-width="6.875" stroke-linecap="round" stroke-linejoin="round" stroke-miterlimit="10" stroke-opacity="1" fill="none" fill-rule="evenodd"/></g><g clip-path="url(#clip46)"><path d="M605.021 6222C605.021 6228.07 600.311 6233 594.5 6233 588.689 6233 583.978 6228.07 583.978 6222 583.978 6215.92 588.689 6211 594.5 6211 600.311 6211 605.021 6215.92 605.021 6222Z" stroke="#70AD47" stroke-width="3.4375" stroke-linecap="butt" stroke-linejoin="round" stroke-miterlimit="10" stroke-opacity="1" fill="#70AD47" fill-rule="evenodd" fill-opacity="1"/></g><g clip-path="url(#clip47)"><text fill="#595959" fill-opacity="1" font-family="Calibri,Calibri_MSFontService,sans-serif" font-style="normal" font-variant="normal" font-weight="400" font-stretch="normal" font-size="41" text-anchor="start" direction="ltr" writing-mode="lr-tb" unicode-bidi="normal" text-decoration="none" transform="matrix(1 0 0 1 647.703 6232)">100%</text></g><g clip-path="url(#clip48)"><text fill="#595959" fill-opacity="1" font-family="Calibri,Calibri_MSFontService,sans-serif" font-style="normal" font-variant="normal" font-weight="400" font-stretch="normal" font-size="41" text-anchor="start" direction="ltr" writing-mode="lr-tb" unicode-bidi="normal" text-decoration="none" transform="matrix(-1.83697e-16 -1 1 -1.83697e-16 369.125 6632)">Latency per transaction (ms)</text></g></g></svg>