<svg width="1329" height="766" xmlns="http://www.w3.org/2000/svg" xmlns:xlink="http://www.w3.org/1999/xlink" overflow="hidden"><defs><clipPath id="clip0"><rect x="1796" y="1026" width="1329" height="766"/></clipPath><clipPath id="clip1"><rect x="1799" y="1029" width="1322" height="759"/></clipPath><clipPath id="clip2"><rect x="1799" y="1029" width="1322" height="759"/></clipPath><clipPath id="clip3"><rect x="1799" y="1029" width="1322" height="759"/></clipPath><clipPath id="clip4"><rect x="1799" y="1029" width="1322" height="759"/></clipPath><clipPath id="clip5"><rect x="1970" y="1055" width="1054" height="604"/></clipPath><clipPath id="clip6"><rect x="1799" y="1029" width="1322" height="759"/></clipPath><clipPath id="clip7"><rect x="1970" y="1055" width="1054" height="604"/></clipPath><clipPath id="clip8"><rect x="1799" y="1029" width="1322" height="759"/></clipPath><clipPath id="clip9"><rect x="1970" y="1055" width="1054" height="604"/></clipPath><clipPath id="clip10"><rect x="1799" y="1029" width="1322" height="759"/></clipPath><clipPath id="clip11"><rect x="1970" y="1055" width="1054" height="604"/></clipPath><clipPath id="clip12"><rect x="1799" y="1029" width="1322" height="759"/></clipPath><clipPath id="clip13"><rect x="1970" y="1055" width="1054" height="604"/></clipPath><clipPath id="clip14"><rect x="1799" y="1029" width="1322" height="759"/></clipPath><clipPath id="clip15"><rect x="1799" y="1029" width="1322" height="759"/></clipPath><clipPath id="clip16"><rect x="1799" y="1029" width="1322" height="759"/></clipPath><clipPath id="clip17"><rect x="1799" y="1029" width="1322" height="759"/></clipPath><clipPath id="clip18"><rect x="1799" y="1029" width="1322" height="759"/></clipPath><clipPath id="clip19"><rect x="1799" y="1029" width="1322" height="759"/></clipPath><clipPath id="clip20"><rect x="1799" y="1029" width="1322" height="759"/></clipPath><clipPath id="clip21"><rect x="1799" y="1029" width="1322" height="759"/></clipPath><clipPath id="clip22"><rect x="1799" y="1029" width="1322" height="759"/></clipPath><clipPath id="clip23"><rect x="1799" y="1029" width="1322" height="759"/></clipPath><clipPath id="clip24"><rect x="1799" y="1029" width="1322" height="759"/></clipPath><clipPath id="clip25"><rect x="1799" y="1029" width="1322" height="759"/></clipPath><clipPath id="clip26"><rect x="1799" y="1029" width="1322" height="759"/></clipPath><clipPath id="clip27"><rect x="1799" y="1029" width="1322" height="759"/></clipPath><clipPath id="clip28"><rect x="1799" y="1029" width="1322" height="759"/></clipPath><clipPath id="clip29"><rect x="1799" y="1029" width="1322" height="759"/></clipPath><clipPath id="clip30"><rect x="1799" y="1029" width="1322" height="759"/></clipPath><clipPath id="clip31"><rect x="1799" y="1029" width="1322" height="759"/></clipPath><clipPath id="clip32"><rect x="1799" y="1029" width="1322" height="759"/></clipPath><clipPath id="clip33"><rect x="1799" y="1029" width="1322" height="759"/></clipPath><clipPath id="clip34"><rect x="1799" y="1029" width="1322" height="759"/></clipPath><clipPath id="clip35"><rect x="1799" y="1029" width="1322" height="759"/></clipPath><clipPath id="clip36"><rect x="1799" y="1029" width="1322" height="759"/></clipPath><clipPath id="clip37"><rect x="1799" y="1029" width="1322" height="759"/></clipPath><clipPath id="clip38"><rect x="1799" y="1029" width="1322" height="759"/></clipPath><clipPath id="clip39"><rect x="1799" y="1029" width="1322" height="759"/></clipPath><clipPath id="clip40"><rect x="1799" y="1029" width="1322" height="759"/></clipPath><clipPath id="clip41"><rect x="1799" y="1029" width="1322" height="759"/></clipPath><clipPath id="clip42"><rect x="1799" y="1029" width="1322" height="759"/></clipPath><clipPath id="clip43"><rect x="1799" y="1029" width="1322" height="759"/></clipPath><clipPath id="clip44"><rect x="1799" y="1029" width="1322" height="759"/></clipPath><clipPath id="clip45"><rect x="1799" y="1029" width="1322" height="759"/></clipPath><clipPath id="clip46"><rect x="1799" y="1029" width="1322" height="759"/></clipPath><clipPath id="clip47"><rect x="1799" y="1029" width="1322" height="759"/></clipPath></defs><g clip-path="url(#clip0)" transform="translate(-1796 -1026)"><rect x="1800" y="1030" width="1322" height="759" fill="#FFFFFF" fill-opacity="1"/><g clip-path="url(#clip1)"><path d="M1970.5 1555.55 3021.5 1555.55M1970.5 1455.55 3021.5 1455.55M1970.5 1355.54 3021.5 1355.54M1970.5 1255.54 3021.5 1255.54M1970.5 1155.54 3021.5 1155.54M1970.5 1055.5 3021.5 1055.5" stroke="#D9D9D9" stroke-width="3.4375" stroke-linecap="butt" stroke-linejoin="round" stroke-miterlimit="10" stroke-opacity="1" fill="none" fill-rule="evenodd"/></g><g clip-path="url(#clip2)"><path d="M2120.57 1055.5 2120.57 1655.5M2270.57 1055.5 2270.57 1655.5M2420.58 1055.5 2420.58 1655.5M2570.58 1055.5 2570.58 1655.5M2720.59 1055.5 2720.59 1655.5M2870.59 1055.5 2870.59 1655.5M3021.5 1055.5 3021.5 1655.5" stroke="#D9D9D9" stroke-width="3.4375" stroke-linecap="butt" stroke-linejoin="round" stroke-miterlimit="10" stroke-opacity="1" fill="none" fill-rule="evenodd"/></g><g clip-path="url(#clip3)"><path d="M0 0 0.000360892 600" stroke="#BFBFBF" stroke-width="3.4375" stroke-linecap="butt" stroke-linejoin="round" stroke-miterlimit="10" stroke-opacity="1" fill="none" fill-rule="evenodd" transform="matrix(1 0 0 -1 1970.5 1655.5)"/></g><g clip-path="url(#clip4)"><path d="M1970.5 1655.5 3021.5 1655.5" stroke="#BFBFBF" stroke-width="3.4375" stroke-linecap="butt" stroke-linejoin="round" stroke-miterlimit="10" stroke-opacity="1" fill="none" fill-rule="evenodd"/></g><g clip-path="url(#clip5)"><path d="M2084.5 1497.55 2200.57 1498.5 2398.58 1487.55 2561.58 1472.55 2696.59 1457.55 2775.59 1431.55 2836.59 1406.55 2872.59 1376.55 2897.6 1344.54 2921.5 1276.5" stroke="#4472C4" stroke-width="6.875" stroke-linecap="round" stroke-linejoin="round" stroke-miterlimit="10" stroke-opacity="1" fill="none" fill-rule="evenodd"/></g><g clip-path="url(#clip6)"><path d="M2095.35 1497.35C2095.35 1503.42 2090.42 1508.35 2084.35 1508.35 2078.27 1508.35 2073.35 1503.42 2073.35 1497.35 2073.35 1491.27 2078.27 1486.35 2084.35 1486.35 2090.42 1486.35 2095.35 1491.27 2095.35 1497.35Z" stroke="#4472C4" stroke-width="3.4375" stroke-linecap="butt" stroke-linejoin="round" stroke-miterlimit="10" stroke-opacity="1" fill="#4472C4" fill-rule="evenodd" fill-opacity="1"/><path d="M2211.35 1498.35C2211.35 1504.42 2206.42 1509.35 2200.35 1509.35 2194.27 1509.35 2189.35 1504.42 2189.35 1498.35 2189.35 1492.27 2194.27 1487.35 2200.35 1487.35 2206.42 1487.35 2211.35 1492.27 2211.35 1498.35Z" stroke="#4472C4" stroke-width="3.4375" stroke-linecap="butt" stroke-linejoin="round" stroke-miterlimit="10" stroke-opacity="1" fill="#4472C4" fill-rule="evenodd" fill-opacity="1"/><path d="M2409.35 1487.35C2409.35 1493.42 2404.42 1498.35 2398.35 1498.35 2392.27 1498.35 2387.35 1493.42 2387.35 1487.35 2387.35 1481.27 2392.27 1476.35 2398.35 1476.35 2404.42 1476.35 2409.35 1481.27 2409.35 1487.35Z" stroke="#4472C4" stroke-width="3.4375" stroke-linecap="butt" stroke-linejoin="round" stroke-miterlimit="10" stroke-opacity="1" fill="#4472C4" fill-rule="evenodd" fill-opacity="1"/><path d="M2572.35 1472.35C2572.35 1478.42 2567.42 1483.35 2561.35 1483.35 2555.27 1483.35 2550.35 1478.42 2550.35 1472.35 2550.35 1466.27 2555.27 1461.35 2561.35 1461.35 2567.42 1461.35 2572.35 1466.27 2572.35 1472.35Z" stroke="#4472C4" stroke-width="3.4375" stroke-linecap="butt" stroke-linejoin="round" stroke-miterlimit="10" stroke-opacity="1" fill="#4472C4" fill-rule="evenodd" fill-opacity="1"/><path d="M2707.35 1457.35C2707.35 1463.42 2702.42 1468.35 2696.35 1468.35 2690.27 1468.35 2685.35 1463.42 2685.35 1457.35 2685.35 1451.27 2690.27 1446.35 2696.35 1446.35 2702.42 1446.35 2707.35 1451.27 2707.35 1457.35Z" stroke="#4472C4" stroke-width="3.4375" stroke-linecap="butt" stroke-linejoin="round" stroke-miterlimit="10" stroke-opacity="1" fill="#4472C4" fill-rule="evenodd" fill-opacity="1"/><path d="M2786.35 1431.35C2786.35 1437.42 2781.42 1442.35 2775.35 1442.35 2769.27 1442.35 2764.35 1437.42 2764.35 1431.35 2764.35 1425.27 2769.27 1420.35 2775.35 1420.35 2781.42 1420.35 2786.35 1425.27 2786.35 1431.35Z" stroke="#4472C4" stroke-width="3.4375" stroke-linecap="butt" stroke-linejoin="round" stroke-miterlimit="10" stroke-opacity="1" fill="#4472C4" fill-rule="evenodd" fill-opacity="1"/><path d="M2847.35 1406.35C2847.35 1412.42 2842.42 1417.35 2836.35 1417.35 2830.27 1417.35 2825.35 1412.42 2825.35 1406.35 2825.35 1400.27 2830.27 1395.35 2836.35 1395.35 2842.42 1395.35 2847.35 1400.27 2847.35 1406.35Z" stroke="#4472C4" stroke-width="3.4375" stroke-linecap="butt" stroke-linejoin="round" stroke-miterlimit="10" stroke-opacity="1" fill="#4472C4" fill-rule="evenodd" fill-opacity="1"/><path d="M2884.35 1376.35C2884.35 1382.42 2879.42 1387.35 2873.35 1387.35 2867.27 1387.35 2862.35 1382.42 2862.35 1376.35 2862.35 1370.27 2867.27 1365.35 2873.35 1365.35 2879.42 1365.35 2884.35 1370.27 2884.35 1376.35Z" stroke="#4472C4" stroke-width="3.4375" stroke-linecap="butt" stroke-linejoin="round" stroke-miterlimit="10" stroke-opacity="1" fill="#4472C4" fill-rule="evenodd" fill-opacity="1"/><path d="M2908.35 1344.35C2908.35 1350.42 2903.42 1355.35 2897.35 1355.35 2891.27 1355.35 2886.35 1350.42 2886.35 1344.35 2886.35 1338.27 2891.27 1333.35 2897.35 1333.35 2903.42 1333.35 2908.35 1338.27 2908.35 1344.35Z" stroke="#4472C4" stroke-width="3.4375" stroke-linecap="butt" stroke-linejoin="round" stroke-miterlimit="10" stroke-opacity="1" fill="#4472C4" fill-rule="evenodd" fill-opacity="1"/><path d="M2932.35 1276.35C2932.35 1282.42 2927.42 1287.35 2921.35 1287.35 2915.27 1287.35 2910.35 1282.42 2910.35 1276.35 2910.35 1270.27 2915.27 1265.35 2921.35 1265.35 2927.42 1265.35 2932.35 1270.27 2932.35 1276.35Z" stroke="#4472C4" stroke-width="3.4375" stroke-linecap="butt" stroke-linejoin="round" stroke-miterlimit="10" stroke-opacity="1" fill="#4472C4" fill-rule="evenodd" fill-opacity="1"/></g><g clip-path="url(#clip7)"><path d="M2196.5 1495.5 2394.58 1484.55 2547.58 1467.55 2664.59 1446.55 2749.59 1422.55 2801.59 1393.55 2832.59 1361.54 2852.59 1326.54 2890.59 1261.54 2920.6 1197.54 2934.5 1128.5" stroke="#9D47C4" stroke-width="6.875" stroke-linecap="round" stroke-linejoin="round" stroke-miterlimit="10" stroke-opacity="1" fill="none" fill-rule="evenodd"/></g><g clip-path="url(#clip8)"><path d="M2207.35 1495.35C2207.35 1501.42 2202.42 1506.35 2196.35 1506.35 2190.27 1506.35 2185.35 1501.42 2185.35 1495.35 2185.35 1489.27 2190.27 1484.35 2196.35 1484.35 2202.42 1484.35 2207.35 1489.27 2207.35 1495.35Z" stroke="#9D47C4" stroke-width="3.4375" stroke-linecap="butt" stroke-linejoin="round" stroke-miterlimit="10" stroke-opacity="1" fill="#9D47C4" fill-rule="evenodd" fill-opacity="1"/><path d="M2405.35 1484.35C2405.35 1490.42 2400.42 1495.35 2394.35 1495.35 2388.27 1495.35 2383.35 1490.42 2383.35 1484.35 2383.35 1478.27 2388.27 1473.35 2394.35 1473.35 2400.42 1473.35 2405.35 1478.27 2405.35 1484.35Z" stroke="#9D47C4" stroke-width="3.4375" stroke-linecap="butt" stroke-linejoin="round" stroke-miterlimit="10" stroke-opacity="1" fill="#9D47C4" fill-rule="evenodd" fill-opacity="1"/><path d="M2558.35 1467.35C2558.35 1473.42 2553.42 1478.35 2547.35 1478.35 2541.27 1478.35 2536.35 1473.42 2536.35 1467.35 2536.35 1461.27 2541.27 1456.35 2547.35 1456.35 2553.42 1456.35 2558.35 1461.27 2558.35 1467.35Z" stroke="#9D47C4" stroke-width="3.4375" stroke-linecap="butt" stroke-linejoin="round" stroke-miterlimit="10" stroke-opacity="1" fill="#9D47C4" fill-rule="evenodd" fill-opacity="1"/><path d="M2675.35 1446.35C2675.35 1452.42 2670.42 1457.35 2664.35 1457.35 2658.27 1457.35 2653.35 1452.42 2653.35 1446.35 2653.35 1440.27 2658.27 1435.35 2664.35 1435.35 2670.42 1435.35 2675.35 1440.27 2675.35 1446.35Z" stroke="#9D47C4" stroke-width="3.4375" stroke-linecap="butt" stroke-linejoin="round" stroke-miterlimit="10" stroke-opacity="1" fill="#9D47C4" fill-rule="evenodd" fill-opacity="1"/><path d="M2760.35 1422.35C2760.35 1428.42 2755.42 1433.35 2749.35 1433.35 2743.27 1433.35 2738.35 1428.42 2738.35 1422.35 2738.35 1416.27 2743.27 1411.35 2749.35 1411.35 2755.42 1411.35 2760.35 1416.27 2760.35 1422.35Z" stroke="#9D47C4" stroke-width="3.4375" stroke-linecap="butt" stroke-linejoin="round" stroke-miterlimit="10" stroke-opacity="1" fill="#9D47C4" fill-rule="evenodd" fill-opacity="1"/><path d="M2812.35 1393.35C2812.35 1399.42 2807.42 1404.35 2801.35 1404.35 2795.27 1404.35 2790.35 1399.42 2790.35 1393.35 2790.35 1387.27 2795.27 1382.35 2801.35 1382.35 2807.42 1382.35 2812.35 1387.27 2812.35 1393.35Z" stroke="#9D47C4" stroke-width="3.4375" stroke-linecap="butt" stroke-linejoin="round" stroke-miterlimit="10" stroke-opacity="1" fill="#9D47C4" fill-rule="evenodd" fill-opacity="1"/><path d="M2843.35 1361.35C2843.35 1367.42 2838.42 1372.35 2832.35 1372.35 2826.27 1372.35 2821.35 1367.42 2821.35 1361.35 2821.35 1355.27 2826.27 1350.35 2832.35 1350.35 2838.42 1350.35 2843.35 1355.27 2843.35 1361.35Z" stroke="#9D47C4" stroke-width="3.4375" stroke-linecap="butt" stroke-linejoin="round" stroke-miterlimit="10" stroke-opacity="1" fill="#9D47C4" fill-rule="evenodd" fill-opacity="1"/><path d="M2863.35 1326.35C2863.35 1332.42 2858.42 1337.35 2852.35 1337.35 2846.27 1337.35 2841.35 1332.42 2841.35 1326.35 2841.35 1320.27 2846.27 1315.35 2852.35 1315.35 2858.42 1315.35 2863.35 1320.27 2863.35 1326.35Z" stroke="#9D47C4" stroke-width="3.4375" stroke-linecap="butt" stroke-linejoin="round" stroke-miterlimit="10" stroke-opacity="1" fill="#9D47C4" fill-rule="evenodd" fill-opacity="1"/><path d="M2902.35 1261.35C2902.35 1267.42 2897.42 1272.35 2891.35 1272.35 2885.27 1272.35 2880.35 1267.42 2880.35 1261.35 2880.35 1255.27 2885.27 1250.35 2891.35 1250.35 2897.42 1250.35 2902.35 1255.27 2902.35 1261.35Z" stroke="#9D47C4" stroke-width="3.4375" stroke-linecap="butt" stroke-linejoin="round" stroke-miterlimit="10" stroke-opacity="1" fill="#9D47C4" fill-rule="evenodd" fill-opacity="1"/><path d="M2931.35 1197.35C2931.35 1203.42 2926.42 1208.35 2920.35 1208.35 2914.27 1208.35 2909.35 1203.42 2909.35 1197.35 2909.35 1191.27 2914.27 1186.35 2920.35 1186.35 2926.42 1186.35 2931.35 1191.27 2931.35 1197.35Z" stroke="#9D47C4" stroke-width="3.4375" stroke-linecap="butt" stroke-linejoin="round" stroke-miterlimit="10" stroke-opacity="1" fill="#9D47C4" fill-rule="evenodd" fill-opacity="1"/><path d="M2945.35 1128.35C2945.35 1134.42 2940.42 1139.35 2934.35 1139.35 2928.27 1139.35 2923.35 1134.42 2923.35 1128.35 2923.35 1122.27 2928.27 1117.35 2934.35 1117.35 2940.42 1117.35 2945.35 1122.27 2945.35 1128.35Z" stroke="#9D47C4" stroke-width="3.4375" stroke-linecap="butt" stroke-linejoin="round" stroke-miterlimit="10" stroke-opacity="1" fill="#9D47C4" fill-rule="evenodd" fill-opacity="1"/></g><g clip-path="url(#clip9)"><path d="M2199.5 1486.5 2384.58 1468.55 2518.58 1443.55 2613.59 1414.55 2679.59 1382.55 2735.59 1352.54 2774.59 1318.54 2803.59 1283.54 2832.5 1206.54 2829.59 1114.5" stroke="#C00000" stroke-width="6.875" stroke-linecap="round" stroke-linejoin="round" stroke-miterlimit="10" stroke-opacity="1" fill="none" fill-rule="evenodd"/></g><g clip-path="url(#clip10)"><path d="M2210.35 1486.35C2210.35 1492.42 2205.42 1497.35 2199.35 1497.35 2193.27 1497.35 2188.35 1492.42 2188.35 1486.35 2188.35 1480.27 2193.27 1475.35 2199.35 1475.35 2205.42 1475.35 2210.35 1480.27 2210.35 1486.35Z" stroke="#C00000" stroke-width="3.4375" stroke-linecap="butt" stroke-linejoin="round" stroke-miterlimit="10" stroke-opacity="1" fill="#C00000" fill-rule="evenodd" fill-opacity="1"/><path d="M2395.35 1468.35C2395.35 1474.42 2390.42 1479.35 2384.35 1479.35 2378.27 1479.35 2373.35 1474.42 2373.35 1468.35 2373.35 1462.27 2378.27 1457.35 2384.35 1457.35 2390.42 1457.35 2395.35 1462.27 2395.35 1468.35Z" stroke="#C00000" stroke-width="3.4375" stroke-linecap="butt" stroke-linejoin="round" stroke-miterlimit="10" stroke-opacity="1" fill="#C00000" fill-rule="evenodd" fill-opacity="1"/><path d="M2529.35 1443.35C2529.35 1449.42 2524.42 1454.35 2518.35 1454.35 2512.27 1454.35 2507.35 1449.42 2507.35 1443.35 2507.35 1437.27 2512.27 1432.35 2518.35 1432.35 2524.42 1432.35 2529.35 1437.27 2529.35 1443.35Z" stroke="#C00000" stroke-width="3.4375" stroke-linecap="butt" stroke-linejoin="round" stroke-miterlimit="10" stroke-opacity="1" fill="#C00000" fill-rule="evenodd" fill-opacity="1"/><path d="M2624.35 1414.35C2624.35 1420.42 2619.42 1425.35 2613.35 1425.35 2607.27 1425.35 2602.35 1420.42 2602.35 1414.35 2602.35 1408.27 2607.27 1403.35 2613.35 1403.35 2619.42 1403.35 2624.35 1408.27 2624.35 1414.35Z" stroke="#C00000" stroke-width="3.4375" stroke-linecap="butt" stroke-linejoin="round" stroke-miterlimit="10" stroke-opacity="1" fill="#C00000" fill-rule="evenodd" fill-opacity="1"/><path d="M2690.35 1382.35C2690.35 1388.42 2685.42 1393.35 2679.35 1393.35 2673.27 1393.35 2668.35 1388.42 2668.35 1382.35 2668.35 1376.27 2673.27 1371.35 2679.35 1371.35 2685.42 1371.35 2690.35 1376.27 2690.35 1382.35Z" stroke="#C00000" stroke-width="3.4375" stroke-linecap="butt" stroke-linejoin="round" stroke-miterlimit="10" stroke-opacity="1" fill="#C00000" fill-rule="evenodd" fill-opacity="1"/><path d="M2747.35 1352.35C2747.35 1358.42 2742.42 1363.35 2736.35 1363.35 2730.27 1363.35 2725.35 1358.42 2725.35 1352.35 2725.35 1346.27 2730.27 1341.35 2736.35 1341.35 2742.42 1341.35 2747.35 1346.27 2747.35 1352.35Z" stroke="#C00000" stroke-width="3.4375" stroke-linecap="butt" stroke-linejoin="round" stroke-miterlimit="10" stroke-opacity="1" fill="#C00000" fill-rule="evenodd" fill-opacity="1"/><path d="M2785.35 1318.35C2785.35 1324.42 2780.42 1329.35 2774.35 1329.35 2768.27 1329.35 2763.35 1324.42 2763.35 1318.35 2763.35 1312.27 2768.27 1307.35 2774.35 1307.35 2780.42 1307.35 2785.35 1312.27 2785.35 1318.35Z" stroke="#C00000" stroke-width="3.4375" stroke-linecap="butt" stroke-linejoin="round" stroke-miterlimit="10" stroke-opacity="1" fill="#C00000" fill-rule="evenodd" fill-opacity="1"/><path d="M2814.35 1284.35C2814.35 1290.42 2809.42 1295.35 2803.35 1295.35 2797.27 1295.35 2792.35 1290.42 2792.35 1284.35 2792.35 1278.27 2797.27 1273.35 2803.35 1273.35 2809.42 1273.35 2814.35 1278.27 2814.35 1284.35Z" stroke="#C00000" stroke-width="3.4375" stroke-linecap="butt" stroke-linejoin="round" stroke-miterlimit="10" stroke-opacity="1" fill="#C00000" fill-rule="evenodd" fill-opacity="1"/><path d="M2843.35 1206.35C2843.35 1212.42 2838.42 1217.35 2832.35 1217.35 2826.27 1217.35 2821.35 1212.42 2821.35 1206.35 2821.35 1200.27 2826.27 1195.35 2832.35 1195.35 2838.42 1195.35 2843.35 1200.27 2843.35 1206.35Z" stroke="#C00000" stroke-width="3.4375" stroke-linecap="butt" stroke-linejoin="round" stroke-miterlimit="10" stroke-opacity="1" fill="#C00000" fill-rule="evenodd" fill-opacity="1"/><path d="M2840.35 1114.35C2840.35 1120.42 2835.42 1125.35 2829.35 1125.35 2823.27 1125.35 2818.35 1120.42 2818.35 1114.35 2818.35 1108.27 2823.27 1103.35 2829.35 1103.35 2835.42 1103.35 2840.35 1108.27 2840.35 1114.35Z" stroke="#C00000" stroke-width="3.4375" stroke-linecap="butt" stroke-linejoin="round" stroke-miterlimit="10" stroke-opacity="1" fill="#C00000" fill-rule="evenodd" fill-opacity="1"/></g><g clip-path="url(#clip11)"><path d="M2035.5 1487.5 2096.57 1482.55 2207.57 1471.55 2309.58 1462.55 2390.58 1447.55 2449.58 1427.55 2488.58 1402.55 2502.5 1388.55 2496.58 1364.55 2489.58 1318.54 2484.58 1272.5" stroke="#FFC000" stroke-width="6.875" stroke-linecap="round" stroke-linejoin="round" stroke-miterlimit="10" stroke-opacity="1" fill="none" fill-rule="evenodd"/></g><g clip-path="url(#clip12)"><path d="M2046.35 1487.35C2046.35 1493.42 2041.42 1498.35 2035.35 1498.35 2029.27 1498.35 2024.35 1493.42 2024.35 1487.35 2024.35 1481.27 2029.27 1476.35 2035.35 1476.35 2041.42 1476.35 2046.35 1481.27 2046.35 1487.35Z" stroke="#FFC000" stroke-width="3.4375" stroke-linecap="butt" stroke-linejoin="round" stroke-miterlimit="10" stroke-opacity="1" fill="#FFC000" fill-rule="evenodd" fill-opacity="1"/><path d="M2107.35 1482.35C2107.35 1488.42 2102.42 1493.35 2096.35 1493.35 2090.27 1493.35 2085.35 1488.42 2085.35 1482.35 2085.35 1476.27 2090.27 1471.35 2096.35 1471.35 2102.42 1471.35 2107.35 1476.27 2107.35 1482.35Z" stroke="#FFC000" stroke-width="3.4375" stroke-linecap="butt" stroke-linejoin="round" stroke-miterlimit="10" stroke-opacity="1" fill="#FFC000" fill-rule="evenodd" fill-opacity="1"/><path d="M2218.35 1471.35C2218.35 1477.42 2213.42 1482.35 2207.35 1482.35 2201.27 1482.35 2196.35 1477.42 2196.35 1471.35 2196.35 1465.27 2201.27 1460.35 2207.35 1460.35 2213.42 1460.35 2218.35 1465.27 2218.35 1471.35Z" stroke="#FFC000" stroke-width="3.4375" stroke-linecap="butt" stroke-linejoin="round" stroke-miterlimit="10" stroke-opacity="1" fill="#FFC000" fill-rule="evenodd" fill-opacity="1"/><path d="M2320.35 1462.35C2320.35 1468.42 2315.42 1473.35 2309.35 1473.35 2303.27 1473.35 2298.35 1468.42 2298.35 1462.35 2298.35 1456.27 2303.27 1451.35 2309.35 1451.35 2315.42 1451.35 2320.35 1456.27 2320.35 1462.35Z" stroke="#FFC000" stroke-width="3.4375" stroke-linecap="butt" stroke-linejoin="round" stroke-miterlimit="10" stroke-opacity="1" fill="#FFC000" fill-rule="evenodd" fill-opacity="1"/><path d="M2401.35 1447.35C2401.35 1453.42 2396.42 1458.35 2390.35 1458.35 2384.27 1458.35 2379.35 1453.42 2379.35 1447.35 2379.35 1441.27 2384.27 1436.35 2390.35 1436.35 2396.42 1436.35 2401.35 1441.27 2401.35 1447.35Z" stroke="#FFC000" stroke-width="3.4375" stroke-linecap="butt" stroke-linejoin="round" stroke-miterlimit="10" stroke-opacity="1" fill="#FFC000" fill-rule="evenodd" fill-opacity="1"/><path d="M2460.35 1427.35C2460.35 1433.42 2455.42 1438.35 2449.35 1438.35 2443.27 1438.35 2438.35 1433.42 2438.35 1427.35 2438.35 1421.27 2443.27 1416.35 2449.35 1416.35 2455.42 1416.35 2460.35 1421.27 2460.35 1427.35Z" stroke="#FFC000" stroke-width="3.4375" stroke-linecap="butt" stroke-linejoin="round" stroke-miterlimit="10" stroke-opacity="1" fill="#FFC000" fill-rule="evenodd" fill-opacity="1"/><path d="M2499.35 1402.35C2499.35 1408.42 2494.42 1413.35 2488.35 1413.35 2482.27 1413.35 2477.35 1408.42 2477.35 1402.35 2477.35 1396.27 2482.27 1391.35 2488.35 1391.35 2494.42 1391.35 2499.35 1396.27 2499.35 1402.35Z" stroke="#FFC000" stroke-width="3.4375" stroke-linecap="butt" stroke-linejoin="round" stroke-miterlimit="10" stroke-opacity="1" fill="#FFC000" fill-rule="evenodd" fill-opacity="1"/><path d="M2513.35 1388.35C2513.35 1394.42 2508.42 1399.35 2502.35 1399.35 2496.27 1399.35 2491.35 1394.42 2491.35 1388.35 2491.35 1382.27 2496.27 1377.35 2502.35 1377.35 2508.42 1377.35 2513.35 1382.27 2513.35 1388.35Z" stroke="#FFC000" stroke-width="3.4375" stroke-linecap="butt" stroke-linejoin="round" stroke-miterlimit="10" stroke-opacity="1" fill="#FFC000" fill-rule="evenodd" fill-opacity="1"/><path d="M2507.35 1364.35C2507.35 1370.42 2502.42 1375.35 2496.35 1375.35 2490.27 1375.35 2485.35 1370.42 2485.35 1364.35 2485.35 1358.27 2490.27 1353.35 2496.35 1353.35 2502.42 1353.35 2507.35 1358.27 2507.35 1364.35Z" stroke="#FFC000" stroke-width="3.4375" stroke-linecap="butt" stroke-linejoin="round" stroke-miterlimit="10" stroke-opacity="1" fill="#FFC000" fill-rule="evenodd" fill-opacity="1"/><path d="M2500.35 1318.35C2500.35 1324.42 2495.42 1329.35 2489.35 1329.35 2483.27 1329.35 2478.35 1324.42 2478.35 1318.35 2478.35 1312.27 2483.27 1307.35 2489.35 1307.35 2495.42 1307.35 2500.35 1312.27 2500.35 1318.35Z" stroke="#FFC000" stroke-width="3.4375" stroke-linecap="butt" stroke-linejoin="round" stroke-miterlimit="10" stroke-opacity="1" fill="#FFC000" fill-rule="evenodd" fill-opacity="1"/><path d="M2495.35 1272.35C2495.35 1278.42 2490.42 1283.35 2484.35 1283.35 2478.27 1283.35 2473.35 1278.42 2473.35 1272.35 2473.35 1266.27 2478.27 1261.35 2484.35 1261.35 2490.42 1261.35 2495.35 1266.27 2495.35 1272.35Z" stroke="#FFC000" stroke-width="3.4375" stroke-linecap="butt" stroke-linejoin="round" stroke-miterlimit="10" stroke-opacity="1" fill="#FFC000" fill-rule="evenodd" fill-opacity="1"/></g><g clip-path="url(#clip13)"><path d="M2040.5 1393.5 2105.57 1380.55 2148.57 1343.54 2182.57 1305.54 2195.5 1243.54 2180.57 1126.5" stroke="#8CC74E" stroke-width="6.875" stroke-linecap="round" stroke-linejoin="round" stroke-miterlimit="10" stroke-opacity="1" fill="none" fill-rule="evenodd"/></g><g clip-path="url(#clip14)"><path d="M2051.35 1393.35C2051.35 1399.42 2046.42 1404.35 2040.35 1404.35 2034.27 1404.35 2029.35 1399.42 2029.35 1393.35 2029.35 1387.27 2034.27 1382.35 2040.35 1382.35 2046.42 1382.35 2051.35 1387.27 2051.35 1393.35Z" stroke="#8CC74E" stroke-width="3.4375" stroke-linecap="butt" stroke-linejoin="round" stroke-miterlimit="10" stroke-opacity="1" fill="#8CC74E" fill-rule="evenodd" fill-opacity="1"/><path d="M2116.35 1380.35C2116.35 1386.42 2111.42 1391.35 2105.35 1391.35 2099.27 1391.35 2094.35 1386.42 2094.35 1380.35 2094.35 1374.27 2099.27 1369.35 2105.35 1369.35 2111.42 1369.35 2116.35 1374.27 2116.35 1380.35Z" stroke="#8CC74E" stroke-width="3.4375" stroke-linecap="butt" stroke-linejoin="round" stroke-miterlimit="10" stroke-opacity="1" fill="#8CC74E" fill-rule="evenodd" fill-opacity="1"/><path d="M2159.35 1343.35C2159.35 1349.42 2154.42 1354.35 2148.35 1354.35 2142.27 1354.35 2137.35 1349.42 2137.35 1343.35 2137.35 1337.27 2142.27 1332.35 2148.35 1332.35 2154.42 1332.35 2159.35 1337.27 2159.35 1343.35Z" stroke="#8CC74E" stroke-width="3.4375" stroke-linecap="butt" stroke-linejoin="round" stroke-miterlimit="10" stroke-opacity="1" fill="#8CC74E" fill-rule="evenodd" fill-opacity="1"/><path d="M2193.35 1305.35C2193.35 1311.42 2188.42 1316.35 2182.35 1316.35 2176.27 1316.35 2171.35 1311.42 2171.35 1305.35 2171.35 1299.27 2176.27 1294.35 2182.35 1294.35 2188.42 1294.35 2193.35 1299.27 2193.35 1305.35Z" stroke="#8CC74E" stroke-width="3.4375" stroke-linecap="butt" stroke-linejoin="round" stroke-miterlimit="10" stroke-opacity="1" fill="#8CC74E" fill-rule="evenodd" fill-opacity="1"/><path d="M2206.35 1243.35C2206.35 1249.42 2201.42 1254.35 2195.35 1254.35 2189.27 1254.35 2184.35 1249.42 2184.35 1243.35 2184.35 1237.27 2189.27 1232.35 2195.35 1232.35 2201.42 1232.35 2206.35 1237.27 2206.35 1243.35Z" stroke="#8CC74E" stroke-width="3.4375" stroke-linecap="butt" stroke-linejoin="round" stroke-miterlimit="10" stroke-opacity="1" fill="#8CC74E" fill-rule="evenodd" fill-opacity="1"/><path d="M2191.35 1126.35C2191.35 1132.42 2186.42 1137.35 2180.35 1137.35 2174.27 1137.35 2169.35 1132.42 2169.35 1126.35 2169.35 1120.27 2174.27 1115.35 2180.35 1115.35 2186.42 1115.35 2191.35 1120.27 2191.35 1126.35Z" stroke="#8CC74E" stroke-width="3.4375" stroke-linecap="butt" stroke-linejoin="round" stroke-miterlimit="10" stroke-opacity="1" fill="#8CC74E" fill-rule="evenodd" fill-opacity="1"/></g><g clip-path="url(#clip15)"><text fill="#595959" fill-opacity="1" font-family="Calibri,Calibri_MSFontService,sans-serif" font-style="normal" font-variant="normal" font-weight="400" font-stretch="normal" font-size="41" text-anchor="start" direction="ltr" writing-mode="lr-tb" unicode-bidi="normal" text-decoration="none" transform="matrix(1 0 0 1 1911.09 1666)">0</text></g><g clip-path="url(#clip16)"><text fill="#595959" fill-opacity="1" font-family="Calibri,Calibri_MSFontService,sans-serif" font-style="normal" font-variant="normal" font-weight="400" font-stretch="normal" font-size="41" text-anchor="start" direction="ltr" writing-mode="lr-tb" unicode-bidi="normal" text-decoration="none" transform="matrix(1 0 0 1 1879.9 1566)">0,2</text></g><g clip-path="url(#clip17)"><text fill="#595959" fill-opacity="1" font-family="Calibri,Calibri_MSFontService,sans-serif" font-style="normal" font-variant="normal" font-weight="400" font-stretch="normal" font-size="41" text-anchor="start" direction="ltr" writing-mode="lr-tb" unicode-bidi="normal" text-decoration="none" transform="matrix(1 0 0 1 1879.9 1466)">0,4</text></g><g clip-path="url(#clip18)"><text fill="#595959" fill-opacity="1" font-family="Calibri,Calibri_MSFontService,sans-serif" font-style="normal" font-variant="normal" font-weight="400" font-stretch="normal" font-size="41" text-anchor="start" direction="ltr" writing-mode="lr-tb" unicode-bidi="normal" text-decoration="none" transform="matrix(1 0 0 1 1879.9 1365)">0,6</text></g><g clip-path="url(#clip19)"><text fill="#595959" fill-opacity="1" font-family="Calibri,Calibri_MSFontService,sans-serif" font-style="normal" font-variant="normal" font-weight="400" font-stretch="normal" font-size="41" text-anchor="start" direction="ltr" writing-mode="lr-tb" unicode-bidi="normal" text-decoration="none" transform="matrix(1 0 0 1 1879.9 1265)">0,8</text></g><g clip-path="url(#clip20)"><text fill="#595959" fill-opacity="1" font-family="Calibri,Calibri_MSFontService,sans-serif" font-style="normal" font-variant="normal" font-weight="400" font-stretch="normal" font-size="41" text-anchor="start" direction="ltr" writing-mode="lr-tb" unicode-bidi="normal" text-decoration="none" transform="matrix(1 0 0 1 1911.09 1165)">1</text></g><g clip-path="url(#clip21)"><text fill="#595959" fill-opacity="1" font-family="Calibri,Calibri_MSFontService,sans-serif" font-style="normal" font-variant="normal" font-weight="400" font-stretch="normal" font-size="41" text-anchor="start" direction="ltr" writing-mode="lr-tb" unicode-bidi="normal" text-decoration="none" transform="matrix(1 0 0 1 1879.9 1065)">1,2</text></g><g clip-path="url(#clip22)"><text fill="#595959" fill-opacity="1" font-family="Calibri,Calibri_MSFontService,sans-serif" font-style="normal" font-variant="normal" font-weight="400" font-stretch="normal" font-size="41" text-anchor="start" direction="ltr" writing-mode="lr-tb" unicode-bidi="normal" text-decoration="none" transform="matrix(1 0 0 1 1959.81 1721)">0</text></g><g clip-path="url(#clip23)"><text fill="#595959" fill-opacity="1" font-family="Calibri,Calibri_MSFontService,sans-serif" font-style="normal" font-variant="normal" font-weight="400" font-stretch="normal" font-size="41" text-anchor="start" direction="ltr" writing-mode="lr-tb" unicode-bidi="normal" text-decoration="none" transform="matrix(1 0 0 1 2094.33 1721)">0,5</text></g><g clip-path="url(#clip24)"><text fill="#595959" fill-opacity="1" font-family="Calibri,Calibri_MSFontService,sans-serif" font-style="normal" font-variant="normal" font-weight="400" font-stretch="normal" font-size="41" text-anchor="start" direction="ltr" writing-mode="lr-tb" unicode-bidi="normal" text-decoration="none" transform="matrix(1 0 0 1 2260.03 1721)">1</text></g><g clip-path="url(#clip25)"><text fill="#595959" fill-opacity="1" font-family="Calibri,Calibri_MSFontService,sans-serif" font-style="normal" font-variant="normal" font-weight="400" font-stretch="normal" font-size="41" text-anchor="start" direction="ltr" writing-mode="lr-tb" unicode-bidi="normal" text-decoration="none" transform="matrix(1 0 0 1 2394.55 1721)">1,5</text></g><g clip-path="url(#clip26)"><text fill="#595959" fill-opacity="1" font-family="Calibri,Calibri_MSFontService,sans-serif" font-style="normal" font-variant="normal" font-weight="400" font-stretch="normal" font-size="41" text-anchor="start" direction="ltr" writing-mode="lr-tb" unicode-bidi="normal" text-decoration="none" transform="matrix(1 0 0 1 2560.25 1721)">2</text></g><g clip-path="url(#clip27)"><text fill="#595959" fill-opacity="1" font-family="Calibri,Calibri_MSFontService,sans-serif" font-style="normal" font-variant="normal" font-weight="400" font-stretch="normal" font-size="41" text-anchor="start" direction="ltr" writing-mode="lr-tb" unicode-bidi="normal" text-decoration="none" transform="matrix(1 0 0 1 2694.77 1721)">2,5</text></g><g clip-path="url(#clip28)"><text fill="#595959" fill-opacity="1" font-family="Calibri,Calibri_MSFontService,sans-serif" font-style="normal" font-variant="normal" font-weight="400" font-stretch="normal" font-size="41" text-anchor="start" direction="ltr" writing-mode="lr-tb" unicode-bidi="normal" text-decoration="none" transform="matrix(1 0 0 1 2860.47 1721)">3</text></g><g clip-path="url(#clip29)"><text fill="#595959" fill-opacity="1" font-family="Calibri,Calibri_MSFontService,sans-serif" font-style="normal" font-variant="normal" font-weight="400" font-stretch="normal" font-size="41" text-anchor="start" direction="ltr" writing-mode="lr-tb" unicode-bidi="normal" text-decoration="none" transform="matrix(1 0 0 1 2994.99 1721)">3,5</text></g><g clip-path="url(#clip30)"><text fill="#595959" fill-opacity="1" font-family="Calibri,Calibri_MSFontService,sans-serif" font-style="normal" font-variant="normal" font-weight="400" font-stretch="normal" font-size="41" text-anchor="start" direction="ltr" writing-mode="lr-tb" unicode-bidi="normal" text-decoration="none" transform="matrix(6.12323e-17 -1 1 6.12323e-17 1850.31 1686)">Latency per transaction (ms)</text></g><g clip-path="url(#clip31)"><text fill="#595959" fill-opacity="1" font-family="Calibri,Calibri_MSFontService,sans-serif" font-style="normal" font-variant="normal" font-weight="400" font-stretch="normal" font-size="41" text-anchor="start" direction="ltr" writing-mode="lr-tb" unicode-bidi="normal" text-decoration="none" transform="matrix(1 0 0 1 2152.43 1762)">Millions Ops/s (query + updates)</text></g><g clip-path="url(#clip32)"><rect x="2858.5" y="1420.5" width="253" height="238" stroke="#000000" stroke-width="3.4375" stroke-linecap="butt" stroke-linejoin="round" stroke-miterlimit="10" stroke-opacity="1" fill="#FFFFFF" fill-opacity="1"/></g><g clip-path="url(#clip33)"><path d="M2891.5 1444.5 2979.5 1444.5" stroke="#4472C4" stroke-width="6.875" stroke-linecap="round" stroke-linejoin="round" stroke-miterlimit="10" stroke-opacity="1" fill="none" fill-rule="evenodd"/></g><g clip-path="url(#clip34)"><path d="M2946 1444C2946 1450.07 2941.07 1455 2935 1455 2928.93 1455 2924 1450.07 2924 1444 2924 1437.92 2928.93 1433 2935 1433 2941.07 1433 2946 1437.92 2946 1444Z" stroke="#4472C4" stroke-width="3.4375" stroke-linecap="butt" stroke-linejoin="round" stroke-miterlimit="10" stroke-opacity="1" fill="#4472C4" fill-rule="evenodd" fill-opacity="1"/></g><g clip-path="url(#clip35)"><text fill="#595959" fill-opacity="1" font-family="Calibri,Calibri_MSFontService,sans-serif" font-style="normal" font-variant="normal" font-weight="400" font-stretch="normal" font-size="41" text-anchor="start" direction="ltr" writing-mode="lr-tb" unicode-bidi="normal" text-decoration="none" transform="matrix(1 0 0 1 2988.63 1454)">0%</text></g><g clip-path="url(#clip36)"><path d="M2891.5 1492.5 2979.5 1492.5" stroke="#9D47C4" stroke-width="6.875" stroke-linecap="round" stroke-linejoin="round" stroke-miterlimit="10" stroke-opacity="1" fill="none" fill-rule="evenodd"/></g><g clip-path="url(#clip37)"><path d="M2946 1492C2946 1498.07 2941.07 1503 2935 1503 2928.93 1503 2924 1498.07 2924 1492 2924 1485.92 2928.93 1481 2935 1481 2941.07 1481 2946 1485.92 2946 1492Z" stroke="#9D47C4" stroke-width="3.4375" stroke-linecap="butt" stroke-linejoin="round" stroke-miterlimit="10" stroke-opacity="1" fill="#9D47C4" fill-rule="evenodd" fill-opacity="1"/></g><g clip-path="url(#clip38)"><text fill="#595959" fill-opacity="1" font-family="Calibri,Calibri_MSFontService,sans-serif" font-style="normal" font-variant="normal" font-weight="400" font-stretch="normal" font-size="41" text-anchor="start" direction="ltr" writing-mode="lr-tb" unicode-bidi="normal" text-decoration="none" transform="matrix(1 0 0 1 2988.63 1502)">1%</text></g><g clip-path="url(#clip39)"><path d="M2891.5 1539.5 2979.5 1539.5" stroke="#C00000" stroke-width="6.875" stroke-linecap="round" stroke-linejoin="round" stroke-miterlimit="10" stroke-opacity="1" fill="none" fill-rule="evenodd"/></g><g clip-path="url(#clip40)"><path d="M2946 1539C2946 1545.07 2941.07 1550 2935 1550 2928.93 1550 2924 1545.07 2924 1539 2924 1532.92 2928.93 1528 2935 1528 2941.07 1528 2946 1532.92 2946 1539Z" stroke="#C00000" stroke-width="3.4375" stroke-linecap="butt" stroke-linejoin="round" stroke-miterlimit="10" stroke-opacity="1" fill="#C00000" fill-rule="evenodd" fill-opacity="1"/></g><g clip-path="url(#clip41)"><text fill="#595959" fill-opacity="1" font-family="Calibri,Calibri_MSFontService,sans-serif" font-style="normal" font-variant="normal" font-weight="400" font-stretch="normal" font-size="41" text-anchor="start" direction="ltr" writing-mode="lr-tb" unicode-bidi="normal" text-decoration="none" transform="matrix(1 0 0 1 2988.63 1550)">10%</text></g><g clip-path="url(#clip42)"><path d="M2891.5 1587.5 2979.5 1587.5" stroke="#FFC000" stroke-width="6.875" stroke-linecap="round" stroke-linejoin="round" stroke-miterlimit="10" stroke-opacity="1" fill="none" fill-rule="evenodd"/></g><g clip-path="url(#clip43)"><path d="M2946 1587C2946 1593.07 2941.07 1598 2935 1598 2928.93 1598 2924 1593.07 2924 1587 2924 1580.92 2928.93 1576 2935 1576 2941.07 1576 2946 1580.92 2946 1587Z" stroke="#FFC000" stroke-width="3.4375" stroke-linecap="butt" stroke-linejoin="round" stroke-miterlimit="10" stroke-opacity="1" fill="#FFC000" fill-rule="evenodd" fill-opacity="1"/></g><g clip-path="url(#clip44)"><text fill="#595959" fill-opacity="1" font-family="Calibri,Calibri_MSFontService,sans-serif" font-style="normal" font-variant="normal" font-weight="400" font-stretch="normal" font-size="41" text-anchor="start" direction="ltr" writing-mode="lr-tb" unicode-bidi="normal" text-decoration="none" transform="matrix(1 0 0 1 2988.63 1598)">25%</text></g><g clip-path="url(#clip45)"><path d="M2891.5 1635.5 2979.5 1635.5" stroke="#8CC74E" stroke-width="6.875" stroke-linecap="round" stroke-linejoin="round" stroke-miterlimit="10" stroke-opacity="1" fill="none" fill-rule="evenodd"/></g><g clip-path="url(#clip46)"><path d="M2946 1635C2946 1641.07 2941.07 1646 2935 1646 2928.93 1646 2924 1641.07 2924 1635 2924 1628.92 2928.93 1624 2935 1624 2941.07 1624 2946 1628.92 2946 1635Z" stroke="#8CC74E" stroke-width="3.4375" stroke-linecap="butt" stroke-linejoin="round" stroke-miterlimit="10" stroke-opacity="1" fill="#8CC74E" fill-rule="evenodd" fill-opacity="1"/></g><g clip-path="url(#clip47)"><text fill="#595959" fill-opacity="1" font-family="Calibri,Calibri_MSFontService,sans-serif" font-style="normal" font-variant="normal" font-weight="400" font-stretch="normal" font-size="41" text-anchor="start" direction="ltr" writing-mode="lr-tb" unicode-bidi="normal" text-decoration="none" transform="matrix(1 0 0 1 2988.63 1645)">100%</text></g></g></svg>