<svg width="1192" height="682" xmlns="http://www.w3.org/2000/svg" xmlns:xlink="http://www.w3.org/1999/xlink" overflow="hidden"><defs><clipPath id="clip0"><rect x="1796" y="2860" width="1192" height="682"/></clipPath><clipPath id="clip1"><rect x="1796" y="2860" width="1192" height="656"/></clipPath><clipPath id="clip2"><rect x="1796" y="2860" width="1192" height="656"/></clipPath><clipPath id="clip3"><rect x="1796" y="2860" width="1192" height="656"/></clipPath><clipPath id="clip4"><rect x="1796" y="2860" width="1192" height="656"/></clipPath><clipPath id="clip5"><rect x="1959" y="2892" width="942" height="510"/></clipPath><clipPath id="clip6"><rect x="1796" y="2860" width="1192" height="656"/></clipPath><clipPath id="clip7"><rect x="1959" y="2892" width="942" height="510"/></clipPath><clipPath id="clip8"><rect x="1796" y="2860" width="1192" height="656"/></clipPath><clipPath id="clip9"><rect x="1959" y="2892" width="942" height="510"/></clipPath><clipPath id="clip10"><rect x="1796" y="2860" width="1192" height="656"/></clipPath><clipPath id="clip11"><rect x="1959" y="2892" width="942" height="510"/></clipPath><clipPath id="clip12"><rect x="1796" y="2860" width="1192" height="656"/></clipPath><clipPath id="clip13"><rect x="1959" y="2892" width="942" height="510"/></clipPath><clipPath id="clip14"><rect x="1796" y="2860" width="1192" height="656"/></clipPath><clipPath id="clip15"><rect x="1796" y="2860" width="1192" height="656"/></clipPath><clipPath id="clip16"><rect x="1796" y="2860" width="1192" height="656"/></clipPath><clipPath id="clip17"><rect x="1796" y="2860" width="1192" height="656"/></clipPath><clipPath id="clip18"><rect x="1796" y="2860" width="1192" height="656"/></clipPath><clipPath id="clip19"><rect x="1796" y="2860" width="1192" height="656"/></clipPath><clipPath id="clip20"><rect x="1796" y="2860" width="1192" height="656"/></clipPath><clipPath id="clip21"><rect x="1796" y="2860" width="1192" height="656"/></clipPath><clipPath id="clip22"><rect x="1796" y="2860" width="1192" height="656"/></clipPath><clipPath id="clip23"><rect x="1796" y="2860" width="1192" height="656"/></clipPath><clipPath id="clip24"><rect x="1796" y="2860" width="1192" height="656"/></clipPath><clipPath id="clip25"><rect x="1796" y="2860" width="1192" height="656"/></clipPath><clipPath id="clip26"><rect x="1796" y="2860" width="1192" height="656"/></clipPath><clipPath id="clip27"><rect x="1796" y="2860" width="1192" height="656"/></clipPath><clipPath id="clip28"><rect x="1796" y="2860" width="1192" height="656"/></clipPath><clipPath id="clip29"><rect x="1796" y="2860" width="1192" height="656"/></clipPath><clipPath id="clip30"><rect x="1796" y="2860" width="1192" height="656"/></clipPath><clipPath id="clip31"><rect x="1796" y="2860" width="1192" height="656"/></clipPath><clipPath id="clip32"><rect x="1796" y="2860" width="1192" height="656"/></clipPath><clipPath id="clip33"><rect x="1796" y="2860" width="1192" height="656"/></clipPath><clipPath id="clip34"><rect x="1796" y="2860" width="1192" height="656"/></clipPath><clipPath id="clip35"><rect x="1796" y="2860" width="1192" height="656"/></clipPath><clipPath id="clip36"><rect x="1796" y="2860" width="1192" height="656"/></clipPath><clipPath id="clip37"><rect x="1796" y="2860" width="1192" height="656"/></clipPath><clipPath id="clip38"><rect x="1796" y="2860" width="1192" height="656"/></clipPath><clipPath id="clip39"><rect x="1796" y="2860" width="1192" height="656"/></clipPath><clipPath id="clip40"><rect x="1796" y="2860" width="1192" height="656"/></clipPath><clipPath id="clip41"><rect x="1796" y="2860" width="1192" height="656"/></clipPath><clipPath id="clip42"><rect x="1796" y="2860" width="1192" height="656"/></clipPath><clipPath id="clip43"><rect x="1796" y="2860" width="1192" height="656"/></clipPath><clipPath id="clip44"><rect x="1796" y="2860" width="1192" height="656"/></clipPath><clipPath id="clip45"><rect x="1796" y="2860" width="1192" height="656"/></clipPath><clipPath id="clip46"><rect x="1796" y="2860" width="1192" height="656"/></clipPath><clipPath id="clip47"><rect x="1799" y="2866" width="78" height="676"/></clipPath></defs><g clip-path="url(#clip0)" transform="translate(-1796 -2860)"><rect x="1797" y="2860" width="1191" height="657" fill="#FFFFFF" fill-opacity="1"/><g clip-path="url(#clip1)"><path d="M1959.5 3314.61 2898.5 3314.61M1959.5 3230.61 2898.5 3230.61M1959.5 3146.6 2898.5 3146.6M1959.5 3061.6 2898.5 3061.6M1959.5 2977.6 2898.5 2977.6M1959.5 2892.5 2898.5 2892.5" stroke="#D9D9D9" stroke-width="3.4375" stroke-linecap="butt" stroke-linejoin="round" stroke-miterlimit="10" stroke-opacity="1" fill="none" fill-rule="evenodd"/></g><g clip-path="url(#clip2)"><path d="M2116.57 2892.5 2116.57 3399.5M2272.57 2892.5 2272.57 3399.5M2428.58 2892.5 2428.58 3399.5M2585.58 2892.5 2585.58 3399.5M2741.59 2892.5 2741.59 3399.5M2898.5 2892.5 2898.5 3399.5" stroke="#D9D9D9" stroke-width="3.4375" stroke-linecap="butt" stroke-linejoin="round" stroke-miterlimit="10" stroke-opacity="1" fill="none" fill-rule="evenodd"/></g><g clip-path="url(#clip3)"><path d="M0 0 0.000360892 507" stroke="#BFBFBF" stroke-width="3.4375" stroke-linecap="butt" stroke-linejoin="round" stroke-miterlimit="10" stroke-opacity="1" fill="none" fill-rule="evenodd" transform="matrix(1 0 0 -1 1959.5 3399.5)"/></g><g clip-path="url(#clip4)"><path d="M1959.5 3399.5 2898.5 3399.5" stroke="#BFBFBF" stroke-width="3.4375" stroke-linecap="butt" stroke-linejoin="round" stroke-miterlimit="10" stroke-opacity="1" fill="none" fill-rule="evenodd"/></g><g clip-path="url(#clip5)"><path d="M1988.5 3043.6 2016.57 3044.6 2073.57 3043.6 2131.57 3044.6 2145.57 3043.6 2159.57 3044.6 2188.57 3044.5 2200.57 3020.6 2208.5 2991.6 2207.57 2949.5" stroke="#4472C4" stroke-width="6.875" stroke-linecap="round" stroke-linejoin="round" stroke-miterlimit="10" stroke-opacity="1" fill="none" fill-rule="evenodd"/></g><g clip-path="url(#clip6)"><path d="M1999.17 3043.5C1999.17 3049.57 1994.24 3054.5 1988.17 3054.5 1982.09 3054.5 1977.17 3049.57 1977.17 3043.5 1977.17 3037.43 1982.09 3032.5 1988.17 3032.5 1994.24 3032.5 1999.17 3037.43 1999.17 3043.5Z" stroke="#264478" stroke-width="3.4375" stroke-linecap="butt" stroke-linejoin="round" stroke-miterlimit="10" stroke-opacity="1" fill="#264478" fill-rule="evenodd" fill-opacity="1"/><path d="M2027.17 3044.5C2027.17 3050.57 2022.24 3055.5 2016.17 3055.5 2010.09 3055.5 2005.17 3050.57 2005.17 3044.5 2005.17 3038.43 2010.09 3033.5 2016.17 3033.5 2022.24 3033.5 2027.17 3038.43 2027.17 3044.5Z" stroke="#264478" stroke-width="3.4375" stroke-linecap="butt" stroke-linejoin="round" stroke-miterlimit="10" stroke-opacity="1" fill="#264478" fill-rule="evenodd" fill-opacity="1"/><path d="M2084.17 3043.5C2084.17 3049.57 2079.24 3054.5 2073.17 3054.5 2067.09 3054.5 2062.17 3049.57 2062.17 3043.5 2062.17 3037.43 2067.09 3032.5 2073.17 3032.5 2079.24 3032.5 2084.17 3037.43 2084.17 3043.5Z" stroke="#264478" stroke-width="3.4375" stroke-linecap="butt" stroke-linejoin="round" stroke-miterlimit="10" stroke-opacity="1" fill="#264478" fill-rule="evenodd" fill-opacity="1"/><path d="M2142.17 3044.5C2142.17 3050.57 2137.24 3055.5 2131.17 3055.5 2125.09 3055.5 2120.17 3050.57 2120.17 3044.5 2120.17 3038.43 2125.09 3033.5 2131.17 3033.5 2137.24 3033.5 2142.17 3038.43 2142.17 3044.5Z" stroke="#264478" stroke-width="3.4375" stroke-linecap="butt" stroke-linejoin="round" stroke-miterlimit="10" stroke-opacity="1" fill="#264478" fill-rule="evenodd" fill-opacity="1"/><path d="M2156.17 3043.5C2156.17 3049.57 2151.24 3054.5 2145.17 3054.5 2139.09 3054.5 2134.17 3049.57 2134.17 3043.5 2134.17 3037.43 2139.09 3032.5 2145.17 3032.5 2151.24 3032.5 2156.17 3037.43 2156.17 3043.5Z" stroke="#264478" stroke-width="3.4375" stroke-linecap="butt" stroke-linejoin="round" stroke-miterlimit="10" stroke-opacity="1" fill="#264478" fill-rule="evenodd" fill-opacity="1"/><path d="M2170.17 3044.5C2170.17 3050.57 2165.24 3055.5 2159.17 3055.5 2153.09 3055.5 2148.17 3050.57 2148.17 3044.5 2148.17 3038.43 2153.09 3033.5 2159.17 3033.5 2165.24 3033.5 2170.17 3038.43 2170.17 3044.5Z" stroke="#264478" stroke-width="3.4375" stroke-linecap="butt" stroke-linejoin="round" stroke-miterlimit="10" stroke-opacity="1" fill="#264478" fill-rule="evenodd" fill-opacity="1"/><path d="M2199.17 3044.5C2199.17 3050.57 2194.24 3055.5 2188.17 3055.5 2182.09 3055.5 2177.17 3050.57 2177.17 3044.5 2177.17 3038.43 2182.09 3033.5 2188.17 3033.5 2194.24 3033.5 2199.17 3038.43 2199.17 3044.5Z" stroke="#264478" stroke-width="3.4375" stroke-linecap="butt" stroke-linejoin="round" stroke-miterlimit="10" stroke-opacity="1" fill="#264478" fill-rule="evenodd" fill-opacity="1"/><path d="M2211.17 3020.5C2211.17 3026.57 2206.24 3031.5 2200.17 3031.5 2194.09 3031.5 2189.17 3026.57 2189.17 3020.5 2189.17 3014.43 2194.09 3009.5 2200.17 3009.5 2206.24 3009.5 2211.17 3014.43 2211.17 3020.5Z" stroke="#264478" stroke-width="3.4375" stroke-linecap="butt" stroke-linejoin="round" stroke-miterlimit="10" stroke-opacity="1" fill="#264478" fill-rule="evenodd" fill-opacity="1"/><path d="M2219.17 2991.5C2219.17 2997.57 2214.24 3002.5 2208.17 3002.5 2202.09 3002.5 2197.17 2997.57 2197.17 2991.5 2197.17 2985.43 2202.09 2980.5 2208.17 2980.5 2214.24 2980.5 2219.17 2985.43 2219.17 2991.5Z" stroke="#264478" stroke-width="3.4375" stroke-linecap="butt" stroke-linejoin="round" stroke-miterlimit="10" stroke-opacity="1" fill="#264478" fill-rule="evenodd" fill-opacity="1"/><path d="M2218.17 2949.5C2218.17 2955.57 2213.24 2960.5 2207.17 2960.5 2201.09 2960.5 2196.17 2955.57 2196.17 2949.5 2196.17 2943.42 2201.09 2938.5 2207.17 2938.5 2213.24 2938.5 2218.17 2943.42 2218.17 2949.5Z" stroke="#264478" stroke-width="3.4375" stroke-linecap="butt" stroke-linejoin="round" stroke-miterlimit="10" stroke-opacity="1" fill="#264478" fill-rule="evenodd" fill-opacity="1"/></g><g clip-path="url(#clip7)"><path d="M1989.5 3044.6 2018.57 3044.6 2076.57 3045.6 2106.57 3045.5 2135.57 3045.6 2165.57 3045.6 2194.57 3045.6 2213.57 3031.6 2213.57 2990.6 2229.5 2971.5" stroke="#9D47C4" stroke-width="6.875" stroke-linecap="round" stroke-linejoin="round" stroke-miterlimit="10" stroke-opacity="1" fill="none" fill-rule="evenodd"/></g><g clip-path="url(#clip8)"><path d="M2000.17 3044.5C2000.17 3050.57 1995.24 3055.5 1989.17 3055.5 1983.09 3055.5 1978.17 3050.57 1978.17 3044.5 1978.17 3038.43 1983.09 3033.5 1989.17 3033.5 1995.24 3033.5 2000.17 3038.43 2000.17 3044.5Z" stroke="#9D47C4" stroke-width="3.4375" stroke-linecap="butt" stroke-linejoin="round" stroke-miterlimit="10" stroke-opacity="1" fill="#9D47C4" fill-rule="evenodd" fill-opacity="1"/><path d="M2029.17 3045.5C2029.17 3051.57 2024.24 3056.5 2018.17 3056.5 2012.09 3056.5 2007.17 3051.57 2007.17 3045.5 2007.17 3039.43 2012.09 3034.5 2018.17 3034.5 2024.24 3034.5 2029.17 3039.43 2029.17 3045.5Z" stroke="#9D47C4" stroke-width="3.4375" stroke-linecap="butt" stroke-linejoin="round" stroke-miterlimit="10" stroke-opacity="1" fill="#9D47C4" fill-rule="evenodd" fill-opacity="1"/><path d="M2088.17 3045.5C2088.17 3051.57 2083.24 3056.5 2077.17 3056.5 2071.09 3056.5 2066.17 3051.57 2066.17 3045.5 2066.17 3039.43 2071.09 3034.5 2077.17 3034.5 2083.24 3034.5 2088.17 3039.43 2088.17 3045.5Z" stroke="#9D47C4" stroke-width="3.4375" stroke-linecap="butt" stroke-linejoin="round" stroke-miterlimit="10" stroke-opacity="1" fill="#9D47C4" fill-rule="evenodd" fill-opacity="1"/><path d="M2117.17 3045.5C2117.17 3051.57 2112.24 3056.5 2106.17 3056.5 2100.09 3056.5 2095.17 3051.57 2095.17 3045.5 2095.17 3039.43 2100.09 3034.5 2106.17 3034.5 2112.24 3034.5 2117.17 3039.43 2117.17 3045.5Z" stroke="#9D47C4" stroke-width="3.4375" stroke-linecap="butt" stroke-linejoin="round" stroke-miterlimit="10" stroke-opacity="1" fill="#9D47C4" fill-rule="evenodd" fill-opacity="1"/><path d="M2146.17 3045.5C2146.17 3051.57 2141.24 3056.5 2135.17 3056.5 2129.09 3056.5 2124.17 3051.57 2124.17 3045.5 2124.17 3039.43 2129.09 3034.5 2135.17 3034.5 2141.24 3034.5 2146.17 3039.43 2146.17 3045.5Z" stroke="#9D47C4" stroke-width="3.4375" stroke-linecap="butt" stroke-linejoin="round" stroke-miterlimit="10" stroke-opacity="1" fill="#9D47C4" fill-rule="evenodd" fill-opacity="1"/><path d="M2176.17 3045.5C2176.17 3051.57 2171.24 3056.5 2165.17 3056.5 2159.09 3056.5 2154.17 3051.57 2154.17 3045.5 2154.17 3039.43 2159.09 3034.5 2165.17 3034.5 2171.24 3034.5 2176.17 3039.43 2176.17 3045.5Z" stroke="#9D47C4" stroke-width="3.4375" stroke-linecap="butt" stroke-linejoin="round" stroke-miterlimit="10" stroke-opacity="1" fill="#9D47C4" fill-rule="evenodd" fill-opacity="1"/><path d="M2205.17 3045.5C2205.17 3051.57 2200.24 3056.5 2194.17 3056.5 2188.09 3056.5 2183.17 3051.57 2183.17 3045.5 2183.17 3039.43 2188.09 3034.5 2194.17 3034.5 2200.24 3034.5 2205.17 3039.43 2205.17 3045.5Z" stroke="#9D47C4" stroke-width="3.4375" stroke-linecap="butt" stroke-linejoin="round" stroke-miterlimit="10" stroke-opacity="1" fill="#9D47C4" fill-rule="evenodd" fill-opacity="1"/><path d="M2224.17 3031.5C2224.17 3037.57 2219.24 3042.5 2213.17 3042.5 2207.09 3042.5 2202.17 3037.57 2202.17 3031.5 2202.17 3025.43 2207.09 3020.5 2213.17 3020.5 2219.24 3020.5 2224.17 3025.43 2224.17 3031.5Z" stroke="#9D47C4" stroke-width="3.4375" stroke-linecap="butt" stroke-linejoin="round" stroke-miterlimit="10" stroke-opacity="1" fill="#9D47C4" fill-rule="evenodd" fill-opacity="1"/><path d="M2224.17 2990.5C2224.17 2996.57 2219.24 3001.5 2213.17 3001.5 2207.09 3001.5 2202.17 2996.57 2202.17 2990.5 2202.17 2984.43 2207.09 2979.5 2213.17 2979.5 2219.24 2979.5 2224.17 2984.43 2224.17 2990.5Z" stroke="#9D47C4" stroke-width="3.4375" stroke-linecap="butt" stroke-linejoin="round" stroke-miterlimit="10" stroke-opacity="1" fill="#9D47C4" fill-rule="evenodd" fill-opacity="1"/><path d="M2240.17 2971.5C2240.17 2977.57 2235.24 2982.5 2229.17 2982.5 2223.09 2982.5 2218.17 2977.57 2218.17 2971.5 2218.17 2965.42 2223.09 2960.5 2229.17 2960.5 2235.24 2960.5 2240.17 2965.42 2240.17 2971.5Z" stroke="#9D47C4" stroke-width="3.4375" stroke-linecap="butt" stroke-linejoin="round" stroke-miterlimit="10" stroke-opacity="1" fill="#9D47C4" fill-rule="evenodd" fill-opacity="1"/></g><g clip-path="url(#clip9)"><path d="M1994.5 3052.6 2028.57 3052.6 2097.57 3052.5 2132.57 3052.6 2166.57 3052.6 2201.57 3052.6 2235.57 3052.6 2269.57 3051.6 2289.5 3036.6 2271.57 2976.5" stroke="#C00000" stroke-width="6.875" stroke-linecap="round" stroke-linejoin="round" stroke-miterlimit="10" stroke-opacity="1" fill="none" fill-rule="evenodd"/></g><g clip-path="url(#clip10)"><path d="M2005.17 3052.5C2005.17 3058.57 2000.24 3063.5 1994.17 3063.5 1988.09 3063.5 1983.17 3058.57 1983.17 3052.5 1983.17 3046.43 1988.09 3041.5 1994.17 3041.5 2000.24 3041.5 2005.17 3046.43 2005.17 3052.5Z" stroke="#ED7D31" stroke-width="3.4375" stroke-linecap="butt" stroke-linejoin="round" stroke-miterlimit="10" stroke-opacity="1" fill="#ED7D31" fill-rule="evenodd" fill-opacity="1"/><path d="M2039.17 3052.5C2039.17 3058.57 2034.24 3063.5 2028.17 3063.5 2022.09 3063.5 2017.17 3058.57 2017.17 3052.5 2017.17 3046.43 2022.09 3041.5 2028.17 3041.5 2034.24 3041.5 2039.17 3046.43 2039.17 3052.5Z" stroke="#ED7D31" stroke-width="3.4375" stroke-linecap="butt" stroke-linejoin="round" stroke-miterlimit="10" stroke-opacity="1" fill="#ED7D31" fill-rule="evenodd" fill-opacity="1"/><path d="M2108.17 3052.5C2108.17 3058.57 2103.24 3063.5 2097.17 3063.5 2091.09 3063.5 2086.17 3058.57 2086.17 3052.5 2086.17 3046.43 2091.09 3041.5 2097.17 3041.5 2103.24 3041.5 2108.17 3046.43 2108.17 3052.5Z" stroke="#ED7D31" stroke-width="3.4375" stroke-linecap="butt" stroke-linejoin="round" stroke-miterlimit="10" stroke-opacity="1" fill="#ED7D31" fill-rule="evenodd" fill-opacity="1"/><path d="M2143.17 3052.5C2143.17 3058.57 2138.24 3063.5 2132.17 3063.5 2126.09 3063.5 2121.17 3058.57 2121.17 3052.5 2121.17 3046.43 2126.09 3041.5 2132.17 3041.5 2138.24 3041.5 2143.17 3046.43 2143.17 3052.5Z" stroke="#ED7D31" stroke-width="3.4375" stroke-linecap="butt" stroke-linejoin="round" stroke-miterlimit="10" stroke-opacity="1" fill="#ED7D31" fill-rule="evenodd" fill-opacity="1"/><path d="M2177.17 3052.5C2177.17 3058.57 2172.24 3063.5 2166.17 3063.5 2160.09 3063.5 2155.17 3058.57 2155.17 3052.5 2155.17 3046.43 2160.09 3041.5 2166.17 3041.5 2172.24 3041.5 2177.17 3046.43 2177.17 3052.5Z" stroke="#ED7D31" stroke-width="3.4375" stroke-linecap="butt" stroke-linejoin="round" stroke-miterlimit="10" stroke-opacity="1" fill="#ED7D31" fill-rule="evenodd" fill-opacity="1"/><path d="M2212.17 3052.5C2212.17 3058.57 2207.24 3063.5 2201.17 3063.5 2195.09 3063.5 2190.17 3058.57 2190.17 3052.5 2190.17 3046.43 2195.09 3041.5 2201.17 3041.5 2207.24 3041.5 2212.17 3046.43 2212.17 3052.5Z" stroke="#ED7D31" stroke-width="3.4375" stroke-linecap="butt" stroke-linejoin="round" stroke-miterlimit="10" stroke-opacity="1" fill="#ED7D31" fill-rule="evenodd" fill-opacity="1"/><path d="M2246.17 3052.5C2246.17 3058.57 2241.24 3063.5 2235.17 3063.5 2229.09 3063.5 2224.17 3058.57 2224.17 3052.5 2224.17 3046.43 2229.09 3041.5 2235.17 3041.5 2241.24 3041.5 2246.17 3046.43 2246.17 3052.5Z" stroke="#ED7D31" stroke-width="3.4375" stroke-linecap="butt" stroke-linejoin="round" stroke-miterlimit="10" stroke-opacity="1" fill="#ED7D31" fill-rule="evenodd" fill-opacity="1"/><path d="M2280.17 3051.5C2280.17 3057.57 2275.24 3062.5 2269.17 3062.5 2263.09 3062.5 2258.17 3057.57 2258.17 3051.5 2258.17 3045.43 2263.09 3040.5 2269.17 3040.5 2275.24 3040.5 2280.17 3045.43 2280.17 3051.5Z" stroke="#ED7D31" stroke-width="3.4375" stroke-linecap="butt" stroke-linejoin="round" stroke-miterlimit="10" stroke-opacity="1" fill="#ED7D31" fill-rule="evenodd" fill-opacity="1"/><path d="M2300.17 3036.5C2300.17 3042.57 2295.24 3047.5 2289.17 3047.5 2283.09 3047.5 2278.17 3042.57 2278.17 3036.5 2278.17 3030.43 2283.09 3025.5 2289.17 3025.5 2295.24 3025.5 2300.17 3030.43 2300.17 3036.5Z" stroke="#ED7D31" stroke-width="3.4375" stroke-linecap="butt" stroke-linejoin="round" stroke-miterlimit="10" stroke-opacity="1" fill="#ED7D31" fill-rule="evenodd" fill-opacity="1"/><path d="M2282.17 2976.5C2282.17 2982.57 2277.24 2987.5 2271.17 2987.5 2265.09 2987.5 2260.17 2982.57 2260.17 2976.5 2260.17 2970.43 2265.09 2965.5 2271.17 2965.5 2277.24 2965.5 2282.17 2970.43 2282.17 2976.5Z" stroke="#ED7D31" stroke-width="3.4375" stroke-linecap="butt" stroke-linejoin="round" stroke-miterlimit="10" stroke-opacity="1" fill="#ED7D31" fill-rule="evenodd" fill-opacity="1"/></g><g clip-path="url(#clip11)"><path d="M2005.5 3066.6 2050.57 3066.6 2095.57 3066.6 2141.57 3067.5 2186.57 3066.6 2232.57 3067.6 2278.57 3066.6 2323.58 3066.6 2360.58 3060.6 2386.58 3045.6 2400.5 3021.6 2393.58 2982.5" stroke="#FFC000" stroke-width="6.875" stroke-linecap="round" stroke-linejoin="round" stroke-miterlimit="10" stroke-opacity="1" fill="none" fill-rule="evenodd"/></g><g clip-path="url(#clip12)"><path d="M2016.17 3066.5C2016.17 3072.57 2011.24 3077.5 2005.17 3077.5 1999.09 3077.5 1994.17 3072.57 1994.17 3066.5 1994.17 3060.43 1999.09 3055.5 2005.17 3055.5 2011.24 3055.5 2016.17 3060.43 2016.17 3066.5Z" stroke="#FFC000" stroke-width="3.4375" stroke-linecap="butt" stroke-linejoin="round" stroke-miterlimit="10" stroke-opacity="1" fill="#FFC000" fill-rule="evenodd" fill-opacity="1"/><path d="M2061.17 3066.5C2061.17 3072.57 2056.24 3077.5 2050.17 3077.5 2044.09 3077.5 2039.17 3072.57 2039.17 3066.5 2039.17 3060.43 2044.09 3055.5 2050.17 3055.5 2056.24 3055.5 2061.17 3060.43 2061.17 3066.5Z" stroke="#FFC000" stroke-width="3.4375" stroke-linecap="butt" stroke-linejoin="round" stroke-miterlimit="10" stroke-opacity="1" fill="#FFC000" fill-rule="evenodd" fill-opacity="1"/><path d="M2106.17 3067.5C2106.17 3073.57 2101.24 3078.5 2095.17 3078.5 2089.09 3078.5 2084.17 3073.57 2084.17 3067.5 2084.17 3061.43 2089.09 3056.5 2095.17 3056.5 2101.24 3056.5 2106.17 3061.43 2106.17 3067.5Z" stroke="#FFC000" stroke-width="3.4375" stroke-linecap="butt" stroke-linejoin="round" stroke-miterlimit="10" stroke-opacity="1" fill="#FFC000" fill-rule="evenodd" fill-opacity="1"/><path d="M2152.17 3067.5C2152.17 3073.57 2147.24 3078.5 2141.17 3078.5 2135.09 3078.5 2130.17 3073.57 2130.17 3067.5 2130.17 3061.43 2135.09 3056.5 2141.17 3056.5 2147.24 3056.5 2152.17 3061.43 2152.17 3067.5Z" stroke="#FFC000" stroke-width="3.4375" stroke-linecap="butt" stroke-linejoin="round" stroke-miterlimit="10" stroke-opacity="1" fill="#FFC000" fill-rule="evenodd" fill-opacity="1"/><path d="M2197.17 3067.5C2197.17 3073.57 2192.24 3078.5 2186.17 3078.5 2180.09 3078.5 2175.17 3073.57 2175.17 3067.5 2175.17 3061.43 2180.09 3056.5 2186.17 3056.5 2192.24 3056.5 2197.17 3061.43 2197.17 3067.5Z" stroke="#FFC000" stroke-width="3.4375" stroke-linecap="butt" stroke-linejoin="round" stroke-miterlimit="10" stroke-opacity="1" fill="#FFC000" fill-rule="evenodd" fill-opacity="1"/><path d="M2243.17 3067.5C2243.17 3073.57 2238.24 3078.5 2232.17 3078.5 2226.09 3078.5 2221.17 3073.57 2221.17 3067.5 2221.17 3061.43 2226.09 3056.5 2232.17 3056.5 2238.24 3056.5 2243.17 3061.43 2243.17 3067.5Z" stroke="#FFC000" stroke-width="3.4375" stroke-linecap="butt" stroke-linejoin="round" stroke-miterlimit="10" stroke-opacity="1" fill="#FFC000" fill-rule="evenodd" fill-opacity="1"/><path d="M2289.17 3067.5C2289.17 3073.57 2284.24 3078.5 2278.17 3078.5 2272.09 3078.5 2267.17 3073.57 2267.17 3067.5 2267.17 3061.43 2272.09 3056.5 2278.17 3056.5 2284.24 3056.5 2289.17 3061.43 2289.17 3067.5Z" stroke="#FFC000" stroke-width="3.4375" stroke-linecap="butt" stroke-linejoin="round" stroke-miterlimit="10" stroke-opacity="1" fill="#FFC000" fill-rule="evenodd" fill-opacity="1"/><path d="M2334.17 3067.5C2334.17 3073.57 2329.24 3078.5 2323.17 3078.5 2317.09 3078.5 2312.17 3073.57 2312.17 3067.5 2312.17 3061.43 2317.09 3056.5 2323.17 3056.5 2329.24 3056.5 2334.17 3061.43 2334.17 3067.5Z" stroke="#FFC000" stroke-width="3.4375" stroke-linecap="butt" stroke-linejoin="round" stroke-miterlimit="10" stroke-opacity="1" fill="#FFC000" fill-rule="evenodd" fill-opacity="1"/><path d="M2371.17 3060.5C2371.17 3066.57 2366.24 3071.5 2360.17 3071.5 2354.09 3071.5 2349.17 3066.57 2349.17 3060.5 2349.17 3054.42 2354.09 3049.5 2360.17 3049.5 2366.24 3049.5 2371.17 3054.42 2371.17 3060.5Z" stroke="#FFC000" stroke-width="3.4375" stroke-linecap="butt" stroke-linejoin="round" stroke-miterlimit="10" stroke-opacity="1" fill="#FFC000" fill-rule="evenodd" fill-opacity="1"/><path d="M2397.17 3045.5C2397.17 3051.57 2392.24 3056.5 2386.17 3056.5 2380.09 3056.5 2375.17 3051.57 2375.17 3045.5 2375.17 3039.43 2380.09 3034.5 2386.17 3034.5 2392.24 3034.5 2397.17 3039.43 2397.17 3045.5Z" stroke="#FFC000" stroke-width="3.4375" stroke-linecap="butt" stroke-linejoin="round" stroke-miterlimit="10" stroke-opacity="1" fill="#FFC000" fill-rule="evenodd" fill-opacity="1"/><path d="M2411.17 3021.5C2411.17 3027.57 2406.24 3032.5 2400.17 3032.5 2394.09 3032.5 2389.17 3027.57 2389.17 3021.5 2389.17 3015.43 2394.09 3010.5 2400.17 3010.5 2406.24 3010.5 2411.17 3015.43 2411.17 3021.5Z" stroke="#FFC000" stroke-width="3.4375" stroke-linecap="butt" stroke-linejoin="round" stroke-miterlimit="10" stroke-opacity="1" fill="#FFC000" fill-rule="evenodd" fill-opacity="1"/><path d="M2404.17 2982.5C2404.17 2988.57 2399.24 2993.5 2393.17 2993.5 2387.09 2993.5 2382.17 2988.57 2382.17 2982.5 2382.17 2976.42 2387.09 2971.5 2393.17 2971.5 2399.24 2971.5 2404.17 2976.42 2404.17 2982.5Z" stroke="#FFC000" stroke-width="3.4375" stroke-linecap="butt" stroke-linejoin="round" stroke-miterlimit="10" stroke-opacity="1" fill="#FFC000" fill-rule="evenodd" fill-opacity="1"/></g><g clip-path="url(#clip13)"><path d="M2098.5 3223.5 2235.57 3222.61 2373.58 3222.61 2511.58 3222.61 2580.58 3222.61 2649.59 3222.61 2715.59 3222.61 2747.59 3221.61 2773.59 3219.61 2802.59 3218.61 2814.59 3214.61 2833.5 3204.5" stroke="#70AD47" stroke-width="6.875" stroke-linecap="round" stroke-linejoin="round" stroke-miterlimit="10" stroke-opacity="1" fill="none" fill-rule="evenodd"/></g><g clip-path="url(#clip14)"><path d="M2109.17 3223.5C2109.17 3229.57 2104.24 3234.5 2098.17 3234.5 2092.09 3234.5 2087.17 3229.57 2087.17 3223.5 2087.17 3217.43 2092.09 3212.5 2098.17 3212.5 2104.24 3212.5 2109.17 3217.43 2109.17 3223.5Z" stroke="#70AD47" stroke-width="3.4375" stroke-linecap="butt" stroke-linejoin="round" stroke-miterlimit="10" stroke-opacity="1" fill="#70AD47" fill-rule="evenodd" fill-opacity="1"/><path d="M2246.17 3223.5C2246.17 3229.57 2241.24 3234.5 2235.17 3234.5 2229.09 3234.5 2224.17 3229.57 2224.17 3223.5 2224.17 3217.43 2229.09 3212.5 2235.17 3212.5 2241.24 3212.5 2246.17 3217.43 2246.17 3223.5Z" stroke="#70AD47" stroke-width="3.4375" stroke-linecap="butt" stroke-linejoin="round" stroke-miterlimit="10" stroke-opacity="1" fill="#70AD47" fill-rule="evenodd" fill-opacity="1"/><path d="M2384.17 3222.5C2384.17 3228.57 2379.24 3233.5 2373.17 3233.5 2367.09 3233.5 2362.17 3228.57 2362.17 3222.5 2362.17 3216.43 2367.09 3211.5 2373.17 3211.5 2379.24 3211.5 2384.17 3216.43 2384.17 3222.5Z" stroke="#70AD47" stroke-width="3.4375" stroke-linecap="butt" stroke-linejoin="round" stroke-miterlimit="10" stroke-opacity="1" fill="#70AD47" fill-rule="evenodd" fill-opacity="1"/><path d="M2522.17 3223.5C2522.17 3229.57 2517.24 3234.5 2511.17 3234.5 2505.09 3234.5 2500.17 3229.57 2500.17 3223.5 2500.17 3217.43 2505.09 3212.5 2511.17 3212.5 2517.24 3212.5 2522.17 3217.43 2522.17 3223.5Z" stroke="#70AD47" stroke-width="3.4375" stroke-linecap="butt" stroke-linejoin="round" stroke-miterlimit="10" stroke-opacity="1" fill="#70AD47" fill-rule="evenodd" fill-opacity="1"/><path d="M2591.17 3222.5C2591.17 3228.57 2586.24 3233.5 2580.17 3233.5 2574.09 3233.5 2569.17 3228.57 2569.17 3222.5 2569.17 3216.43 2574.09 3211.5 2580.17 3211.5 2586.24 3211.5 2591.17 3216.43 2591.17 3222.5Z" stroke="#70AD47" stroke-width="3.4375" stroke-linecap="butt" stroke-linejoin="round" stroke-miterlimit="10" stroke-opacity="1" fill="#70AD47" fill-rule="evenodd" fill-opacity="1"/><path d="M2660.17 3222.5C2660.17 3228.57 2655.24 3233.5 2649.17 3233.5 2643.09 3233.5 2638.17 3228.57 2638.17 3222.5 2638.17 3216.43 2643.09 3211.5 2649.17 3211.5 2655.24 3211.5 2660.17 3216.43 2660.17 3222.5Z" stroke="#70AD47" stroke-width="3.4375" stroke-linecap="butt" stroke-linejoin="round" stroke-miterlimit="10" stroke-opacity="1" fill="#70AD47" fill-rule="evenodd" fill-opacity="1"/><path d="M2726.17 3222.5C2726.17 3228.57 2721.24 3233.5 2715.17 3233.5 2709.09 3233.5 2704.17 3228.57 2704.17 3222.5 2704.17 3216.43 2709.09 3211.5 2715.17 3211.5 2721.24 3211.5 2726.17 3216.43 2726.17 3222.5Z" stroke="#70AD47" stroke-width="3.4375" stroke-linecap="butt" stroke-linejoin="round" stroke-miterlimit="10" stroke-opacity="1" fill="#70AD47" fill-rule="evenodd" fill-opacity="1"/><path d="M2758.17 3221.5C2758.17 3227.57 2753.24 3232.5 2747.17 3232.5 2741.09 3232.5 2736.17 3227.57 2736.17 3221.5 2736.17 3215.43 2741.09 3210.5 2747.17 3210.5 2753.24 3210.5 2758.17 3215.43 2758.17 3221.5Z" stroke="#70AD47" stroke-width="3.4375" stroke-linecap="butt" stroke-linejoin="round" stroke-miterlimit="10" stroke-opacity="1" fill="#70AD47" fill-rule="evenodd" fill-opacity="1"/><path d="M2785.17 3219.5C2785.17 3225.57 2780.24 3230.5 2774.17 3230.5 2768.09 3230.5 2763.17 3225.57 2763.17 3219.5 2763.17 3213.43 2768.09 3208.5 2774.17 3208.5 2780.24 3208.5 2785.17 3213.43 2785.17 3219.5Z" stroke="#70AD47" stroke-width="3.4375" stroke-linecap="butt" stroke-linejoin="round" stroke-miterlimit="10" stroke-opacity="1" fill="#70AD47" fill-rule="evenodd" fill-opacity="1"/><path d="M2813.17 3218.5C2813.17 3224.57 2808.24 3229.5 2802.17 3229.5 2796.09 3229.5 2791.17 3224.57 2791.17 3218.5 2791.17 3212.43 2796.09 3207.5 2802.17 3207.5 2808.24 3207.5 2813.17 3212.43 2813.17 3218.5Z" stroke="#70AD47" stroke-width="3.4375" stroke-linecap="butt" stroke-linejoin="round" stroke-miterlimit="10" stroke-opacity="1" fill="#70AD47" fill-rule="evenodd" fill-opacity="1"/><path d="M2825.17 3214.5C2825.17 3220.57 2820.24 3225.5 2814.17 3225.5 2808.09 3225.5 2803.17 3220.57 2803.17 3214.5 2803.17 3208.42 2808.09 3203.5 2814.17 3203.5 2820.24 3203.5 2825.17 3208.42 2825.17 3214.5Z" stroke="#70AD47" stroke-width="3.4375" stroke-linecap="butt" stroke-linejoin="round" stroke-miterlimit="10" stroke-opacity="1" fill="#70AD47" fill-rule="evenodd" fill-opacity="1"/><path d="M2844.17 3204.5C2844.17 3210.57 2839.24 3215.5 2833.17 3215.5 2827.09 3215.5 2822.17 3210.57 2822.17 3204.5 2822.17 3198.42 2827.09 3193.5 2833.17 3193.5 2839.24 3193.5 2844.17 3198.42 2844.17 3204.5Z" stroke="#70AD47" stroke-width="3.4375" stroke-linecap="butt" stroke-linejoin="round" stroke-miterlimit="10" stroke-opacity="1" fill="#70AD47" fill-rule="evenodd" fill-opacity="1"/></g><g clip-path="url(#clip15)"><text fill="#595959" fill-opacity="1" font-family="Calibri,Calibri_MSFontService,sans-serif" font-style="normal" font-variant="normal" font-weight="400" font-stretch="normal" font-size="37" text-anchor="start" direction="ltr" writing-mode="lr-tb" unicode-bidi="normal" text-decoration="none" transform="matrix(1 0 0 1 1907.17 3408)">0</text></g><g clip-path="url(#clip16)"><text fill="#595959" fill-opacity="1" font-family="Calibri,Calibri_MSFontService,sans-serif" font-style="normal" font-variant="normal" font-weight="400" font-stretch="normal" font-size="37" text-anchor="start" direction="ltr" writing-mode="lr-tb" unicode-bidi="normal" text-decoration="none" transform="matrix(1 0 0 1 1888.58 3324)">50</text></g><g clip-path="url(#clip17)"><text fill="#595959" fill-opacity="1" font-family="Calibri,Calibri_MSFontService,sans-serif" font-style="normal" font-variant="normal" font-weight="400" font-stretch="normal" font-size="37" text-anchor="start" direction="ltr" writing-mode="lr-tb" unicode-bidi="normal" text-decoration="none" transform="matrix(1 0 0 1 1869.99 3239)">100</text></g><g clip-path="url(#clip18)"><text fill="#595959" fill-opacity="1" font-family="Calibri,Calibri_MSFontService,sans-serif" font-style="normal" font-variant="normal" font-weight="400" font-stretch="normal" font-size="37" text-anchor="start" direction="ltr" writing-mode="lr-tb" unicode-bidi="normal" text-decoration="none" transform="matrix(1 0 0 1 1869.99 3155)">150</text></g><g clip-path="url(#clip19)"><text fill="#595959" fill-opacity="1" font-family="Calibri,Calibri_MSFontService,sans-serif" font-style="normal" font-variant="normal" font-weight="400" font-stretch="normal" font-size="37" text-anchor="start" direction="ltr" writing-mode="lr-tb" unicode-bidi="normal" text-decoration="none" transform="matrix(1 0 0 1 1869.99 3071)">200</text></g><g clip-path="url(#clip20)"><text fill="#595959" fill-opacity="1" font-family="Calibri,Calibri_MSFontService,sans-serif" font-style="normal" font-variant="normal" font-weight="400" font-stretch="normal" font-size="37" text-anchor="start" direction="ltr" writing-mode="lr-tb" unicode-bidi="normal" text-decoration="none" transform="matrix(1 0 0 1 1869.99 2986)">250</text></g><g clip-path="url(#clip21)"><text fill="#595959" fill-opacity="1" font-family="Calibri,Calibri_MSFontService,sans-serif" font-style="normal" font-variant="normal" font-weight="400" font-stretch="normal" font-size="37" text-anchor="start" direction="ltr" writing-mode="lr-tb" unicode-bidi="normal" text-decoration="none" transform="matrix(1 0 0 1 1869.99 2902)">300</text></g><g clip-path="url(#clip22)"><text fill="#595959" fill-opacity="1" font-family="Calibri,Calibri_MSFontService,sans-serif" font-style="normal" font-variant="normal" font-weight="400" font-stretch="normal" font-size="37" text-anchor="start" direction="ltr" writing-mode="lr-tb" unicode-bidi="normal" text-decoration="none" transform="matrix(1 0 0 1 1950.47 3458)">0</text></g><g clip-path="url(#clip23)"><text fill="#595959" fill-opacity="1" font-family="Calibri,Calibri_MSFontService,sans-serif" font-style="normal" font-variant="normal" font-weight="400" font-stretch="normal" font-size="37" text-anchor="start" direction="ltr" writing-mode="lr-tb" unicode-bidi="normal" text-decoration="none" transform="matrix(1 0 0 1 2097.57 3458)">50</text></g><g clip-path="url(#clip24)"><text fill="#595959" fill-opacity="1" font-family="Calibri,Calibri_MSFontService,sans-serif" font-style="normal" font-variant="normal" font-weight="400" font-stretch="normal" font-size="37" text-anchor="start" direction="ltr" writing-mode="lr-tb" unicode-bidi="normal" text-decoration="none" transform="matrix(1 0 0 1 2244.68 3458)">100</text></g><g clip-path="url(#clip25)"><text fill="#595959" fill-opacity="1" font-family="Calibri,Calibri_MSFontService,sans-serif" font-style="normal" font-variant="normal" font-weight="400" font-stretch="normal" font-size="37" text-anchor="start" direction="ltr" writing-mode="lr-tb" unicode-bidi="normal" text-decoration="none" transform="matrix(1 0 0 1 2401.07 3458)">150</text></g><g clip-path="url(#clip26)"><text fill="#595959" fill-opacity="1" font-family="Calibri,Calibri_MSFontService,sans-serif" font-style="normal" font-variant="normal" font-weight="400" font-stretch="normal" font-size="37" text-anchor="start" direction="ltr" writing-mode="lr-tb" unicode-bidi="normal" text-decoration="none" transform="matrix(1 0 0 1 2557.46 3458)">200</text></g><g clip-path="url(#clip27)"><text fill="#595959" fill-opacity="1" font-family="Calibri,Calibri_MSFontService,sans-serif" font-style="normal" font-variant="normal" font-weight="400" font-stretch="normal" font-size="37" text-anchor="start" direction="ltr" writing-mode="lr-tb" unicode-bidi="normal" text-decoration="none" transform="matrix(1 0 0 1 2713.86 3458)">250</text></g><g clip-path="url(#clip28)"><text fill="#595959" fill-opacity="1" font-family="Calibri,Calibri_MSFontService,sans-serif" font-style="normal" font-variant="normal" font-weight="400" font-stretch="normal" font-size="37" text-anchor="start" direction="ltr" writing-mode="lr-tb" unicode-bidi="normal" text-decoration="none" transform="matrix(1 0 0 1 2870.25 3458)">300</text></g><g clip-path="url(#clip29)"><text fill="#595959" fill-opacity="1" font-family="Calibri,Calibri_MSFontService,sans-serif" font-style="normal" font-variant="normal" font-weight="700" font-stretch="normal" font-size="44" text-anchor="start" direction="ltr" writing-mode="lr-tb" unicode-bidi="normal" text-decoration="none" transform="matrix(1 0 0 1 2020.24 3498)">Thousands</text></g><g clip-path="url(#clip30)"><text fill="#595959" fill-opacity="1" font-family="Calibri,Calibri_MSFontService,sans-serif" font-style="normal" font-variant="normal" font-weight="400" font-stretch="normal" font-size="44" text-anchor="start" direction="ltr" writing-mode="lr-tb" unicode-bidi="normal" text-decoration="none" transform="matrix(1 0 0 1 2303.63 3498)">Ops/s (query + updates)</text></g><g clip-path="url(#clip31)"><rect x="2629.5" y="2908.5" width="252" height="198" stroke="#000000" stroke-width="3.4375" stroke-linecap="butt" stroke-linejoin="round" stroke-miterlimit="10" stroke-opacity="1" fill="#FFFFFF" fill-opacity="1"/></g><g clip-path="url(#clip32)"><path d="M2666.5 2927.5 2754.5 2927.5" stroke="#4472C4" stroke-width="6.875" stroke-linecap="round" stroke-linejoin="round" stroke-miterlimit="10" stroke-opacity="1" fill="none" fill-rule="evenodd"/></g><g clip-path="url(#clip33)"><path d="M2718 2926.5C2718 2931.19 2714.19 2935 2709.5 2935 2704.81 2935 2701 2931.19 2701 2926.5 2701 2921.81 2704.81 2918 2709.5 2918 2714.19 2918 2718 2921.81 2718 2926.5Z" stroke="#264478" stroke-width="3.4375" stroke-linecap="butt" stroke-linejoin="round" stroke-miterlimit="10" stroke-opacity="1" fill="#264478" fill-rule="evenodd" fill-opacity="1"/></g><g clip-path="url(#clip34)"><text fill="#595959" fill-opacity="1" font-family="Calibri,Calibri_MSFontService,sans-serif" font-style="normal" font-variant="normal" font-weight="400" font-stretch="normal" font-size="37" text-anchor="start" direction="ltr" writing-mode="lr-tb" unicode-bidi="normal" text-decoration="none" transform="matrix(1 0 0 1 2764.25 2937)">0%</text></g><g clip-path="url(#clip35)"><path d="M2666.5 2967.5 2754.5 2967.5" stroke="#9D47C4" stroke-width="6.875" stroke-linecap="round" stroke-linejoin="round" stroke-miterlimit="10" stroke-opacity="1" fill="none" fill-rule="evenodd"/></g><g clip-path="url(#clip36)"><path d="M2718 2966.5C2718 2971.19 2714.19 2975 2709.5 2975 2704.81 2975 2701 2971.19 2701 2966.5 2701 2961.81 2704.81 2958 2709.5 2958 2714.19 2958 2718 2961.81 2718 2966.5Z" stroke="#9D47C4" stroke-width="3.4375" stroke-linecap="butt" stroke-linejoin="round" stroke-miterlimit="10" stroke-opacity="1" fill="#9D47C4" fill-rule="evenodd" fill-opacity="1"/></g><g clip-path="url(#clip37)"><text fill="#595959" fill-opacity="1" font-family="Calibri,Calibri_MSFontService,sans-serif" font-style="normal" font-variant="normal" font-weight="400" font-stretch="normal" font-size="37" text-anchor="start" direction="ltr" writing-mode="lr-tb" unicode-bidi="normal" text-decoration="none" transform="matrix(1 0 0 1 2764.25 2976)">1%</text></g><g clip-path="url(#clip38)"><path d="M2666.5 3007.5 2754.5 3007.5" stroke="#C00000" stroke-width="6.875" stroke-linecap="round" stroke-linejoin="round" stroke-miterlimit="10" stroke-opacity="1" fill="none" fill-rule="evenodd"/></g><g clip-path="url(#clip39)"><path d="M2718 3006.5C2718 3011.19 2714.19 3015 2709.5 3015 2704.81 3015 2701 3011.19 2701 3006.5 2701 3001.81 2704.81 2998 2709.5 2998 2714.19 2998 2718 3001.81 2718 3006.5Z" stroke="#ED7D31" stroke-width="3.4375" stroke-linecap="butt" stroke-linejoin="round" stroke-miterlimit="10" stroke-opacity="1" fill="#ED7D31" fill-rule="evenodd" fill-opacity="1"/></g><g clip-path="url(#clip40)"><text fill="#595959" fill-opacity="1" font-family="Calibri,Calibri_MSFontService,sans-serif" font-style="normal" font-variant="normal" font-weight="400" font-stretch="normal" font-size="37" text-anchor="start" direction="ltr" writing-mode="lr-tb" unicode-bidi="normal" text-decoration="none" transform="matrix(1 0 0 1 2764.25 3016)">10%</text></g><g clip-path="url(#clip41)"><path d="M2666.5 3046.5 2754.5 3046.5" stroke="#FFC000" stroke-width="6.875" stroke-linecap="round" stroke-linejoin="round" stroke-miterlimit="10" stroke-opacity="1" fill="none" fill-rule="evenodd"/></g><g clip-path="url(#clip42)"><path d="M2718 3046C2718 3050.43 2714.19 3054.03 2709.5 3054.03 2704.81 3054.03 2701 3050.43 2701 3046 2701 3041.57 2704.81 3037.97 2709.5 3037.97 2714.19 3037.97 2718 3041.57 2718 3046Z" stroke="#FFC000" stroke-width="3.4375" stroke-linecap="butt" stroke-linejoin="round" stroke-miterlimit="10" stroke-opacity="1" fill="#FFC000" fill-rule="evenodd" fill-opacity="1"/></g><g clip-path="url(#clip43)"><text fill="#595959" fill-opacity="1" font-family="Calibri,Calibri_MSFontService,sans-serif" font-style="normal" font-variant="normal" font-weight="400" font-stretch="normal" font-size="37" text-anchor="start" direction="ltr" writing-mode="lr-tb" unicode-bidi="normal" text-decoration="none" transform="matrix(1 0 0 1 2764.25 3056)">25%</text></g><g clip-path="url(#clip44)"><path d="M2666.5 3086.5 2754.5 3086.5" stroke="#70AD47" stroke-width="6.875" stroke-linecap="round" stroke-linejoin="round" stroke-miterlimit="10" stroke-opacity="1" fill="none" fill-rule="evenodd"/></g><g clip-path="url(#clip45)"><path d="M2718 3085.5C2718 3090.19 2714.19 3094 2709.5 3094 2704.81 3094 2701 3090.19 2701 3085.5 2701 3080.81 2704.81 3077 2709.5 3077 2714.19 3077 2718 3080.81 2718 3085.5Z" stroke="#70AD47" stroke-width="3.4375" stroke-linecap="butt" stroke-linejoin="round" stroke-miterlimit="10" stroke-opacity="1" fill="#70AD47" fill-rule="evenodd" fill-opacity="1"/></g><g clip-path="url(#clip46)"><text fill="#595959" fill-opacity="1" font-family="Calibri,Calibri_MSFontService,sans-serif" font-style="normal" font-variant="normal" font-weight="400" font-stretch="normal" font-size="37" text-anchor="start" direction="ltr" writing-mode="lr-tb" unicode-bidi="normal" text-decoration="none" transform="matrix(1 0 0 1 2764.25 3095)">100%</text></g><g clip-path="url(#clip47)"><text fill="#595959" fill-opacity="1" font-family="Calibri,Calibri_MSFontService,sans-serif" font-style="normal" font-variant="normal" font-weight="400" font-stretch="normal" font-size="44" text-anchor="start" direction="ltr" writing-mode="lr-tb" unicode-bidi="normal" text-decoration="none" transform="matrix(-1.83697e-16 -1 1 -1.83697e-16 1844.48 3512)">Latency per transaction (ms)</text></g></g></svg>