<svg width="1343" height="815" xmlns="http://www.w3.org/2000/svg" xmlns:xlink="http://www.w3.org/1999/xlink" overflow="hidden"><defs><clipPath id="clip0"><rect x="1792" y="1902" width="1343" height="815"/></clipPath><clipPath id="clip1"><rect x="1798" y="1905" width="1335" height="811"/></clipPath><clipPath id="clip2"><rect x="1798" y="1905" width="1335" height="811"/></clipPath><clipPath id="clip3"><rect x="1798" y="1905" width="1335" height="811"/></clipPath><clipPath id="clip4"><rect x="1798" y="1905" width="1335" height="811"/></clipPath><clipPath id="clip5"><rect x="1958" y="1930" width="1078" height="653"/></clipPath><clipPath id="clip6"><rect x="1798" y="1905" width="1335" height="811"/></clipPath><clipPath id="clip7"><rect x="1958" y="1930" width="1078" height="653"/></clipPath><clipPath id="clip8"><rect x="1798" y="1905" width="1335" height="811"/></clipPath><clipPath id="clip9"><rect x="1958" y="1930" width="1078" height="653"/></clipPath><clipPath id="clip10"><rect x="1798" y="1905" width="1335" height="811"/></clipPath><clipPath id="clip11"><rect x="1958" y="1930" width="1078" height="653"/></clipPath><clipPath id="clip12"><rect x="1798" y="1905" width="1335" height="811"/></clipPath><clipPath id="clip13"><rect x="1798" y="1905" width="1335" height="811"/></clipPath><clipPath id="clip14"><rect x="1798" y="1905" width="1335" height="811"/></clipPath><clipPath id="clip15"><rect x="1798" y="1905" width="1335" height="811"/></clipPath><clipPath id="clip16"><rect x="1798" y="1905" width="1335" height="811"/></clipPath><clipPath id="clip17"><rect x="1798" y="1905" width="1335" height="811"/></clipPath><clipPath id="clip18"><rect x="1798" y="1905" width="1335" height="811"/></clipPath><clipPath id="clip19"><rect x="1798" y="1905" width="1335" height="811"/></clipPath><clipPath id="clip20"><rect x="1798" y="1905" width="1335" height="811"/></clipPath><clipPath id="clip21"><rect x="1798" y="1905" width="1335" height="811"/></clipPath><clipPath id="clip22"><rect x="1798" y="1905" width="1335" height="811"/></clipPath><clipPath id="clip23"><rect x="1798" y="1905" width="1335" height="811"/></clipPath><clipPath id="clip24"><rect x="1798" y="1905" width="1335" height="811"/></clipPath><clipPath id="clip25"><rect x="1798" y="1905" width="1335" height="811"/></clipPath><clipPath id="clip26"><rect x="1798" y="1905" width="1335" height="811"/></clipPath><clipPath id="clip27"><rect x="1798" y="1905" width="1335" height="811"/></clipPath><clipPath id="clip28"><rect x="1798" y="1905" width="1335" height="811"/></clipPath><clipPath id="clip29"><rect x="1798" y="1905" width="1335" height="811"/></clipPath><clipPath id="clip30"><rect x="1798" y="1905" width="1335" height="811"/></clipPath><clipPath id="clip31"><rect x="1798" y="1905" width="1335" height="811"/></clipPath><clipPath id="clip32"><rect x="1798" y="1905" width="1335" height="811"/></clipPath><clipPath id="clip33"><rect x="1798" y="1905" width="1335" height="811"/></clipPath><clipPath id="clip34"><rect x="1798" y="1905" width="1335" height="811"/></clipPath><clipPath id="clip35"><rect x="1798" y="1905" width="1335" height="811"/></clipPath><clipPath id="clip36"><rect x="1798" y="1905" width="1335" height="811"/></clipPath><clipPath id="clip37"><rect x="1798" y="1905" width="1335" height="811"/></clipPath><clipPath id="clip38"><rect x="1798" y="1905" width="1335" height="811"/></clipPath><clipPath id="clip39"><rect x="1798" y="1905" width="1335" height="811"/></clipPath><clipPath id="clip40"><rect x="1798" y="1905" width="1335" height="811"/></clipPath><clipPath id="clip41"><rect x="1794" y="1909" width="95" height="803"/></clipPath></defs><g clip-path="url(#clip0)" transform="translate(-1792 -1902)"><rect x="1798" y="1905" width="1336" height="812" fill="#FFFFFF" fill-opacity="1"/><g clip-path="url(#clip1)"><path d="M1958.5 2498.58 3033.5 2498.58M1958.5 2417.58 3033.5 2417.58M1958.5 2336.58 3033.5 2336.58M1958.5 2254.57 3033.5 2254.57M1958.5 2173.57 3033.5 2173.57M1958.5 2092.57 3033.5 2092.57M1958.5 2011.57 3033.5 2011.57M1958.5 1930.5 3033.5 1930.5" stroke="#D9D9D9" stroke-width="3.4375" stroke-linecap="butt" stroke-linejoin="round" stroke-miterlimit="10" stroke-opacity="1" fill="none" fill-rule="evenodd"/></g><g clip-path="url(#clip2)"><path d="M2227.57 1930.5 2227.57 2579.5M2495.58 1930.5 2495.58 2579.5M2764.59 1930.5 2764.59 2579.5M3033.5 1930.5 3033.5 2579.5" stroke="#D9D9D9" stroke-width="3.4375" stroke-linecap="butt" stroke-linejoin="round" stroke-miterlimit="10" stroke-opacity="1" fill="none" fill-rule="evenodd"/></g><g clip-path="url(#clip3)"><path d="M0 0 0.000360892 649" stroke="#BFBFBF" stroke-width="3.4375" stroke-linecap="butt" stroke-linejoin="round" stroke-miterlimit="10" stroke-opacity="1" fill="none" fill-rule="evenodd" transform="matrix(1 0 0 -1 1958.5 2579.5)"/></g><g clip-path="url(#clip4)"><path d="M1958.5 2579.5 3033.5 2579.5" stroke="#BFBFBF" stroke-width="3.4375" stroke-linecap="butt" stroke-linejoin="round" stroke-miterlimit="10" stroke-opacity="1" fill="none" fill-rule="evenodd"/></g><g clip-path="url(#clip5)"><path d="M2161.5 2537.5 2338.58 2535.58 2474.58 2529.58 2580.58 2523.58 2655.59 2515.58 2702.59 2507.58 2730.59 2498.58 2747.59 2488.58 2782.59 2467.58 2808.59 2449.58 2821.5 2431.5" stroke="#4472C4" stroke-width="6.875" stroke-linecap="round" stroke-linejoin="round" stroke-miterlimit="10" stroke-opacity="1" fill="none" fill-rule="evenodd"/></g><g clip-path="url(#clip6)"><path d="M2172.92 2537.51C2172.92 2543.59 2167.99 2548.51 2161.92 2548.51 2155.84 2548.51 2150.92 2543.59 2150.92 2537.51 2150.92 2531.44 2155.84 2526.51 2161.92 2526.51 2167.99 2526.51 2172.92 2531.44 2172.92 2537.51Z" stroke="#4472C4" stroke-width="3.4375" stroke-linecap="butt" stroke-linejoin="round" stroke-miterlimit="10" stroke-opacity="1" fill="#4472C4" fill-rule="evenodd" fill-opacity="1"/><path d="M2349.92 2535.51C2349.92 2541.59 2344.99 2546.51 2338.92 2546.51 2332.84 2546.51 2327.92 2541.59 2327.92 2535.51 2327.92 2529.44 2332.84 2524.51 2338.92 2524.51 2344.99 2524.51 2349.92 2529.44 2349.92 2535.51Z" stroke="#4472C4" stroke-width="3.4375" stroke-linecap="butt" stroke-linejoin="round" stroke-miterlimit="10" stroke-opacity="1" fill="#4472C4" fill-rule="evenodd" fill-opacity="1"/><path d="M2486.92 2529.51C2486.92 2535.59 2481.99 2540.51 2475.92 2540.51 2469.84 2540.51 2464.92 2535.59 2464.92 2529.51 2464.92 2523.44 2469.84 2518.51 2475.92 2518.51 2481.99 2518.51 2486.92 2523.44 2486.92 2529.51Z" stroke="#4472C4" stroke-width="3.4375" stroke-linecap="butt" stroke-linejoin="round" stroke-miterlimit="10" stroke-opacity="1" fill="#4472C4" fill-rule="evenodd" fill-opacity="1"/><path d="M2591.92 2523.51C2591.92 2529.59 2586.99 2534.51 2580.92 2534.51 2574.84 2534.51 2569.92 2529.59 2569.92 2523.51 2569.92 2517.44 2574.84 2512.51 2580.92 2512.51 2586.99 2512.51 2591.92 2517.44 2591.92 2523.51Z" stroke="#4472C4" stroke-width="3.4375" stroke-linecap="butt" stroke-linejoin="round" stroke-miterlimit="10" stroke-opacity="1" fill="#4472C4" fill-rule="evenodd" fill-opacity="1"/><path d="M2666.92 2515.51C2666.92 2521.59 2661.99 2526.51 2655.92 2526.51 2649.84 2526.51 2644.92 2521.59 2644.92 2515.51 2644.92 2509.44 2649.84 2504.51 2655.92 2504.51 2661.99 2504.51 2666.92 2509.44 2666.92 2515.51Z" stroke="#4472C4" stroke-width="3.4375" stroke-linecap="butt" stroke-linejoin="round" stroke-miterlimit="10" stroke-opacity="1" fill="#4472C4" fill-rule="evenodd" fill-opacity="1"/><path d="M2713.92 2507.51C2713.92 2513.59 2708.99 2518.51 2702.92 2518.51 2696.84 2518.51 2691.92 2513.59 2691.92 2507.51 2691.92 2501.44 2696.84 2496.51 2702.92 2496.51 2708.99 2496.51 2713.92 2501.44 2713.92 2507.51Z" stroke="#4472C4" stroke-width="3.4375" stroke-linecap="butt" stroke-linejoin="round" stroke-miterlimit="10" stroke-opacity="1" fill="#4472C4" fill-rule="evenodd" fill-opacity="1"/><path d="M2741.92 2498.51C2741.92 2504.59 2736.99 2509.51 2730.92 2509.51 2724.84 2509.51 2719.92 2504.59 2719.92 2498.51 2719.92 2492.44 2724.84 2487.51 2730.92 2487.51 2736.99 2487.51 2741.92 2492.44 2741.92 2498.51Z" stroke="#4472C4" stroke-width="3.4375" stroke-linecap="butt" stroke-linejoin="round" stroke-miterlimit="10" stroke-opacity="1" fill="#4472C4" fill-rule="evenodd" fill-opacity="1"/><path d="M2758.92 2488.51C2758.92 2494.59 2753.99 2499.51 2747.92 2499.51 2741.84 2499.51 2736.92 2494.59 2736.92 2488.51 2736.92 2482.44 2741.84 2477.51 2747.92 2477.51 2753.99 2477.51 2758.92 2482.44 2758.92 2488.51Z" stroke="#4472C4" stroke-width="3.4375" stroke-linecap="butt" stroke-linejoin="round" stroke-miterlimit="10" stroke-opacity="1" fill="#4472C4" fill-rule="evenodd" fill-opacity="1"/><path d="M2793.92 2467.51C2793.92 2473.59 2788.99 2478.51 2782.92 2478.51 2776.84 2478.51 2771.92 2473.59 2771.92 2467.51 2771.92 2461.44 2776.84 2456.51 2782.92 2456.51 2788.99 2456.51 2793.92 2461.44 2793.92 2467.51Z" stroke="#4472C4" stroke-width="3.4375" stroke-linecap="butt" stroke-linejoin="round" stroke-miterlimit="10" stroke-opacity="1" fill="#4472C4" fill-rule="evenodd" fill-opacity="1"/><path d="M2819.92 2449.51C2819.92 2455.59 2814.99 2460.51 2808.92 2460.51 2802.84 2460.51 2797.92 2455.59 2797.92 2449.51 2797.92 2443.44 2802.84 2438.51 2808.92 2438.51 2814.99 2438.51 2819.92 2443.44 2819.92 2449.51Z" stroke="#4472C4" stroke-width="3.4375" stroke-linecap="butt" stroke-linejoin="round" stroke-miterlimit="10" stroke-opacity="1" fill="#4472C4" fill-rule="evenodd" fill-opacity="1"/><path d="M2832.92 2431.51C2832.92 2437.59 2827.99 2442.51 2821.92 2442.51 2815.84 2442.51 2810.92 2437.59 2810.92 2431.51 2810.92 2425.44 2815.84 2420.51 2821.92 2420.51 2827.99 2420.51 2832.92 2425.44 2832.92 2431.51Z" stroke="#4472C4" stroke-width="3.4375" stroke-linecap="butt" stroke-linejoin="round" stroke-miterlimit="10" stroke-opacity="1" fill="#4472C4" fill-rule="evenodd" fill-opacity="1"/></g><g clip-path="url(#clip7)"><path d="M2163.5 2537.5 2329.58 2529.58 2449.58 2520.58 2534.58 2507.58 2593.59 2492.58 2643.59 2476.58 2678.59 2454.58 2704.59 2414.58 2729.5 2317.58 2727.59 2006.5" stroke="#ED7D31" stroke-width="6.875" stroke-linecap="round" stroke-linejoin="round" stroke-miterlimit="10" stroke-opacity="1" fill="none" fill-rule="evenodd"/></g><g clip-path="url(#clip8)"><path d="M2174.92 2537.51C2174.92 2543.59 2169.99 2548.51 2163.92 2548.51 2157.84 2548.51 2152.92 2543.59 2152.92 2537.51 2152.92 2531.44 2157.84 2526.51 2163.92 2526.51 2169.99 2526.51 2174.92 2531.44 2174.92 2537.51Z" stroke="#ED7D31" stroke-width="3.4375" stroke-linecap="butt" stroke-linejoin="round" stroke-miterlimit="10" stroke-opacity="1" fill="#ED7D31" fill-rule="evenodd" fill-opacity="1"/><path d="M2340.92 2529.51C2340.92 2535.59 2335.99 2540.51 2329.92 2540.51 2323.84 2540.51 2318.92 2535.59 2318.92 2529.51 2318.92 2523.44 2323.84 2518.51 2329.92 2518.51 2335.99 2518.51 2340.92 2523.44 2340.92 2529.51Z" stroke="#ED7D31" stroke-width="3.4375" stroke-linecap="butt" stroke-linejoin="round" stroke-miterlimit="10" stroke-opacity="1" fill="#ED7D31" fill-rule="evenodd" fill-opacity="1"/><path d="M2460.92 2520.51C2460.92 2526.59 2455.99 2531.51 2449.92 2531.51 2443.84 2531.51 2438.92 2526.59 2438.92 2520.51 2438.92 2514.44 2443.84 2509.51 2449.92 2509.51 2455.99 2509.51 2460.92 2514.44 2460.92 2520.51Z" stroke="#ED7D31" stroke-width="3.4375" stroke-linecap="butt" stroke-linejoin="round" stroke-miterlimit="10" stroke-opacity="1" fill="#ED7D31" fill-rule="evenodd" fill-opacity="1"/><path d="M2545.92 2507.51C2545.92 2513.59 2540.99 2518.51 2534.92 2518.51 2528.84 2518.51 2523.92 2513.59 2523.92 2507.51 2523.92 2501.44 2528.84 2496.51 2534.92 2496.51 2540.99 2496.51 2545.92 2501.44 2545.92 2507.51Z" stroke="#ED7D31" stroke-width="3.4375" stroke-linecap="butt" stroke-linejoin="round" stroke-miterlimit="10" stroke-opacity="1" fill="#ED7D31" fill-rule="evenodd" fill-opacity="1"/><path d="M2604.92 2492.51C2604.92 2498.59 2599.99 2503.51 2593.92 2503.51 2587.84 2503.51 2582.92 2498.59 2582.92 2492.51 2582.92 2486.44 2587.84 2481.51 2593.92 2481.51 2599.99 2481.51 2604.92 2486.44 2604.92 2492.51Z" stroke="#ED7D31" stroke-width="3.4375" stroke-linecap="butt" stroke-linejoin="round" stroke-miterlimit="10" stroke-opacity="1" fill="#ED7D31" fill-rule="evenodd" fill-opacity="1"/><path d="M2654.92 2476.51C2654.92 2482.59 2649.99 2487.51 2643.92 2487.51 2637.84 2487.51 2632.92 2482.59 2632.92 2476.51 2632.92 2470.44 2637.84 2465.51 2643.92 2465.51 2649.99 2465.51 2654.92 2470.44 2654.92 2476.51Z" stroke="#ED7D31" stroke-width="3.4375" stroke-linecap="butt" stroke-linejoin="round" stroke-miterlimit="10" stroke-opacity="1" fill="#ED7D31" fill-rule="evenodd" fill-opacity="1"/><path d="M2689.92 2454.51C2689.92 2460.59 2684.99 2465.51 2678.92 2465.51 2672.84 2465.51 2667.92 2460.59 2667.92 2454.51 2667.92 2448.44 2672.84 2443.51 2678.92 2443.51 2684.99 2443.51 2689.92 2448.44 2689.92 2454.51Z" stroke="#ED7D31" stroke-width="3.4375" stroke-linecap="butt" stroke-linejoin="round" stroke-miterlimit="10" stroke-opacity="1" fill="#ED7D31" fill-rule="evenodd" fill-opacity="1"/><path d="M2715.92 2414.51C2715.92 2420.59 2710.99 2425.51 2704.92 2425.51 2698.84 2425.51 2693.92 2420.59 2693.92 2414.51 2693.92 2408.44 2698.84 2403.51 2704.92 2403.51 2710.99 2403.51 2715.92 2408.44 2715.92 2414.51Z" stroke="#ED7D31" stroke-width="3.4375" stroke-linecap="butt" stroke-linejoin="round" stroke-miterlimit="10" stroke-opacity="1" fill="#ED7D31" fill-rule="evenodd" fill-opacity="1"/><path d="M2740.92 2317.51C2740.92 2323.59 2735.99 2328.51 2729.92 2328.51 2723.84 2328.51 2718.92 2323.59 2718.92 2317.51 2718.92 2311.44 2723.84 2306.51 2729.92 2306.51 2735.99 2306.51 2740.92 2311.44 2740.92 2317.51Z" stroke="#ED7D31" stroke-width="3.4375" stroke-linecap="butt" stroke-linejoin="round" stroke-miterlimit="10" stroke-opacity="1" fill="#ED7D31" fill-rule="evenodd" fill-opacity="1"/><path d="M2738.92 2006.51C2738.92 2012.59 2733.99 2017.51 2727.92 2017.51 2721.84 2017.51 2716.92 2012.59 2716.92 2006.51 2716.92 2000.44 2721.84 1995.51 2727.92 1995.51 2733.99 1995.51 2738.92 2000.44 2738.92 2006.51Z" stroke="#ED7D31" stroke-width="3.4375" stroke-linecap="butt" stroke-linejoin="round" stroke-miterlimit="10" stroke-opacity="1" fill="#ED7D31" fill-rule="evenodd" fill-opacity="1"/></g><g clip-path="url(#clip9)"><path d="M2017.5 2537.58 2071.57 2538.5 2171.57 2533.58 2262.57 2525.58 2334.58 2514.58 2387.58 2497.58 2422.58 2468.58 2435.5 2448.58 2429.58 2407.58 2423.58 2316.58 2419.58 2233.5" stroke="#A5A5A5" stroke-width="6.875" stroke-linecap="round" stroke-linejoin="round" stroke-miterlimit="10" stroke-opacity="1" fill="none" fill-rule="evenodd"/></g><g clip-path="url(#clip10)"><path d="M2028.92 2537.51C2028.92 2543.59 2023.99 2548.51 2017.92 2548.51 2011.84 2548.51 2006.92 2543.59 2006.92 2537.51 2006.92 2531.44 2011.84 2526.51 2017.92 2526.51 2023.99 2526.51 2028.92 2531.44 2028.92 2537.51Z" stroke="#A5A5A5" stroke-width="3.4375" stroke-linecap="butt" stroke-linejoin="round" stroke-miterlimit="10" stroke-opacity="1" fill="#A5A5A5" fill-rule="evenodd" fill-opacity="1"/><path d="M2082.92 2538.51C2082.92 2544.59 2077.99 2549.51 2071.92 2549.51 2065.84 2549.51 2060.92 2544.59 2060.92 2538.51 2060.92 2532.44 2065.84 2527.51 2071.92 2527.51 2077.99 2527.51 2082.92 2532.44 2082.92 2538.51Z" stroke="#A5A5A5" stroke-width="3.4375" stroke-linecap="butt" stroke-linejoin="round" stroke-miterlimit="10" stroke-opacity="1" fill="#A5A5A5" fill-rule="evenodd" fill-opacity="1"/><path d="M2182.92 2533.51C2182.92 2539.59 2177.99 2544.51 2171.92 2544.51 2165.84 2544.51 2160.92 2539.59 2160.92 2533.51 2160.92 2527.44 2165.84 2522.51 2171.92 2522.51 2177.99 2522.51 2182.92 2527.44 2182.92 2533.51Z" stroke="#A5A5A5" stroke-width="3.4375" stroke-linecap="butt" stroke-linejoin="round" stroke-miterlimit="10" stroke-opacity="1" fill="#A5A5A5" fill-rule="evenodd" fill-opacity="1"/><path d="M2273.92 2525.51C2273.92 2531.59 2268.99 2536.51 2262.92 2536.51 2256.84 2536.51 2251.92 2531.59 2251.92 2525.51 2251.92 2519.44 2256.84 2514.51 2262.92 2514.51 2268.99 2514.51 2273.92 2519.44 2273.92 2525.51Z" stroke="#A5A5A5" stroke-width="3.4375" stroke-linecap="butt" stroke-linejoin="round" stroke-miterlimit="10" stroke-opacity="1" fill="#A5A5A5" fill-rule="evenodd" fill-opacity="1"/><path d="M2345.92 2515.51C2345.92 2521.59 2340.99 2526.51 2334.92 2526.51 2328.84 2526.51 2323.92 2521.59 2323.92 2515.51 2323.92 2509.44 2328.84 2504.51 2334.92 2504.51 2340.99 2504.51 2345.92 2509.44 2345.92 2515.51Z" stroke="#A5A5A5" stroke-width="3.4375" stroke-linecap="butt" stroke-linejoin="round" stroke-miterlimit="10" stroke-opacity="1" fill="#A5A5A5" fill-rule="evenodd" fill-opacity="1"/><path d="M2398.92 2497.51C2398.92 2503.59 2393.99 2508.51 2387.92 2508.51 2381.84 2508.51 2376.92 2503.59 2376.92 2497.51 2376.92 2491.44 2381.84 2486.51 2387.92 2486.51 2393.99 2486.51 2398.92 2491.44 2398.92 2497.51Z" stroke="#A5A5A5" stroke-width="3.4375" stroke-linecap="butt" stroke-linejoin="round" stroke-miterlimit="10" stroke-opacity="1" fill="#A5A5A5" fill-rule="evenodd" fill-opacity="1"/><path d="M2433.92 2468.51C2433.92 2474.59 2428.99 2479.51 2422.92 2479.51 2416.84 2479.51 2411.92 2474.59 2411.92 2468.51 2411.92 2462.44 2416.84 2457.51 2422.92 2457.51 2428.99 2457.51 2433.92 2462.44 2433.92 2468.51Z" stroke="#A5A5A5" stroke-width="3.4375" stroke-linecap="butt" stroke-linejoin="round" stroke-miterlimit="10" stroke-opacity="1" fill="#A5A5A5" fill-rule="evenodd" fill-opacity="1"/><path d="M2446.92 2448.51C2446.92 2454.59 2441.99 2459.51 2435.92 2459.51 2429.84 2459.51 2424.92 2454.59 2424.92 2448.51 2424.92 2442.44 2429.84 2437.51 2435.92 2437.51 2441.99 2437.51 2446.92 2442.44 2446.92 2448.51Z" stroke="#A5A5A5" stroke-width="3.4375" stroke-linecap="butt" stroke-linejoin="round" stroke-miterlimit="10" stroke-opacity="1" fill="#A5A5A5" fill-rule="evenodd" fill-opacity="1"/><path d="M2440.92 2407.51C2440.92 2413.59 2435.99 2418.51 2429.92 2418.51 2423.84 2418.51 2418.92 2413.59 2418.92 2407.51 2418.92 2401.44 2423.84 2396.51 2429.92 2396.51 2435.99 2396.51 2440.92 2401.44 2440.92 2407.51Z" stroke="#A5A5A5" stroke-width="3.4375" stroke-linecap="butt" stroke-linejoin="round" stroke-miterlimit="10" stroke-opacity="1" fill="#A5A5A5" fill-rule="evenodd" fill-opacity="1"/><path d="M2434.92 2316.51C2434.92 2322.59 2429.99 2327.51 2423.92 2327.51 2417.84 2327.51 2412.92 2322.59 2412.92 2316.51 2412.92 2310.44 2417.84 2305.51 2423.92 2305.51 2429.99 2305.51 2434.92 2310.44 2434.92 2316.51Z" stroke="#A5A5A5" stroke-width="3.4375" stroke-linecap="butt" stroke-linejoin="round" stroke-miterlimit="10" stroke-opacity="1" fill="#A5A5A5" fill-rule="evenodd" fill-opacity="1"/><path d="M2430.92 2233.51C2430.92 2239.59 2425.99 2244.51 2419.92 2244.51 2413.84 2244.51 2408.92 2239.59 2408.92 2233.51 2408.92 2227.44 2413.84 2222.51 2419.92 2222.51 2425.99 2222.51 2430.92 2227.44 2430.92 2233.51Z" stroke="#A5A5A5" stroke-width="3.4375" stroke-linecap="butt" stroke-linejoin="round" stroke-miterlimit="10" stroke-opacity="1" fill="#A5A5A5" fill-rule="evenodd" fill-opacity="1"/></g><g clip-path="url(#clip11)"><path d="M2022.5 2537.5 2079.57 2535.58 2118.57 2528.58 2148.57 2522.58 2160.5 2512.58 2147.57 2493.58 2151.57 2481.58 2146.57 2464.5" stroke="#70AD47" stroke-width="6.875" stroke-linecap="round" stroke-linejoin="round" stroke-miterlimit="10" stroke-opacity="1" fill="none" fill-rule="evenodd"/></g><g clip-path="url(#clip12)"><path d="M2033.92 2537.51C2033.92 2543.59 2028.99 2548.51 2022.92 2548.51 2016.84 2548.51 2011.92 2543.59 2011.92 2537.51 2011.92 2531.44 2016.84 2526.51 2022.92 2526.51 2028.99 2526.51 2033.92 2531.44 2033.92 2537.51Z" stroke="#70AD47" stroke-width="3.4375" stroke-linecap="butt" stroke-linejoin="round" stroke-miterlimit="10" stroke-opacity="1" fill="#70AD47" fill-rule="evenodd" fill-opacity="1"/><path d="M2090.92 2535.51C2090.92 2541.59 2085.99 2546.51 2079.92 2546.51 2073.84 2546.51 2068.92 2541.59 2068.92 2535.51 2068.92 2529.44 2073.84 2524.51 2079.92 2524.51 2085.99 2524.51 2090.92 2529.44 2090.92 2535.51Z" stroke="#70AD47" stroke-width="3.4375" stroke-linecap="butt" stroke-linejoin="round" stroke-miterlimit="10" stroke-opacity="1" fill="#70AD47" fill-rule="evenodd" fill-opacity="1"/><path d="M2129.92 2528.51C2129.92 2534.59 2124.99 2539.51 2118.92 2539.51 2112.84 2539.51 2107.92 2534.59 2107.92 2528.51 2107.92 2522.44 2112.84 2517.51 2118.92 2517.51 2124.99 2517.51 2129.92 2522.44 2129.92 2528.51Z" stroke="#70AD47" stroke-width="3.4375" stroke-linecap="butt" stroke-linejoin="round" stroke-miterlimit="10" stroke-opacity="1" fill="#70AD47" fill-rule="evenodd" fill-opacity="1"/><path d="M2160.92 2522.51C2160.92 2528.59 2155.99 2533.51 2149.92 2533.51 2143.84 2533.51 2138.92 2528.59 2138.92 2522.51 2138.92 2516.44 2143.84 2511.51 2149.92 2511.51 2155.99 2511.51 2160.92 2516.44 2160.92 2522.51Z" stroke="#70AD47" stroke-width="3.4375" stroke-linecap="butt" stroke-linejoin="round" stroke-miterlimit="10" stroke-opacity="1" fill="#70AD47" fill-rule="evenodd" fill-opacity="1"/><path d="M2171.92 2512.51C2171.92 2518.59 2166.99 2523.51 2160.92 2523.51 2154.84 2523.51 2149.92 2518.59 2149.92 2512.51 2149.92 2506.44 2154.84 2501.51 2160.92 2501.51 2166.99 2501.51 2171.92 2506.44 2171.92 2512.51Z" stroke="#70AD47" stroke-width="3.4375" stroke-linecap="butt" stroke-linejoin="round" stroke-miterlimit="10" stroke-opacity="1" fill="#70AD47" fill-rule="evenodd" fill-opacity="1"/><path d="M2158.92 2493.51C2158.92 2499.59 2153.99 2504.51 2147.92 2504.51 2141.84 2504.51 2136.92 2499.59 2136.92 2493.51 2136.92 2487.44 2141.84 2482.51 2147.92 2482.51 2153.99 2482.51 2158.92 2487.44 2158.92 2493.51Z" stroke="#70AD47" stroke-width="3.4375" stroke-linecap="butt" stroke-linejoin="round" stroke-miterlimit="10" stroke-opacity="1" fill="#70AD47" fill-rule="evenodd" fill-opacity="1"/><path d="M2162.92 2481.51C2162.92 2487.59 2157.99 2492.51 2151.92 2492.51 2145.84 2492.51 2140.92 2487.59 2140.92 2481.51 2140.92 2475.44 2145.84 2470.51 2151.92 2470.51 2157.99 2470.51 2162.92 2475.44 2162.92 2481.51Z" stroke="#70AD47" stroke-width="3.4375" stroke-linecap="butt" stroke-linejoin="round" stroke-miterlimit="10" stroke-opacity="1" fill="#70AD47" fill-rule="evenodd" fill-opacity="1"/><path d="M2157.92 2464.51C2157.92 2470.59 2152.99 2475.51 2146.92 2475.51 2140.84 2475.51 2135.92 2470.59 2135.92 2464.51 2135.92 2458.44 2140.84 2453.51 2146.92 2453.51 2152.99 2453.51 2157.92 2458.44 2157.92 2464.51Z" stroke="#70AD47" stroke-width="3.4375" stroke-linecap="butt" stroke-linejoin="round" stroke-miterlimit="10" stroke-opacity="1" fill="#70AD47" fill-rule="evenodd" fill-opacity="1"/></g><g clip-path="url(#clip13)"><text fill="#595959" fill-opacity="1" font-family="Calibri,Calibri_MSFontService,sans-serif" font-style="normal" font-variant="normal" font-weight="400" font-stretch="normal" font-size="41" text-anchor="start" direction="ltr" writing-mode="lr-tb" unicode-bidi="normal" text-decoration="none" transform="matrix(1 0 0 1 1899.74 2590)">0</text></g><g clip-path="url(#clip14)"><text fill="#595959" fill-opacity="1" font-family="Calibri,Calibri_MSFontService,sans-serif" font-style="normal" font-variant="normal" font-weight="400" font-stretch="normal" font-size="41" text-anchor="start" direction="ltr" writing-mode="lr-tb" unicode-bidi="normal" text-decoration="none" transform="matrix(1 0 0 1 1899.74 2509)">1</text></g><g clip-path="url(#clip15)"><text fill="#595959" fill-opacity="1" font-family="Calibri,Calibri_MSFontService,sans-serif" font-style="normal" font-variant="normal" font-weight="400" font-stretch="normal" font-size="41" text-anchor="start" direction="ltr" writing-mode="lr-tb" unicode-bidi="normal" text-decoration="none" transform="matrix(1 0 0 1 1899.74 2427)">2</text></g><g clip-path="url(#clip16)"><text fill="#595959" fill-opacity="1" font-family="Calibri,Calibri_MSFontService,sans-serif" font-style="normal" font-variant="normal" font-weight="400" font-stretch="normal" font-size="41" text-anchor="start" direction="ltr" writing-mode="lr-tb" unicode-bidi="normal" text-decoration="none" transform="matrix(1 0 0 1 1899.74 2346)">3</text></g><g clip-path="url(#clip17)"><text fill="#595959" fill-opacity="1" font-family="Calibri,Calibri_MSFontService,sans-serif" font-style="normal" font-variant="normal" font-weight="400" font-stretch="normal" font-size="41" text-anchor="start" direction="ltr" writing-mode="lr-tb" unicode-bidi="normal" text-decoration="none" transform="matrix(1 0 0 1 1899.74 2265)">4</text></g><g clip-path="url(#clip18)"><text fill="#595959" fill-opacity="1" font-family="Calibri,Calibri_MSFontService,sans-serif" font-style="normal" font-variant="normal" font-weight="400" font-stretch="normal" font-size="41" text-anchor="start" direction="ltr" writing-mode="lr-tb" unicode-bidi="normal" text-decoration="none" transform="matrix(1 0 0 1 1899.74 2184)">5</text></g><g clip-path="url(#clip19)"><text fill="#595959" fill-opacity="1" font-family="Calibri,Calibri_MSFontService,sans-serif" font-style="normal" font-variant="normal" font-weight="400" font-stretch="normal" font-size="41" text-anchor="start" direction="ltr" writing-mode="lr-tb" unicode-bidi="normal" text-decoration="none" transform="matrix(1 0 0 1 1899.74 2103)">6</text></g><g clip-path="url(#clip20)"><text fill="#595959" fill-opacity="1" font-family="Calibri,Calibri_MSFontService,sans-serif" font-style="normal" font-variant="normal" font-weight="400" font-stretch="normal" font-size="41" text-anchor="start" direction="ltr" writing-mode="lr-tb" unicode-bidi="normal" text-decoration="none" transform="matrix(1 0 0 1 1899.74 2022)">7</text></g><g clip-path="url(#clip21)"><text fill="#595959" fill-opacity="1" font-family="Calibri,Calibri_MSFontService,sans-serif" font-style="normal" font-variant="normal" font-weight="400" font-stretch="normal" font-size="41" text-anchor="start" direction="ltr" writing-mode="lr-tb" unicode-bidi="normal" text-decoration="none" transform="matrix(1 0 0 1 1899.74 1940)">8</text></g><g clip-path="url(#clip22)"><text fill="#595959" fill-opacity="1" font-family="Calibri,Calibri_MSFontService,sans-serif" font-style="normal" font-variant="normal" font-weight="400" font-stretch="normal" font-size="41" text-anchor="start" direction="ltr" writing-mode="lr-tb" unicode-bidi="normal" text-decoration="none" transform="matrix(1 0 0 1 1948.46 2645)">0</text></g><g clip-path="url(#clip23)"><text fill="#595959" fill-opacity="1" font-family="Calibri,Calibri_MSFontService,sans-serif" font-style="normal" font-variant="normal" font-weight="400" font-stretch="normal" font-size="41" text-anchor="start" direction="ltr" writing-mode="lr-tb" unicode-bidi="normal" text-decoration="none" transform="matrix(1 0 0 1 2217.01 2645)">1</text></g><g clip-path="url(#clip24)"><text fill="#595959" fill-opacity="1" font-family="Calibri,Calibri_MSFontService,sans-serif" font-style="normal" font-variant="normal" font-weight="400" font-stretch="normal" font-size="41" text-anchor="start" direction="ltr" writing-mode="lr-tb" unicode-bidi="normal" text-decoration="none" transform="matrix(1 0 0 1 2485.57 2645)">2</text></g><g clip-path="url(#clip25)"><text fill="#595959" fill-opacity="1" font-family="Calibri,Calibri_MSFontService,sans-serif" font-style="normal" font-variant="normal" font-weight="400" font-stretch="normal" font-size="41" text-anchor="start" direction="ltr" writing-mode="lr-tb" unicode-bidi="normal" text-decoration="none" transform="matrix(1 0 0 1 2754.12 2645)">3</text></g><g clip-path="url(#clip26)"><text fill="#595959" fill-opacity="1" font-family="Calibri,Calibri_MSFontService,sans-serif" font-style="normal" font-variant="normal" font-weight="400" font-stretch="normal" font-size="41" text-anchor="start" direction="ltr" writing-mode="lr-tb" unicode-bidi="normal" text-decoration="none" transform="matrix(1 0 0 1 3022.68 2645)">4</text></g><g clip-path="url(#clip27)"><text fill="#595959" fill-opacity="1" font-family="Calibri,Calibri_MSFontService,sans-serif" font-style="normal" font-variant="normal" font-weight="400" font-stretch="normal" font-size="41" text-anchor="start" direction="ltr" writing-mode="lr-tb" unicode-bidi="normal" text-decoration="none" transform="matrix(1 0 0 1 2145.61 2698)">Millions Ops/s (query + updates)</text></g><g clip-path="url(#clip28)"><rect x="2767.5" y="1944.5" width="252" height="185" stroke="#000000" stroke-width="3.4375" stroke-linecap="butt" stroke-linejoin="round" stroke-miterlimit="10" stroke-opacity="1" fill="#FFFFFF" fill-opacity="1"/></g><g clip-path="url(#clip29)"><path d="M2799.5 1967.5 2887.5 1967.5" stroke="#4472C4" stroke-width="6.875" stroke-linecap="round" stroke-linejoin="round" stroke-miterlimit="10" stroke-opacity="1" fill="none" fill-rule="evenodd"/></g><g clip-path="url(#clip30)"><path d="M2854 1967C2854 1973.07 2849.07 1978 2843 1978 2836.93 1978 2832 1973.07 2832 1967 2832 1960.92 2836.93 1956 2843 1956 2849.07 1956 2854 1960.92 2854 1967Z" stroke="#4472C4" stroke-width="3.4375" stroke-linecap="butt" stroke-linejoin="round" stroke-miterlimit="10" stroke-opacity="1" fill="#4472C4" fill-rule="evenodd" fill-opacity="1"/></g><g clip-path="url(#clip31)"><text fill="#595959" fill-opacity="1" font-family="Calibri,Calibri_MSFontService,sans-serif" font-style="normal" font-variant="normal" font-weight="400" font-stretch="normal" font-size="41" text-anchor="start" direction="ltr" writing-mode="lr-tb" unicode-bidi="normal" text-decoration="none" transform="matrix(1 0 0 1 2897 1978)">1%</text></g><g clip-path="url(#clip32)"><path d="M2799.5 2014.5 2887.5 2014.5" stroke="#ED7D31" stroke-width="6.875" stroke-linecap="round" stroke-linejoin="round" stroke-miterlimit="10" stroke-opacity="1" fill="none" fill-rule="evenodd"/></g><g clip-path="url(#clip33)"><path d="M2854 2014C2854 2020.07 2849.07 2025 2843 2025 2836.93 2025 2832 2020.07 2832 2014 2832 2007.92 2836.93 2003 2843 2003 2849.07 2003 2854 2007.92 2854 2014Z" stroke="#ED7D31" stroke-width="3.4375" stroke-linecap="butt" stroke-linejoin="round" stroke-miterlimit="10" stroke-opacity="1" fill="#ED7D31" fill-rule="evenodd" fill-opacity="1"/></g><g clip-path="url(#clip34)"><text fill="#595959" fill-opacity="1" font-family="Calibri,Calibri_MSFontService,sans-serif" font-style="normal" font-variant="normal" font-weight="400" font-stretch="normal" font-size="41" text-anchor="start" direction="ltr" writing-mode="lr-tb" unicode-bidi="normal" text-decoration="none" transform="matrix(1 0 0 1 2897 2024)">10%</text></g><g clip-path="url(#clip35)"><path d="M2799.5 2060.5 2887.5 2060.5" stroke="#A5A5A5" stroke-width="6.875" stroke-linecap="round" stroke-linejoin="round" stroke-miterlimit="10" stroke-opacity="1" fill="none" fill-rule="evenodd"/></g><g clip-path="url(#clip36)"><path d="M2854 2060C2854 2066.07 2849.07 2071 2843 2071 2836.93 2071 2832 2066.07 2832 2060 2832 2053.92 2836.93 2049 2843 2049 2849.07 2049 2854 2053.92 2854 2060Z" stroke="#A5A5A5" stroke-width="3.4375" stroke-linecap="butt" stroke-linejoin="round" stroke-miterlimit="10" stroke-opacity="1" fill="#A5A5A5" fill-rule="evenodd" fill-opacity="1"/></g><g clip-path="url(#clip37)"><text fill="#595959" fill-opacity="1" font-family="Calibri,Calibri_MSFontService,sans-serif" font-style="normal" font-variant="normal" font-weight="400" font-stretch="normal" font-size="41" text-anchor="start" direction="ltr" writing-mode="lr-tb" unicode-bidi="normal" text-decoration="none" transform="matrix(1 0 0 1 2897 2070)">25%</text></g><g clip-path="url(#clip38)"><path d="M2799.5 2106.5 2887.5 2106.5" stroke="#70AD47" stroke-width="6.875" stroke-linecap="round" stroke-linejoin="round" stroke-miterlimit="10" stroke-opacity="1" fill="none" fill-rule="evenodd"/></g><g clip-path="url(#clip39)"><path d="M2854 2106C2854 2112.07 2849.07 2117 2843 2117 2836.93 2117 2832 2112.07 2832 2106 2832 2099.92 2836.93 2095 2843 2095 2849.07 2095 2854 2099.92 2854 2106Z" stroke="#70AD47" stroke-width="3.4375" stroke-linecap="butt" stroke-linejoin="round" stroke-miterlimit="10" stroke-opacity="1" fill="#70AD47" fill-rule="evenodd" fill-opacity="1"/></g><g clip-path="url(#clip40)"><text fill="#595959" fill-opacity="1" font-family="Calibri,Calibri_MSFontService,sans-serif" font-style="normal" font-variant="normal" font-weight="400" font-stretch="normal" font-size="41" text-anchor="start" direction="ltr" writing-mode="lr-tb" unicode-bidi="normal" text-decoration="none" transform="matrix(1 0 0 1 2897 2116)">100%</text></g><g clip-path="url(#clip41)"><text fill="#595959" fill-opacity="1" font-family="Calibri,Calibri_MSFontService,sans-serif" font-style="normal" font-variant="normal" font-weight="700" font-stretch="normal" font-size="41" text-anchor="start" direction="ltr" writing-mode="lr-tb" unicode-bidi="normal" text-decoration="none" transform="matrix(-1.83697e-16 -1 1 -1.83697e-16 1849.98 2705)">Update      </text></g><text fill="#595959" fill-opacity="1" font-family="Calibri,Calibri_MSFontService,sans-serif" font-style="normal" font-variant="normal" font-weight="400" font-stretch="normal" font-size="41" text-anchor="start" direction="ltr" writing-mode="lr-tb" unicode-bidi="normal" text-decoration="none" transform="matrix(-1.83697e-16 -1 1 -1.83697e-16 1849.98 2522)">latency per transaction (ms)</text></g></svg>