<svg width="1407" height="802" xmlns="http://www.w3.org/2000/svg" xmlns:xlink="http://www.w3.org/1999/xlink" overflow="hidden"><defs><clipPath id="clip0"><rect x="302" y="1902" width="1407" height="802"/></clipPath><clipPath id="clip1"><rect x="317" y="1903" width="1389" height="796"/></clipPath><clipPath id="clip2"><rect x="317" y="1903" width="1389" height="796"/></clipPath><clipPath id="clip3"><rect x="317" y="1903" width="1389" height="796"/></clipPath><clipPath id="clip4"><rect x="317" y="1903" width="1389" height="796"/></clipPath><clipPath id="clip5"><rect x="494" y="1929" width="1115" height="640"/></clipPath><clipPath id="clip6"><rect x="317" y="1903" width="1389" height="796"/></clipPath><clipPath id="clip7"><rect x="494" y="1929" width="1115" height="640"/></clipPath><clipPath id="clip8"><rect x="317" y="1903" width="1389" height="796"/></clipPath><clipPath id="clip9"><rect x="494" y="1929" width="1115" height="640"/></clipPath><clipPath id="clip10"><rect x="317" y="1903" width="1389" height="796"/></clipPath><clipPath id="clip11"><rect x="494" y="1929" width="1115" height="640"/></clipPath><clipPath id="clip12"><rect x="317" y="1903" width="1389" height="796"/></clipPath><clipPath id="clip13"><rect x="317" y="1903" width="1389" height="796"/></clipPath><clipPath id="clip14"><rect x="317" y="1903" width="1389" height="796"/></clipPath><clipPath id="clip15"><rect x="317" y="1903" width="1389" height="796"/></clipPath><clipPath id="clip16"><rect x="317" y="1903" width="1389" height="796"/></clipPath><clipPath id="clip17"><rect x="317" y="1903" width="1389" height="796"/></clipPath><clipPath id="clip18"><rect x="317" y="1903" width="1389" height="796"/></clipPath><clipPath id="clip19"><rect x="317" y="1903" width="1389" height="796"/></clipPath><clipPath id="clip20"><rect x="317" y="1903" width="1389" height="796"/></clipPath><clipPath id="clip21"><rect x="317" y="1903" width="1389" height="796"/></clipPath><clipPath id="clip22"><rect x="317" y="1903" width="1389" height="796"/></clipPath><clipPath id="clip23"><rect x="317" y="1903" width="1389" height="796"/></clipPath><clipPath id="clip24"><rect x="317" y="1903" width="1389" height="796"/></clipPath><clipPath id="clip25"><rect x="317" y="1903" width="1389" height="796"/></clipPath><clipPath id="clip26"><rect x="317" y="1903" width="1389" height="796"/></clipPath><clipPath id="clip27"><rect x="317" y="1903" width="1389" height="796"/></clipPath><clipPath id="clip28"><rect x="317" y="1903" width="1389" height="796"/></clipPath><clipPath id="clip29"><rect x="317" y="1903" width="1389" height="796"/></clipPath><clipPath id="clip30"><rect x="317" y="1903" width="1389" height="796"/></clipPath><clipPath id="clip31"><rect x="317" y="1903" width="1389" height="796"/></clipPath><clipPath id="clip32"><rect x="317" y="1903" width="1389" height="796"/></clipPath><clipPath id="clip33"><rect x="317" y="1903" width="1389" height="796"/></clipPath><clipPath id="clip34"><rect x="317" y="1903" width="1389" height="796"/></clipPath><clipPath id="clip35"><rect x="317" y="1903" width="1389" height="796"/></clipPath><clipPath id="clip36"><rect x="317" y="1903" width="1389" height="796"/></clipPath><clipPath id="clip37"><rect x="317" y="1903" width="1389" height="796"/></clipPath><clipPath id="clip38"><rect x="317" y="1903" width="1389" height="796"/></clipPath><clipPath id="clip39"><rect x="304" y="1924" width="97" height="765"/></clipPath></defs><g clip-path="url(#clip0)" transform="translate(-302 -1902)"><rect x="317" y="1904" width="1389" height="796" fill="#FFFFFF" fill-opacity="1"/><g clip-path="url(#clip1)"><path d="M494.5 2459.58 1605.5 2459.58M494.5 2353.58 1605.5 2353.58M494.5 2247.57 1605.5 2247.57M494.5 2141.57 1605.5 2141.57M494.5 2035.57 1605.5 2035.57M494.5 1929.5 1605.5 1929.5" stroke="#D9D9D9" stroke-width="3.4375" stroke-linecap="butt" stroke-linejoin="round" stroke-miterlimit="10" stroke-opacity="1" fill="none" fill-rule="evenodd"/></g><g clip-path="url(#clip2)"><path d="M772.526 1929.5 772.526 2566.5M1050.53 1929.5 1050.53 2566.5M1327.54 1929.5 1327.54 2566.5M1605.5 1929.5 1605.5 2566.5" stroke="#D9D9D9" stroke-width="3.4375" stroke-linecap="butt" stroke-linejoin="round" stroke-miterlimit="10" stroke-opacity="1" fill="none" fill-rule="evenodd"/></g><g clip-path="url(#clip3)"><path d="M0 0 0.000360892 637" stroke="#BFBFBF" stroke-width="3.4375" stroke-linecap="butt" stroke-linejoin="round" stroke-miterlimit="10" stroke-opacity="1" fill="none" fill-rule="evenodd" transform="matrix(1 0 0 -1 494.5 2566.5)"/></g><g clip-path="url(#clip4)"><path d="M494.5 2566.5 1605.5 2566.5" stroke="#BFBFBF" stroke-width="3.4375" stroke-linecap="butt" stroke-linejoin="round" stroke-miterlimit="10" stroke-opacity="1" fill="none" fill-rule="evenodd"/></g><g clip-path="url(#clip5)"><path d="M600.5 2398.58 707.523 2399.5 890.529 2387.58 1041.53 2372.58 1166.54 2355.58 1239.54 2328.58 1296.54 2301.58 1329.54 2269.57 1352.54 2236.57 1374.5 2164.5" stroke="#4472C4" stroke-width="6.875" stroke-linecap="round" stroke-linejoin="round" stroke-miterlimit="10" stroke-opacity="1" fill="none" fill-rule="evenodd"/></g><g clip-path="url(#clip6)"><path d="M611.529 2398.35C611.529 2404.42 606.605 2409.35 600.53 2409.35 594.455 2409.35 589.53 2404.42 589.53 2398.35 589.53 2392.27 594.455 2387.35 600.53 2387.35 606.605 2387.35 611.529 2392.27 611.529 2398.35Z" stroke="#4472C4" stroke-width="3.4375" stroke-linecap="butt" stroke-linejoin="round" stroke-miterlimit="10" stroke-opacity="1" fill="#4472C4" fill-rule="evenodd" fill-opacity="1"/><path d="M718.529 2399.35C718.529 2405.42 713.604 2410.35 707.529 2410.35 701.455 2410.35 696.53 2405.42 696.53 2399.35 696.53 2393.27 701.455 2388.35 707.529 2388.35 713.604 2388.35 718.529 2393.27 718.529 2399.35Z" stroke="#4472C4" stroke-width="3.4375" stroke-linecap="butt" stroke-linejoin="round" stroke-miterlimit="10" stroke-opacity="1" fill="#4472C4" fill-rule="evenodd" fill-opacity="1"/><path d="M901.529 2387.35C901.529 2393.42 896.605 2398.35 890.53 2398.35 884.455 2398.35 879.53 2393.42 879.53 2387.35 879.53 2381.27 884.455 2376.35 890.53 2376.35 896.605 2376.35 901.529 2381.27 901.529 2387.35Z" stroke="#4472C4" stroke-width="3.4375" stroke-linecap="butt" stroke-linejoin="round" stroke-miterlimit="10" stroke-opacity="1" fill="#4472C4" fill-rule="evenodd" fill-opacity="1"/><path d="M1052.53 2372.35C1052.53 2378.42 1047.6 2383.35 1041.53 2383.35 1035.45 2383.35 1030.53 2378.42 1030.53 2372.35 1030.53 2366.27 1035.45 2361.35 1041.53 2361.35 1047.6 2361.35 1052.53 2366.27 1052.53 2372.35Z" stroke="#4472C4" stroke-width="3.4375" stroke-linecap="butt" stroke-linejoin="round" stroke-miterlimit="10" stroke-opacity="1" fill="#4472C4" fill-rule="evenodd" fill-opacity="1"/><path d="M1177.53 2355.35C1177.53 2361.42 1172.6 2366.35 1166.53 2366.35 1160.45 2366.35 1155.53 2361.42 1155.53 2355.35 1155.53 2349.27 1160.45 2344.35 1166.53 2344.35 1172.6 2344.35 1177.53 2349.27 1177.53 2355.35Z" stroke="#4472C4" stroke-width="3.4375" stroke-linecap="butt" stroke-linejoin="round" stroke-miterlimit="10" stroke-opacity="1" fill="#4472C4" fill-rule="evenodd" fill-opacity="1"/><path d="M1250.53 2328.35C1250.53 2334.42 1245.6 2339.35 1239.53 2339.35 1233.45 2339.35 1228.53 2334.42 1228.53 2328.35 1228.53 2322.27 1233.45 2317.35 1239.53 2317.35 1245.6 2317.35 1250.53 2322.27 1250.53 2328.35Z" stroke="#4472C4" stroke-width="3.4375" stroke-linecap="butt" stroke-linejoin="round" stroke-miterlimit="10" stroke-opacity="1" fill="#4472C4" fill-rule="evenodd" fill-opacity="1"/><path d="M1307.53 2301.35C1307.53 2307.42 1302.6 2312.35 1296.53 2312.35 1290.45 2312.35 1285.53 2307.42 1285.53 2301.35 1285.53 2295.27 1290.45 2290.35 1296.53 2290.35 1302.6 2290.35 1307.53 2295.27 1307.53 2301.35Z" stroke="#4472C4" stroke-width="3.4375" stroke-linecap="butt" stroke-linejoin="round" stroke-miterlimit="10" stroke-opacity="1" fill="#4472C4" fill-rule="evenodd" fill-opacity="1"/><path d="M1340.53 2269.35C1340.53 2275.42 1335.6 2280.35 1329.53 2280.35 1323.45 2280.35 1318.53 2275.42 1318.53 2269.35 1318.53 2263.27 1323.45 2258.35 1329.53 2258.35 1335.6 2258.35 1340.53 2263.27 1340.53 2269.35Z" stroke="#4472C4" stroke-width="3.4375" stroke-linecap="butt" stroke-linejoin="round" stroke-miterlimit="10" stroke-opacity="1" fill="#4472C4" fill-rule="evenodd" fill-opacity="1"/><path d="M1363.53 2236.35C1363.53 2242.42 1358.6 2247.35 1352.53 2247.35 1346.45 2247.35 1341.53 2242.42 1341.53 2236.35 1341.53 2230.27 1346.45 2225.35 1352.53 2225.35 1358.6 2225.35 1363.53 2230.27 1363.53 2236.35Z" stroke="#4472C4" stroke-width="3.4375" stroke-linecap="butt" stroke-linejoin="round" stroke-miterlimit="10" stroke-opacity="1" fill="#4472C4" fill-rule="evenodd" fill-opacity="1"/><path d="M1385.53 2164.35C1385.53 2170.42 1380.6 2175.35 1374.53 2175.35 1368.45 2175.35 1363.53 2170.42 1363.53 2164.35 1363.53 2158.27 1368.45 2153.35 1374.53 2153.35 1380.6 2153.35 1385.53 2158.27 1385.53 2164.35Z" stroke="#4472C4" stroke-width="3.4375" stroke-linecap="butt" stroke-linejoin="round" stroke-miterlimit="10" stroke-opacity="1" fill="#4472C4" fill-rule="evenodd" fill-opacity="1"/></g><g clip-path="url(#clip7)"><path d="M704.5 2396.5 887.529 2385.58 1028.53 2366.58 1137.54 2344.58 1215.54 2319.58 1263.54 2288.58 1292.54 2254.57 1310.54 2217.57 1346.54 2148.57 1373.55 2080.57 1386.5 2007.5" stroke="#9D47C4" stroke-width="6.875" stroke-linecap="round" stroke-linejoin="round" stroke-miterlimit="10" stroke-opacity="1" fill="none" fill-rule="evenodd"/></g><g clip-path="url(#clip8)"><path d="M715.529 2396.35C715.529 2402.42 710.605 2407.35 704.53 2407.35 698.455 2407.35 693.53 2402.42 693.53 2396.35 693.53 2390.27 698.455 2385.35 704.53 2385.35 710.605 2385.35 715.529 2390.27 715.529 2396.35Z" stroke="#9D47C4" stroke-width="3.4375" stroke-linecap="butt" stroke-linejoin="round" stroke-miterlimit="10" stroke-opacity="1" fill="#9D47C4" fill-rule="evenodd" fill-opacity="1"/><path d="M898.529 2385.35C898.529 2391.42 893.605 2396.35 887.53 2396.35 881.455 2396.35 876.53 2391.42 876.53 2385.35 876.53 2379.27 881.455 2374.35 887.53 2374.35 893.605 2374.35 898.529 2379.27 898.529 2385.35Z" stroke="#9D47C4" stroke-width="3.4375" stroke-linecap="butt" stroke-linejoin="round" stroke-miterlimit="10" stroke-opacity="1" fill="#9D47C4" fill-rule="evenodd" fill-opacity="1"/><path d="M1039.53 2366.35C1039.53 2372.42 1034.6 2377.35 1028.53 2377.35 1022.45 2377.35 1017.53 2372.42 1017.53 2366.35 1017.53 2360.27 1022.45 2355.35 1028.53 2355.35 1034.6 2355.35 1039.53 2360.27 1039.53 2366.35Z" stroke="#9D47C4" stroke-width="3.4375" stroke-linecap="butt" stroke-linejoin="round" stroke-miterlimit="10" stroke-opacity="1" fill="#9D47C4" fill-rule="evenodd" fill-opacity="1"/><path d="M1148.53 2344.35C1148.53 2350.42 1143.6 2355.35 1137.53 2355.35 1131.45 2355.35 1126.53 2350.42 1126.53 2344.35 1126.53 2338.27 1131.45 2333.35 1137.53 2333.35 1143.6 2333.35 1148.53 2338.27 1148.53 2344.35Z" stroke="#9D47C4" stroke-width="3.4375" stroke-linecap="butt" stroke-linejoin="round" stroke-miterlimit="10" stroke-opacity="1" fill="#9D47C4" fill-rule="evenodd" fill-opacity="1"/><path d="M1226.53 2319.35C1226.53 2325.42 1221.6 2330.35 1215.53 2330.35 1209.45 2330.35 1204.53 2325.42 1204.53 2319.35 1204.53 2313.27 1209.45 2308.35 1215.53 2308.35 1221.6 2308.35 1226.53 2313.27 1226.53 2319.35Z" stroke="#9D47C4" stroke-width="3.4375" stroke-linecap="butt" stroke-linejoin="round" stroke-miterlimit="10" stroke-opacity="1" fill="#9D47C4" fill-rule="evenodd" fill-opacity="1"/><path d="M1275.53 2288.35C1275.53 2294.42 1270.6 2299.35 1264.53 2299.35 1258.45 2299.35 1253.53 2294.42 1253.53 2288.35 1253.53 2282.27 1258.45 2277.35 1264.53 2277.35 1270.6 2277.35 1275.53 2282.27 1275.53 2288.35Z" stroke="#9D47C4" stroke-width="3.4375" stroke-linecap="butt" stroke-linejoin="round" stroke-miterlimit="10" stroke-opacity="1" fill="#9D47C4" fill-rule="evenodd" fill-opacity="1"/><path d="M1303.53 2254.35C1303.53 2260.42 1298.6 2265.35 1292.53 2265.35 1286.45 2265.35 1281.53 2260.42 1281.53 2254.35 1281.53 2248.27 1286.45 2243.35 1292.53 2243.35 1298.6 2243.35 1303.53 2248.27 1303.53 2254.35Z" stroke="#9D47C4" stroke-width="3.4375" stroke-linecap="butt" stroke-linejoin="round" stroke-miterlimit="10" stroke-opacity="1" fill="#9D47C4" fill-rule="evenodd" fill-opacity="1"/><path d="M1321.53 2217.35C1321.53 2223.42 1316.6 2228.35 1310.53 2228.35 1304.45 2228.35 1299.53 2223.42 1299.53 2217.35 1299.53 2211.27 1304.45 2206.35 1310.53 2206.35 1316.6 2206.35 1321.53 2211.27 1321.53 2217.35Z" stroke="#9D47C4" stroke-width="3.4375" stroke-linecap="butt" stroke-linejoin="round" stroke-miterlimit="10" stroke-opacity="1" fill="#9D47C4" fill-rule="evenodd" fill-opacity="1"/><path d="M1357.53 2148.35C1357.53 2154.42 1352.6 2159.35 1346.53 2159.35 1340.45 2159.35 1335.53 2154.42 1335.53 2148.35 1335.53 2142.27 1340.45 2137.35 1346.53 2137.35 1352.6 2137.35 1357.53 2142.27 1357.53 2148.35Z" stroke="#9D47C4" stroke-width="3.4375" stroke-linecap="butt" stroke-linejoin="round" stroke-miterlimit="10" stroke-opacity="1" fill="#9D47C4" fill-rule="evenodd" fill-opacity="1"/><path d="M1384.53 2080.35C1384.53 2086.42 1379.6 2091.35 1373.53 2091.35 1367.45 2091.35 1362.53 2086.42 1362.53 2080.35 1362.53 2074.27 1367.45 2069.35 1373.53 2069.35 1379.6 2069.35 1384.53 2074.27 1384.53 2080.35Z" stroke="#9D47C4" stroke-width="3.4375" stroke-linecap="butt" stroke-linejoin="round" stroke-miterlimit="10" stroke-opacity="1" fill="#9D47C4" fill-rule="evenodd" fill-opacity="1"/><path d="M1397.53 2007.35C1397.53 2013.42 1392.6 2018.35 1386.53 2018.35 1380.45 2018.35 1375.53 2013.42 1375.53 2007.35 1375.53 2001.27 1380.45 1996.35 1386.53 1996.35 1392.6 1996.35 1397.53 2001.27 1397.53 2007.35Z" stroke="#9D47C4" stroke-width="3.4375" stroke-linecap="butt" stroke-linejoin="round" stroke-miterlimit="10" stroke-opacity="1" fill="#9D47C4" fill-rule="evenodd" fill-opacity="1"/></g><g clip-path="url(#clip9)"><path d="M706.5 2389.5 878.529 2371.58 1001.53 2345.58 1089.54 2315.58 1150.54 2283.58 1203.54 2252.57 1238.54 2219.57 1265.54 2188.57 1292.5 2119.57 1289.54 2070.5" stroke="#C00000" stroke-width="6.875" stroke-linecap="round" stroke-linejoin="round" stroke-miterlimit="10" stroke-opacity="1" fill="none" fill-rule="evenodd"/></g><g clip-path="url(#clip10)"><path d="M717.529 2389.35C717.529 2395.42 712.604 2400.35 706.529 2400.35 700.455 2400.35 695.53 2395.42 695.53 2389.35 695.53 2383.27 700.455 2378.35 706.529 2378.35 712.604 2378.35 717.529 2383.27 717.529 2389.35Z" stroke="#C00000" stroke-width="3.4375" stroke-linecap="butt" stroke-linejoin="round" stroke-miterlimit="10" stroke-opacity="1" fill="#C00000" fill-rule="evenodd" fill-opacity="1"/><path d="M889.529 2371.35C889.529 2377.42 884.605 2382.35 878.53 2382.35 872.455 2382.35 867.53 2377.42 867.53 2371.35 867.53 2365.27 872.455 2360.35 878.53 2360.35 884.605 2360.35 889.529 2365.27 889.529 2371.35Z" stroke="#C00000" stroke-width="3.4375" stroke-linecap="butt" stroke-linejoin="round" stroke-miterlimit="10" stroke-opacity="1" fill="#C00000" fill-rule="evenodd" fill-opacity="1"/><path d="M1012.53 2345.35C1012.53 2351.42 1007.6 2356.35 1001.53 2356.35 995.455 2356.35 990.53 2351.42 990.53 2345.35 990.53 2339.27 995.455 2334.35 1001.53 2334.35 1007.6 2334.35 1012.53 2339.27 1012.53 2345.35Z" stroke="#C00000" stroke-width="3.4375" stroke-linecap="butt" stroke-linejoin="round" stroke-miterlimit="10" stroke-opacity="1" fill="#C00000" fill-rule="evenodd" fill-opacity="1"/><path d="M1100.53 2316.35C1100.53 2322.42 1095.6 2327.35 1089.53 2327.35 1083.45 2327.35 1078.53 2322.42 1078.53 2316.35 1078.53 2310.27 1083.45 2305.35 1089.53 2305.35 1095.6 2305.35 1100.53 2310.27 1100.53 2316.35Z" stroke="#C00000" stroke-width="3.4375" stroke-linecap="butt" stroke-linejoin="round" stroke-miterlimit="10" stroke-opacity="1" fill="#C00000" fill-rule="evenodd" fill-opacity="1"/><path d="M1161.53 2283.35C1161.53 2289.42 1156.6 2294.35 1150.53 2294.35 1144.45 2294.35 1139.53 2289.42 1139.53 2283.35 1139.53 2277.27 1144.45 2272.35 1150.53 2272.35 1156.6 2272.35 1161.53 2277.27 1161.53 2283.35Z" stroke="#C00000" stroke-width="3.4375" stroke-linecap="butt" stroke-linejoin="round" stroke-miterlimit="10" stroke-opacity="1" fill="#C00000" fill-rule="evenodd" fill-opacity="1"/><path d="M1214.53 2253.35C1214.53 2259.42 1209.6 2264.35 1203.53 2264.35 1197.45 2264.35 1192.53 2259.42 1192.53 2253.35 1192.53 2247.27 1197.45 2242.35 1203.53 2242.35 1209.6 2242.35 1214.53 2247.27 1214.53 2253.35Z" stroke="#C00000" stroke-width="3.4375" stroke-linecap="butt" stroke-linejoin="round" stroke-miterlimit="10" stroke-opacity="1" fill="#C00000" fill-rule="evenodd" fill-opacity="1"/><path d="M1249.53 2219.35C1249.53 2225.42 1244.6 2230.35 1238.53 2230.35 1232.45 2230.35 1227.53 2225.42 1227.53 2219.35 1227.53 2213.27 1232.45 2208.35 1238.53 2208.35 1244.6 2208.35 1249.53 2213.27 1249.53 2219.35Z" stroke="#C00000" stroke-width="3.4375" stroke-linecap="butt" stroke-linejoin="round" stroke-miterlimit="10" stroke-opacity="1" fill="#C00000" fill-rule="evenodd" fill-opacity="1"/><path d="M1276.53 2188.35C1276.53 2194.42 1271.6 2199.35 1265.53 2199.35 1259.45 2199.35 1254.53 2194.42 1254.53 2188.35 1254.53 2182.27 1259.45 2177.35 1265.53 2177.35 1271.6 2177.35 1276.53 2182.27 1276.53 2188.35Z" stroke="#C00000" stroke-width="3.4375" stroke-linecap="butt" stroke-linejoin="round" stroke-miterlimit="10" stroke-opacity="1" fill="#C00000" fill-rule="evenodd" fill-opacity="1"/><path d="M1303.53 2119.35C1303.53 2125.42 1298.6 2130.35 1292.53 2130.35 1286.45 2130.35 1281.53 2125.42 1281.53 2119.35 1281.53 2113.27 1286.45 2108.35 1292.53 2108.35 1298.6 2108.35 1303.53 2113.27 1303.53 2119.35Z" stroke="#C00000" stroke-width="3.4375" stroke-linecap="butt" stroke-linejoin="round" stroke-miterlimit="10" stroke-opacity="1" fill="#C00000" fill-rule="evenodd" fill-opacity="1"/><path d="M1300.53 2070.35C1300.53 2076.42 1295.6 2081.35 1289.53 2081.35 1283.45 2081.35 1278.53 2076.42 1278.53 2070.35 1278.53 2064.27 1283.45 2059.35 1289.53 2059.35 1295.6 2059.35 1300.53 2064.27 1300.53 2070.35Z" stroke="#C00000" stroke-width="3.4375" stroke-linecap="butt" stroke-linejoin="round" stroke-miterlimit="10" stroke-opacity="1" fill="#C00000" fill-rule="evenodd" fill-opacity="1"/></g><g clip-path="url(#clip11)"><path d="M554.5 2394.5 611.52 2388.58 714.524 2378.58 808.527 2371.58 883.529 2360.58 937.531 2345.58 974.532 2331.58 986.5 2324.58 981.532 2317.58 974.532 2308.58 970.532 2296.5" stroke="#FFC000" stroke-width="6.875" stroke-linecap="round" stroke-linejoin="round" stroke-miterlimit="10" stroke-opacity="1" fill="none" fill-rule="evenodd"/></g><g clip-path="url(#clip12)"><path d="M565.529 2394.35C565.529 2400.42 560.604 2405.35 554.53 2405.35 548.455 2405.35 543.53 2400.42 543.53 2394.35 543.53 2388.27 548.455 2383.35 554.53 2383.35 560.604 2383.35 565.529 2388.27 565.529 2394.35Z" stroke="#FFC000" stroke-width="3.4375" stroke-linecap="butt" stroke-linejoin="round" stroke-miterlimit="10" stroke-opacity="1" fill="#FFC000" fill-rule="evenodd" fill-opacity="1"/><path d="M622.529 2388.35C622.529 2394.42 617.605 2399.35 611.53 2399.35 605.455 2399.35 600.53 2394.42 600.53 2388.35 600.53 2382.27 605.455 2377.35 611.53 2377.35 617.605 2377.35 622.529 2382.27 622.529 2388.35Z" stroke="#FFC000" stroke-width="3.4375" stroke-linecap="butt" stroke-linejoin="round" stroke-miterlimit="10" stroke-opacity="1" fill="#FFC000" fill-rule="evenodd" fill-opacity="1"/><path d="M725.529 2378.35C725.529 2384.42 720.605 2389.35 714.53 2389.35 708.455 2389.35 703.53 2384.42 703.53 2378.35 703.53 2372.27 708.455 2367.35 714.53 2367.35 720.605 2367.35 725.529 2372.27 725.529 2378.35Z" stroke="#FFC000" stroke-width="3.4375" stroke-linecap="butt" stroke-linejoin="round" stroke-miterlimit="10" stroke-opacity="1" fill="#FFC000" fill-rule="evenodd" fill-opacity="1"/><path d="M819.529 2372.35C819.529 2378.42 814.605 2383.35 808.53 2383.35 802.455 2383.35 797.53 2378.42 797.53 2372.35 797.53 2366.27 802.455 2361.35 808.53 2361.35 814.605 2361.35 819.529 2366.27 819.529 2372.35Z" stroke="#FFC000" stroke-width="3.4375" stroke-linecap="butt" stroke-linejoin="round" stroke-miterlimit="10" stroke-opacity="1" fill="#FFC000" fill-rule="evenodd" fill-opacity="1"/><path d="M894.529 2360.35C894.529 2366.42 889.604 2371.35 883.529 2371.35 877.455 2371.35 872.53 2366.42 872.53 2360.35 872.53 2354.27 877.455 2349.35 883.529 2349.35 889.604 2349.35 894.529 2354.27 894.529 2360.35Z" stroke="#FFC000" stroke-width="3.4375" stroke-linecap="butt" stroke-linejoin="round" stroke-miterlimit="10" stroke-opacity="1" fill="#FFC000" fill-rule="evenodd" fill-opacity="1"/><path d="M948.529 2345.35C948.529 2351.42 943.604 2356.35 937.529 2356.35 931.455 2356.35 926.53 2351.42 926.53 2345.35 926.53 2339.27 931.455 2334.35 937.529 2334.35 943.604 2334.35 948.529 2339.27 948.529 2345.35Z" stroke="#FFC000" stroke-width="3.4375" stroke-linecap="butt" stroke-linejoin="round" stroke-miterlimit="10" stroke-opacity="1" fill="#FFC000" fill-rule="evenodd" fill-opacity="1"/><path d="M985.529 2331.35C985.529 2337.42 980.605 2342.35 974.53 2342.35 968.455 2342.35 963.53 2337.42 963.53 2331.35 963.53 2325.27 968.455 2320.35 974.53 2320.35 980.605 2320.35 985.529 2325.27 985.529 2331.35Z" stroke="#FFC000" stroke-width="3.4375" stroke-linecap="butt" stroke-linejoin="round" stroke-miterlimit="10" stroke-opacity="1" fill="#FFC000" fill-rule="evenodd" fill-opacity="1"/><path d="M997.529 2325.35C997.529 2331.42 992.605 2336.35 986.53 2336.35 980.455 2336.35 975.53 2331.42 975.53 2325.35 975.53 2319.27 980.455 2314.35 986.53 2314.35 992.605 2314.35 997.529 2319.27 997.529 2325.35Z" stroke="#FFC000" stroke-width="3.4375" stroke-linecap="butt" stroke-linejoin="round" stroke-miterlimit="10" stroke-opacity="1" fill="#FFC000" fill-rule="evenodd" fill-opacity="1"/><path d="M992.529 2317.35C992.529 2323.42 987.604 2328.35 981.529 2328.35 975.455 2328.35 970.53 2323.42 970.53 2317.35 970.53 2311.27 975.455 2306.35 981.529 2306.35 987.604 2306.35 992.529 2311.27 992.529 2317.35Z" stroke="#FFC000" stroke-width="3.4375" stroke-linecap="butt" stroke-linejoin="round" stroke-miterlimit="10" stroke-opacity="1" fill="#FFC000" fill-rule="evenodd" fill-opacity="1"/><path d="M985.529 2308.35C985.529 2314.42 980.605 2319.35 974.53 2319.35 968.455 2319.35 963.53 2314.42 963.53 2308.35 963.53 2302.27 968.455 2297.35 974.53 2297.35 980.605 2297.35 985.529 2302.27 985.529 2308.35Z" stroke="#FFC000" stroke-width="3.4375" stroke-linecap="butt" stroke-linejoin="round" stroke-miterlimit="10" stroke-opacity="1" fill="#FFC000" fill-rule="evenodd" fill-opacity="1"/><path d="M981.529 2296.35C981.529 2302.42 976.604 2307.35 970.529 2307.35 964.455 2307.35 959.53 2302.42 959.53 2296.35 959.53 2290.27 964.455 2285.35 970.529 2285.35 976.604 2285.35 981.529 2290.27 981.529 2296.35Z" stroke="#FFC000" stroke-width="3.4375" stroke-linecap="butt" stroke-linejoin="round" stroke-miterlimit="10" stroke-opacity="1" fill="#FFC000" fill-rule="evenodd" fill-opacity="1"/></g><g clip-path="url(#clip13)"><text fill="#595959" fill-opacity="1" font-family="Calibri,Calibri_MSFontService,sans-serif" font-style="normal" font-variant="normal" font-weight="400" font-stretch="normal" font-size="41" text-anchor="start" direction="ltr" writing-mode="lr-tb" unicode-bidi="normal" text-decoration="none" transform="matrix(1 0 0 1 435.375 2576)">0</text></g><g clip-path="url(#clip14)"><text fill="#595959" fill-opacity="1" font-family="Calibri,Calibri_MSFontService,sans-serif" font-style="normal" font-variant="normal" font-weight="400" font-stretch="normal" font-size="41" text-anchor="start" direction="ltr" writing-mode="lr-tb" unicode-bidi="normal" text-decoration="none" transform="matrix(1 0 0 1 404.185 2470)">0,2</text></g><g clip-path="url(#clip15)"><text fill="#595959" fill-opacity="1" font-family="Calibri,Calibri_MSFontService,sans-serif" font-style="normal" font-variant="normal" font-weight="400" font-stretch="normal" font-size="41" text-anchor="start" direction="ltr" writing-mode="lr-tb" unicode-bidi="normal" text-decoration="none" transform="matrix(1 0 0 1 404.185 2364)">0,4</text></g><g clip-path="url(#clip16)"><text fill="#595959" fill-opacity="1" font-family="Calibri,Calibri_MSFontService,sans-serif" font-style="normal" font-variant="normal" font-weight="400" font-stretch="normal" font-size="41" text-anchor="start" direction="ltr" writing-mode="lr-tb" unicode-bidi="normal" text-decoration="none" transform="matrix(1 0 0 1 404.185 2258)">0,6</text></g><g clip-path="url(#clip17)"><text fill="#595959" fill-opacity="1" font-family="Calibri,Calibri_MSFontService,sans-serif" font-style="normal" font-variant="normal" font-weight="400" font-stretch="normal" font-size="41" text-anchor="start" direction="ltr" writing-mode="lr-tb" unicode-bidi="normal" text-decoration="none" transform="matrix(1 0 0 1 404.185 2151)">0,8</text></g><g clip-path="url(#clip18)"><text fill="#595959" fill-opacity="1" font-family="Calibri,Calibri_MSFontService,sans-serif" font-style="normal" font-variant="normal" font-weight="400" font-stretch="normal" font-size="41" text-anchor="start" direction="ltr" writing-mode="lr-tb" unicode-bidi="normal" text-decoration="none" transform="matrix(1 0 0 1 435.375 2045)">1</text></g><g clip-path="url(#clip19)"><text fill="#595959" fill-opacity="1" font-family="Calibri,Calibri_MSFontService,sans-serif" font-style="normal" font-variant="normal" font-weight="400" font-stretch="normal" font-size="41" text-anchor="start" direction="ltr" writing-mode="lr-tb" unicode-bidi="normal" text-decoration="none" transform="matrix(1 0 0 1 404.185 1939)">1,2</text></g><g clip-path="url(#clip20)"><text fill="#595959" fill-opacity="1" font-family="Calibri,Calibri_MSFontService,sans-serif" font-style="normal" font-variant="normal" font-weight="400" font-stretch="normal" font-size="41" text-anchor="start" direction="ltr" writing-mode="lr-tb" unicode-bidi="normal" text-decoration="none" transform="matrix(1 0 0 1 484.092 2631)">0</text></g><g clip-path="url(#clip21)"><text fill="#595959" fill-opacity="1" font-family="Calibri,Calibri_MSFontService,sans-serif" font-style="normal" font-variant="normal" font-weight="400" font-stretch="normal" font-size="41" text-anchor="start" direction="ltr" writing-mode="lr-tb" unicode-bidi="normal" text-decoration="none" transform="matrix(1 0 0 1 761.871 2631)">1</text></g><g clip-path="url(#clip22)"><text fill="#595959" fill-opacity="1" font-family="Calibri,Calibri_MSFontService,sans-serif" font-style="normal" font-variant="normal" font-weight="400" font-stretch="normal" font-size="41" text-anchor="start" direction="ltr" writing-mode="lr-tb" unicode-bidi="normal" text-decoration="none" transform="matrix(1 0 0 1 1039.65 2631)">2</text></g><g clip-path="url(#clip23)"><text fill="#595959" fill-opacity="1" font-family="Calibri,Calibri_MSFontService,sans-serif" font-style="normal" font-variant="normal" font-weight="400" font-stretch="normal" font-size="41" text-anchor="start" direction="ltr" writing-mode="lr-tb" unicode-bidi="normal" text-decoration="none" transform="matrix(1 0 0 1 1317.43 2631)">3</text></g><g clip-path="url(#clip24)"><text fill="#595959" fill-opacity="1" font-family="Calibri,Calibri_MSFontService,sans-serif" font-style="normal" font-variant="normal" font-weight="400" font-stretch="normal" font-size="41" text-anchor="start" direction="ltr" writing-mode="lr-tb" unicode-bidi="normal" text-decoration="none" transform="matrix(1 0 0 1 1595.21 2631)">4</text></g><g clip-path="url(#clip25)"><text fill="#595959" fill-opacity="1" font-family="Calibri,Calibri_MSFontService,sans-serif" font-style="normal" font-variant="normal" font-weight="400" font-stretch="normal" font-size="41" text-anchor="start" direction="ltr" writing-mode="lr-tb" unicode-bidi="normal" text-decoration="none" transform="matrix(1 0 0 1 726.177 2676)">Millions Ops/s (query + updates)</text></g><g clip-path="url(#clip26)"><rect x="1354.5" y="2348.5" width="231" height="190" stroke="#000000" stroke-width="3.4375" stroke-linecap="butt" stroke-linejoin="round" stroke-miterlimit="10" stroke-opacity="1" fill="#FFFFFF" fill-opacity="1"/></g><g clip-path="url(#clip27)"><path d="M1386.5 2372.5 1474.5 2372.5" stroke="#4472C4" stroke-width="6.875" stroke-linecap="round" stroke-linejoin="round" stroke-miterlimit="10" stroke-opacity="1" fill="none" fill-rule="evenodd"/></g><g clip-path="url(#clip28)"><path d="M1441.02 2372C1441.02 2378.07 1436.31 2383 1430.5 2383 1424.69 2383 1419.98 2378.07 1419.98 2372 1419.98 2365.92 1424.69 2361 1430.5 2361 1436.31 2361 1441.02 2365.92 1441.02 2372Z" stroke="#4472C4" stroke-width="3.4375" stroke-linecap="butt" stroke-linejoin="round" stroke-miterlimit="10" stroke-opacity="1" fill="#4472C4" fill-rule="evenodd" fill-opacity="1"/></g><g clip-path="url(#clip29)"><text fill="#595959" fill-opacity="1" font-family="Calibri,Calibri_MSFontService,sans-serif" font-style="normal" font-variant="normal" font-weight="400" font-stretch="normal" font-size="41" text-anchor="start" direction="ltr" writing-mode="lr-tb" unicode-bidi="normal" text-decoration="none" transform="matrix(1 0 0 1 1483.82 2382)">0%</text></g><g clip-path="url(#clip30)"><path d="M1386.5 2419.5 1474.5 2419.5" stroke="#9D47C4" stroke-width="6.875" stroke-linecap="round" stroke-linejoin="round" stroke-miterlimit="10" stroke-opacity="1" fill="none" fill-rule="evenodd"/></g><g clip-path="url(#clip31)"><path d="M1441.02 2419C1441.02 2425.07 1436.31 2430 1430.5 2430 1424.69 2430 1419.98 2425.07 1419.98 2419 1419.98 2412.92 1424.69 2408 1430.5 2408 1436.31 2408 1441.02 2412.92 1441.02 2419Z" stroke="#9D47C4" stroke-width="3.4375" stroke-linecap="butt" stroke-linejoin="round" stroke-miterlimit="10" stroke-opacity="1" fill="#9D47C4" fill-rule="evenodd" fill-opacity="1"/></g><g clip-path="url(#clip32)"><text fill="#595959" fill-opacity="1" font-family="Calibri,Calibri_MSFontService,sans-serif" font-style="normal" font-variant="normal" font-weight="400" font-stretch="normal" font-size="41" text-anchor="start" direction="ltr" writing-mode="lr-tb" unicode-bidi="normal" text-decoration="none" transform="matrix(1 0 0 1 1483.82 2430)">1%</text></g><g clip-path="url(#clip33)"><path d="M1386.5 2467.5 1474.5 2467.5" stroke="#C00000" stroke-width="6.875" stroke-linecap="round" stroke-linejoin="round" stroke-miterlimit="10" stroke-opacity="1" fill="none" fill-rule="evenodd"/></g><g clip-path="url(#clip34)"><path d="M1441.02 2467C1441.02 2473.07 1436.31 2478 1430.5 2478 1424.69 2478 1419.98 2473.07 1419.98 2467 1419.98 2460.92 1424.69 2456 1430.5 2456 1436.31 2456 1441.02 2460.92 1441.02 2467Z" stroke="#C00000" stroke-width="3.4375" stroke-linecap="butt" stroke-linejoin="round" stroke-miterlimit="10" stroke-opacity="1" fill="#C00000" fill-rule="evenodd" fill-opacity="1"/></g><g clip-path="url(#clip35)"><text fill="#595959" fill-opacity="1" font-family="Calibri,Calibri_MSFontService,sans-serif" font-style="normal" font-variant="normal" font-weight="400" font-stretch="normal" font-size="41" text-anchor="start" direction="ltr" writing-mode="lr-tb" unicode-bidi="normal" text-decoration="none" transform="matrix(1 0 0 1 1483.82 2477)">10%</text></g><g clip-path="url(#clip36)"><path d="M1386.5 2514.5 1474.5 2514.5" stroke="#FFC000" stroke-width="6.875" stroke-linecap="round" stroke-linejoin="round" stroke-miterlimit="10" stroke-opacity="1" fill="none" fill-rule="evenodd"/></g><g clip-path="url(#clip37)"><path d="M1441.02 2514C1441.02 2520.07 1436.31 2525 1430.5 2525 1424.69 2525 1419.98 2520.07 1419.98 2514 1419.98 2507.92 1424.69 2503 1430.5 2503 1436.31 2503 1441.02 2507.92 1441.02 2514Z" stroke="#FFC000" stroke-width="3.4375" stroke-linecap="butt" stroke-linejoin="round" stroke-miterlimit="10" stroke-opacity="1" fill="#FFC000" fill-rule="evenodd" fill-opacity="1"/></g><g clip-path="url(#clip38)"><text fill="#595959" fill-opacity="1" font-family="Calibri,Calibri_MSFontService,sans-serif" font-style="normal" font-variant="normal" font-weight="400" font-stretch="normal" font-size="41" text-anchor="start" direction="ltr" writing-mode="lr-tb" unicode-bidi="normal" text-decoration="none" transform="matrix(1 0 0 1 1483.82 2525)">25%</text></g><g clip-path="url(#clip39)"><text fill="#595959" fill-opacity="1" font-family="Calibri,Calibri_MSFontService,sans-serif" font-style="normal" font-variant="normal" font-weight="700" font-stretch="normal" font-size="41" text-anchor="start" direction="ltr" writing-mode="lr-tb" unicode-bidi="normal" text-decoration="none" transform="matrix(-1.83697e-16 -1 1 -1.83697e-16 359.931 2689)">Query     </text></g><text fill="#595959" fill-opacity="1" font-family="Calibri,Calibri_MSFontService,sans-serif" font-style="normal" font-variant="normal" font-weight="400" font-stretch="normal" font-size="41" text-anchor="start" direction="ltr" writing-mode="lr-tb" unicode-bidi="normal" text-decoration="none" transform="matrix(-1.83697e-16 -1 1 -1.83697e-16 359.931 2537)">latency per transaction (ms)</text></g></svg>