<svg width="1394" height="729" xmlns="http://www.w3.org/2000/svg" xmlns:xlink="http://www.w3.org/1999/xlink" overflow="hidden"><defs><clipPath id="clip0"><rect x="288" y="1031" width="1394" height="729"/></clipPath><clipPath id="clip1"><rect x="292" y="1033" width="1386" height="727"/></clipPath><clipPath id="clip2"><rect x="292" y="1033" width="1386" height="727"/></clipPath><clipPath id="clip3"><rect x="292" y="1033" width="1386" height="727"/></clipPath><clipPath id="clip4"><rect x="292" y="1033" width="1386" height="727"/></clipPath><clipPath id="clip5"><rect x="494" y="1058" width="1063" height="580"/></clipPath><clipPath id="clip6"><rect x="292" y="1033" width="1386" height="727"/></clipPath><clipPath id="clip7"><rect x="494" y="1058" width="1063" height="580"/></clipPath><clipPath id="clip8"><rect x="292" y="1033" width="1386" height="727"/></clipPath><clipPath id="clip9"><rect x="494" y="1058" width="1063" height="580"/></clipPath><clipPath id="clip10"><rect x="292" y="1033" width="1386" height="727"/></clipPath><clipPath id="clip11"><rect x="292" y="1033" width="1386" height="727"/></clipPath><clipPath id="clip12"><rect x="292" y="1033" width="1386" height="727"/></clipPath><clipPath id="clip13"><rect x="292" y="1033" width="1386" height="727"/></clipPath><clipPath id="clip14"><rect x="292" y="1033" width="1386" height="727"/></clipPath><clipPath id="clip15"><rect x="292" y="1033" width="1386" height="727"/></clipPath><clipPath id="clip16"><rect x="292" y="1033" width="1386" height="727"/></clipPath><clipPath id="clip17"><rect x="292" y="1033" width="1386" height="727"/></clipPath><clipPath id="clip18"><rect x="292" y="1033" width="1386" height="727"/></clipPath><clipPath id="clip19"><rect x="292" y="1033" width="1386" height="727"/></clipPath><clipPath id="clip20"><rect x="292" y="1033" width="1386" height="727"/></clipPath><clipPath id="clip21"><rect x="292" y="1033" width="1386" height="727"/></clipPath><clipPath id="clip22"><rect x="292" y="1033" width="1386" height="727"/></clipPath><clipPath id="clip23"><rect x="292" y="1033" width="1386" height="727"/></clipPath><clipPath id="clip24"><rect x="292" y="1033" width="1386" height="727"/></clipPath><clipPath id="clip25"><rect x="292" y="1033" width="1386" height="727"/></clipPath><clipPath id="clip26"><rect x="292" y="1033" width="1386" height="727"/></clipPath><clipPath id="clip27"><rect x="292" y="1033" width="1386" height="727"/></clipPath><clipPath id="clip28"><rect x="292" y="1033" width="1386" height="727"/></clipPath><clipPath id="clip29"><rect x="292" y="1033" width="1386" height="727"/></clipPath><clipPath id="clip30"><rect x="292" y="1033" width="1386" height="727"/></clipPath><clipPath id="clip31"><rect x="296" y="1035" width="90" height="722"/></clipPath></defs><g clip-path="url(#clip0)" transform="translate(-288 -1031)"><rect x="293" y="1033" width="1386" height="727" fill="#FFFFFF" fill-opacity="1"/><g clip-path="url(#clip1)"><path d="M494.5 1635.5 1553.5 1635.5M494.5 1346.54 1553.5 1346.54M494.5 1202.54 1553.5 1202.54M494.5 1058.5 1553.5 1058.5" stroke="#D9D9D9" stroke-width="3.4375" stroke-linecap="butt" stroke-linejoin="round" stroke-miterlimit="10" stroke-opacity="1" fill="none" fill-rule="evenodd"/></g><g clip-path="url(#clip2)"><path d="M847.528 1058.5 847.528 1635.5M1200.54 1058.5 1200.54 1635.5M1553.5 1058.5 1553.5 1635.5" stroke="#D9D9D9" stroke-width="3.4375" stroke-linecap="butt" stroke-linejoin="round" stroke-miterlimit="10" stroke-opacity="1" fill="none" fill-rule="evenodd"/></g><g clip-path="url(#clip3)"><path d="M0 0 0.000360892 577" stroke="#BFBFBF" stroke-width="3.4375" stroke-linecap="butt" stroke-linejoin="round" stroke-miterlimit="10" stroke-opacity="1" fill="none" fill-rule="evenodd" transform="matrix(1 0 0 -1 494.5 1635.5)"/></g><g clip-path="url(#clip4)"><path d="M494.5 1491.5 1553.5 1491.5" stroke="#BFBFBF" stroke-width="3.4375" stroke-linecap="butt" stroke-linejoin="round" stroke-miterlimit="10" stroke-opacity="1" fill="none" fill-rule="evenodd"/></g><g clip-path="url(#clip5)"><path d="M1052.5 1563.55 1159.54 1563.5 1254.54 1559.55 1304.54 1554.55 1335.54 1549.55 1351.54 1541.55 1363.54 1534.55 1369.55 1527.55 1373.55 1520.55 1377.5 1508.5" stroke="#4472C4" stroke-width="6.875" stroke-linecap="round" stroke-linejoin="round" stroke-miterlimit="10" stroke-opacity="1" fill="none" fill-rule="evenodd"/></g><g clip-path="url(#clip6)"><path d="M1060.32 1563.03C1060.32 1567.73 1056.52 1571.53 1051.82 1571.53 1047.13 1571.53 1043.32 1567.73 1043.32 1563.03 1043.32 1558.34 1047.13 1554.53 1051.82 1554.53 1056.52 1554.53 1060.32 1558.34 1060.32 1563.03Z" stroke="#4472C4" stroke-width="3.4375" stroke-linecap="butt" stroke-linejoin="round" stroke-miterlimit="10" stroke-opacity="1" fill="#4472C4" fill-rule="evenodd" fill-opacity="1"/><path d="M1167.32 1563.03C1167.32 1567.73 1163.52 1571.53 1158.82 1571.53 1154.13 1571.53 1150.32 1567.73 1150.32 1563.03 1150.32 1558.34 1154.13 1554.53 1158.82 1554.53 1163.52 1554.53 1167.32 1558.34 1167.32 1563.03Z" stroke="#4472C4" stroke-width="3.4375" stroke-linecap="butt" stroke-linejoin="round" stroke-miterlimit="10" stroke-opacity="1" fill="#4472C4" fill-rule="evenodd" fill-opacity="1"/><path d="M1263.32 1559.03C1263.32 1563.73 1259.52 1567.53 1254.82 1567.53 1250.13 1567.53 1246.32 1563.73 1246.32 1559.03 1246.32 1554.34 1250.13 1550.53 1254.82 1550.53 1259.52 1550.53 1263.32 1554.34 1263.32 1559.03Z" stroke="#4472C4" stroke-width="3.4375" stroke-linecap="butt" stroke-linejoin="round" stroke-miterlimit="10" stroke-opacity="1" fill="#4472C4" fill-rule="evenodd" fill-opacity="1"/><path d="M1312.32 1554.03C1312.32 1558.73 1308.52 1562.53 1303.82 1562.53 1299.13 1562.53 1295.32 1558.73 1295.32 1554.03 1295.32 1549.34 1299.13 1545.53 1303.82 1545.53 1308.52 1545.53 1312.32 1549.34 1312.32 1554.03Z" stroke="#4472C4" stroke-width="3.4375" stroke-linecap="butt" stroke-linejoin="round" stroke-miterlimit="10" stroke-opacity="1" fill="#4472C4" fill-rule="evenodd" fill-opacity="1"/><path d="M1344.32 1549.03C1344.32 1553.73 1340.52 1557.53 1335.82 1557.53 1331.13 1557.53 1327.32 1553.73 1327.32 1549.03 1327.32 1544.34 1331.13 1540.53 1335.82 1540.53 1340.52 1540.53 1344.32 1544.34 1344.32 1549.03Z" stroke="#4472C4" stroke-width="3.4375" stroke-linecap="butt" stroke-linejoin="round" stroke-miterlimit="10" stroke-opacity="1" fill="#4472C4" fill-rule="evenodd" fill-opacity="1"/><path d="M1359.32 1541.03C1359.32 1545.73 1355.52 1549.53 1350.82 1549.53 1346.13 1549.53 1342.32 1545.73 1342.32 1541.03 1342.32 1536.34 1346.13 1532.53 1350.82 1532.53 1355.52 1532.53 1359.32 1536.34 1359.32 1541.03Z" stroke="#4472C4" stroke-width="3.4375" stroke-linecap="butt" stroke-linejoin="round" stroke-miterlimit="10" stroke-opacity="1" fill="#4472C4" fill-rule="evenodd" fill-opacity="1"/><path d="M1371.32 1534.03C1371.32 1538.73 1367.52 1542.53 1362.82 1542.53 1358.13 1542.53 1354.32 1538.73 1354.32 1534.03 1354.32 1529.34 1358.13 1525.53 1362.82 1525.53 1367.52 1525.53 1371.32 1529.34 1371.32 1534.03Z" stroke="#4472C4" stroke-width="3.4375" stroke-linecap="butt" stroke-linejoin="round" stroke-miterlimit="10" stroke-opacity="1" fill="#4472C4" fill-rule="evenodd" fill-opacity="1"/><path d="M1377.32 1527.03C1377.32 1531.73 1373.52 1535.53 1368.82 1535.53 1364.13 1535.53 1360.32 1531.73 1360.32 1527.03 1360.32 1522.34 1364.13 1518.53 1368.82 1518.53 1373.52 1518.53 1377.32 1522.34 1377.32 1527.03Z" stroke="#4472C4" stroke-width="3.4375" stroke-linecap="butt" stroke-linejoin="round" stroke-miterlimit="10" stroke-opacity="1" fill="#4472C4" fill-rule="evenodd" fill-opacity="1"/><path d="M1381.32 1520.03C1381.32 1524.73 1377.52 1528.53 1372.82 1528.53 1368.13 1528.53 1364.32 1524.73 1364.32 1520.03 1364.32 1515.34 1368.13 1511.53 1372.82 1511.53 1377.52 1511.53 1381.32 1515.34 1381.32 1520.03Z" stroke="#4472C4" stroke-width="3.4375" stroke-linecap="butt" stroke-linejoin="round" stroke-miterlimit="10" stroke-opacity="1" fill="#4472C4" fill-rule="evenodd" fill-opacity="1"/><path d="M1385.32 1508.03C1385.32 1512.73 1381.52 1516.53 1376.82 1516.53 1372.13 1516.53 1368.32 1512.73 1368.32 1508.03 1368.32 1503.34 1372.13 1499.53 1376.82 1499.53 1381.52 1499.53 1385.32 1503.34 1385.32 1508.03Z" stroke="#4472C4" stroke-width="3.4375" stroke-linecap="butt" stroke-linejoin="round" stroke-miterlimit="10" stroke-opacity="1" fill="#4472C4" fill-rule="evenodd" fill-opacity="1"/></g><g clip-path="url(#clip7)"><path d="M479.5 1155.54 586.519 1155.54 692.523 1155.54 754.525 1155.54 767.525 1155.54 778.526 1155.54 799.526 1155.5 807.527 1151.54 811.527 1147.54 811.527 1141.54 813.5 1136.5" stroke="#ED7D31" stroke-width="6.875" stroke-linecap="round" stroke-linejoin="round" stroke-miterlimit="10" stroke-opacity="1" fill="none" fill-rule="evenodd"/></g><g clip-path="url(#clip8)"><path d="M594.324 1155.03C594.324 1159.73 590.518 1163.53 585.824 1163.53 581.13 1163.53 577.324 1159.73 577.324 1155.03 577.324 1150.34 581.13 1146.53 585.824 1146.53 590.518 1146.53 594.324 1150.34 594.324 1155.03Z" stroke="#ED7D31" stroke-width="3.4375" stroke-linecap="butt" stroke-linejoin="round" stroke-miterlimit="10" stroke-opacity="1" fill="#ED7D31" fill-rule="evenodd" fill-opacity="1"/><path d="M700.324 1155.03C700.324 1159.73 696.518 1163.53 691.824 1163.53 687.13 1163.53 683.324 1159.73 683.324 1155.03 683.324 1150.34 687.13 1146.53 691.824 1146.53 696.518 1146.53 700.324 1150.34 700.324 1155.03Z" stroke="#ED7D31" stroke-width="3.4375" stroke-linecap="butt" stroke-linejoin="round" stroke-miterlimit="10" stroke-opacity="1" fill="#ED7D31" fill-rule="evenodd" fill-opacity="1"/><path d="M762.324 1155.03C762.324 1159.73 758.518 1163.53 753.824 1163.53 749.13 1163.53 745.324 1159.73 745.324 1155.03 745.324 1150.34 749.13 1146.53 753.824 1146.53 758.518 1146.53 762.324 1150.34 762.324 1155.03Z" stroke="#ED7D31" stroke-width="3.4375" stroke-linecap="butt" stroke-linejoin="round" stroke-miterlimit="10" stroke-opacity="1" fill="#ED7D31" fill-rule="evenodd" fill-opacity="1"/><path d="M775.324 1155.03C775.324 1159.73 771.518 1163.53 766.824 1163.53 762.13 1163.53 758.324 1159.73 758.324 1155.03 758.324 1150.34 762.13 1146.53 766.824 1146.53 771.518 1146.53 775.324 1150.34 775.324 1155.03Z" stroke="#ED7D31" stroke-width="3.4375" stroke-linecap="butt" stroke-linejoin="round" stroke-miterlimit="10" stroke-opacity="1" fill="#ED7D31" fill-rule="evenodd" fill-opacity="1"/><path d="M786.324 1155.03C786.324 1159.73 782.518 1163.53 777.824 1163.53 773.13 1163.53 769.324 1159.73 769.324 1155.03 769.324 1150.34 773.13 1146.53 777.824 1146.53 782.518 1146.53 786.324 1150.34 786.324 1155.03Z" stroke="#ED7D31" stroke-width="3.4375" stroke-linecap="butt" stroke-linejoin="round" stroke-miterlimit="10" stroke-opacity="1" fill="#ED7D31" fill-rule="evenodd" fill-opacity="1"/><path d="M807.324 1155.03C807.324 1159.73 803.518 1163.53 798.824 1163.53 794.13 1163.53 790.324 1159.73 790.324 1155.03 790.324 1150.34 794.13 1146.53 798.824 1146.53 803.518 1146.53 807.324 1150.34 807.324 1155.03Z" stroke="#ED7D31" stroke-width="3.4375" stroke-linecap="butt" stroke-linejoin="round" stroke-miterlimit="10" stroke-opacity="1" fill="#ED7D31" fill-rule="evenodd" fill-opacity="1"/><path d="M815.324 1151.03C815.324 1155.73 811.518 1159.53 806.824 1159.53 802.13 1159.53 798.324 1155.73 798.324 1151.03 798.324 1146.34 802.13 1142.53 806.824 1142.53 811.518 1142.53 815.324 1146.34 815.324 1151.03Z" stroke="#ED7D31" stroke-width="3.4375" stroke-linecap="butt" stroke-linejoin="round" stroke-miterlimit="10" stroke-opacity="1" fill="#ED7D31" fill-rule="evenodd" fill-opacity="1"/><path d="M819.324 1147.03C819.324 1151.73 815.518 1155.53 810.824 1155.53 806.13 1155.53 802.324 1151.73 802.324 1147.03 802.324 1142.34 806.13 1138.53 810.824 1138.53 815.518 1138.53 819.324 1142.34 819.324 1147.03Z" stroke="#ED7D31" stroke-width="3.4375" stroke-linecap="butt" stroke-linejoin="round" stroke-miterlimit="10" stroke-opacity="1" fill="#ED7D31" fill-rule="evenodd" fill-opacity="1"/><path d="M819.324 1141.03C819.324 1145.73 815.518 1149.53 810.824 1149.53 806.13 1149.53 802.324 1145.73 802.324 1141.03 802.324 1136.34 806.13 1132.53 810.824 1132.53 815.518 1132.53 819.324 1136.34 819.324 1141.03Z" stroke="#ED7D31" stroke-width="3.4375" stroke-linecap="butt" stroke-linejoin="round" stroke-miterlimit="10" stroke-opacity="1" fill="#ED7D31" fill-rule="evenodd" fill-opacity="1"/><path d="M821.324 1136.03C821.324 1140.73 817.518 1144.53 812.824 1144.53 808.13 1144.53 804.324 1140.73 804.324 1136.03 804.324 1131.34 808.13 1127.53 812.824 1127.53 817.518 1127.53 821.324 1131.34 821.324 1136.03Z" stroke="#ED7D31" stroke-width="3.4375" stroke-linecap="butt" stroke-linejoin="round" stroke-miterlimit="10" stroke-opacity="1" fill="#ED7D31" fill-rule="evenodd" fill-opacity="1"/></g><g clip-path="url(#clip9)"><path d="M798.5 1459.55 917.53 1464.5 1016.53 1461.55 1064.54 1456.55 1095.54 1450.55 1114.54 1444.55 1122.54 1436.55 1127.54 1428.55 1131.54 1421.55 1133.54 1415.55 1136.5 1410.5" stroke="#548235" stroke-width="6.875" stroke-linecap="round" stroke-linejoin="round" stroke-miterlimit="10" stroke-opacity="1" fill="none" fill-rule="evenodd"/></g><g clip-path="url(#clip10)"><path d="M806.324 1459.03C806.324 1463.73 802.518 1467.53 797.824 1467.53 793.13 1467.53 789.324 1463.73 789.324 1459.03 789.324 1454.34 793.13 1450.53 797.824 1450.53 802.518 1450.53 806.324 1454.34 806.324 1459.03Z" stroke="#548235" stroke-width="3.4375" stroke-linecap="butt" stroke-linejoin="round" stroke-miterlimit="10" stroke-opacity="1" fill="#548235" fill-rule="evenodd" fill-opacity="1"/><path d="M925.324 1464.03C925.324 1468.73 921.518 1472.53 916.824 1472.53 912.13 1472.53 908.324 1468.73 908.324 1464.03 908.324 1459.34 912.13 1455.53 916.824 1455.53 921.518 1455.53 925.324 1459.34 925.324 1464.03Z" stroke="#548235" stroke-width="3.4375" stroke-linecap="butt" stroke-linejoin="round" stroke-miterlimit="10" stroke-opacity="1" fill="#548235" fill-rule="evenodd" fill-opacity="1"/><path d="M1024.32 1461.03C1024.32 1465.73 1020.52 1469.53 1015.82 1469.53 1011.13 1469.53 1007.32 1465.73 1007.32 1461.03 1007.32 1456.34 1011.13 1452.53 1015.82 1452.53 1020.52 1452.53 1024.32 1456.34 1024.32 1461.03Z" stroke="#548235" stroke-width="3.4375" stroke-linecap="butt" stroke-linejoin="round" stroke-miterlimit="10" stroke-opacity="1" fill="#548235" fill-rule="evenodd" fill-opacity="1"/><path d="M1072.32 1456.03C1072.32 1460.73 1068.52 1464.53 1063.82 1464.53 1059.13 1464.53 1055.32 1460.73 1055.32 1456.03 1055.32 1451.34 1059.13 1447.53 1063.82 1447.53 1068.52 1447.53 1072.32 1451.34 1072.32 1456.03Z" stroke="#548235" stroke-width="3.4375" stroke-linecap="butt" stroke-linejoin="round" stroke-miterlimit="10" stroke-opacity="1" fill="#548235" fill-rule="evenodd" fill-opacity="1"/><path d="M1103.32 1450.03C1103.32 1454.73 1099.52 1458.53 1094.82 1458.53 1090.13 1458.53 1086.32 1454.73 1086.32 1450.03 1086.32 1445.34 1090.13 1441.53 1094.82 1441.53 1099.52 1441.53 1103.32 1445.34 1103.32 1450.03Z" stroke="#548235" stroke-width="3.4375" stroke-linecap="butt" stroke-linejoin="round" stroke-miterlimit="10" stroke-opacity="1" fill="#548235" fill-rule="evenodd" fill-opacity="1"/><path d="M1122.32 1444.03C1122.32 1448.73 1118.52 1452.53 1113.82 1452.53 1109.13 1452.53 1105.32 1448.73 1105.32 1444.03 1105.32 1439.34 1109.13 1435.53 1113.82 1435.53 1118.52 1435.53 1122.32 1439.34 1122.32 1444.03Z" stroke="#548235" stroke-width="3.4375" stroke-linecap="butt" stroke-linejoin="round" stroke-miterlimit="10" stroke-opacity="1" fill="#548235" fill-rule="evenodd" fill-opacity="1"/><path d="M1130.32 1436.03C1130.32 1440.73 1126.52 1444.53 1121.82 1444.53 1117.13 1444.53 1113.32 1440.73 1113.32 1436.03 1113.32 1431.34 1117.13 1427.53 1121.82 1427.53 1126.52 1427.53 1130.32 1431.34 1130.32 1436.03Z" stroke="#548235" stroke-width="3.4375" stroke-linecap="butt" stroke-linejoin="round" stroke-miterlimit="10" stroke-opacity="1" fill="#548235" fill-rule="evenodd" fill-opacity="1"/><path d="M1135.32 1428.03C1135.32 1432.73 1131.52 1436.53 1126.82 1436.53 1122.13 1436.53 1118.32 1432.73 1118.32 1428.03 1118.32 1423.34 1122.13 1419.53 1126.82 1419.53 1131.52 1419.53 1135.32 1423.34 1135.32 1428.03Z" stroke="#548235" stroke-width="3.4375" stroke-linecap="butt" stroke-linejoin="round" stroke-miterlimit="10" stroke-opacity="1" fill="#548235" fill-rule="evenodd" fill-opacity="1"/><path d="M1139.32 1421.03C1139.32 1425.73 1135.52 1429.53 1130.82 1429.53 1126.13 1429.53 1122.32 1425.73 1122.32 1421.03 1122.32 1416.34 1126.13 1412.53 1130.82 1412.53 1135.52 1412.53 1139.32 1416.34 1139.32 1421.03Z" stroke="#548235" stroke-width="3.4375" stroke-linecap="butt" stroke-linejoin="round" stroke-miterlimit="10" stroke-opacity="1" fill="#548235" fill-rule="evenodd" fill-opacity="1"/><path d="M1141.32 1415.03C1141.32 1419.73 1137.52 1423.53 1132.82 1423.53 1128.13 1423.53 1124.32 1419.73 1124.32 1415.03 1124.32 1410.34 1128.13 1406.53 1132.82 1406.53 1137.52 1406.53 1141.32 1410.34 1141.32 1415.03Z" stroke="#548235" stroke-width="3.4375" stroke-linecap="butt" stroke-linejoin="round" stroke-miterlimit="10" stroke-opacity="1" fill="#548235" fill-rule="evenodd" fill-opacity="1"/><path d="M1144.32 1410.03C1144.32 1414.73 1140.52 1418.53 1135.82 1418.53 1131.13 1418.53 1127.32 1414.73 1127.32 1410.03 1127.32 1405.34 1131.13 1401.53 1135.82 1401.53 1140.52 1401.53 1144.32 1405.34 1144.32 1410.03Z" stroke="#548235" stroke-width="3.4375" stroke-linecap="butt" stroke-linejoin="round" stroke-miterlimit="10" stroke-opacity="1" fill="#548235" fill-rule="evenodd" fill-opacity="1"/></g><g clip-path="url(#clip11)"><text fill="#595959" fill-opacity="1" font-family="Calibri,Calibri_MSFontService,sans-serif" font-style="normal" font-variant="normal" font-weight="400" font-stretch="normal" font-size="41" text-anchor="start" direction="ltr" writing-mode="lr-tb" unicode-bidi="normal" text-decoration="none" transform="matrix(1 0 0 1 403.677 1645)">0,1</text></g><g clip-path="url(#clip12)"><text fill="#595959" fill-opacity="1" font-family="Calibri,Calibri_MSFontService,sans-serif" font-style="normal" font-variant="normal" font-weight="400" font-stretch="normal" font-size="41" text-anchor="start" direction="ltr" writing-mode="lr-tb" unicode-bidi="normal" text-decoration="none" transform="matrix(1 0 0 1 434.867 1501)">1</text></g><g clip-path="url(#clip13)"><text fill="#595959" fill-opacity="1" font-family="Calibri,Calibri_MSFontService,sans-serif" font-style="normal" font-variant="normal" font-weight="400" font-stretch="normal" font-size="41" text-anchor="start" direction="ltr" writing-mode="lr-tb" unicode-bidi="normal" text-decoration="none" transform="matrix(1 0 0 1 413.967 1357)">10</text></g><g clip-path="url(#clip14)"><text fill="#595959" fill-opacity="1" font-family="Calibri,Calibri_MSFontService,sans-serif" font-style="normal" font-variant="normal" font-weight="400" font-stretch="normal" font-size="41" text-anchor="start" direction="ltr" writing-mode="lr-tb" unicode-bidi="normal" text-decoration="none" transform="matrix(1 0 0 1 393.067 1213)">100</text></g><g clip-path="url(#clip15)"><text fill="#595959" fill-opacity="1" font-family="Calibri,Calibri_MSFontService,sans-serif" font-style="normal" font-variant="normal" font-weight="400" font-stretch="normal" font-size="41" text-anchor="start" direction="ltr" writing-mode="lr-tb" unicode-bidi="normal" text-decoration="none" transform="matrix(1 0 0 1 372.167 1068)">1000</text></g><g clip-path="url(#clip16)"><text fill="#595959" fill-opacity="1" font-family="Calibri,Calibri_MSFontService,sans-serif" font-style="normal" font-variant="normal" font-weight="400" font-stretch="normal" font-size="41" text-anchor="start" direction="ltr" writing-mode="lr-tb" unicode-bidi="normal" text-decoration="none" transform="matrix(1 0 0 1 441.784 1701)">10000</text></g><g clip-path="url(#clip17)"><text fill="#595959" fill-opacity="1" font-family="Calibri,Calibri_MSFontService,sans-serif" font-style="normal" font-variant="normal" font-weight="400" font-stretch="normal" font-size="41" text-anchor="start" direction="ltr" writing-mode="lr-tb" unicode-bidi="normal" text-decoration="none" transform="matrix(1 0 0 1 784.554 1701)">100000</text></g><g clip-path="url(#clip18)"><text fill="#595959" fill-opacity="1" font-family="Calibri,Calibri_MSFontService,sans-serif" font-style="normal" font-variant="normal" font-weight="400" font-stretch="normal" font-size="41" text-anchor="start" direction="ltr" writing-mode="lr-tb" unicode-bidi="normal" text-decoration="none" transform="matrix(1 0 0 1 1127.32 1701)">1000000</text></g><g clip-path="url(#clip19)"><text fill="#595959" fill-opacity="1" font-family="Calibri,Calibri_MSFontService,sans-serif" font-style="normal" font-variant="normal" font-weight="400" font-stretch="normal" font-size="41" text-anchor="start" direction="ltr" writing-mode="lr-tb" unicode-bidi="normal" text-decoration="none" transform="matrix(1 0 0 1 1470.09 1701)">10000000</text></g><g clip-path="url(#clip20)"><text fill="#595959" fill-opacity="1" font-family="Calibri,Calibri_MSFontService,sans-serif" font-style="normal" font-variant="normal" font-weight="400" font-stretch="normal" font-size="46" text-anchor="start" direction="ltr" writing-mode="lr-tb" unicode-bidi="normal" text-decoration="none" transform="matrix(1 0 0 1 882.743 1741)">Queries/s</text></g><g clip-path="url(#clip21)"><rect x="1167.5" y="1081.5" width="358" height="155" stroke="#000000" stroke-width="3.4375" stroke-linecap="butt" stroke-linejoin="round" stroke-miterlimit="10" stroke-opacity="1" fill="#FFFFFF" fill-opacity="1"/></g><g clip-path="url(#clip22)"><path d="M1219.5 1107.5 1307.5 1107.5" stroke="#4472C4" stroke-width="6.875" stroke-linecap="round" stroke-linejoin="round" stroke-miterlimit="10" stroke-opacity="1" fill="none" fill-rule="evenodd"/></g><g clip-path="url(#clip23)"><path d="M1271.03 1106.5C1271.03 1111.19 1267.43 1115 1263 1115 1258.57 1115 1254.97 1111.19 1254.97 1106.5 1254.97 1101.81 1258.57 1098 1263 1098 1267.43 1098 1271.03 1101.81 1271.03 1106.5Z" stroke="#4472C4" stroke-width="3.4375" stroke-linecap="butt" stroke-linejoin="round" stroke-miterlimit="10" stroke-opacity="1" fill="#4472C4" fill-rule="evenodd" fill-opacity="1"/></g><g clip-path="url(#clip24)"><text fill="#595959" fill-opacity="1" font-family="Calibri,Calibri_MSFontService,sans-serif" font-style="normal" font-variant="normal" font-weight="400" font-stretch="normal" font-size="41" text-anchor="start" direction="ltr" writing-mode="lr-tb" unicode-bidi="normal" text-decoration="none" transform="matrix(1 0 0 1 1317.23 1118)">PotionDB</text></g><g clip-path="url(#clip25)"><path d="M1219.5 1159.5 1307.5 1159.5" stroke="#ED7D31" stroke-width="6.875" stroke-linecap="round" stroke-linejoin="round" stroke-miterlimit="10" stroke-opacity="1" fill="none" fill-rule="evenodd"/></g><g clip-path="url(#clip26)"><path d="M1271.03 1158.5C1271.03 1163.19 1267.43 1167 1263 1167 1258.57 1167 1254.97 1163.19 1254.97 1158.5 1254.97 1153.81 1258.57 1150 1263 1150 1267.43 1150 1271.03 1153.81 1271.03 1158.5Z" stroke="#ED7D31" stroke-width="3.4375" stroke-linecap="butt" stroke-linejoin="round" stroke-miterlimit="10" stroke-opacity="1" fill="#ED7D31" fill-rule="evenodd" fill-opacity="1"/></g><g clip-path="url(#clip27)"><text fill="#595959" fill-opacity="1" font-family="Calibri,Calibri_MSFontService,sans-serif" font-style="normal" font-variant="normal" font-weight="400" font-stretch="normal" font-size="41" text-anchor="start" direction="ltr" writing-mode="lr-tb" unicode-bidi="normal" text-decoration="none" transform="matrix(1 0 0 1 1317.23 1169)">Local</text></g><g clip-path="url(#clip28)"><path d="M1219.5 1210.5 1307.5 1210.5" stroke="#548235" stroke-width="6.875" stroke-linecap="round" stroke-linejoin="round" stroke-miterlimit="10" stroke-opacity="1" fill="none" fill-rule="evenodd"/></g><g clip-path="url(#clip29)"><path d="M1271.03 1210C1271.03 1214.43 1267.43 1218.03 1263 1218.03 1258.57 1218.03 1254.97 1214.43 1254.97 1210 1254.97 1205.57 1258.57 1201.97 1263 1201.97 1267.43 1201.97 1271.03 1205.57 1271.03 1210Z" stroke="#548235" stroke-width="3.4375" stroke-linecap="butt" stroke-linejoin="round" stroke-miterlimit="10" stroke-opacity="1" fill="#548235" fill-rule="evenodd" fill-opacity="1"/></g><g clip-path="url(#clip30)"><text fill="#595959" fill-opacity="1" font-family="Calibri,Calibri_MSFontService,sans-serif" font-style="normal" font-variant="normal" font-weight="400" font-stretch="normal" font-size="41" text-anchor="start" direction="ltr" writing-mode="lr-tb" unicode-bidi="normal" text-decoration="none" transform="matrix(1 0 0 1 1317.23 1221)">Single</text></g><g clip-path="url(#clip31)"><text fill="#595959" fill-opacity="1" font-family="Calibri,Calibri_MSFontService,sans-serif" font-style="normal" font-variant="normal" font-weight="400" font-stretch="normal" font-size="46" text-anchor="start" direction="ltr" writing-mode="lr-tb" unicode-bidi="normal" text-decoration="none" transform="matrix(-1.83697e-16 -1 1 -1.83697e-16 356.507 1726)">Latency per transaction (ms)</text></g></g></svg>