<svg width="1137" height="719" xmlns="http://www.w3.org/2000/svg" xmlns:xlink="http://www.w3.org/1999/xlink" overflow="hidden"><defs><clipPath id="clip0"><rect x="25758" y="362" width="1137" height="719"/></clipPath><clipPath id="clip1"><rect x="25761" y="366" width="1131" height="700"/></clipPath><clipPath id="clip2"><rect x="25934" y="398" width="958" height="609"/></clipPath><clipPath id="clip3"><rect x="25934" y="398" width="958" height="609"/></clipPath><clipPath id="clip4"><rect x="25934" y="398" width="958" height="609"/></clipPath><clipPath id="clip5"><rect x="25761" y="366" width="1131" height="700"/></clipPath><clipPath id="clip6"><rect x="25761" y="366" width="1131" height="700"/></clipPath><clipPath id="clip7"><rect x="25761" y="366" width="1131" height="700"/></clipPath><clipPath id="clip8"><rect x="25761" y="366" width="1131" height="700"/></clipPath><clipPath id="clip9"><rect x="25761" y="366" width="1131" height="700"/></clipPath><clipPath id="clip10"><rect x="25761" y="366" width="1131" height="700"/></clipPath><clipPath id="clip11"><rect x="25761" y="366" width="1131" height="700"/></clipPath><clipPath id="clip12"><rect x="25761" y="366" width="1131" height="700"/></clipPath><clipPath id="clip13"><rect x="25761" y="366" width="1131" height="700"/></clipPath><clipPath id="clip14"><rect x="25761" y="366" width="1131" height="700"/></clipPath><clipPath id="clip15"><rect x="25761" y="366" width="1131" height="700"/></clipPath><clipPath id="clip16"><rect x="25761" y="366" width="1131" height="700"/></clipPath><clipPath id="clip17"><rect x="25761" y="366" width="1131" height="700"/></clipPath><clipPath id="clip18"><rect x="25761" y="366" width="1131" height="700"/></clipPath><clipPath id="clip19"><rect x="25761" y="366" width="1131" height="700"/></clipPath><clipPath id="clip20"><rect x="25957" y="1011" width="152" height="67"/></clipPath><clipPath id="clip21"><rect x="26152" y="1009" width="150" height="67"/></clipPath><clipPath id="clip22"><rect x="26343" y="1010" width="152" height="67"/></clipPath><clipPath id="clip23"><rect x="26529" y="1007" width="152" height="67"/></clipPath><clipPath id="clip24"><rect x="26721" y="1010" width="150" height="67"/></clipPath></defs><g clip-path="url(#clip0)" transform="translate(-25758 -362)"><rect x="25761" y="367" width="1132" height="699" fill="#FFFFFF" fill-opacity="1"/><g clip-path="url(#clip1)"><path d="M25934.5 1004.5 26892.5 1004.5M25934.5 903.53 26892.5 903.53M25934.5 802.526 26892.5 802.526M25934.5 701.523 26892.5 701.523M25934.5 600.52 26892.5 600.52M25934.5 499.517 26892.5 499.517M25934.5 398.5 26892.5 398.5" stroke="#D9D9D9" stroke-width="3.4375" stroke-linecap="butt" stroke-linejoin="round" stroke-miterlimit="10" stroke-opacity="1" fill="none" fill-rule="evenodd"/></g><g clip-path="url(#clip2)"><path d="M25964.9 445.015 26008.9 445.015 26008.9 1005 25964.9 1005ZM26156.9 552.018 26199.9 552.018 26199.9 1005 26156.9 1005ZM26347.9 650.021 26391.9 650.021 26391.9 1005 26347.9 1005ZM26539.9 771.025 26583.9 771.025 26583.9 1005 26539.9 1005ZM26731.9 886.029 26774.9 886.029 26774.9 1005 26731.9 1005Z" fill="#4472C4" fill-rule="evenodd" fill-opacity="1"/></g><g clip-path="url(#clip3)"><path d="M26008.9 441.014 26051.9 441.014 26051.9 1005 26008.9 1005ZM26199.9 561.018 26243.9 561.018 26243.9 1005 26199.9 1005ZM26391.9 647.021 26434.9 647.021 26434.9 1005 26391.9 1005ZM26583.9 772.025 26626.9 772.025 26626.9 1005 26583.9 1005ZM26774.9 886.029 26818.9 886.029 26818.9 1005 26774.9 1005Z" fill="#ED7D31" fill-rule="evenodd" fill-opacity="1"/></g><g clip-path="url(#clip4)"><path d="M26051.9 449.015 26095.9 449.015 26095.9 1005 26051.9 1005ZM26243.9 556.018 26286.9 556.018 26286.9 1005 26243.9 1005ZM26434.9 671.022 26478.9 671.022 26478.9 1005 26434.9 1005ZM26626.9 777.026 26670.9 777.026 26670.9 1005 26626.9 1005ZM26818.9 892.029 26861.9 892.029 26861.9 1005 26818.9 1005Z" fill="#A5A5A5" fill-rule="evenodd" fill-opacity="1"/></g><g clip-path="url(#clip5)"><text fill="#595959" fill-opacity="1" font-family="Calibri,Calibri_MSFontService,sans-serif" font-style="normal" font-variant="normal" font-weight="400" font-stretch="normal" font-size="48" text-anchor="start" direction="ltr" writing-mode="lr-tb" unicode-bidi="normal" text-decoration="none" transform="matrix(1 0 0 1 25865.5 1017)">0</text></g><g clip-path="url(#clip6)"><text fill="#595959" fill-opacity="1" font-family="Calibri,Calibri_MSFontService,sans-serif" font-style="normal" font-variant="normal" font-weight="400" font-stretch="normal" font-size="48" text-anchor="start" direction="ltr" writing-mode="lr-tb" unicode-bidi="normal" text-decoration="none" transform="matrix(1 0 0 1 25865.5 916)">2</text></g><g clip-path="url(#clip7)"><text fill="#595959" fill-opacity="1" font-family="Calibri,Calibri_MSFontService,sans-serif" font-style="normal" font-variant="normal" font-weight="400" font-stretch="normal" font-size="48" text-anchor="start" direction="ltr" writing-mode="lr-tb" unicode-bidi="normal" text-decoration="none" transform="matrix(1 0 0 1 25865.5 815)">4</text></g><g clip-path="url(#clip8)"><text fill="#595959" fill-opacity="1" font-family="Calibri,Calibri_MSFontService,sans-serif" font-style="normal" font-variant="normal" font-weight="400" font-stretch="normal" font-size="48" text-anchor="start" direction="ltr" writing-mode="lr-tb" unicode-bidi="normal" text-decoration="none" transform="matrix(1 0 0 1 25865.5 715)">6</text></g><g clip-path="url(#clip9)"><text fill="#595959" fill-opacity="1" font-family="Calibri,Calibri_MSFontService,sans-serif" font-style="normal" font-variant="normal" font-weight="400" font-stretch="normal" font-size="48" text-anchor="start" direction="ltr" writing-mode="lr-tb" unicode-bidi="normal" text-decoration="none" transform="matrix(1 0 0 1 25865.5 614)">8</text></g><g clip-path="url(#clip10)"><text fill="#595959" fill-opacity="1" font-family="Calibri,Calibri_MSFontService,sans-serif" font-style="normal" font-variant="normal" font-weight="400" font-stretch="normal" font-size="48" text-anchor="start" direction="ltr" writing-mode="lr-tb" unicode-bidi="normal" text-decoration="none" transform="matrix(1 0 0 1 25841.1 513)">10</text></g><g clip-path="url(#clip11)"><text fill="#595959" fill-opacity="1" font-family="Calibri,Calibri_MSFontService,sans-serif" font-style="normal" font-variant="normal" font-weight="400" font-stretch="normal" font-size="48" text-anchor="start" direction="ltr" writing-mode="lr-tb" unicode-bidi="normal" text-decoration="none" transform="matrix(1 0 0 1 25841.1 412)">12</text></g><g clip-path="url(#clip12)"><text fill="#595959" fill-opacity="1" font-family="Calibri,Calibri_MSFontService,sans-serif" font-style="normal" font-variant="normal" font-weight="400" font-stretch="normal" font-size="50" text-anchor="start" direction="ltr" writing-mode="lr-tb" unicode-bidi="normal" text-decoration="none" transform="matrix(6.12323e-17 -1 1 6.12323e-17 25817.8 987)">Throughput (M ops/s)</text></g><g clip-path="url(#clip13)"><rect x="26535.5" y="407.5" width="318" height="174" stroke="#000000" stroke-width="3.4375" stroke-linecap="butt" stroke-linejoin="round" stroke-miterlimit="10" stroke-opacity="1" fill="#FFFFFF" fill-opacity="1"/></g><g clip-path="url(#clip14)"><rect x="26605" y="423" width="26" height="25.9998" fill="#4472C4" fill-opacity="1"/></g><g clip-path="url(#clip15)"><text fill="#595959" fill-opacity="1" font-family="Calibri,Calibri_MSFontService,sans-serif" font-style="normal" font-variant="normal" font-weight="400" font-stretch="normal" font-size="48" text-anchor="start" direction="ltr" writing-mode="lr-tb" unicode-bidi="normal" text-decoration="none" transform="matrix(1 0 0 1 26642.8 449)">Counter</text></g><g clip-path="url(#clip16)"><rect x="26605" y="481" width="26" height="26.0001" fill="#ED7D31" fill-opacity="1"/></g><g clip-path="url(#clip17)"><text fill="#595959" fill-opacity="1" font-family="Calibri,Calibri_MSFontService,sans-serif" font-style="normal" font-variant="normal" font-weight="400" font-stretch="normal" font-size="48" text-anchor="start" direction="ltr" writing-mode="lr-tb" unicode-bidi="normal" text-decoration="none" transform="matrix(1 0 0 1 26642.8 507)">Average</text></g><g clip-path="url(#clip18)"><rect x="26605" y="539" width="26" height="26.0001" fill="#A5A5A5" fill-opacity="1"/></g><g clip-path="url(#clip19)"><text fill="#595959" fill-opacity="1" font-family="Calibri,Calibri_MSFontService,sans-serif" font-style="normal" font-variant="normal" font-weight="400" font-stretch="normal" font-size="48" text-anchor="start" direction="ltr" writing-mode="lr-tb" unicode-bidi="normal" text-decoration="none" transform="matrix(1 0 0 1 26642.8 565)">TopK</text></g><g clip-path="url(#clip20)"><text fill="#595959" fill-opacity="1" font-family="Calibri,Calibri_MSFontService,sans-serif" font-style="normal" font-variant="normal" font-weight="400" font-stretch="normal" font-size="48" text-anchor="start" direction="ltr" writing-mode="lr-tb" unicode-bidi="normal" text-decoration="none" transform="matrix(1 0 0 1 25957.8 1057)">5 Rep.</text></g><g clip-path="url(#clip21)"><text fill="#595959" fill-opacity="1" font-family="Calibri,Calibri_MSFontService,sans-serif" font-style="normal" font-variant="normal" font-weight="400" font-stretch="normal" font-size="48" text-anchor="start" direction="ltr" writing-mode="lr-tb" unicode-bidi="normal" text-decoration="none" transform="matrix(1 0 0 1 26152.4 1055)">4 Rep.</text></g><g clip-path="url(#clip22)"><text fill="#595959" fill-opacity="1" font-family="Calibri,Calibri_MSFontService,sans-serif" font-style="normal" font-variant="normal" font-weight="400" font-stretch="normal" font-size="48" text-anchor="start" direction="ltr" writing-mode="lr-tb" unicode-bidi="normal" text-decoration="none" transform="matrix(1 0 0 1 26343.7 1056)">3 Rep.</text></g><g clip-path="url(#clip23)"><text fill="#595959" fill-opacity="1" font-family="Calibri,Calibri_MSFontService,sans-serif" font-style="normal" font-variant="normal" font-weight="400" font-stretch="normal" font-size="48" text-anchor="start" direction="ltr" writing-mode="lr-tb" unicode-bidi="normal" text-decoration="none" transform="matrix(1 0 0 1 26529.2 1054)">2 Rep.</text></g><g clip-path="url(#clip24)"><text fill="#595959" fill-opacity="1" font-family="Calibri,Calibri_MSFontService,sans-serif" font-style="normal" font-variant="normal" font-weight="400" font-stretch="normal" font-size="48" text-anchor="start" direction="ltr" writing-mode="lr-tb" unicode-bidi="normal" text-decoration="none" transform="matrix(1 0 0 1 26721.3 1056)">1 Rep.</text></g></g></svg>