<svg width="1407" height="862" xmlns="http://www.w3.org/2000/svg" xmlns:xlink="http://www.w3.org/1999/xlink" overflow="hidden"><defs><clipPath id="clip0"><rect x="1796" y="77" width="1407" height="862"/></clipPath><clipPath id="clip1"><rect x="1799" y="79" width="1403" height="860"/></clipPath><clipPath id="clip2"><rect x="1799" y="79" width="1403" height="860"/></clipPath><clipPath id="clip3"><rect x="1799" y="79" width="1403" height="860"/></clipPath><clipPath id="clip4"><rect x="1799" y="79" width="1403" height="860"/></clipPath><clipPath id="clip5"><rect x="1962" y="109" width="1143" height="699"/></clipPath><clipPath id="clip6"><rect x="1799" y="79" width="1403" height="860"/></clipPath><clipPath id="clip7"><rect x="1962" y="109" width="1143" height="699"/></clipPath><clipPath id="clip8"><rect x="1799" y="79" width="1403" height="860"/></clipPath><clipPath id="clip9"><rect x="1962" y="109" width="1143" height="699"/></clipPath><clipPath id="clip10"><rect x="1799" y="79" width="1403" height="860"/></clipPath><clipPath id="clip11"><rect x="1799" y="79" width="1403" height="860"/></clipPath><clipPath id="clip12"><rect x="1799" y="79" width="1403" height="860"/></clipPath><clipPath id="clip13"><rect x="1799" y="79" width="1403" height="860"/></clipPath><clipPath id="clip14"><rect x="1799" y="79" width="1403" height="860"/></clipPath><clipPath id="clip15"><rect x="1799" y="79" width="1403" height="860"/></clipPath><clipPath id="clip16"><rect x="1799" y="79" width="1403" height="860"/></clipPath><clipPath id="clip17"><rect x="1799" y="79" width="1403" height="860"/></clipPath><clipPath id="clip18"><rect x="1799" y="79" width="1403" height="860"/></clipPath><clipPath id="clip19"><rect x="1799" y="79" width="1403" height="860"/></clipPath><clipPath id="clip20"><rect x="1799" y="79" width="1403" height="860"/></clipPath><clipPath id="clip21"><rect x="1799" y="79" width="1403" height="860"/></clipPath><clipPath id="clip22"><rect x="1799" y="79" width="1403" height="860"/></clipPath><clipPath id="clip23"><rect x="1799" y="79" width="1403" height="860"/></clipPath><clipPath id="clip24"><rect x="1799" y="79" width="1403" height="860"/></clipPath><clipPath id="clip25"><rect x="1799" y="79" width="1403" height="860"/></clipPath><clipPath id="clip26"><rect x="1799" y="79" width="1403" height="860"/></clipPath><clipPath id="clip27"><rect x="1799" y="79" width="1403" height="860"/></clipPath><clipPath id="clip28"><rect x="1799" y="79" width="1403" height="860"/></clipPath><clipPath id="clip29"><rect x="1799" y="79" width="1403" height="860"/></clipPath><clipPath id="clip30"><rect x="1799" y="79" width="1403" height="860"/></clipPath><clipPath id="clip31"><rect x="1799" y="79" width="1403" height="860"/></clipPath><clipPath id="clip32"><rect x="1799" y="79" width="1403" height="860"/></clipPath><clipPath id="clip33"><rect x="1799" y="79" width="1403" height="860"/></clipPath><clipPath id="clip34"><rect x="1799" y="79" width="1403" height="860"/></clipPath><clipPath id="clip35"><rect x="1799" y="79" width="1403" height="860"/></clipPath><clipPath id="clip36"><rect x="1799" y="79" width="1403" height="860"/></clipPath><clipPath id="clip37"><rect x="1799" y="79" width="1403" height="860"/></clipPath><clipPath id="clip38"><rect x="1799" y="79" width="1403" height="860"/></clipPath><clipPath id="clip39"><rect x="1799" y="79" width="1403" height="860"/></clipPath><clipPath id="clip40"><rect x="1799" y="79" width="1403" height="860"/></clipPath><clipPath id="clip41"><rect x="1799" y="79" width="1403" height="860"/></clipPath></defs><g clip-path="url(#clip0)" transform="translate(-1796 -77)"><rect x="1800" y="80.0001" width="1402" height="859" fill="#FFFFFF" fill-opacity="1"/><g clip-path="url(#clip1)"><path d="M1962.5 735.524 3101.5 735.524M1962.5 665.522 3101.5 665.522M1962.5 596.52 3101.5 596.52M1962.5 526.517 3101.5 526.517M1962.5 457.515 3101.5 457.515M1962.5 387.513 3101.5 387.513M1962.5 318.511 3101.5 318.511M1962.5 248.508 3101.5 248.508M1962.5 179.506 3101.5 179.506M1962.5 109.5 3101.5 109.5" stroke="#D9D9D9" stroke-width="3.4375" stroke-linecap="butt" stroke-linejoin="round" stroke-miterlimit="10" stroke-opacity="1" fill="none" fill-rule="evenodd"/></g><g clip-path="url(#clip2)"><path d="M2124.57 109.5 2124.57 804.5M2287.58 109.5 2287.58 804.5M2450.58 109.5 2450.58 804.5M2613.59 109.5 2613.59 804.5M2775.59 109.5 2775.59 804.5M2938.6 109.5 2938.6 804.5M3101.5 109.5 3101.5 804.5" stroke="#D9D9D9" stroke-width="3.4375" stroke-linecap="butt" stroke-linejoin="round" stroke-miterlimit="10" stroke-opacity="1" fill="none" fill-rule="evenodd"/></g><g clip-path="url(#clip3)"><path d="M0 0 0.000360892 695" stroke="#BFBFBF" stroke-width="3.4375" stroke-linecap="butt" stroke-linejoin="round" stroke-miterlimit="10" stroke-opacity="1" fill="none" fill-rule="evenodd" transform="matrix(1 0 0 -1 1962.5 804.5)"/></g><g clip-path="url(#clip4)"><path d="M1962.5 804.5 3101.5 804.5" stroke="#BFBFBF" stroke-width="3.4375" stroke-linecap="butt" stroke-linejoin="round" stroke-miterlimit="10" stroke-opacity="1" fill="none" fill-rule="evenodd"/></g><g clip-path="url(#clip5)"><path d="M2085.5 695.523 2211.57 696.5 2426.58 687.523 2603.59 677.522 2749.59 667.522 2834.59 649.521 2901.6 631.521 2940.6 610.52 2967.6 588.519 2993.5 541.5" stroke="#4472C4" stroke-width="6.875" stroke-linecap="round" stroke-linejoin="round" stroke-miterlimit="10" stroke-opacity="1" fill="none" fill-rule="evenodd"/></g><g clip-path="url(#clip6)"><path d="M2096.35 695.199C2096.35 701.273 2091.42 706.198 2085.35 706.198 2079.27 706.198 2074.35 701.273 2074.35 695.199 2074.35 689.124 2079.27 684.199 2085.35 684.199 2091.42 684.199 2096.35 689.124 2096.35 695.199Z" stroke="#4472C4" stroke-width="3.4375" stroke-linecap="butt" stroke-linejoin="round" stroke-miterlimit="10" stroke-opacity="1" fill="#4472C4" fill-rule="evenodd" fill-opacity="1"/><path d="M2222.35 696.199C2222.35 702.273 2217.42 707.198 2211.35 707.198 2205.27 707.198 2200.35 702.273 2200.35 696.199 2200.35 690.124 2205.27 685.199 2211.35 685.199 2217.42 685.199 2222.35 690.124 2222.35 696.199Z" stroke="#4472C4" stroke-width="3.4375" stroke-linecap="butt" stroke-linejoin="round" stroke-miterlimit="10" stroke-opacity="1" fill="#4472C4" fill-rule="evenodd" fill-opacity="1"/><path d="M2437.35 688.199C2437.35 694.274 2432.42 699.198 2426.35 699.198 2420.27 699.198 2415.35 694.274 2415.35 688.199 2415.35 682.124 2420.27 677.199 2426.35 677.199 2432.42 677.199 2437.35 682.124 2437.35 688.199Z" stroke="#4472C4" stroke-width="3.4375" stroke-linecap="butt" stroke-linejoin="round" stroke-miterlimit="10" stroke-opacity="1" fill="#4472C4" fill-rule="evenodd" fill-opacity="1"/><path d="M2614.35 677.199C2614.35 683.274 2609.42 688.198 2603.35 688.198 2597.27 688.198 2592.35 683.274 2592.35 677.199 2592.35 671.124 2597.27 666.199 2603.35 666.199 2609.42 666.199 2614.35 671.124 2614.35 677.199Z" stroke="#4472C4" stroke-width="3.4375" stroke-linecap="butt" stroke-linejoin="round" stroke-miterlimit="10" stroke-opacity="1" fill="#4472C4" fill-rule="evenodd" fill-opacity="1"/><path d="M2760.35 667.199C2760.35 673.274 2755.42 678.198 2749.35 678.198 2743.27 678.198 2738.35 673.274 2738.35 667.199 2738.35 661.124 2743.27 656.199 2749.35 656.199 2755.42 656.199 2760.35 661.124 2760.35 667.199Z" stroke="#4472C4" stroke-width="3.4375" stroke-linecap="butt" stroke-linejoin="round" stroke-miterlimit="10" stroke-opacity="1" fill="#4472C4" fill-rule="evenodd" fill-opacity="1"/><path d="M2846.35 649.199C2846.35 655.274 2841.42 660.198 2835.35 660.198 2829.27 660.198 2824.35 655.274 2824.35 649.199 2824.35 643.124 2829.27 638.199 2835.35 638.199 2841.42 638.199 2846.35 643.124 2846.35 649.199Z" stroke="#4472C4" stroke-width="3.4375" stroke-linecap="butt" stroke-linejoin="round" stroke-miterlimit="10" stroke-opacity="1" fill="#4472C4" fill-rule="evenodd" fill-opacity="1"/><path d="M2912.35 631.199C2912.35 637.274 2907.42 642.198 2901.35 642.198 2895.27 642.198 2890.35 637.274 2890.35 631.199 2890.35 625.124 2895.27 620.199 2901.35 620.199 2907.42 620.199 2912.35 625.124 2912.35 631.199Z" stroke="#4472C4" stroke-width="3.4375" stroke-linecap="butt" stroke-linejoin="round" stroke-miterlimit="10" stroke-opacity="1" fill="#4472C4" fill-rule="evenodd" fill-opacity="1"/><path d="M2952.35 610.199C2952.35 616.274 2947.42 621.198 2941.35 621.198 2935.27 621.198 2930.35 616.274 2930.35 610.199 2930.35 604.124 2935.27 599.199 2941.35 599.199 2947.42 599.199 2952.35 604.124 2952.35 610.199Z" stroke="#4472C4" stroke-width="3.4375" stroke-linecap="butt" stroke-linejoin="round" stroke-miterlimit="10" stroke-opacity="1" fill="#4472C4" fill-rule="evenodd" fill-opacity="1"/><path d="M2978.35 588.199C2978.35 594.274 2973.42 599.198 2967.35 599.198 2961.27 599.198 2956.35 594.274 2956.35 588.199 2956.35 582.124 2961.27 577.199 2967.35 577.199 2973.42 577.199 2978.35 582.124 2978.35 588.199Z" stroke="#4472C4" stroke-width="3.4375" stroke-linecap="butt" stroke-linejoin="round" stroke-miterlimit="10" stroke-opacity="1" fill="#4472C4" fill-rule="evenodd" fill-opacity="1"/><path d="M3004.35 541.199C3004.35 547.273 2999.42 552.198 2993.35 552.198 2987.27 552.198 2982.35 547.273 2982.35 541.199 2982.35 535.124 2987.27 530.199 2993.35 530.199 2999.42 530.199 3004.35 535.124 3004.35 541.199Z" stroke="#4472C4" stroke-width="3.4375" stroke-linecap="butt" stroke-linejoin="round" stroke-miterlimit="10" stroke-opacity="1" fill="#4472C4" fill-rule="evenodd" fill-opacity="1"/></g><g clip-path="url(#clip7)"><path d="M1985.5 515.517 2013.57 539.5 2051.57 501.517 2077.57 451.515 2098.57 406.514 2116.57 365.512 2130.57 320.511 2140.5 194.5" stroke="#ED7D31" stroke-width="6.875" stroke-linecap="round" stroke-linejoin="round" stroke-miterlimit="10" stroke-opacity="1" fill="none" fill-rule="evenodd"/></g><g clip-path="url(#clip8)"><path d="M1996.35 515.199C1996.35 521.274 1991.42 526.198 1985.35 526.198 1979.27 526.198 1974.35 521.274 1974.35 515.199 1974.35 509.124 1979.27 504.199 1985.35 504.199 1991.42 504.199 1996.35 509.124 1996.35 515.199Z" stroke="#ED7D31" stroke-width="3.4375" stroke-linecap="butt" stroke-linejoin="round" stroke-miterlimit="10" stroke-opacity="1" fill="#ED7D31" fill-rule="evenodd" fill-opacity="1"/><path d="M2024.35 539.199C2024.35 545.274 2019.42 550.198 2013.35 550.198 2007.27 550.198 2002.35 545.274 2002.35 539.199 2002.35 533.124 2007.27 528.199 2013.35 528.199 2019.42 528.199 2024.35 533.124 2024.35 539.199Z" stroke="#ED7D31" stroke-width="3.4375" stroke-linecap="butt" stroke-linejoin="round" stroke-miterlimit="10" stroke-opacity="1" fill="#ED7D31" fill-rule="evenodd" fill-opacity="1"/><path d="M2062.35 501.199C2062.35 507.274 2057.42 512.198 2051.35 512.198 2045.27 512.198 2040.35 507.274 2040.35 501.199 2040.35 495.124 2045.27 490.199 2051.35 490.199 2057.42 490.199 2062.35 495.124 2062.35 501.199Z" stroke="#ED7D31" stroke-width="3.4375" stroke-linecap="butt" stroke-linejoin="round" stroke-miterlimit="10" stroke-opacity="1" fill="#ED7D31" fill-rule="evenodd" fill-opacity="1"/><path d="M2088.35 451.199C2088.35 457.274 2083.42 462.198 2077.35 462.198 2071.27 462.198 2066.35 457.274 2066.35 451.199 2066.35 445.124 2071.27 440.199 2077.35 440.199 2083.42 440.199 2088.35 445.124 2088.35 451.199Z" stroke="#ED7D31" stroke-width="3.4375" stroke-linecap="butt" stroke-linejoin="round" stroke-miterlimit="10" stroke-opacity="1" fill="#ED7D31" fill-rule="evenodd" fill-opacity="1"/><path d="M2109.35 406.199C2109.35 412.274 2104.42 417.198 2098.35 417.198 2092.27 417.198 2087.35 412.274 2087.35 406.199 2087.35 400.124 2092.27 395.199 2098.35 395.199 2104.42 395.199 2109.35 400.124 2109.35 406.199Z" stroke="#ED7D31" stroke-width="3.4375" stroke-linecap="butt" stroke-linejoin="round" stroke-miterlimit="10" stroke-opacity="1" fill="#ED7D31" fill-rule="evenodd" fill-opacity="1"/><path d="M2127.35 365.199C2127.35 371.273 2122.42 376.198 2116.35 376.198 2110.27 376.198 2105.35 371.273 2105.35 365.199 2105.35 359.124 2110.27 354.199 2116.35 354.199 2122.42 354.199 2127.35 359.124 2127.35 365.199Z" stroke="#ED7D31" stroke-width="3.4375" stroke-linecap="butt" stroke-linejoin="round" stroke-miterlimit="10" stroke-opacity="1" fill="#ED7D31" fill-rule="evenodd" fill-opacity="1"/><path d="M2141.35 320.199C2141.35 326.273 2136.42 331.198 2130.35 331.198 2124.27 331.198 2119.35 326.273 2119.35 320.199 2119.35 314.124 2124.27 309.199 2130.35 309.199 2136.42 309.199 2141.35 314.124 2141.35 320.199Z" stroke="#ED7D31" stroke-width="3.4375" stroke-linecap="butt" stroke-linejoin="round" stroke-miterlimit="10" stroke-opacity="1" fill="#ED7D31" fill-rule="evenodd" fill-opacity="1"/><path d="M2151.35 194.199C2151.35 200.274 2146.42 205.198 2140.35 205.198 2134.27 205.198 2129.35 200.274 2129.35 194.199 2129.35 188.124 2134.27 183.199 2140.35 183.199 2146.42 183.199 2151.35 188.124 2151.35 194.199Z" stroke="#ED7D31" stroke-width="3.4375" stroke-linecap="butt" stroke-linejoin="round" stroke-miterlimit="10" stroke-opacity="1" fill="#ED7D31" fill-rule="evenodd" fill-opacity="1"/></g><g clip-path="url(#clip9)"><path d="M1993.5 570.519 2032.57 607.5 2065.57 607.52 2096.57 602.52 2121.57 592.52 2139.57 575.519 2157.57 527.518 2164.57 468.516 2169.57 412.514 2173.5 354.5" stroke="#548235" stroke-width="6.875" stroke-linecap="round" stroke-linejoin="round" stroke-miterlimit="10" stroke-opacity="1" fill="none" fill-rule="evenodd"/></g><g clip-path="url(#clip10)"><path d="M2004.35 570.199C2004.35 576.274 1999.42 581.198 1993.35 581.198 1987.27 581.198 1982.35 576.274 1982.35 570.199 1982.35 564.124 1987.27 559.199 1993.35 559.199 1999.42 559.199 2004.35 564.124 2004.35 570.199Z" stroke="#548235" stroke-width="3.4375" stroke-linecap="butt" stroke-linejoin="round" stroke-miterlimit="10" stroke-opacity="1" fill="#548235" fill-rule="evenodd" fill-opacity="1"/><path d="M2043.35 607.199C2043.35 613.273 2038.42 618.198 2032.35 618.198 2026.27 618.198 2021.35 613.273 2021.35 607.199 2021.35 601.124 2026.27 596.199 2032.35 596.199 2038.42 596.199 2043.35 601.124 2043.35 607.199Z" stroke="#548235" stroke-width="3.4375" stroke-linecap="butt" stroke-linejoin="round" stroke-miterlimit="10" stroke-opacity="1" fill="#548235" fill-rule="evenodd" fill-opacity="1"/><path d="M2076.35 607.199C2076.35 613.273 2071.42 618.198 2065.35 618.198 2059.27 618.198 2054.35 613.273 2054.35 607.199 2054.35 601.124 2059.27 596.199 2065.35 596.199 2071.42 596.199 2076.35 601.124 2076.35 607.199Z" stroke="#548235" stroke-width="3.4375" stroke-linecap="butt" stroke-linejoin="round" stroke-miterlimit="10" stroke-opacity="1" fill="#548235" fill-rule="evenodd" fill-opacity="1"/><path d="M2108.35 602.199C2108.35 608.274 2103.42 613.198 2097.35 613.198 2091.27 613.198 2086.35 608.274 2086.35 602.199 2086.35 596.124 2091.27 591.199 2097.35 591.199 2103.42 591.199 2108.35 596.124 2108.35 602.199Z" stroke="#548235" stroke-width="3.4375" stroke-linecap="butt" stroke-linejoin="round" stroke-miterlimit="10" stroke-opacity="1" fill="#548235" fill-rule="evenodd" fill-opacity="1"/><path d="M2132.35 592.199C2132.35 598.274 2127.42 603.198 2121.35 603.198 2115.27 603.198 2110.35 598.274 2110.35 592.199 2110.35 586.124 2115.27 581.199 2121.35 581.199 2127.42 581.199 2132.35 586.124 2132.35 592.199Z" stroke="#548235" stroke-width="3.4375" stroke-linecap="butt" stroke-linejoin="round" stroke-miterlimit="10" stroke-opacity="1" fill="#548235" fill-rule="evenodd" fill-opacity="1"/><path d="M2150.35 575.199C2150.35 581.273 2145.42 586.198 2139.35 586.198 2133.27 586.198 2128.35 581.273 2128.35 575.199 2128.35 569.124 2133.27 564.199 2139.35 564.199 2145.42 564.199 2150.35 569.124 2150.35 575.199Z" stroke="#548235" stroke-width="3.4375" stroke-linecap="butt" stroke-linejoin="round" stroke-miterlimit="10" stroke-opacity="1" fill="#548235" fill-rule="evenodd" fill-opacity="1"/><path d="M2168.35 527.199C2168.35 533.274 2163.42 538.198 2157.35 538.198 2151.27 538.198 2146.35 533.274 2146.35 527.199 2146.35 521.124 2151.27 516.199 2157.35 516.199 2163.42 516.199 2168.35 521.124 2168.35 527.199Z" stroke="#548235" stroke-width="3.4375" stroke-linecap="butt" stroke-linejoin="round" stroke-miterlimit="10" stroke-opacity="1" fill="#548235" fill-rule="evenodd" fill-opacity="1"/><path d="M2175.35 468.199C2175.35 474.274 2170.42 479.198 2164.35 479.198 2158.27 479.198 2153.35 474.274 2153.35 468.199 2153.35 462.124 2158.27 457.199 2164.35 457.199 2170.42 457.199 2175.35 462.124 2175.35 468.199Z" stroke="#548235" stroke-width="3.4375" stroke-linecap="butt" stroke-linejoin="round" stroke-miterlimit="10" stroke-opacity="1" fill="#548235" fill-rule="evenodd" fill-opacity="1"/><path d="M2180.35 412.199C2180.35 418.274 2175.42 423.198 2169.35 423.198 2163.27 423.198 2158.35 418.274 2158.35 412.199 2158.35 406.124 2163.27 401.199 2169.35 401.199 2175.42 401.199 2180.35 406.124 2180.35 412.199Z" stroke="#548235" stroke-width="3.4375" stroke-linecap="butt" stroke-linejoin="round" stroke-miterlimit="10" stroke-opacity="1" fill="#548235" fill-rule="evenodd" fill-opacity="1"/><path d="M2184.35 354.199C2184.35 360.273 2179.42 365.198 2173.35 365.198 2167.27 365.198 2162.35 360.273 2162.35 354.199 2162.35 348.124 2167.27 343.199 2173.35 343.199 2179.42 343.199 2184.35 348.124 2184.35 354.199Z" stroke="#548235" stroke-width="3.4375" stroke-linecap="butt" stroke-linejoin="round" stroke-miterlimit="10" stroke-opacity="1" fill="#548235" fill-rule="evenodd" fill-opacity="1"/></g><g clip-path="url(#clip11)"><text fill="#595959" fill-opacity="1" font-family="Calibri,Calibri_MSFontService,sans-serif" font-style="normal" font-variant="normal" font-weight="400" font-stretch="normal" font-size="41" text-anchor="start" direction="ltr" writing-mode="lr-tb" unicode-bidi="normal" text-decoration="none" transform="matrix(1 0 0 1 1903.04 815)">0</text></g><g clip-path="url(#clip12)"><text fill="#595959" fill-opacity="1" font-family="Calibri,Calibri_MSFontService,sans-serif" font-style="normal" font-variant="normal" font-weight="400" font-stretch="normal" font-size="41" text-anchor="start" direction="ltr" writing-mode="lr-tb" unicode-bidi="normal" text-decoration="none" transform="matrix(1 0 0 1 1871.85 745)">0,2</text></g><g clip-path="url(#clip13)"><text fill="#595959" fill-opacity="1" font-family="Calibri,Calibri_MSFontService,sans-serif" font-style="normal" font-variant="normal" font-weight="400" font-stretch="normal" font-size="41" text-anchor="start" direction="ltr" writing-mode="lr-tb" unicode-bidi="normal" text-decoration="none" transform="matrix(1 0 0 1 1871.85 676)">0,4</text></g><g clip-path="url(#clip14)"><text fill="#595959" fill-opacity="1" font-family="Calibri,Calibri_MSFontService,sans-serif" font-style="normal" font-variant="normal" font-weight="400" font-stretch="normal" font-size="41" text-anchor="start" direction="ltr" writing-mode="lr-tb" unicode-bidi="normal" text-decoration="none" transform="matrix(1 0 0 1 1871.85 606)">0,6</text></g><g clip-path="url(#clip15)"><text fill="#595959" fill-opacity="1" font-family="Calibri,Calibri_MSFontService,sans-serif" font-style="normal" font-variant="normal" font-weight="400" font-stretch="normal" font-size="41" text-anchor="start" direction="ltr" writing-mode="lr-tb" unicode-bidi="normal" text-decoration="none" transform="matrix(1 0 0 1 1871.85 537)">0,8</text></g><g clip-path="url(#clip16)"><text fill="#595959" fill-opacity="1" font-family="Calibri,Calibri_MSFontService,sans-serif" font-style="normal" font-variant="normal" font-weight="400" font-stretch="normal" font-size="41" text-anchor="start" direction="ltr" writing-mode="lr-tb" unicode-bidi="normal" text-decoration="none" transform="matrix(1 0 0 1 1903.04 467)">1</text></g><g clip-path="url(#clip17)"><text fill="#595959" fill-opacity="1" font-family="Calibri,Calibri_MSFontService,sans-serif" font-style="normal" font-variant="normal" font-weight="400" font-stretch="normal" font-size="41" text-anchor="start" direction="ltr" writing-mode="lr-tb" unicode-bidi="normal" text-decoration="none" transform="matrix(1 0 0 1 1871.85 398)">1,2</text></g><g clip-path="url(#clip18)"><text fill="#595959" fill-opacity="1" font-family="Calibri,Calibri_MSFontService,sans-serif" font-style="normal" font-variant="normal" font-weight="400" font-stretch="normal" font-size="41" text-anchor="start" direction="ltr" writing-mode="lr-tb" unicode-bidi="normal" text-decoration="none" transform="matrix(1 0 0 1 1871.85 328)">1,4</text></g><g clip-path="url(#clip19)"><text fill="#595959" fill-opacity="1" font-family="Calibri,Calibri_MSFontService,sans-serif" font-style="normal" font-variant="normal" font-weight="400" font-stretch="normal" font-size="41" text-anchor="start" direction="ltr" writing-mode="lr-tb" unicode-bidi="normal" text-decoration="none" transform="matrix(1 0 0 1 1871.85 259)">1,6</text></g><g clip-path="url(#clip20)"><text fill="#595959" fill-opacity="1" font-family="Calibri,Calibri_MSFontService,sans-serif" font-style="normal" font-variant="normal" font-weight="400" font-stretch="normal" font-size="41" text-anchor="start" direction="ltr" writing-mode="lr-tb" unicode-bidi="normal" text-decoration="none" transform="matrix(1 0 0 1 1871.85 189)">1,8</text></g><g clip-path="url(#clip21)"><text fill="#595959" fill-opacity="1" font-family="Calibri,Calibri_MSFontService,sans-serif" font-style="normal" font-variant="normal" font-weight="400" font-stretch="normal" font-size="41" text-anchor="start" direction="ltr" writing-mode="lr-tb" unicode-bidi="normal" text-decoration="none" transform="matrix(1 0 0 1 1903.04 120)">2</text></g><g clip-path="url(#clip22)"><text fill="#595959" fill-opacity="1" font-family="Calibri,Calibri_MSFontService,sans-serif" font-style="normal" font-variant="normal" font-weight="400" font-stretch="normal" font-size="41" text-anchor="start" direction="ltr" writing-mode="lr-tb" unicode-bidi="normal" text-decoration="none" transform="matrix(1 0 0 1 1951.76 870)">0</text></g><g clip-path="url(#clip23)"><text fill="#595959" fill-opacity="1" font-family="Calibri,Calibri_MSFontService,sans-serif" font-style="normal" font-variant="normal" font-weight="400" font-stretch="normal" font-size="41" text-anchor="start" direction="ltr" writing-mode="lr-tb" unicode-bidi="normal" text-decoration="none" transform="matrix(1 0 0 1 2098.93 870)">0,5</text></g><g clip-path="url(#clip24)"><text fill="#595959" fill-opacity="1" font-family="Calibri,Calibri_MSFontService,sans-serif" font-style="normal" font-variant="normal" font-weight="400" font-stretch="normal" font-size="41" text-anchor="start" direction="ltr" writing-mode="lr-tb" unicode-bidi="normal" text-decoration="none" transform="matrix(1 0 0 1 2277.29 870)">1</text></g><g clip-path="url(#clip25)"><text fill="#595959" fill-opacity="1" font-family="Calibri,Calibri_MSFontService,sans-serif" font-style="normal" font-variant="normal" font-weight="400" font-stretch="normal" font-size="41" text-anchor="start" direction="ltr" writing-mode="lr-tb" unicode-bidi="normal" text-decoration="none" transform="matrix(1 0 0 1 2424.46 870)">1,5</text></g><g clip-path="url(#clip26)"><text fill="#595959" fill-opacity="1" font-family="Calibri,Calibri_MSFontService,sans-serif" font-style="normal" font-variant="normal" font-weight="400" font-stretch="normal" font-size="41" text-anchor="start" direction="ltr" writing-mode="lr-tb" unicode-bidi="normal" text-decoration="none" transform="matrix(1 0 0 1 2602.82 870)">2</text></g><g clip-path="url(#clip27)"><text fill="#595959" fill-opacity="1" font-family="Calibri,Calibri_MSFontService,sans-serif" font-style="normal" font-variant="normal" font-weight="400" font-stretch="normal" font-size="41" text-anchor="start" direction="ltr" writing-mode="lr-tb" unicode-bidi="normal" text-decoration="none" transform="matrix(1 0 0 1 2749.99 870)">2,5</text></g><g clip-path="url(#clip28)"><text fill="#595959" fill-opacity="1" font-family="Calibri,Calibri_MSFontService,sans-serif" font-style="normal" font-variant="normal" font-weight="400" font-stretch="normal" font-size="41" text-anchor="start" direction="ltr" writing-mode="lr-tb" unicode-bidi="normal" text-decoration="none" transform="matrix(1 0 0 1 2928.36 870)">3</text></g><g clip-path="url(#clip29)"><text fill="#595959" fill-opacity="1" font-family="Calibri,Calibri_MSFontService,sans-serif" font-style="normal" font-variant="normal" font-weight="400" font-stretch="normal" font-size="41" text-anchor="start" direction="ltr" writing-mode="lr-tb" unicode-bidi="normal" text-decoration="none" transform="matrix(1 0 0 1 3075.53 870)">3,5</text></g><g clip-path="url(#clip30)"><text fill="#595959" fill-opacity="1" font-family="Calibri,Calibri_MSFontService,sans-serif" font-style="normal" font-variant="normal" font-weight="400" font-stretch="normal" font-size="46" text-anchor="start" direction="ltr" writing-mode="lr-tb" unicode-bidi="normal" text-decoration="none" transform="matrix(6.12323e-17 -1 1 6.12323e-17 1852.55 780)">Latency per transaction (ms)</text></g><g clip-path="url(#clip31)"><text fill="#595959" fill-opacity="1" font-family="Calibri,Calibri_MSFontService,sans-serif" font-style="normal" font-variant="normal" font-weight="400" font-stretch="normal" font-size="46" text-anchor="start" direction="ltr" writing-mode="lr-tb" unicode-bidi="normal" text-decoration="none" transform="matrix(1 0 0 1 2382.41 920)">Millions Queries/s</text></g><g clip-path="url(#clip32)"><rect x="2727.5" y="131.5" width="353" height="154" stroke="#000000" stroke-width="3.4375" stroke-linecap="butt" stroke-linejoin="round" stroke-miterlimit="10" stroke-opacity="1" fill="#FFFFFF" fill-opacity="1"/></g><g clip-path="url(#clip33)"><path d="M2777.5 157.5 2865.5 157.5" stroke="#4472C4" stroke-width="6.875" stroke-linecap="round" stroke-linejoin="round" stroke-miterlimit="10" stroke-opacity="1" fill="none" fill-rule="evenodd"/></g><g clip-path="url(#clip34)"><path d="M2832 157C2832 163.075 2827.07 167.999 2821 167.999 2814.93 167.999 2810 163.075 2810 157 2810 150.925 2814.93 146 2821 146 2827.07 146 2832 150.925 2832 157Z" stroke="#4472C4" stroke-width="3.4375" stroke-linecap="butt" stroke-linejoin="round" stroke-miterlimit="10" stroke-opacity="1" fill="#4472C4" fill-rule="evenodd" fill-opacity="1"/></g><g clip-path="url(#clip35)"><text fill="#595959" fill-opacity="1" font-family="Calibri,Calibri_MSFontService,sans-serif" font-style="normal" font-variant="normal" font-weight="400" font-stretch="normal" font-size="41" text-anchor="start" direction="ltr" writing-mode="lr-tb" unicode-bidi="normal" text-decoration="none" transform="matrix(1 0 0 1 2875.05 167)">PotionDB</text></g><g clip-path="url(#clip36)"><path d="M2777.5 208.5 2865.5 208.501" stroke="#ED7D31" stroke-width="6.875" stroke-linecap="round" stroke-linejoin="round" stroke-miterlimit="10" stroke-opacity="1" fill="none" fill-rule="evenodd"/></g><g clip-path="url(#clip37)"><path d="M2832 208C2832 214.075 2827.07 219 2821 219 2814.93 219 2810 214.075 2810 208 2810 201.925 2814.93 197 2821 197 2827.07 197 2832 201.925 2832 208Z" stroke="#ED7D31" stroke-width="3.4375" stroke-linecap="butt" stroke-linejoin="round" stroke-miterlimit="10" stroke-opacity="1" fill="#ED7D31" fill-rule="evenodd" fill-opacity="1"/></g><g clip-path="url(#clip38)"><text fill="#595959" fill-opacity="1" font-family="Calibri,Calibri_MSFontService,sans-serif" font-style="normal" font-variant="normal" font-weight="400" font-stretch="normal" font-size="41" text-anchor="start" direction="ltr" writing-mode="lr-tb" unicode-bidi="normal" text-decoration="none" transform="matrix(1 0 0 1 2875.05 218)">Local</text></g><g clip-path="url(#clip39)"><path d="M2777.5 259.5 2865.5 259.5" stroke="#548235" stroke-width="6.875" stroke-linecap="round" stroke-linejoin="round" stroke-miterlimit="10" stroke-opacity="1" fill="none" fill-rule="evenodd"/></g><g clip-path="url(#clip40)"><path d="M2832 259C2832 265.075 2827.07 269.999 2821 269.999 2814.93 269.999 2810 265.075 2810 259 2810 252.925 2814.93 248 2821 248 2827.07 248 2832 252.925 2832 259Z" stroke="#548235" stroke-width="3.4375" stroke-linecap="butt" stroke-linejoin="round" stroke-miterlimit="10" stroke-opacity="1" fill="#548235" fill-rule="evenodd" fill-opacity="1"/></g><g clip-path="url(#clip41)"><text fill="#595959" fill-opacity="1" font-family="Calibri,Calibri_MSFontService,sans-serif" font-style="normal" font-variant="normal" font-weight="400" font-stretch="normal" font-size="41" text-anchor="start" direction="ltr" writing-mode="lr-tb" unicode-bidi="normal" text-decoration="none" transform="matrix(1 0 0 1 2875.05 270)">Single</text></g></g></svg>