<svg width="1453" height="651" xmlns="http://www.w3.org/2000/svg" xmlns:xlink="http://www.w3.org/1999/xlink" overflow="hidden"><defs><clipPath id="clip0"><rect x="293" y="3749" width="1453" height="651"/></clipPath><clipPath id="clip1"><rect x="297" y="3751" width="1449" height="649"/></clipPath><clipPath id="clip2"><rect x="297" y="3751" width="1449" height="649"/></clipPath><clipPath id="clip3"><rect x="297" y="3751" width="1449" height="649"/></clipPath><clipPath id="clip4"><rect x="297" y="3751" width="1449" height="649"/></clipPath><clipPath id="clip5"><rect x="459" y="3776" width="1179" height="498"/></clipPath><clipPath id="clip6"><rect x="297" y="3751" width="1449" height="649"/></clipPath><clipPath id="clip7"><rect x="459" y="3776" width="1179" height="498"/></clipPath><clipPath id="clip8"><rect x="297" y="3751" width="1449" height="649"/></clipPath><clipPath id="clip9"><rect x="459" y="3776" width="1179" height="498"/></clipPath><clipPath id="clip10"><rect x="297" y="3751" width="1449" height="649"/></clipPath><clipPath id="clip11"><rect x="459" y="3776" width="1179" height="498"/></clipPath><clipPath id="clip12"><rect x="297" y="3751" width="1449" height="649"/></clipPath><clipPath id="clip13"><rect x="297" y="3751" width="1449" height="649"/></clipPath><clipPath id="clip14"><rect x="297" y="3751" width="1449" height="649"/></clipPath><clipPath id="clip15"><rect x="297" y="3751" width="1449" height="649"/></clipPath><clipPath id="clip16"><rect x="297" y="3751" width="1449" height="649"/></clipPath><clipPath id="clip17"><rect x="297" y="3751" width="1449" height="649"/></clipPath><clipPath id="clip18"><rect x="297" y="3751" width="1449" height="649"/></clipPath><clipPath id="clip19"><rect x="297" y="3751" width="1449" height="649"/></clipPath><clipPath id="clip20"><rect x="297" y="3751" width="1449" height="649"/></clipPath><clipPath id="clip21"><rect x="297" y="3751" width="1449" height="649"/></clipPath><clipPath id="clip22"><rect x="297" y="3751" width="1449" height="649"/></clipPath><clipPath id="clip23"><rect x="297" y="3751" width="1449" height="649"/></clipPath><clipPath id="clip24"><rect x="297" y="3751" width="1449" height="649"/></clipPath><clipPath id="clip25"><rect x="297" y="3751" width="1449" height="649"/></clipPath><clipPath id="clip26"><rect x="297" y="3751" width="1449" height="649"/></clipPath><clipPath id="clip27"><rect x="297" y="3751" width="1449" height="649"/></clipPath><clipPath id="clip28"><rect x="297" y="3751" width="1449" height="649"/></clipPath><clipPath id="clip29"><rect x="297" y="3751" width="1449" height="649"/></clipPath><clipPath id="clip30"><rect x="297" y="3751" width="1449" height="649"/></clipPath><clipPath id="clip31"><rect x="297" y="3751" width="1449" height="649"/></clipPath><clipPath id="clip32"><rect x="297" y="3751" width="1449" height="649"/></clipPath><clipPath id="clip33"><rect x="297" y="3751" width="1449" height="649"/></clipPath><clipPath id="clip34"><rect x="297" y="3751" width="1449" height="649"/></clipPath></defs><g clip-path="url(#clip0)" transform="translate(-293 -3749)"><rect x="297" y="3752" width="1449" height="648" fill="#FFFFFF" fill-opacity="1"/><g clip-path="url(#clip1)"><path d="M459.5 4270.5 1634.5 4270.5M459.5 4055.63 1634.5 4055.63M459.5 3841.5 1634.5 3841.5" stroke="#D9D9D9" stroke-width="3.4375" stroke-linecap="butt" stroke-linejoin="round" stroke-miterlimit="10" stroke-opacity="1" fill="none" fill-rule="evenodd"/></g><g clip-path="url(#clip2)"><path d="M836.528 3776.5 836.528 4270.5M1214.54 3776.5 1214.54 4270.5M1591.5 3776.5 1591.5 4270.5" stroke="#D9D9D9" stroke-width="3.4375" stroke-linecap="butt" stroke-linejoin="round" stroke-miterlimit="10" stroke-opacity="1" fill="none" fill-rule="evenodd"/></g><g clip-path="url(#clip3)"><path d="M0 0 0.000360892 494" stroke="#BFBFBF" stroke-width="3.4375" stroke-linecap="butt" stroke-linejoin="round" stroke-miterlimit="10" stroke-opacity="1" fill="none" fill-rule="evenodd" transform="matrix(1 0 0 -1 459.5 4270.5)"/></g><g clip-path="url(#clip4)"><path d="M459.5 4270.5 1634.5 4270.5" stroke="#BFBFBF" stroke-width="3.4375" stroke-linecap="butt" stroke-linejoin="round" stroke-miterlimit="10" stroke-opacity="1" fill="none" fill-rule="evenodd"/></g><g clip-path="url(#clip5)"><path d="M1316.5 4232.5 1411.55 4222.64 1476.55 4194.64 1540.55 4192.64 1572.55 4184.64 1582.55 4169.64 1591.55 4157.64 1597.55 4146.64 1601.55 4136.64 1604.55 4127.64 1606.5 4118.5" stroke="#4472C4" stroke-width="6.875" stroke-linecap="round" stroke-linejoin="round" stroke-miterlimit="10" stroke-opacity="1" fill="none" fill-rule="evenodd"/></g><g clip-path="url(#clip6)"><path d="M1324.57 4231.54C1324.57 4236.24 1320.76 4240.04 1316.07 4240.04 1311.37 4240.04 1307.57 4236.24 1307.57 4231.54 1307.57 4226.85 1311.37 4223.04 1316.07 4223.04 1320.76 4223.04 1324.57 4226.85 1324.57 4231.54Z" stroke="#4472C4" stroke-width="3.4375" stroke-linecap="butt" stroke-linejoin="round" stroke-miterlimit="10" stroke-opacity="1" fill="#4472C4" fill-rule="evenodd" fill-opacity="1"/><path d="M1419.57 4221.54C1419.57 4226.24 1415.76 4230.04 1411.07 4230.04 1406.37 4230.04 1402.57 4226.24 1402.57 4221.54 1402.57 4216.85 1406.37 4213.04 1411.07 4213.04 1415.76 4213.04 1419.57 4216.85 1419.57 4221.54Z" stroke="#4472C4" stroke-width="3.4375" stroke-linecap="butt" stroke-linejoin="round" stroke-miterlimit="10" stroke-opacity="1" fill="#4472C4" fill-rule="evenodd" fill-opacity="1"/><path d="M1484.57 4193.54C1484.57 4198.24 1480.76 4202.04 1476.07 4202.04 1471.37 4202.04 1467.57 4198.24 1467.57 4193.54 1467.57 4188.85 1471.37 4185.04 1476.07 4185.04 1480.76 4185.04 1484.57 4188.85 1484.57 4193.54Z" stroke="#4472C4" stroke-width="3.4375" stroke-linecap="butt" stroke-linejoin="round" stroke-miterlimit="10" stroke-opacity="1" fill="#4472C4" fill-rule="evenodd" fill-opacity="1"/><path d="M1548.57 4191.54C1548.57 4196.24 1544.76 4200.04 1540.07 4200.04 1535.37 4200.04 1531.57 4196.24 1531.57 4191.54 1531.57 4186.85 1535.37 4183.04 1540.07 4183.04 1544.76 4183.04 1548.57 4186.85 1548.57 4191.54Z" stroke="#4472C4" stroke-width="3.4375" stroke-linecap="butt" stroke-linejoin="round" stroke-miterlimit="10" stroke-opacity="1" fill="#4472C4" fill-rule="evenodd" fill-opacity="1"/><path d="M1580.57 4183.54C1580.57 4188.24 1576.76 4192.04 1572.07 4192.04 1567.37 4192.04 1563.57 4188.24 1563.57 4183.54 1563.57 4178.85 1567.37 4175.04 1572.07 4175.04 1576.76 4175.04 1580.57 4178.85 1580.57 4183.54Z" stroke="#4472C4" stroke-width="3.4375" stroke-linecap="butt" stroke-linejoin="round" stroke-miterlimit="10" stroke-opacity="1" fill="#4472C4" fill-rule="evenodd" fill-opacity="1"/><path d="M1590.57 4168.54C1590.57 4173.24 1586.76 4177.04 1582.07 4177.04 1577.37 4177.04 1573.57 4173.24 1573.57 4168.54 1573.57 4163.85 1577.37 4160.04 1582.07 4160.04 1586.76 4160.04 1590.57 4163.85 1590.57 4168.54Z" stroke="#4472C4" stroke-width="3.4375" stroke-linecap="butt" stroke-linejoin="round" stroke-miterlimit="10" stroke-opacity="1" fill="#4472C4" fill-rule="evenodd" fill-opacity="1"/><path d="M1599.57 4156.54C1599.57 4161.24 1595.76 4165.04 1591.07 4165.04 1586.37 4165.04 1582.57 4161.24 1582.57 4156.54 1582.57 4151.85 1586.37 4148.04 1591.07 4148.04 1595.76 4148.04 1599.57 4151.85 1599.57 4156.54Z" stroke="#4472C4" stroke-width="3.4375" stroke-linecap="butt" stroke-linejoin="round" stroke-miterlimit="10" stroke-opacity="1" fill="#4472C4" fill-rule="evenodd" fill-opacity="1"/><path d="M1605.57 4145.54C1605.57 4150.24 1601.76 4154.04 1597.07 4154.04 1592.37 4154.04 1588.57 4150.24 1588.57 4145.54 1588.57 4140.85 1592.37 4137.04 1597.07 4137.04 1601.76 4137.04 1605.57 4140.85 1605.57 4145.54Z" stroke="#4472C4" stroke-width="3.4375" stroke-linecap="butt" stroke-linejoin="round" stroke-miterlimit="10" stroke-opacity="1" fill="#4472C4" fill-rule="evenodd" fill-opacity="1"/><path d="M1609.57 4135.54C1609.57 4140.24 1605.76 4144.04 1601.07 4144.04 1596.37 4144.04 1592.57 4140.24 1592.57 4135.54 1592.57 4130.85 1596.37 4127.04 1601.07 4127.04 1605.76 4127.04 1609.57 4130.85 1609.57 4135.54Z" stroke="#4472C4" stroke-width="3.4375" stroke-linecap="butt" stroke-linejoin="round" stroke-miterlimit="10" stroke-opacity="1" fill="#4472C4" fill-rule="evenodd" fill-opacity="1"/><path d="M1612.57 4126.54C1612.57 4131.24 1608.76 4135.04 1604.07 4135.04 1599.37 4135.04 1595.57 4131.24 1595.57 4126.54 1595.57 4121.85 1599.37 4118.04 1604.07 4118.04 1608.76 4118.04 1612.57 4121.85 1612.57 4126.54Z" stroke="#4472C4" stroke-width="3.4375" stroke-linecap="butt" stroke-linejoin="round" stroke-miterlimit="10" stroke-opacity="1" fill="#4472C4" fill-rule="evenodd" fill-opacity="1"/><path d="M1614.57 4117.54C1614.57 4122.24 1610.76 4126.04 1606.07 4126.04 1601.37 4126.04 1597.57 4122.24 1597.57 4117.54 1597.57 4112.85 1601.37 4109.04 1606.07 4109.04 1610.76 4109.04 1614.57 4112.85 1614.57 4117.54Z" stroke="#4472C4" stroke-width="3.4375" stroke-linecap="butt" stroke-linejoin="round" stroke-miterlimit="10" stroke-opacity="1" fill="#4472C4" fill-rule="evenodd" fill-opacity="1"/></g><g clip-path="url(#clip7)"><path d="M1264.5 4203.5 1366.54 4196.64 1454.55 4181.64 1492.55 4165.64 1535.55 4163.64 1558.55 4155.64 1570.55 4145.64 1577.55 4134.64 1582.55 4125.64 1586.55 4116.64 1588.55 4107.64 1591.55 4092.63 1594.55 4078.63 1597.5 4069.5" stroke="#ED7D31" stroke-width="6.875" stroke-linecap="round" stroke-linejoin="round" stroke-miterlimit="10" stroke-opacity="1" fill="none" fill-rule="evenodd"/></g><g clip-path="url(#clip8)"><path d="M1272.57 4202.54C1272.57 4207.24 1268.76 4211.04 1264.07 4211.04 1259.37 4211.04 1255.57 4207.24 1255.57 4202.54 1255.57 4197.85 1259.37 4194.04 1264.07 4194.04 1268.76 4194.04 1272.57 4197.85 1272.57 4202.54Z" stroke="#ED7D31" stroke-width="3.4375" stroke-linecap="butt" stroke-linejoin="round" stroke-miterlimit="10" stroke-opacity="1" fill="#ED7D31" fill-rule="evenodd" fill-opacity="1"/><path d="M1374.57 4195.54C1374.57 4200.24 1370.76 4204.04 1366.07 4204.04 1361.37 4204.04 1357.57 4200.24 1357.57 4195.54 1357.57 4190.85 1361.37 4187.04 1366.07 4187.04 1370.76 4187.04 1374.57 4190.85 1374.57 4195.54Z" stroke="#ED7D31" stroke-width="3.4375" stroke-linecap="butt" stroke-linejoin="round" stroke-miterlimit="10" stroke-opacity="1" fill="#ED7D31" fill-rule="evenodd" fill-opacity="1"/><path d="M1462.57 4181.54C1462.57 4186.24 1458.76 4190.04 1454.07 4190.04 1449.37 4190.04 1445.57 4186.24 1445.57 4181.54 1445.57 4176.85 1449.37 4173.04 1454.07 4173.04 1458.76 4173.04 1462.57 4176.85 1462.57 4181.54Z" stroke="#ED7D31" stroke-width="3.4375" stroke-linecap="butt" stroke-linejoin="round" stroke-miterlimit="10" stroke-opacity="1" fill="#ED7D31" fill-rule="evenodd" fill-opacity="1"/><path d="M1500.57 4164.54C1500.57 4169.24 1496.76 4173.04 1492.07 4173.04 1487.37 4173.04 1483.57 4169.24 1483.57 4164.54 1483.57 4159.85 1487.37 4156.04 1492.07 4156.04 1496.76 4156.04 1500.57 4159.85 1500.57 4164.54Z" stroke="#ED7D31" stroke-width="3.4375" stroke-linecap="butt" stroke-linejoin="round" stroke-miterlimit="10" stroke-opacity="1" fill="#ED7D31" fill-rule="evenodd" fill-opacity="1"/><path d="M1543.57 4162.54C1543.57 4167.24 1539.76 4171.04 1535.07 4171.04 1530.37 4171.04 1526.57 4167.24 1526.57 4162.54 1526.57 4157.85 1530.37 4154.04 1535.07 4154.04 1539.76 4154.04 1543.57 4157.85 1543.57 4162.54Z" stroke="#ED7D31" stroke-width="3.4375" stroke-linecap="butt" stroke-linejoin="round" stroke-miterlimit="10" stroke-opacity="1" fill="#ED7D31" fill-rule="evenodd" fill-opacity="1"/><path d="M1566.57 4154.54C1566.57 4159.24 1562.76 4163.04 1558.07 4163.04 1553.37 4163.04 1549.57 4159.24 1549.57 4154.54 1549.57 4149.85 1553.37 4146.04 1558.07 4146.04 1562.76 4146.04 1566.57 4149.85 1566.57 4154.54Z" stroke="#ED7D31" stroke-width="3.4375" stroke-linecap="butt" stroke-linejoin="round" stroke-miterlimit="10" stroke-opacity="1" fill="#ED7D31" fill-rule="evenodd" fill-opacity="1"/><path d="M1578.57 4144.54C1578.57 4149.24 1574.76 4153.04 1570.07 4153.04 1565.37 4153.04 1561.57 4149.24 1561.57 4144.54 1561.57 4139.85 1565.37 4136.04 1570.07 4136.04 1574.76 4136.04 1578.57 4139.85 1578.57 4144.54Z" stroke="#ED7D31" stroke-width="3.4375" stroke-linecap="butt" stroke-linejoin="round" stroke-miterlimit="10" stroke-opacity="1" fill="#ED7D31" fill-rule="evenodd" fill-opacity="1"/><path d="M1585.57 4134.54C1585.57 4139.24 1581.76 4143.04 1577.07 4143.04 1572.37 4143.04 1568.57 4139.24 1568.57 4134.54 1568.57 4129.85 1572.37 4126.04 1577.07 4126.04 1581.76 4126.04 1585.57 4129.85 1585.57 4134.54Z" stroke="#ED7D31" stroke-width="3.4375" stroke-linecap="butt" stroke-linejoin="round" stroke-miterlimit="10" stroke-opacity="1" fill="#ED7D31" fill-rule="evenodd" fill-opacity="1"/><path d="M1590.57 4124.54C1590.57 4129.24 1586.76 4133.04 1582.07 4133.04 1577.37 4133.04 1573.57 4129.24 1573.57 4124.54 1573.57 4119.85 1577.37 4116.04 1582.07 4116.04 1586.76 4116.04 1590.57 4119.85 1590.57 4124.54Z" stroke="#ED7D31" stroke-width="3.4375" stroke-linecap="butt" stroke-linejoin="round" stroke-miterlimit="10" stroke-opacity="1" fill="#ED7D31" fill-rule="evenodd" fill-opacity="1"/><path d="M1594.57 4115.54C1594.57 4120.24 1590.76 4124.04 1586.07 4124.04 1581.37 4124.04 1577.57 4120.24 1577.57 4115.54 1577.57 4110.85 1581.37 4107.04 1586.07 4107.04 1590.76 4107.04 1594.57 4110.85 1594.57 4115.54Z" stroke="#ED7D31" stroke-width="3.4375" stroke-linecap="butt" stroke-linejoin="round" stroke-miterlimit="10" stroke-opacity="1" fill="#ED7D31" fill-rule="evenodd" fill-opacity="1"/><path d="M1596.57 4107.54C1596.57 4112.24 1592.76 4116.04 1588.07 4116.04 1583.37 4116.04 1579.57 4112.24 1579.57 4107.54 1579.57 4102.85 1583.37 4099.04 1588.07 4099.04 1592.76 4099.04 1596.57 4102.85 1596.57 4107.54Z" stroke="#ED7D31" stroke-width="3.4375" stroke-linecap="butt" stroke-linejoin="round" stroke-miterlimit="10" stroke-opacity="1" fill="#ED7D31" fill-rule="evenodd" fill-opacity="1"/><path d="M1599.57 4091.54C1599.57 4096.24 1595.76 4100.04 1591.07 4100.04 1586.37 4100.04 1582.57 4096.24 1582.57 4091.54 1582.57 4086.85 1586.37 4083.04 1591.07 4083.04 1595.76 4083.04 1599.57 4086.85 1599.57 4091.54Z" stroke="#ED7D31" stroke-width="3.4375" stroke-linecap="butt" stroke-linejoin="round" stroke-miterlimit="10" stroke-opacity="1" fill="#ED7D31" fill-rule="evenodd" fill-opacity="1"/><path d="M1602.57 4077.54C1602.57 4082.24 1598.76 4086.04 1594.07 4086.04 1589.37 4086.04 1585.57 4082.24 1585.57 4077.54 1585.57 4072.85 1589.37 4069.04 1594.07 4069.04 1598.76 4069.04 1602.57 4072.85 1602.57 4077.54Z" stroke="#ED7D31" stroke-width="3.4375" stroke-linecap="butt" stroke-linejoin="round" stroke-miterlimit="10" stroke-opacity="1" fill="#ED7D31" fill-rule="evenodd" fill-opacity="1"/><path d="M1605.57 4068.54C1605.57 4073.24 1601.76 4077.04 1597.07 4077.04 1592.37 4077.04 1588.57 4073.24 1588.57 4068.54 1588.57 4063.85 1592.37 4060.04 1597.07 4060.04 1601.76 4060.04 1605.57 4063.85 1605.57 4068.54Z" stroke="#ED7D31" stroke-width="3.4375" stroke-linecap="butt" stroke-linejoin="round" stroke-miterlimit="10" stroke-opacity="1" fill="#ED7D31" fill-rule="evenodd" fill-opacity="1"/></g><g clip-path="url(#clip9)"><path d="M1069.5 4092.5 1179.54 4089.63 1269.54 4076.63 1314.54 4064.63 1344.54 4054.63 1363.54 4044.63 1378.55 4036.63 1387.55 4027.63 1394.55 4018.63 1399.55 4000.63 1398.55 3982.63 1399.5 3957.5" stroke="#548235" stroke-width="6.875" stroke-linecap="round" stroke-linejoin="round" stroke-miterlimit="10" stroke-opacity="1" fill="none" fill-rule="evenodd"/></g><g clip-path="url(#clip10)"><path d="M1077.57 4091.54C1077.57 4096.24 1073.76 4100.04 1069.07 4100.04 1064.37 4100.04 1060.57 4096.24 1060.57 4091.54 1060.57 4086.85 1064.37 4083.04 1069.07 4083.04 1073.76 4083.04 1077.57 4086.85 1077.57 4091.54Z" stroke="#548235" stroke-width="3.4375" stroke-linecap="butt" stroke-linejoin="round" stroke-miterlimit="10" stroke-opacity="1" fill="#548235" fill-rule="evenodd" fill-opacity="1"/><path d="M1187.57 4089.54C1187.57 4094.24 1183.76 4098.04 1179.07 4098.04 1174.37 4098.04 1170.57 4094.24 1170.57 4089.54 1170.57 4084.85 1174.37 4081.04 1179.07 4081.04 1183.76 4081.04 1187.57 4084.85 1187.57 4089.54Z" stroke="#548235" stroke-width="3.4375" stroke-linecap="butt" stroke-linejoin="round" stroke-miterlimit="10" stroke-opacity="1" fill="#548235" fill-rule="evenodd" fill-opacity="1"/><path d="M1277.57 4076.54C1277.57 4081.24 1273.76 4085.04 1269.07 4085.04 1264.37 4085.04 1260.57 4081.24 1260.57 4076.54 1260.57 4071.85 1264.37 4068.04 1269.07 4068.04 1273.76 4068.04 1277.57 4071.85 1277.57 4076.54Z" stroke="#548235" stroke-width="3.4375" stroke-linecap="butt" stroke-linejoin="round" stroke-miterlimit="10" stroke-opacity="1" fill="#548235" fill-rule="evenodd" fill-opacity="1"/><path d="M1322.57 4063.54C1322.57 4068.24 1318.76 4072.04 1314.07 4072.04 1309.37 4072.04 1305.57 4068.24 1305.57 4063.54 1305.57 4058.85 1309.37 4055.04 1314.07 4055.04 1318.76 4055.04 1322.57 4058.85 1322.57 4063.54Z" stroke="#548235" stroke-width="3.4375" stroke-linecap="butt" stroke-linejoin="round" stroke-miterlimit="10" stroke-opacity="1" fill="#548235" fill-rule="evenodd" fill-opacity="1"/><path d="M1352.57 4054.54C1352.57 4059.24 1348.76 4063.04 1344.07 4063.04 1339.37 4063.04 1335.57 4059.24 1335.57 4054.54 1335.57 4049.85 1339.37 4046.04 1344.07 4046.04 1348.76 4046.04 1352.57 4049.85 1352.57 4054.54Z" stroke="#548235" stroke-width="3.4375" stroke-linecap="butt" stroke-linejoin="round" stroke-miterlimit="10" stroke-opacity="1" fill="#548235" fill-rule="evenodd" fill-opacity="1"/><path d="M1371.57 4044.54C1371.57 4049.24 1367.76 4053.04 1363.07 4053.04 1358.37 4053.04 1354.57 4049.24 1354.57 4044.54 1354.57 4039.85 1358.37 4036.04 1363.07 4036.04 1367.76 4036.04 1371.57 4039.85 1371.57 4044.54Z" stroke="#548235" stroke-width="3.4375" stroke-linecap="butt" stroke-linejoin="round" stroke-miterlimit="10" stroke-opacity="1" fill="#548235" fill-rule="evenodd" fill-opacity="1"/><path d="M1386.57 4035.54C1386.57 4040.24 1382.76 4044.04 1378.07 4044.04 1373.37 4044.04 1369.57 4040.24 1369.57 4035.54 1369.57 4030.85 1373.37 4027.04 1378.07 4027.04 1382.76 4027.04 1386.57 4030.85 1386.57 4035.54Z" stroke="#548235" stroke-width="3.4375" stroke-linecap="butt" stroke-linejoin="round" stroke-miterlimit="10" stroke-opacity="1" fill="#548235" fill-rule="evenodd" fill-opacity="1"/><path d="M1395.57 4026.54C1395.57 4031.24 1391.76 4035.04 1387.07 4035.04 1382.37 4035.04 1378.57 4031.24 1378.57 4026.54 1378.57 4021.85 1382.37 4018.04 1387.07 4018.04 1391.76 4018.04 1395.57 4021.85 1395.57 4026.54Z" stroke="#548235" stroke-width="3.4375" stroke-linecap="butt" stroke-linejoin="round" stroke-miterlimit="10" stroke-opacity="1" fill="#548235" fill-rule="evenodd" fill-opacity="1"/><path d="M1402.57 4017.54C1402.57 4022.24 1398.76 4026.04 1394.07 4026.04 1389.37 4026.04 1385.57 4022.24 1385.57 4017.54 1385.57 4012.85 1389.37 4009.04 1394.07 4009.04 1398.76 4009.04 1402.57 4012.85 1402.57 4017.54Z" stroke="#548235" stroke-width="3.4375" stroke-linecap="butt" stroke-linejoin="round" stroke-miterlimit="10" stroke-opacity="1" fill="#548235" fill-rule="evenodd" fill-opacity="1"/><path d="M1407.57 3999.54C1407.57 4004.24 1403.76 4008.04 1399.07 4008.04 1394.37 4008.04 1390.57 4004.24 1390.57 3999.54 1390.57 3994.85 1394.37 3991.04 1399.07 3991.04 1403.76 3991.04 1407.57 3994.85 1407.57 3999.54Z" stroke="#548235" stroke-width="3.4375" stroke-linecap="butt" stroke-linejoin="round" stroke-miterlimit="10" stroke-opacity="1" fill="#548235" fill-rule="evenodd" fill-opacity="1"/><path d="M1406.57 3982.54C1406.57 3987.24 1402.76 3991.04 1398.07 3991.04 1393.37 3991.04 1389.57 3987.24 1389.57 3982.54 1389.57 3977.85 1393.37 3974.04 1398.07 3974.04 1402.76 3974.04 1406.57 3977.85 1406.57 3982.54Z" stroke="#548235" stroke-width="3.4375" stroke-linecap="butt" stroke-linejoin="round" stroke-miterlimit="10" stroke-opacity="1" fill="#548235" fill-rule="evenodd" fill-opacity="1"/><path d="M1407.57 3956.54C1407.57 3961.24 1403.76 3965.04 1399.07 3965.04 1394.37 3965.04 1390.57 3961.24 1390.57 3956.54 1390.57 3951.85 1394.37 3948.04 1399.07 3948.04 1403.76 3948.04 1407.57 3951.85 1407.57 3956.54Z" stroke="#548235" stroke-width="3.4375" stroke-linecap="butt" stroke-linejoin="round" stroke-miterlimit="10" stroke-opacity="1" fill="#548235" fill-rule="evenodd" fill-opacity="1"/></g><g clip-path="url(#clip11)"><path d="M759.5 3916.5 862.528 3909.63 943.531 3891.63 982.532 3875.63 1007.53 3862.63 1023.53 3851.63 1034.53 3840.63 1043.53 3831.63 1047.53 3821.63 1049.53 3801.62 1050.53 3785.62 1050.53 3769.62 1051.5 3759.5" stroke="#FFC000" stroke-width="6.875" stroke-linecap="round" stroke-linejoin="round" stroke-miterlimit="10" stroke-opacity="1" fill="none" fill-rule="evenodd"/></g><g clip-path="url(#clip12)"><path d="M767.568 3915.54C767.568 3920.24 763.763 3924.04 759.068 3924.04 754.374 3924.04 750.568 3920.24 750.568 3915.54 750.568 3910.85 754.374 3907.04 759.068 3907.04 763.763 3907.04 767.568 3910.85 767.568 3915.54Z" stroke="#FFC000" stroke-width="3.4375" stroke-linecap="butt" stroke-linejoin="round" stroke-miterlimit="10" stroke-opacity="1" fill="#FFC000" fill-rule="evenodd" fill-opacity="1"/><path d="M870.568 3908.54C870.568 3913.24 866.762 3917.04 862.068 3917.04 857.374 3917.04 853.568 3913.24 853.568 3908.54 853.568 3903.85 857.374 3900.04 862.068 3900.04 866.762 3900.04 870.568 3903.85 870.568 3908.54Z" stroke="#FFC000" stroke-width="3.4375" stroke-linecap="butt" stroke-linejoin="round" stroke-miterlimit="10" stroke-opacity="1" fill="#FFC000" fill-rule="evenodd" fill-opacity="1"/><path d="M951.568 3890.54C951.568 3895.24 947.762 3899.04 943.068 3899.04 938.374 3899.04 934.568 3895.24 934.568 3890.54 934.568 3885.85 938.374 3882.04 943.068 3882.04 947.762 3882.04 951.568 3885.85 951.568 3890.54Z" stroke="#FFC000" stroke-width="3.4375" stroke-linecap="butt" stroke-linejoin="round" stroke-miterlimit="10" stroke-opacity="1" fill="#FFC000" fill-rule="evenodd" fill-opacity="1"/><path d="M990.568 3874.54C990.568 3879.24 986.762 3883.04 982.068 3883.04 977.374 3883.04 973.568 3879.24 973.568 3874.54 973.568 3869.85 977.374 3866.04 982.068 3866.04 986.762 3866.04 990.568 3869.85 990.568 3874.54Z" stroke="#FFC000" stroke-width="3.4375" stroke-linecap="butt" stroke-linejoin="round" stroke-miterlimit="10" stroke-opacity="1" fill="#FFC000" fill-rule="evenodd" fill-opacity="1"/><path d="M1015.57 3862.54C1015.57 3867.24 1011.76 3871.04 1007.07 3871.04 1002.37 3871.04 998.568 3867.24 998.568 3862.54 998.568 3857.85 1002.37 3854.04 1007.07 3854.04 1011.76 3854.04 1015.57 3857.85 1015.57 3862.54Z" stroke="#FFC000" stroke-width="3.4375" stroke-linecap="butt" stroke-linejoin="round" stroke-miterlimit="10" stroke-opacity="1" fill="#FFC000" fill-rule="evenodd" fill-opacity="1"/><path d="M1031.57 3850.54C1031.57 3855.24 1027.76 3859.04 1023.07 3859.04 1018.37 3859.04 1014.57 3855.24 1014.57 3850.54 1014.57 3845.85 1018.37 3842.04 1023.07 3842.04 1027.76 3842.04 1031.57 3845.85 1031.57 3850.54Z" stroke="#FFC000" stroke-width="3.4375" stroke-linecap="butt" stroke-linejoin="round" stroke-miterlimit="10" stroke-opacity="1" fill="#FFC000" fill-rule="evenodd" fill-opacity="1"/><path d="M1042.57 3839.54C1042.57 3844.24 1038.76 3848.04 1034.07 3848.04 1029.37 3848.04 1025.57 3844.24 1025.57 3839.54 1025.57 3834.85 1029.37 3831.04 1034.07 3831.04 1038.76 3831.04 1042.57 3834.85 1042.57 3839.54Z" stroke="#FFC000" stroke-width="3.4375" stroke-linecap="butt" stroke-linejoin="round" stroke-miterlimit="10" stroke-opacity="1" fill="#FFC000" fill-rule="evenodd" fill-opacity="1"/><path d="M1051.57 3830.54C1051.57 3835.24 1047.76 3839.04 1043.07 3839.04 1038.37 3839.04 1034.57 3835.24 1034.57 3830.54 1034.57 3825.85 1038.37 3822.04 1043.07 3822.04 1047.76 3822.04 1051.57 3825.85 1051.57 3830.54Z" stroke="#FFC000" stroke-width="3.4375" stroke-linecap="butt" stroke-linejoin="round" stroke-miterlimit="10" stroke-opacity="1" fill="#FFC000" fill-rule="evenodd" fill-opacity="1"/><path d="M1055.57 3820.54C1055.57 3825.24 1051.76 3829.04 1047.07 3829.04 1042.37 3829.04 1038.57 3825.24 1038.57 3820.54 1038.57 3815.85 1042.37 3812.04 1047.07 3812.04 1051.76 3812.04 1055.57 3815.85 1055.57 3820.54Z" stroke="#FFC000" stroke-width="3.4375" stroke-linecap="butt" stroke-linejoin="round" stroke-miterlimit="10" stroke-opacity="1" fill="#FFC000" fill-rule="evenodd" fill-opacity="1"/><path d="M1057.57 3800.54C1057.57 3805.24 1053.76 3809.04 1049.07 3809.04 1044.37 3809.04 1040.57 3805.24 1040.57 3800.54 1040.57 3795.85 1044.37 3792.04 1049.07 3792.04 1053.76 3792.04 1057.57 3795.85 1057.57 3800.54Z" stroke="#FFC000" stroke-width="3.4375" stroke-linecap="butt" stroke-linejoin="round" stroke-miterlimit="10" stroke-opacity="1" fill="#FFC000" fill-rule="evenodd" fill-opacity="1"/><path d="M1058.57 3784.54C1058.57 3789.24 1054.76 3793.04 1050.07 3793.04 1045.37 3793.04 1041.57 3789.24 1041.57 3784.54 1041.57 3779.85 1045.37 3776.04 1050.07 3776.04 1054.76 3776.04 1058.57 3779.85 1058.57 3784.54Z" stroke="#FFC000" stroke-width="3.4375" stroke-linecap="butt" stroke-linejoin="round" stroke-miterlimit="10" stroke-opacity="1" fill="#FFC000" fill-rule="evenodd" fill-opacity="1"/></g><g clip-path="url(#clip13)"><text fill="#595959" fill-opacity="1" font-family="Calibri,Calibri_MSFontService,sans-serif" font-style="normal" font-variant="normal" font-weight="400" font-stretch="normal" font-size="41" text-anchor="start" direction="ltr" writing-mode="lr-tb" unicode-bidi="normal" text-decoration="none" transform="matrix(1 0 0 1 368.96 4281)">0,1</text></g><g clip-path="url(#clip14)"><text fill="#595959" fill-opacity="1" font-family="Calibri,Calibri_MSFontService,sans-serif" font-style="normal" font-variant="normal" font-weight="400" font-stretch="normal" font-size="41" text-anchor="start" direction="ltr" writing-mode="lr-tb" unicode-bidi="normal" text-decoration="none" transform="matrix(1 0 0 1 400.15 4066)">1</text></g><g clip-path="url(#clip15)"><text fill="#595959" fill-opacity="1" font-family="Calibri,Calibri_MSFontService,sans-serif" font-style="normal" font-variant="normal" font-weight="400" font-stretch="normal" font-size="41" text-anchor="start" direction="ltr" writing-mode="lr-tb" unicode-bidi="normal" text-decoration="none" transform="matrix(1 0 0 1 379.25 3851)">10</text></g><g clip-path="url(#clip16)"><text fill="#595959" fill-opacity="1" font-family="Calibri,Calibri_MSFontService,sans-serif" font-style="normal" font-variant="normal" font-weight="400" font-stretch="normal" font-size="41" text-anchor="start" direction="ltr" writing-mode="lr-tb" unicode-bidi="normal" text-decoration="none" transform="matrix(1 0 0 1 407.066 4336)">10000</text></g><g clip-path="url(#clip17)"><text fill="#595959" fill-opacity="1" font-family="Calibri,Calibri_MSFontService,sans-serif" font-style="normal" font-variant="normal" font-weight="400" font-stretch="normal" font-size="41" text-anchor="start" direction="ltr" writing-mode="lr-tb" unicode-bidi="normal" text-decoration="none" transform="matrix(1 0 0 1 774.144 4336)">100000</text></g><g clip-path="url(#clip18)"><text fill="#595959" fill-opacity="1" font-family="Calibri,Calibri_MSFontService,sans-serif" font-style="normal" font-variant="normal" font-weight="400" font-stretch="normal" font-size="41" text-anchor="start" direction="ltr" writing-mode="lr-tb" unicode-bidi="normal" text-decoration="none" transform="matrix(1 0 0 1 1141.22 4336)">1000000</text></g><g clip-path="url(#clip19)"><text fill="#595959" fill-opacity="1" font-family="Calibri,Calibri_MSFontService,sans-serif" font-style="normal" font-variant="normal" font-weight="400" font-stretch="normal" font-size="41" text-anchor="start" direction="ltr" writing-mode="lr-tb" unicode-bidi="normal" text-decoration="none" transform="matrix(1 0 0 1 1508.3 4336)">10000000</text></g><g clip-path="url(#clip20)"><text fill="#595959" fill-opacity="1" font-family="Calibri,Calibri_MSFontService,sans-serif" font-style="normal" font-variant="normal" font-weight="400" font-stretch="normal" font-size="46" text-anchor="start" direction="ltr" writing-mode="lr-tb" unicode-bidi="normal" text-decoration="none" transform="matrix(6.12323e-17 -1 1 6.12323e-17 351.968 4295)">Latency (ms) (log)</text></g><g clip-path="url(#clip21)"><text fill="#595959" fill-opacity="1" font-family="Calibri,Calibri_MSFontService,sans-serif" font-style="normal" font-variant="normal" font-weight="400" font-stretch="normal" font-size="46" text-anchor="start" direction="ltr" writing-mode="lr-tb" unicode-bidi="normal" text-decoration="none" transform="matrix(1 0 0 1 598.62 4381)">Throughput (ops/s) (log scale)</text></g><g clip-path="url(#clip22)"><rect x="479.5" y="4069.5" width="321" height="178" stroke="#000000" stroke-width="3.4375" stroke-linecap="butt" stroke-linejoin="round" stroke-miterlimit="10" stroke-opacity="1" fill="#FFFFFF" fill-opacity="1"/></g><g clip-path="url(#clip23)"><path d="M519.5 4091.5 607.5 4091.5" stroke="#4472C4" stroke-width="6.875" stroke-linecap="round" stroke-linejoin="round" stroke-miterlimit="10" stroke-opacity="1" fill="none" fill-rule="evenodd"/></g><g clip-path="url(#clip24)"><path d="M571 4091C571 4095.43 567.194 4099.03 562.5 4099.03 557.806 4099.03 554 4095.43 554 4091 554 4086.57 557.806 4082.97 562.5 4082.97 567.194 4082.97 571 4086.57 571 4091Z" stroke="#4472C4" stroke-width="3.4375" stroke-linecap="butt" stroke-linejoin="round" stroke-miterlimit="10" stroke-opacity="1" fill="#4472C4" fill-rule="evenodd" fill-opacity="1"/></g><g clip-path="url(#clip25)"><text fill="#595959" fill-opacity="1" font-family="Calibri,Calibri_MSFontService,sans-serif" font-style="normal" font-variant="normal" font-weight="400" font-stretch="normal" font-size="41" text-anchor="start" direction="ltr" writing-mode="lr-tb" unicode-bidi="normal" text-decoration="none" transform="matrix(1 0 0 1 616.547 4102)">Top1</text></g><g clip-path="url(#clip26)"><path d="M519.5 4136.5 607.5 4136.5" stroke="#ED7D31" stroke-width="6.875" stroke-linecap="round" stroke-linejoin="round" stroke-miterlimit="10" stroke-opacity="1" fill="none" fill-rule="evenodd"/></g><g clip-path="url(#clip27)"><path d="M571 4136C571 4140.43 567.194 4144.03 562.5 4144.03 557.806 4144.03 554 4140.43 554 4136 554 4131.57 557.806 4127.97 562.5 4127.97 567.194 4127.97 571 4131.57 571 4136Z" stroke="#ED7D31" stroke-width="3.4375" stroke-linecap="butt" stroke-linejoin="round" stroke-miterlimit="10" stroke-opacity="1" fill="#ED7D31" fill-rule="evenodd" fill-opacity="1"/></g><g clip-path="url(#clip28)"><text fill="#595959" fill-opacity="1" font-family="Calibri,Calibri_MSFontService,sans-serif" font-style="normal" font-variant="normal" font-weight="400" font-stretch="normal" font-size="41" text-anchor="start" direction="ltr" writing-mode="lr-tb" unicode-bidi="normal" text-decoration="none" transform="matrix(1 0 0 1 616.547 4147)">Top10</text></g><g clip-path="url(#clip29)"><path d="M519.5 4181.5 607.5 4181.5" stroke="#548235" stroke-width="6.875" stroke-linecap="round" stroke-linejoin="round" stroke-miterlimit="10" stroke-opacity="1" fill="none" fill-rule="evenodd"/></g><g clip-path="url(#clip30)"><path d="M571 4180.5C571 4185.19 567.194 4189 562.5 4189 557.806 4189 554 4185.19 554 4180.5 554 4175.81 557.806 4172 562.5 4172 567.194 4172 571 4175.81 571 4180.5Z" stroke="#548235" stroke-width="3.4375" stroke-linecap="butt" stroke-linejoin="round" stroke-miterlimit="10" stroke-opacity="1" fill="#548235" fill-rule="evenodd" fill-opacity="1"/></g><g clip-path="url(#clip31)"><text fill="#595959" fill-opacity="1" font-family="Calibri,Calibri_MSFontService,sans-serif" font-style="normal" font-variant="normal" font-weight="400" font-stretch="normal" font-size="41" text-anchor="start" direction="ltr" writing-mode="lr-tb" unicode-bidi="normal" text-decoration="none" transform="matrix(1 0 0 1 616.547 4191)">Top100</text></g><g clip-path="url(#clip32)"><path d="M519.5 4225.5 607.5 4225.5" stroke="#FFC000" stroke-width="6.875" stroke-linecap="round" stroke-linejoin="round" stroke-miterlimit="10" stroke-opacity="1" fill="none" fill-rule="evenodd"/></g><g clip-path="url(#clip33)"><path d="M571 4224.5C571 4229.19 567.194 4233 562.5 4233 557.806 4233 554 4229.19 554 4224.5 554 4219.81 557.806 4216 562.5 4216 567.194 4216 571 4219.81 571 4224.5Z" stroke="#FFC000" stroke-width="3.4375" stroke-linecap="butt" stroke-linejoin="round" stroke-miterlimit="10" stroke-opacity="1" fill="#FFC000" fill-rule="evenodd" fill-opacity="1"/></g><g clip-path="url(#clip34)"><text fill="#595959" fill-opacity="1" font-family="Calibri,Calibri_MSFontService,sans-serif" font-style="normal" font-variant="normal" font-weight="400" font-stretch="normal" font-size="41" text-anchor="start" direction="ltr" writing-mode="lr-tb" unicode-bidi="normal" text-decoration="none" transform="matrix(1 0 0 1 616.547 4236)">Top1000</text></g></g></svg>