<svg width="1288" height="619" xmlns="http://www.w3.org/2000/svg" xmlns:xlink="http://www.w3.org/1999/xlink" overflow="hidden"><defs><clipPath id="clip0"><rect x="1805" y="4441" width="1288" height="619"/></clipPath><clipPath id="clip1"><rect x="1810" y="4443" width="1282" height="615"/></clipPath><clipPath id="clip2"><rect x="1810" y="4443" width="1282" height="615"/></clipPath><clipPath id="clip3"><rect x="1810" y="4443" width="1282" height="615"/></clipPath><clipPath id="clip4"><rect x="1810" y="4443" width="1282" height="615"/></clipPath><clipPath id="clip5"><rect x="1969" y="4468" width="997" height="463"/></clipPath><clipPath id="clip6"><rect x="1810" y="4443" width="1282" height="615"/></clipPath><clipPath id="clip7"><rect x="1969" y="4468" width="997" height="463"/></clipPath><clipPath id="clip8"><rect x="1810" y="4443" width="1282" height="615"/></clipPath><clipPath id="clip9"><rect x="1969" y="4468" width="997" height="463"/></clipPath><clipPath id="clip10"><rect x="1810" y="4443" width="1282" height="615"/></clipPath><clipPath id="clip11"><rect x="1969" y="4468" width="997" height="463"/></clipPath><clipPath id="clip12"><rect x="1810" y="4443" width="1282" height="615"/></clipPath><clipPath id="clip13"><rect x="1810" y="4443" width="1282" height="615"/></clipPath><clipPath id="clip14"><rect x="1810" y="4443" width="1282" height="615"/></clipPath><clipPath id="clip15"><rect x="1810" y="4443" width="1282" height="615"/></clipPath><clipPath id="clip16"><rect x="1810" y="4443" width="1282" height="615"/></clipPath><clipPath id="clip17"><rect x="1810" y="4443" width="1282" height="615"/></clipPath><clipPath id="clip18"><rect x="1810" y="4443" width="1282" height="615"/></clipPath><clipPath id="clip19"><rect x="1810" y="4443" width="1282" height="615"/></clipPath><clipPath id="clip20"><rect x="1810" y="4443" width="1282" height="615"/></clipPath><clipPath id="clip21"><rect x="1810" y="4443" width="1282" height="615"/></clipPath><clipPath id="clip22"><rect x="1810" y="4443" width="1282" height="615"/></clipPath><clipPath id="clip23"><rect x="1810" y="4443" width="1282" height="615"/></clipPath><clipPath id="clip24"><rect x="1810" y="4443" width="1282" height="615"/></clipPath><clipPath id="clip25"><rect x="1810" y="4443" width="1282" height="615"/></clipPath><clipPath id="clip26"><rect x="1810" y="4443" width="1282" height="615"/></clipPath><clipPath id="clip27"><rect x="1810" y="4443" width="1282" height="615"/></clipPath><clipPath id="clip28"><rect x="1810" y="4443" width="1282" height="615"/></clipPath><clipPath id="clip29"><rect x="1810" y="4443" width="1282" height="615"/></clipPath><clipPath id="clip30"><rect x="1810" y="4443" width="1282" height="615"/></clipPath><clipPath id="clip31"><rect x="1810" y="4443" width="1282" height="615"/></clipPath><clipPath id="clip32"><rect x="1810" y="4443" width="1282" height="615"/></clipPath><clipPath id="clip33"><rect x="1810" y="4443" width="1282" height="615"/></clipPath></defs><g clip-path="url(#clip0)" transform="translate(-1805 -4441)"><rect x="1811" y="4443" width="1281" height="616" fill="#FFFFFF" fill-opacity="1"/><g clip-path="url(#clip1)"><path d="M1969.5 4697.65 2963.5 4697.65M1969.5 4468.5 2963.5 4468.5" stroke="#D9D9D9" stroke-width="3.4375" stroke-linecap="butt" stroke-linejoin="round" stroke-miterlimit="10" stroke-opacity="1" fill="none" fill-rule="evenodd"/></g><g clip-path="url(#clip2)"><path d="M2466.58 4468.5 2466.58 4927.5M2963.5 4468.5 2963.5 4927.5" stroke="#D9D9D9" stroke-width="3.4375" stroke-linecap="butt" stroke-linejoin="round" stroke-miterlimit="10" stroke-opacity="1" fill="none" fill-rule="evenodd"/></g><g clip-path="url(#clip3)"><path d="M0 0 0.000360892 459" stroke="#BFBFBF" stroke-width="3.4375" stroke-linecap="butt" stroke-linejoin="round" stroke-miterlimit="10" stroke-opacity="1" fill="none" fill-rule="evenodd" transform="matrix(1 0 0 -1 1969.5 4927.5)"/></g><g clip-path="url(#clip4)"><path d="M1969.5 4927.5 2963.5 4927.5" stroke="#BFBFBF" stroke-width="3.4375" stroke-linecap="butt" stroke-linejoin="round" stroke-miterlimit="10" stroke-opacity="1" fill="none" fill-rule="evenodd"/></g><g clip-path="url(#clip5)"><path d="M2314.5 4892.66 2467.58 4894.5 2601.59 4887.66 2675.59 4880.66 2724.59 4875.66 2759.59 4868.66 2782.59 4861.66 2789.59 4849.66 2794.59 4838.66 2808.59 4833.66 2823.59 4829.66 2829.59 4813.66 2831.59 4799.66 2833.5 4787.66 2833.59 4775.5" stroke="#4472C4" stroke-width="6.875" stroke-linecap="round" stroke-linejoin="round" stroke-miterlimit="10" stroke-opacity="1" fill="none" fill-rule="evenodd"/></g><g clip-path="url(#clip6)"><path d="M2322.28 4893.4C2322.28 4898.09 2318.48 4901.9 2313.78 4901.9 2309.09 4901.9 2305.28 4898.09 2305.28 4893.4 2305.28 4888.71 2309.09 4884.9 2313.78 4884.9 2318.48 4884.9 2322.28 4888.71 2322.28 4893.4Z" stroke="#4472C4" stroke-width="3.4375" stroke-linecap="butt" stroke-linejoin="round" stroke-miterlimit="10" stroke-opacity="1" fill="#4472C4" fill-rule="evenodd" fill-opacity="1"/><path d="M2475.28 4894.4C2475.28 4899.09 2471.48 4902.9 2466.78 4902.9 2462.09 4902.9 2458.28 4899.09 2458.28 4894.4 2458.28 4889.71 2462.09 4885.9 2466.78 4885.9 2471.48 4885.9 2475.28 4889.71 2475.28 4894.4Z" stroke="#4472C4" stroke-width="3.4375" stroke-linecap="butt" stroke-linejoin="round" stroke-miterlimit="10" stroke-opacity="1" fill="#4472C4" fill-rule="evenodd" fill-opacity="1"/><path d="M2609.28 4887.4C2609.28 4892.09 2605.48 4895.9 2600.78 4895.9 2596.09 4895.9 2592.28 4892.09 2592.28 4887.4 2592.28 4882.71 2596.09 4878.9 2600.78 4878.9 2605.48 4878.9 2609.28 4882.71 2609.28 4887.4Z" stroke="#4472C4" stroke-width="3.4375" stroke-linecap="butt" stroke-linejoin="round" stroke-miterlimit="10" stroke-opacity="1" fill="#4472C4" fill-rule="evenodd" fill-opacity="1"/><path d="M2683.28 4881.4C2683.28 4886.09 2679.48 4889.9 2674.78 4889.9 2670.09 4889.9 2666.28 4886.09 2666.28 4881.4 2666.28 4876.71 2670.09 4872.9 2674.78 4872.9 2679.48 4872.9 2683.28 4876.71 2683.28 4881.4Z" stroke="#4472C4" stroke-width="3.4375" stroke-linecap="butt" stroke-linejoin="round" stroke-miterlimit="10" stroke-opacity="1" fill="#4472C4" fill-rule="evenodd" fill-opacity="1"/><path d="M2732.28 4875.4C2732.28 4880.09 2728.48 4883.9 2723.78 4883.9 2719.09 4883.9 2715.28 4880.09 2715.28 4875.4 2715.28 4870.71 2719.09 4866.9 2723.78 4866.9 2728.48 4866.9 2732.28 4870.71 2732.28 4875.4Z" stroke="#4472C4" stroke-width="3.4375" stroke-linecap="butt" stroke-linejoin="round" stroke-miterlimit="10" stroke-opacity="1" fill="#4472C4" fill-rule="evenodd" fill-opacity="1"/><path d="M2767.28 4869.4C2767.28 4874.09 2763.48 4877.9 2758.78 4877.9 2754.09 4877.9 2750.28 4874.09 2750.28 4869.4 2750.28 4864.71 2754.09 4860.9 2758.78 4860.9 2763.48 4860.9 2767.28 4864.71 2767.28 4869.4Z" stroke="#4472C4" stroke-width="3.4375" stroke-linecap="butt" stroke-linejoin="round" stroke-miterlimit="10" stroke-opacity="1" fill="#4472C4" fill-rule="evenodd" fill-opacity="1"/><path d="M2790.28 4861.4C2790.28 4866.09 2786.48 4869.9 2781.78 4869.9 2777.09 4869.9 2773.28 4866.09 2773.28 4861.4 2773.28 4856.71 2777.09 4852.9 2781.78 4852.9 2786.48 4852.9 2790.28 4856.71 2790.28 4861.4Z" stroke="#4472C4" stroke-width="3.4375" stroke-linecap="butt" stroke-linejoin="round" stroke-miterlimit="10" stroke-opacity="1" fill="#4472C4" fill-rule="evenodd" fill-opacity="1"/><path d="M2797.28 4849.4C2797.28 4854.09 2793.48 4857.9 2788.78 4857.9 2784.09 4857.9 2780.28 4854.09 2780.28 4849.4 2780.28 4844.71 2784.09 4840.9 2788.78 4840.9 2793.48 4840.9 2797.28 4844.71 2797.28 4849.4Z" stroke="#4472C4" stroke-width="3.4375" stroke-linecap="butt" stroke-linejoin="round" stroke-miterlimit="10" stroke-opacity="1" fill="#4472C4" fill-rule="evenodd" fill-opacity="1"/><path d="M2802.28 4838.4C2802.28 4843.09 2798.48 4846.9 2793.78 4846.9 2789.09 4846.9 2785.28 4843.09 2785.28 4838.4 2785.28 4833.71 2789.09 4829.9 2793.78 4829.9 2798.48 4829.9 2802.28 4833.71 2802.28 4838.4Z" stroke="#4472C4" stroke-width="3.4375" stroke-linecap="butt" stroke-linejoin="round" stroke-miterlimit="10" stroke-opacity="1" fill="#4472C4" fill-rule="evenodd" fill-opacity="1"/><path d="M2816.28 4833.4C2816.28 4838.09 2812.48 4841.9 2807.78 4841.9 2803.09 4841.9 2799.28 4838.09 2799.28 4833.4 2799.28 4828.71 2803.09 4824.9 2807.78 4824.9 2812.48 4824.9 2816.28 4828.71 2816.28 4833.4Z" stroke="#4472C4" stroke-width="3.4375" stroke-linecap="butt" stroke-linejoin="round" stroke-miterlimit="10" stroke-opacity="1" fill="#4472C4" fill-rule="evenodd" fill-opacity="1"/><path d="M2831.28 4829.4C2831.28 4834.09 2827.48 4837.9 2822.78 4837.9 2818.09 4837.9 2814.28 4834.09 2814.28 4829.4 2814.28 4824.71 2818.09 4820.9 2822.78 4820.9 2827.48 4820.9 2831.28 4824.71 2831.28 4829.4Z" stroke="#4472C4" stroke-width="3.4375" stroke-linecap="butt" stroke-linejoin="round" stroke-miterlimit="10" stroke-opacity="1" fill="#4472C4" fill-rule="evenodd" fill-opacity="1"/><path d="M2837.28 4813.4C2837.28 4818.09 2833.48 4821.9 2828.78 4821.9 2824.09 4821.9 2820.28 4818.09 2820.28 4813.4 2820.28 4808.71 2824.09 4804.9 2828.78 4804.9 2833.48 4804.9 2837.28 4808.71 2837.28 4813.4Z" stroke="#4472C4" stroke-width="3.4375" stroke-linecap="butt" stroke-linejoin="round" stroke-miterlimit="10" stroke-opacity="1" fill="#4472C4" fill-rule="evenodd" fill-opacity="1"/><path d="M2840.28 4799.4C2840.28 4804.09 2836.48 4807.9 2831.78 4807.9 2827.09 4807.9 2823.28 4804.09 2823.28 4799.4 2823.28 4794.71 2827.09 4790.9 2831.78 4790.9 2836.48 4790.9 2840.28 4794.71 2840.28 4799.4Z" stroke="#4472C4" stroke-width="3.4375" stroke-linecap="butt" stroke-linejoin="round" stroke-miterlimit="10" stroke-opacity="1" fill="#4472C4" fill-rule="evenodd" fill-opacity="1"/><path d="M2841.28 4787.4C2841.28 4792.09 2837.48 4795.9 2832.78 4795.9 2828.09 4795.9 2824.28 4792.09 2824.28 4787.4 2824.28 4782.71 2828.09 4778.9 2832.78 4778.9 2837.48 4778.9 2841.28 4782.71 2841.28 4787.4Z" stroke="#4472C4" stroke-width="3.4375" stroke-linecap="butt" stroke-linejoin="round" stroke-miterlimit="10" stroke-opacity="1" fill="#4472C4" fill-rule="evenodd" fill-opacity="1"/><path d="M2841.28 4775.4C2841.28 4780.09 2837.48 4783.9 2832.78 4783.9 2828.09 4783.9 2824.28 4780.09 2824.28 4775.4 2824.28 4770.71 2828.09 4766.9 2832.78 4766.9 2837.48 4766.9 2841.28 4770.71 2841.28 4775.4Z" stroke="#4472C4" stroke-width="3.4375" stroke-linecap="butt" stroke-linejoin="round" stroke-miterlimit="10" stroke-opacity="1" fill="#4472C4" fill-rule="evenodd" fill-opacity="1"/></g><g clip-path="url(#clip7)"><path d="M2454.5 4888.5 2581.58 4878.66 2691.59 4859.66 2741.59 4842.66 2758.59 4821.66 2780.59 4809.66 2791.59 4796.66 2798.59 4784.66 2801.59 4772.66 2809.59 4753.66 2813.59 4737.66 2818.59 4724.66 2817.59 4710.65 2820.5 4690.5" stroke="#ED7D31" stroke-width="6.875" stroke-linecap="round" stroke-linejoin="round" stroke-miterlimit="10" stroke-opacity="1" fill="none" fill-rule="evenodd"/></g><g clip-path="url(#clip8)"><path d="M2462.28 4888.4C2462.28 4893.09 2458.48 4896.9 2453.78 4896.9 2449.09 4896.9 2445.28 4893.09 2445.28 4888.4 2445.28 4883.71 2449.09 4879.9 2453.78 4879.9 2458.48 4879.9 2462.28 4883.71 2462.28 4888.4Z" stroke="#ED7D31" stroke-width="3.4375" stroke-linecap="butt" stroke-linejoin="round" stroke-miterlimit="10" stroke-opacity="1" fill="#ED7D31" fill-rule="evenodd" fill-opacity="1"/><path d="M2589.28 4878.4C2589.28 4883.09 2585.48 4886.9 2580.78 4886.9 2576.09 4886.9 2572.28 4883.09 2572.28 4878.4 2572.28 4873.71 2576.09 4869.9 2580.78 4869.9 2585.48 4869.9 2589.28 4873.71 2589.28 4878.4Z" stroke="#ED7D31" stroke-width="3.4375" stroke-linecap="butt" stroke-linejoin="round" stroke-miterlimit="10" stroke-opacity="1" fill="#ED7D31" fill-rule="evenodd" fill-opacity="1"/><path d="M2699.28 4860.4C2699.28 4865.09 2695.48 4868.9 2690.78 4868.9 2686.09 4868.9 2682.28 4865.09 2682.28 4860.4 2682.28 4855.71 2686.09 4851.9 2690.78 4851.9 2695.48 4851.9 2699.28 4855.71 2699.28 4860.4Z" stroke="#ED7D31" stroke-width="3.4375" stroke-linecap="butt" stroke-linejoin="round" stroke-miterlimit="10" stroke-opacity="1" fill="#ED7D31" fill-rule="evenodd" fill-opacity="1"/><path d="M2749.28 4842.4C2749.28 4847.09 2745.48 4850.9 2740.78 4850.9 2736.09 4850.9 2732.28 4847.09 2732.28 4842.4 2732.28 4837.71 2736.09 4833.9 2740.78 4833.9 2745.48 4833.9 2749.28 4837.71 2749.28 4842.4Z" stroke="#ED7D31" stroke-width="3.4375" stroke-linecap="butt" stroke-linejoin="round" stroke-miterlimit="10" stroke-opacity="1" fill="#ED7D31" fill-rule="evenodd" fill-opacity="1"/><path d="M2766.28 4821.4C2766.28 4826.09 2762.48 4829.9 2757.78 4829.9 2753.09 4829.9 2749.28 4826.09 2749.28 4821.4 2749.28 4816.71 2753.09 4812.9 2757.78 4812.9 2762.48 4812.9 2766.28 4816.71 2766.28 4821.4Z" stroke="#ED7D31" stroke-width="3.4375" stroke-linecap="butt" stroke-linejoin="round" stroke-miterlimit="10" stroke-opacity="1" fill="#ED7D31" fill-rule="evenodd" fill-opacity="1"/><path d="M2788.28 4809.4C2788.28 4814.09 2784.48 4817.9 2779.78 4817.9 2775.09 4817.9 2771.28 4814.09 2771.28 4809.4 2771.28 4804.71 2775.09 4800.9 2779.78 4800.9 2784.48 4800.9 2788.28 4804.71 2788.28 4809.4Z" stroke="#ED7D31" stroke-width="3.4375" stroke-linecap="butt" stroke-linejoin="round" stroke-miterlimit="10" stroke-opacity="1" fill="#ED7D31" fill-rule="evenodd" fill-opacity="1"/><path d="M2799.28 4796.4C2799.28 4801.09 2795.48 4804.9 2790.78 4804.9 2786.09 4804.9 2782.28 4801.09 2782.28 4796.4 2782.28 4791.71 2786.09 4787.9 2790.78 4787.9 2795.48 4787.9 2799.28 4791.71 2799.28 4796.4Z" stroke="#ED7D31" stroke-width="3.4375" stroke-linecap="butt" stroke-linejoin="round" stroke-miterlimit="10" stroke-opacity="1" fill="#ED7D31" fill-rule="evenodd" fill-opacity="1"/><path d="M2806.28 4784.4C2806.28 4789.09 2802.48 4792.9 2797.78 4792.9 2793.09 4792.9 2789.28 4789.09 2789.28 4784.4 2789.28 4779.71 2793.09 4775.9 2797.78 4775.9 2802.48 4775.9 2806.28 4779.71 2806.28 4784.4Z" stroke="#ED7D31" stroke-width="3.4375" stroke-linecap="butt" stroke-linejoin="round" stroke-miterlimit="10" stroke-opacity="1" fill="#ED7D31" fill-rule="evenodd" fill-opacity="1"/><path d="M2809.28 4772.4C2809.28 4777.09 2805.48 4780.9 2800.78 4780.9 2796.09 4780.9 2792.28 4777.09 2792.28 4772.4 2792.28 4767.71 2796.09 4763.9 2800.78 4763.9 2805.48 4763.9 2809.28 4767.71 2809.28 4772.4Z" stroke="#ED7D31" stroke-width="3.4375" stroke-linecap="butt" stroke-linejoin="round" stroke-miterlimit="10" stroke-opacity="1" fill="#ED7D31" fill-rule="evenodd" fill-opacity="1"/><path d="M2817.28 4754.4C2817.28 4759.09 2813.48 4762.9 2808.78 4762.9 2804.09 4762.9 2800.28 4759.09 2800.28 4754.4 2800.28 4749.71 2804.09 4745.9 2808.78 4745.9 2813.48 4745.9 2817.28 4749.71 2817.28 4754.4Z" stroke="#ED7D31" stroke-width="3.4375" stroke-linecap="butt" stroke-linejoin="round" stroke-miterlimit="10" stroke-opacity="1" fill="#ED7D31" fill-rule="evenodd" fill-opacity="1"/><path d="M2821.28 4737.4C2821.28 4742.09 2817.48 4745.9 2812.78 4745.9 2808.09 4745.9 2804.28 4742.09 2804.28 4737.4 2804.28 4732.71 2808.09 4728.9 2812.78 4728.9 2817.48 4728.9 2821.28 4732.71 2821.28 4737.4Z" stroke="#ED7D31" stroke-width="3.4375" stroke-linecap="butt" stroke-linejoin="round" stroke-miterlimit="10" stroke-opacity="1" fill="#ED7D31" fill-rule="evenodd" fill-opacity="1"/><path d="M2826.28 4724.4C2826.28 4729.09 2822.48 4732.9 2817.78 4732.9 2813.09 4732.9 2809.28 4729.09 2809.28 4724.4 2809.28 4719.71 2813.09 4715.9 2817.78 4715.9 2822.48 4715.9 2826.28 4719.71 2826.28 4724.4Z" stroke="#ED7D31" stroke-width="3.4375" stroke-linecap="butt" stroke-linejoin="round" stroke-miterlimit="10" stroke-opacity="1" fill="#ED7D31" fill-rule="evenodd" fill-opacity="1"/><path d="M2825.28 4710.4C2825.28 4715.09 2821.48 4718.9 2816.78 4718.9 2812.09 4718.9 2808.28 4715.09 2808.28 4710.4 2808.28 4705.71 2812.09 4701.9 2816.78 4701.9 2821.48 4701.9 2825.28 4705.71 2825.28 4710.4Z" stroke="#ED7D31" stroke-width="3.4375" stroke-linecap="butt" stroke-linejoin="round" stroke-miterlimit="10" stroke-opacity="1" fill="#ED7D31" fill-rule="evenodd" fill-opacity="1"/><path d="M2828.28 4690.4C2828.28 4695.09 2824.48 4698.9 2819.78 4698.9 2815.09 4698.9 2811.28 4695.09 2811.28 4690.4 2811.28 4685.71 2815.09 4681.9 2819.78 4681.9 2824.48 4681.9 2828.28 4685.71 2828.28 4690.4Z" stroke="#ED7D31" stroke-width="3.4375" stroke-linecap="butt" stroke-linejoin="round" stroke-miterlimit="10" stroke-opacity="1" fill="#ED7D31" fill-rule="evenodd" fill-opacity="1"/></g><g clip-path="url(#clip9)"><path d="M2472.5 4827.5 2539.58 4789.66 2589.58 4743.66 2618.59 4716.66 2636.59 4696.65 2655.59 4682.65 2683.59 4677.65 2700.59 4669.65 2713.59 4662.65 2733.59 4649.65 2744.59 4636.65 2751.5 4610.65 2748.59 4587.65 2742.59 4566.5" stroke="#548235" stroke-width="6.875" stroke-linecap="round" stroke-linejoin="round" stroke-miterlimit="10" stroke-opacity="1" fill="none" fill-rule="evenodd"/></g><g clip-path="url(#clip10)"><path d="M2480.28 4827.4C2480.28 4832.09 2476.48 4835.9 2471.78 4835.9 2467.09 4835.9 2463.28 4832.09 2463.28 4827.4 2463.28 4822.71 2467.09 4818.9 2471.78 4818.9 2476.48 4818.9 2480.28 4822.71 2480.28 4827.4Z" stroke="#548235" stroke-width="3.4375" stroke-linecap="butt" stroke-linejoin="round" stroke-miterlimit="10" stroke-opacity="1" fill="#548235" fill-rule="evenodd" fill-opacity="1"/><path d="M2547.28 4789.4C2547.28 4794.09 2543.48 4797.9 2538.78 4797.9 2534.09 4797.9 2530.28 4794.09 2530.28 4789.4 2530.28 4784.71 2534.09 4780.9 2538.78 4780.9 2543.48 4780.9 2547.28 4784.71 2547.28 4789.4Z" stroke="#548235" stroke-width="3.4375" stroke-linecap="butt" stroke-linejoin="round" stroke-miterlimit="10" stroke-opacity="1" fill="#548235" fill-rule="evenodd" fill-opacity="1"/><path d="M2597.28 4743.4C2597.28 4748.09 2593.48 4751.9 2588.78 4751.9 2584.09 4751.9 2580.28 4748.09 2580.28 4743.4 2580.28 4738.71 2584.09 4734.9 2588.78 4734.9 2593.48 4734.9 2597.28 4738.71 2597.28 4743.4Z" stroke="#548235" stroke-width="3.4375" stroke-linecap="butt" stroke-linejoin="round" stroke-miterlimit="10" stroke-opacity="1" fill="#548235" fill-rule="evenodd" fill-opacity="1"/><path d="M2626.28 4716.4C2626.28 4721.09 2622.48 4724.9 2617.78 4724.9 2613.09 4724.9 2609.28 4721.09 2609.28 4716.4 2609.28 4711.71 2613.09 4707.9 2617.78 4707.9 2622.48 4707.9 2626.28 4711.71 2626.28 4716.4Z" stroke="#548235" stroke-width="3.4375" stroke-linecap="butt" stroke-linejoin="round" stroke-miterlimit="10" stroke-opacity="1" fill="#548235" fill-rule="evenodd" fill-opacity="1"/><path d="M2644.28 4696.4C2644.28 4701.09 2640.48 4704.9 2635.78 4704.9 2631.09 4704.9 2627.28 4701.09 2627.28 4696.4 2627.28 4691.71 2631.09 4687.9 2635.78 4687.9 2640.48 4687.9 2644.28 4691.71 2644.28 4696.4Z" stroke="#548235" stroke-width="3.4375" stroke-linecap="butt" stroke-linejoin="round" stroke-miterlimit="10" stroke-opacity="1" fill="#548235" fill-rule="evenodd" fill-opacity="1"/><path d="M2663.28 4682.4C2663.28 4687.09 2659.48 4690.9 2654.78 4690.9 2650.09 4690.9 2646.28 4687.09 2646.28 4682.4 2646.28 4677.71 2650.09 4673.9 2654.78 4673.9 2659.48 4673.9 2663.28 4677.71 2663.28 4682.4Z" stroke="#548235" stroke-width="3.4375" stroke-linecap="butt" stroke-linejoin="round" stroke-miterlimit="10" stroke-opacity="1" fill="#548235" fill-rule="evenodd" fill-opacity="1"/><path d="M2692.28 4677.4C2692.28 4682.09 2688.48 4685.9 2683.78 4685.9 2679.09 4685.9 2675.28 4682.09 2675.28 4677.4 2675.28 4672.71 2679.09 4668.9 2683.78 4668.9 2688.48 4668.9 2692.28 4672.71 2692.28 4677.4Z" stroke="#548235" stroke-width="3.4375" stroke-linecap="butt" stroke-linejoin="round" stroke-miterlimit="10" stroke-opacity="1" fill="#548235" fill-rule="evenodd" fill-opacity="1"/><path d="M2708.28 4670.4C2708.28 4675.09 2704.48 4678.9 2699.78 4678.9 2695.09 4678.9 2691.28 4675.09 2691.28 4670.4 2691.28 4665.71 2695.09 4661.9 2699.78 4661.9 2704.48 4661.9 2708.28 4665.71 2708.28 4670.4Z" stroke="#548235" stroke-width="3.4375" stroke-linecap="butt" stroke-linejoin="round" stroke-miterlimit="10" stroke-opacity="1" fill="#548235" fill-rule="evenodd" fill-opacity="1"/><path d="M2721.28 4662.4C2721.28 4667.09 2717.48 4670.9 2712.78 4670.9 2708.09 4670.9 2704.28 4667.09 2704.28 4662.4 2704.28 4657.71 2708.09 4653.9 2712.78 4653.9 2717.48 4653.9 2721.28 4657.71 2721.28 4662.4Z" stroke="#548235" stroke-width="3.4375" stroke-linecap="butt" stroke-linejoin="round" stroke-miterlimit="10" stroke-opacity="1" fill="#548235" fill-rule="evenodd" fill-opacity="1"/><path d="M2741.28 4649.4C2741.28 4654.09 2737.48 4657.9 2732.78 4657.9 2728.09 4657.9 2724.28 4654.09 2724.28 4649.4 2724.28 4644.71 2728.09 4640.9 2732.78 4640.9 2737.48 4640.9 2741.28 4644.71 2741.28 4649.4Z" stroke="#548235" stroke-width="3.4375" stroke-linecap="butt" stroke-linejoin="round" stroke-miterlimit="10" stroke-opacity="1" fill="#548235" fill-rule="evenodd" fill-opacity="1"/><path d="M2752.28 4636.4C2752.28 4641.09 2748.48 4644.9 2743.78 4644.9 2739.09 4644.9 2735.28 4641.09 2735.28 4636.4 2735.28 4631.71 2739.09 4627.9 2743.78 4627.9 2748.48 4627.9 2752.28 4631.71 2752.28 4636.4Z" stroke="#548235" stroke-width="3.4375" stroke-linecap="butt" stroke-linejoin="round" stroke-miterlimit="10" stroke-opacity="1" fill="#548235" fill-rule="evenodd" fill-opacity="1"/><path d="M2759.28 4611.4C2759.28 4616.09 2755.48 4619.9 2750.78 4619.9 2746.09 4619.9 2742.28 4616.09 2742.28 4611.4 2742.28 4606.71 2746.09 4602.9 2750.78 4602.9 2755.48 4602.9 2759.28 4606.71 2759.28 4611.4Z" stroke="#548235" stroke-width="3.4375" stroke-linecap="butt" stroke-linejoin="round" stroke-miterlimit="10" stroke-opacity="1" fill="#548235" fill-rule="evenodd" fill-opacity="1"/><path d="M2756.28 4587.4C2756.28 4592.09 2752.48 4595.9 2747.78 4595.9 2743.09 4595.9 2739.28 4592.09 2739.28 4587.4 2739.28 4582.71 2743.09 4578.9 2747.78 4578.9 2752.48 4578.9 2756.28 4582.71 2756.28 4587.4Z" stroke="#548235" stroke-width="3.4375" stroke-linecap="butt" stroke-linejoin="round" stroke-miterlimit="10" stroke-opacity="1" fill="#548235" fill-rule="evenodd" fill-opacity="1"/><path d="M2750.28 4566.4C2750.28 4571.09 2746.48 4574.9 2741.78 4574.9 2737.09 4574.9 2733.28 4571.09 2733.28 4566.4 2733.28 4561.71 2737.09 4557.9 2741.78 4557.9 2746.48 4557.9 2750.28 4561.71 2750.28 4566.4Z" stroke="#548235" stroke-width="3.4375" stroke-linecap="butt" stroke-linejoin="round" stroke-miterlimit="10" stroke-opacity="1" fill="#548235" fill-rule="evenodd" fill-opacity="1"/></g><g clip-path="url(#clip11)"><path d="M2228.5 4784.5 2277.57 4737.66 2345.58 4699.65 2426.58 4668.65 2462.58 4644.65 2492.58 4629.65 2509.58 4615.65 2528.58 4606.65 2541.58 4596.65 2550.58 4587.65 2559.58 4569.65 2560.5 4551.5" stroke="#FFC000" stroke-width="6.875" stroke-linecap="round" stroke-linejoin="round" stroke-miterlimit="10" stroke-opacity="1" fill="none" fill-rule="evenodd"/></g><g clip-path="url(#clip12)"><path d="M2236.28 4784.4C2236.28 4789.09 2232.48 4792.9 2227.78 4792.9 2223.09 4792.9 2219.28 4789.09 2219.28 4784.4 2219.28 4779.71 2223.09 4775.9 2227.78 4775.9 2232.48 4775.9 2236.28 4779.71 2236.28 4784.4Z" stroke="#FFC000" stroke-width="3.4375" stroke-linecap="butt" stroke-linejoin="round" stroke-miterlimit="10" stroke-opacity="1" fill="#FFC000" fill-rule="evenodd" fill-opacity="1"/><path d="M2285.28 4737.4C2285.28 4742.09 2281.48 4745.9 2276.78 4745.9 2272.09 4745.9 2268.28 4742.09 2268.28 4737.4 2268.28 4732.71 2272.09 4728.9 2276.78 4728.9 2281.48 4728.9 2285.28 4732.71 2285.28 4737.4Z" stroke="#FFC000" stroke-width="3.4375" stroke-linecap="butt" stroke-linejoin="round" stroke-miterlimit="10" stroke-opacity="1" fill="#FFC000" fill-rule="evenodd" fill-opacity="1"/><path d="M2353.28 4700.4C2353.28 4705.09 2349.48 4708.9 2344.78 4708.9 2340.09 4708.9 2336.28 4705.09 2336.28 4700.4 2336.28 4695.71 2340.09 4691.9 2344.78 4691.9 2349.48 4691.9 2353.28 4695.71 2353.28 4700.4Z" stroke="#FFC000" stroke-width="3.4375" stroke-linecap="butt" stroke-linejoin="round" stroke-miterlimit="10" stroke-opacity="1" fill="#FFC000" fill-rule="evenodd" fill-opacity="1"/><path d="M2434.28 4668.4C2434.28 4673.09 2430.48 4676.9 2425.78 4676.9 2421.09 4676.9 2417.28 4673.09 2417.28 4668.4 2417.28 4663.71 2421.09 4659.9 2425.78 4659.9 2430.48 4659.9 2434.28 4663.71 2434.28 4668.4Z" stroke="#FFC000" stroke-width="3.4375" stroke-linecap="butt" stroke-linejoin="round" stroke-miterlimit="10" stroke-opacity="1" fill="#FFC000" fill-rule="evenodd" fill-opacity="1"/><path d="M2470.28 4644.4C2470.28 4649.09 2466.48 4652.9 2461.78 4652.9 2457.09 4652.9 2453.28 4649.09 2453.28 4644.4 2453.28 4639.71 2457.09 4635.9 2461.78 4635.9 2466.48 4635.9 2470.28 4639.71 2470.28 4644.4Z" stroke="#FFC000" stroke-width="3.4375" stroke-linecap="butt" stroke-linejoin="round" stroke-miterlimit="10" stroke-opacity="1" fill="#FFC000" fill-rule="evenodd" fill-opacity="1"/><path d="M2500.28 4629.4C2500.28 4634.09 2496.48 4637.9 2491.78 4637.9 2487.09 4637.9 2483.28 4634.09 2483.28 4629.4 2483.28 4624.71 2487.09 4620.9 2491.78 4620.9 2496.48 4620.9 2500.28 4624.71 2500.28 4629.4Z" stroke="#FFC000" stroke-width="3.4375" stroke-linecap="butt" stroke-linejoin="round" stroke-miterlimit="10" stroke-opacity="1" fill="#FFC000" fill-rule="evenodd" fill-opacity="1"/><path d="M2518.28 4615.4C2518.28 4620.09 2514.48 4623.9 2509.78 4623.9 2505.09 4623.9 2501.28 4620.09 2501.28 4615.4 2501.28 4610.71 2505.09 4606.9 2509.78 4606.9 2514.48 4606.9 2518.28 4610.71 2518.28 4615.4Z" stroke="#FFC000" stroke-width="3.4375" stroke-linecap="butt" stroke-linejoin="round" stroke-miterlimit="10" stroke-opacity="1" fill="#FFC000" fill-rule="evenodd" fill-opacity="1"/><path d="M2536.28 4606.4C2536.28 4611.09 2532.48 4614.9 2527.78 4614.9 2523.09 4614.9 2519.28 4611.09 2519.28 4606.4 2519.28 4601.71 2523.09 4597.9 2527.78 4597.9 2532.48 4597.9 2536.28 4601.71 2536.28 4606.4Z" stroke="#FFC000" stroke-width="3.4375" stroke-linecap="butt" stroke-linejoin="round" stroke-miterlimit="10" stroke-opacity="1" fill="#FFC000" fill-rule="evenodd" fill-opacity="1"/><path d="M2549.28 4596.4C2549.28 4601.09 2545.48 4604.9 2540.78 4604.9 2536.09 4604.9 2532.28 4601.09 2532.28 4596.4 2532.28 4591.71 2536.09 4587.9 2540.78 4587.9 2545.48 4587.9 2549.28 4591.71 2549.28 4596.4Z" stroke="#FFC000" stroke-width="3.4375" stroke-linecap="butt" stroke-linejoin="round" stroke-miterlimit="10" stroke-opacity="1" fill="#FFC000" fill-rule="evenodd" fill-opacity="1"/><path d="M2558.28 4587.4C2558.28 4592.09 2554.48 4595.9 2549.78 4595.9 2545.09 4595.9 2541.28 4592.09 2541.28 4587.4 2541.28 4582.71 2545.09 4578.9 2549.78 4578.9 2554.48 4578.9 2558.28 4582.71 2558.28 4587.4Z" stroke="#FFC000" stroke-width="3.4375" stroke-linecap="butt" stroke-linejoin="round" stroke-miterlimit="10" stroke-opacity="1" fill="#FFC000" fill-rule="evenodd" fill-opacity="1"/><path d="M2567.28 4569.4C2567.28 4574.09 2563.48 4577.9 2558.78 4577.9 2554.09 4577.9 2550.28 4574.09 2550.28 4569.4 2550.28 4564.71 2554.09 4560.9 2558.78 4560.9 2563.48 4560.9 2567.28 4564.71 2567.28 4569.4Z" stroke="#FFC000" stroke-width="3.4375" stroke-linecap="butt" stroke-linejoin="round" stroke-miterlimit="10" stroke-opacity="1" fill="#FFC000" fill-rule="evenodd" fill-opacity="1"/><path d="M2568.28 4551.4C2568.28 4556.09 2564.48 4559.9 2559.78 4559.9 2555.09 4559.9 2551.28 4556.09 2551.28 4551.4 2551.28 4546.71 2555.09 4542.9 2559.78 4542.9 2564.48 4542.9 2568.28 4546.71 2568.28 4551.4Z" stroke="#FFC000" stroke-width="3.4375" stroke-linecap="butt" stroke-linejoin="round" stroke-miterlimit="10" stroke-opacity="1" fill="#FFC000" fill-rule="evenodd" fill-opacity="1"/></g><g clip-path="url(#clip13)"><text fill="#595959" fill-opacity="1" font-family="Calibri,Calibri_MSFontService,sans-serif" font-style="normal" font-variant="normal" font-weight="400" font-stretch="normal" font-size="41" text-anchor="start" direction="ltr" writing-mode="lr-tb" unicode-bidi="normal" text-decoration="none" transform="matrix(1 0 0 1 1879.11 4938)">0,1</text></g><g clip-path="url(#clip14)"><text fill="#595959" fill-opacity="1" font-family="Calibri,Calibri_MSFontService,sans-serif" font-style="normal" font-variant="normal" font-weight="400" font-stretch="normal" font-size="41" text-anchor="start" direction="ltr" writing-mode="lr-tb" unicode-bidi="normal" text-decoration="none" transform="matrix(1 0 0 1 1910.3 4708)">1</text></g><g clip-path="url(#clip15)"><text fill="#595959" fill-opacity="1" font-family="Calibri,Calibri_MSFontService,sans-serif" font-style="normal" font-variant="normal" font-weight="400" font-stretch="normal" font-size="41" text-anchor="start" direction="ltr" writing-mode="lr-tb" unicode-bidi="normal" text-decoration="none" transform="matrix(1 0 0 1 1889.4 4479)">10</text></g><g clip-path="url(#clip16)"><text fill="#595959" fill-opacity="1" font-family="Calibri,Calibri_MSFontService,sans-serif" font-style="normal" font-variant="normal" font-weight="400" font-stretch="normal" font-size="41" text-anchor="start" direction="ltr" writing-mode="lr-tb" unicode-bidi="normal" text-decoration="none" transform="matrix(1 0 0 1 1906.77 4993)">100000</text></g><g clip-path="url(#clip17)"><text fill="#595959" fill-opacity="1" font-family="Calibri,Calibri_MSFontService,sans-serif" font-style="normal" font-variant="normal" font-weight="400" font-stretch="normal" font-size="41" text-anchor="start" direction="ltr" writing-mode="lr-tb" unicode-bidi="normal" text-decoration="none" transform="matrix(1 0 0 1 2393.28 4993)">1000000</text></g><g clip-path="url(#clip18)"><text fill="#595959" fill-opacity="1" font-family="Calibri,Calibri_MSFontService,sans-serif" font-style="normal" font-variant="normal" font-weight="400" font-stretch="normal" font-size="41" text-anchor="start" direction="ltr" writing-mode="lr-tb" unicode-bidi="normal" text-decoration="none" transform="matrix(1 0 0 1 2879.79 4993)">10000000</text></g><g clip-path="url(#clip19)"><text fill="#595959" fill-opacity="1" font-family="Calibri,Calibri_MSFontService,sans-serif" font-style="normal" font-variant="normal" font-weight="400" font-stretch="normal" font-size="46" text-anchor="start" direction="ltr" writing-mode="lr-tb" unicode-bidi="normal" text-decoration="none" transform="matrix(6.12323e-17 -1 1 6.12323e-17 1861.66 4953)">Latency (ms) (log)</text></g><g clip-path="url(#clip20)"><text fill="#595959" fill-opacity="1" font-family="Calibri,Calibri_MSFontService,sans-serif" font-style="normal" font-variant="normal" font-weight="400" font-stretch="normal" font-size="46" text-anchor="start" direction="ltr" writing-mode="lr-tb" unicode-bidi="normal" text-decoration="none" transform="matrix(1 0 0 1 2123.22 5040)">Throughput (ops/s) (log scale)</text></g><g clip-path="url(#clip21)"><rect x="1982.5" y="4485.5" width="324" height="179" stroke="#000000" stroke-width="3.4375" stroke-linecap="butt" stroke-linejoin="round" stroke-miterlimit="10" stroke-opacity="1" fill="#FFFFFF" fill-opacity="1"/></g><g clip-path="url(#clip22)"><path d="M2023.5 4507.5 2111.5 4507.5" stroke="#4472C4" stroke-width="6.875" stroke-linecap="round" stroke-linejoin="round" stroke-miterlimit="10" stroke-opacity="1" fill="none" fill-rule="evenodd"/></g><g clip-path="url(#clip23)"><path d="M2075.03 4506.5C2075.03 4511.19 2071.43 4515 2067 4515 2062.57 4515 2058.97 4511.19 2058.97 4506.5 2058.97 4501.81 2062.57 4498 2067 4498 2071.43 4498 2075.03 4501.81 2075.03 4506.5Z" stroke="#4472C4" stroke-width="3.4375" stroke-linecap="butt" stroke-linejoin="round" stroke-miterlimit="10" stroke-opacity="1" fill="#4472C4" fill-rule="evenodd" fill-opacity="1"/></g><g clip-path="url(#clip24)"><text fill="#595959" fill-opacity="1" font-family="Calibri,Calibri_MSFontService,sans-serif" font-style="normal" font-variant="normal" font-weight="400" font-stretch="normal" font-size="41" text-anchor="start" direction="ltr" writing-mode="lr-tb" unicode-bidi="normal" text-decoration="none" transform="matrix(1 0 0 1 2120.5 4518)">Top1</text></g><g clip-path="url(#clip25)"><path d="M2023.5 4552.5 2111.5 4552.5" stroke="#ED7D31" stroke-width="6.875" stroke-linecap="round" stroke-linejoin="round" stroke-miterlimit="10" stroke-opacity="1" fill="none" fill-rule="evenodd"/></g><g clip-path="url(#clip26)"><path d="M2075.03 4552C2075.03 4556.43 2071.43 4560.03 2067 4560.03 2062.57 4560.03 2058.97 4556.43 2058.97 4552 2058.97 4547.57 2062.57 4543.97 2067 4543.97 2071.43 4543.97 2075.03 4547.57 2075.03 4552Z" stroke="#ED7D31" stroke-width="3.4375" stroke-linecap="butt" stroke-linejoin="round" stroke-miterlimit="10" stroke-opacity="1" fill="#ED7D31" fill-rule="evenodd" fill-opacity="1"/></g><g clip-path="url(#clip27)"><text fill="#595959" fill-opacity="1" font-family="Calibri,Calibri_MSFontService,sans-serif" font-style="normal" font-variant="normal" font-weight="400" font-stretch="normal" font-size="41" text-anchor="start" direction="ltr" writing-mode="lr-tb" unicode-bidi="normal" text-decoration="none" transform="matrix(1 0 0 1 2120.5 4563)">Top10</text></g><g clip-path="url(#clip28)"><path d="M2023.5 4597.5 2111.5 4597.5" stroke="#548235" stroke-width="6.875" stroke-linecap="round" stroke-linejoin="round" stroke-miterlimit="10" stroke-opacity="1" fill="none" fill-rule="evenodd"/></g><g clip-path="url(#clip29)"><path d="M2075.03 4597C2075.03 4601.43 2071.43 4605.03 2067 4605.03 2062.57 4605.03 2058.97 4601.43 2058.97 4597 2058.97 4592.57 2062.57 4588.97 2067 4588.97 2071.43 4588.97 2075.03 4592.57 2075.03 4597Z" stroke="#548235" stroke-width="3.4375" stroke-linecap="butt" stroke-linejoin="round" stroke-miterlimit="10" stroke-opacity="1" fill="#548235" fill-rule="evenodd" fill-opacity="1"/></g><g clip-path="url(#clip30)"><text fill="#595959" fill-opacity="1" font-family="Calibri,Calibri_MSFontService,sans-serif" font-style="normal" font-variant="normal" font-weight="400" font-stretch="normal" font-size="41" text-anchor="start" direction="ltr" writing-mode="lr-tb" unicode-bidi="normal" text-decoration="none" transform="matrix(1 0 0 1 2120.5 4607)">Top100</text></g><g clip-path="url(#clip31)"><path d="M2023.5 4642.5 2111.5 4642.5" stroke="#FFC000" stroke-width="6.875" stroke-linecap="round" stroke-linejoin="round" stroke-miterlimit="10" stroke-opacity="1" fill="none" fill-rule="evenodd"/></g><g clip-path="url(#clip32)"><path d="M2075.03 4642C2075.03 4646.43 2071.43 4650.03 2067 4650.03 2062.57 4650.03 2058.97 4646.43 2058.97 4642 2058.97 4637.57 2062.57 4633.97 2067 4633.97 2071.43 4633.97 2075.03 4637.57 2075.03 4642Z" stroke="#FFC000" stroke-width="3.4375" stroke-linecap="butt" stroke-linejoin="round" stroke-miterlimit="10" stroke-opacity="1" fill="#FFC000" fill-rule="evenodd" fill-opacity="1"/></g><g clip-path="url(#clip33)"><text fill="#595959" fill-opacity="1" font-family="Calibri,Calibri_MSFontService,sans-serif" font-style="normal" font-variant="normal" font-weight="400" font-stretch="normal" font-size="41" text-anchor="start" direction="ltr" writing-mode="lr-tb" unicode-bidi="normal" text-decoration="none" transform="matrix(1 0 0 1 2120.5 4652)">Top1000</text></g></g></svg>