<svg width="1421" height="728" xmlns="http://www.w3.org/2000/svg" xmlns:xlink="http://www.w3.org/1999/xlink" overflow="hidden"><defs><clipPath id="clip0"><rect x="297" y="2860" width="1421" height="728"/></clipPath><clipPath id="clip1"><rect x="299" y="2860" width="1418" height="727"/></clipPath><clipPath id="clip2"><rect x="299" y="2860" width="1418" height="727"/></clipPath><clipPath id="clip3"><rect x="299" y="2860" width="1418" height="727"/></clipPath><clipPath id="clip4"><rect x="299" y="2860" width="1418" height="727"/></clipPath><clipPath id="clip5"><rect x="467" y="2891" width="1152" height="566"/></clipPath><clipPath id="clip6"><rect x="299" y="2860" width="1418" height="727"/></clipPath><clipPath id="clip7"><rect x="467" y="2891" width="1152" height="566"/></clipPath><clipPath id="clip8"><rect x="299" y="2860" width="1418" height="727"/></clipPath><clipPath id="clip9"><rect x="467" y="2891" width="1152" height="566"/></clipPath><clipPath id="clip10"><rect x="299" y="2860" width="1418" height="727"/></clipPath><clipPath id="clip11"><rect x="467" y="2891" width="1152" height="566"/></clipPath><clipPath id="clip12"><rect x="299" y="2860" width="1418" height="727"/></clipPath><clipPath id="clip13"><rect x="467" y="2891" width="1152" height="566"/></clipPath><clipPath id="clip14"><rect x="299" y="2860" width="1418" height="727"/></clipPath><clipPath id="clip15"><rect x="467" y="2891" width="1152" height="566"/></clipPath><clipPath id="clip16"><rect x="299" y="2860" width="1418" height="727"/></clipPath><clipPath id="clip17"><rect x="467" y="2891" width="1152" height="566"/></clipPath><clipPath id="clip18"><rect x="299" y="2860" width="1418" height="727"/></clipPath><clipPath id="clip19"><rect x="467" y="2891" width="1152" height="566"/></clipPath><clipPath id="clip20"><rect x="299" y="2860" width="1418" height="727"/></clipPath><clipPath id="clip21"><rect x="299" y="2860" width="1418" height="727"/></clipPath><clipPath id="clip22"><rect x="299" y="2860" width="1418" height="727"/></clipPath><clipPath id="clip23"><rect x="299" y="2860" width="1418" height="727"/></clipPath><clipPath id="clip24"><rect x="299" y="2860" width="1418" height="727"/></clipPath><clipPath id="clip25"><rect x="299" y="2860" width="1418" height="727"/></clipPath><clipPath id="clip26"><rect x="299" y="2860" width="1418" height="727"/></clipPath><clipPath id="clip27"><rect x="299" y="2860" width="1418" height="727"/></clipPath><clipPath id="clip28"><rect x="299" y="2860" width="1418" height="727"/></clipPath><clipPath id="clip29"><rect x="299" y="2860" width="1418" height="727"/></clipPath><clipPath id="clip30"><rect x="299" y="2860" width="1418" height="727"/></clipPath><clipPath id="clip31"><rect x="299" y="2860" width="1418" height="727"/></clipPath><clipPath id="clip32"><rect x="299" y="2860" width="1418" height="727"/></clipPath><clipPath id="clip33"><rect x="299" y="2860" width="1418" height="727"/></clipPath><clipPath id="clip34"><rect x="299" y="2860" width="1418" height="727"/></clipPath><clipPath id="clip35"><rect x="299" y="2860" width="1418" height="727"/></clipPath><clipPath id="clip36"><rect x="299" y="2860" width="1418" height="727"/></clipPath><clipPath id="clip37"><rect x="299" y="2860" width="1418" height="727"/></clipPath><clipPath id="clip38"><rect x="299" y="2860" width="1418" height="727"/></clipPath><clipPath id="clip39"><rect x="299" y="2860" width="1418" height="727"/></clipPath><clipPath id="clip40"><rect x="299" y="2860" width="1418" height="727"/></clipPath><clipPath id="clip41"><rect x="299" y="2860" width="1418" height="727"/></clipPath><clipPath id="clip42"><rect x="299" y="2860" width="1418" height="727"/></clipPath><clipPath id="clip43"><rect x="299" y="2860" width="1418" height="727"/></clipPath><clipPath id="clip44"><rect x="299" y="2860" width="1418" height="727"/></clipPath><clipPath id="clip45"><rect x="299" y="2860" width="1418" height="727"/></clipPath><clipPath id="clip46"><rect x="299" y="2860" width="1418" height="727"/></clipPath><clipPath id="clip47"><rect x="299" y="2860" width="1418" height="727"/></clipPath><clipPath id="clip48"><rect x="299" y="2860" width="1418" height="727"/></clipPath><clipPath id="clip49"><rect x="299" y="2860" width="1418" height="727"/></clipPath><clipPath id="clip50"><rect x="299" y="2860" width="1418" height="727"/></clipPath><clipPath id="clip51"><rect x="299" y="2860" width="1418" height="727"/></clipPath><clipPath id="clip52"><rect x="299" y="2860" width="1418" height="727"/></clipPath><clipPath id="clip53"><rect x="299" y="2860" width="1418" height="727"/></clipPath><clipPath id="clip54"><rect x="299" y="2860" width="1418" height="727"/></clipPath><clipPath id="clip55"><rect x="299" y="2860" width="1418" height="727"/></clipPath><clipPath id="clip56"><rect x="299" y="2860" width="1418" height="727"/></clipPath><clipPath id="clip57"><rect x="299" y="2860" width="1418" height="727"/></clipPath><clipPath id="clip58"><rect x="299" y="2860" width="1418" height="727"/></clipPath><clipPath id="clip59"><rect x="299" y="2860" width="1418" height="727"/></clipPath><clipPath id="clip60"><rect x="299" y="2860" width="1418" height="727"/></clipPath></defs><g clip-path="url(#clip0)" transform="translate(-297 -2860)"><rect x="299" y="2860" width="1418" height="727" fill="#FFFFFF" fill-opacity="1"/><g clip-path="url(#clip1)"><path d="M467.5 3313.61 1616.5 3313.61M467.5 3172.6 1616.5 3172.6M467.5 3031.6 1616.5 3031.6M467.5 2891.5 1616.5 2891.5" stroke="#D9D9D9" stroke-width="3.4375" stroke-linecap="butt" stroke-linejoin="round" stroke-miterlimit="10" stroke-opacity="1" fill="none" fill-rule="evenodd"/></g><g clip-path="url(#clip2)"><path d="M631.521 2891.5 631.521 3454.5M795.526 2891.5 795.526 3454.5M959.532 2891.5 959.532 3454.5M1123.54 2891.5 1123.54 3454.5M1287.54 2891.5 1287.54 3454.5M1451.55 2891.5 1451.55 3454.5M1616.5 2891.5 1616.5 3454.5" stroke="#D9D9D9" stroke-width="3.4375" stroke-linecap="butt" stroke-linejoin="round" stroke-miterlimit="10" stroke-opacity="1" fill="none" fill-rule="evenodd"/></g><g clip-path="url(#clip3)"><path d="M0 0 0.000360892 563" stroke="#BFBFBF" stroke-width="3.4375" stroke-linecap="butt" stroke-linejoin="round" stroke-miterlimit="10" stroke-opacity="1" fill="none" fill-rule="evenodd" transform="matrix(1 0 0 -1 467.5 3454.5)"/></g><g clip-path="url(#clip4)"><path d="M467.5 3454.5 1616.5 3454.5" stroke="#BFBFBF" stroke-width="3.4375" stroke-linecap="butt" stroke-linejoin="round" stroke-miterlimit="10" stroke-opacity="1" fill="none" fill-rule="evenodd"/></g><g clip-path="url(#clip5)"><path d="M592.5 3365.61 718.524 3366.5 935.531 3359.61 1113.54 3351.61 1261.54 3342.61 1347.54 3328.61 1414.55 3313.61 1454.55 3297.61 1480.55 3279.61 1507.5 3241.5" stroke="#4472C4" stroke-width="6.875" stroke-linecap="round" stroke-linejoin="round" stroke-miterlimit="10" stroke-opacity="1" fill="none" fill-rule="evenodd"/></g><g clip-path="url(#clip6)"><path d="M603.944 3365.5C603.944 3371.57 599.019 3376.5 592.944 3376.5 586.869 3376.5 581.944 3371.57 581.944 3365.5 581.944 3359.42 586.869 3354.5 592.944 3354.5 599.019 3354.5 603.944 3359.42 603.944 3365.5Z" stroke="#4472C4" stroke-width="3.4375" stroke-linecap="butt" stroke-linejoin="round" stroke-miterlimit="10" stroke-opacity="1" fill="#4472C4" fill-rule="evenodd" fill-opacity="1"/><path d="M729.943 3366.5C729.943 3372.57 725.019 3377.5 718.944 3377.5 712.869 3377.5 707.944 3372.57 707.944 3366.5 707.944 3360.42 712.869 3355.5 718.944 3355.5 725.019 3355.5 729.943 3360.42 729.943 3366.5Z" stroke="#4472C4" stroke-width="3.4375" stroke-linecap="butt" stroke-linejoin="round" stroke-miterlimit="10" stroke-opacity="1" fill="#4472C4" fill-rule="evenodd" fill-opacity="1"/><path d="M946.944 3359.5C946.944 3365.57 942.019 3370.5 935.944 3370.5 929.869 3370.5 924.944 3365.57 924.944 3359.5 924.944 3353.42 929.869 3348.5 935.944 3348.5 942.019 3348.5 946.944 3353.42 946.944 3359.5Z" stroke="#4472C4" stroke-width="3.4375" stroke-linecap="butt" stroke-linejoin="round" stroke-miterlimit="10" stroke-opacity="1" fill="#4472C4" fill-rule="evenodd" fill-opacity="1"/><path d="M1124.94 3351.5C1124.94 3357.57 1120.02 3362.5 1113.94 3362.5 1107.87 3362.5 1102.94 3357.57 1102.94 3351.5 1102.94 3345.42 1107.87 3340.5 1113.94 3340.5 1120.02 3340.5 1124.94 3345.42 1124.94 3351.5Z" stroke="#4472C4" stroke-width="3.4375" stroke-linecap="butt" stroke-linejoin="round" stroke-miterlimit="10" stroke-opacity="1" fill="#4472C4" fill-rule="evenodd" fill-opacity="1"/><path d="M1272.94 3342.5C1272.94 3348.57 1268.02 3353.5 1261.94 3353.5 1255.87 3353.5 1250.94 3348.57 1250.94 3342.5 1250.94 3336.42 1255.87 3331.5 1261.94 3331.5 1268.02 3331.5 1272.94 3336.42 1272.94 3342.5Z" stroke="#4472C4" stroke-width="3.4375" stroke-linecap="butt" stroke-linejoin="round" stroke-miterlimit="10" stroke-opacity="1" fill="#4472C4" fill-rule="evenodd" fill-opacity="1"/><path d="M1358.94 3328.5C1358.94 3334.57 1354.02 3339.5 1347.94 3339.5 1341.87 3339.5 1336.94 3334.57 1336.94 3328.5 1336.94 3322.42 1341.87 3317.5 1347.94 3317.5 1354.02 3317.5 1358.94 3322.42 1358.94 3328.5Z" stroke="#4472C4" stroke-width="3.4375" stroke-linecap="butt" stroke-linejoin="round" stroke-miterlimit="10" stroke-opacity="1" fill="#4472C4" fill-rule="evenodd" fill-opacity="1"/><path d="M1425.94 3314.5C1425.94 3320.57 1421.02 3325.5 1414.94 3325.5 1408.87 3325.5 1403.94 3320.57 1403.94 3314.5 1403.94 3308.42 1408.87 3303.5 1414.94 3303.5 1421.02 3303.5 1425.94 3308.42 1425.94 3314.5Z" stroke="#4472C4" stroke-width="3.4375" stroke-linecap="butt" stroke-linejoin="round" stroke-miterlimit="10" stroke-opacity="1" fill="#4472C4" fill-rule="evenodd" fill-opacity="1"/><path d="M1465.94 3297.5C1465.94 3303.57 1461.02 3308.5 1454.94 3308.5 1448.87 3308.5 1443.94 3303.57 1443.94 3297.5 1443.94 3291.42 1448.87 3286.5 1454.94 3286.5 1461.02 3286.5 1465.94 3291.42 1465.94 3297.5Z" stroke="#4472C4" stroke-width="3.4375" stroke-linecap="butt" stroke-linejoin="round" stroke-miterlimit="10" stroke-opacity="1" fill="#4472C4" fill-rule="evenodd" fill-opacity="1"/><path d="M1491.94 3279.5C1491.94 3285.57 1487.02 3290.5 1480.94 3290.5 1474.87 3290.5 1469.94 3285.57 1469.94 3279.5 1469.94 3273.42 1474.87 3268.5 1480.94 3268.5 1487.02 3268.5 1491.94 3273.42 1491.94 3279.5Z" stroke="#4472C4" stroke-width="3.4375" stroke-linecap="butt" stroke-linejoin="round" stroke-miterlimit="10" stroke-opacity="1" fill="#4472C4" fill-rule="evenodd" fill-opacity="1"/><path d="M1518.94 3241.5C1518.94 3247.57 1514.02 3252.5 1507.94 3252.5 1501.87 3252.5 1496.94 3247.57 1496.94 3241.5 1496.94 3235.42 1501.87 3230.5 1507.94 3230.5 1514.02 3230.5 1518.94 3235.42 1518.94 3241.5Z" stroke="#4472C4" stroke-width="3.4375" stroke-linecap="butt" stroke-linejoin="round" stroke-miterlimit="10" stroke-opacity="1" fill="#4472C4" fill-rule="evenodd" fill-opacity="1"/></g><g clip-path="url(#clip7)"><path d="M717.5 3359.5 920.53 3349.61 1066.54 3335.61 1170.54 3318.61 1242.54 3300.61 1304.54 3283.61 1346.54 3264.61 1378.55 3245.61 1409.5 3201.61 1406.55 3150.5" stroke="#C00000" stroke-width="6.875" stroke-linecap="round" stroke-linejoin="round" stroke-miterlimit="10" stroke-opacity="1" fill="none" fill-rule="evenodd"/></g><g clip-path="url(#clip8)"><path d="M728.943 3359.5C728.943 3365.57 724.019 3370.5 717.944 3370.5 711.869 3370.5 706.944 3365.57 706.944 3359.5 706.944 3353.42 711.869 3348.5 717.944 3348.5 724.019 3348.5 728.943 3353.42 728.943 3359.5Z" stroke="#C00000" stroke-width="3.4375" stroke-linecap="butt" stroke-linejoin="round" stroke-miterlimit="10" stroke-opacity="1" fill="#C00000" fill-rule="evenodd" fill-opacity="1"/><path d="M931.944 3349.5C931.944 3355.57 927.019 3360.5 920.944 3360.5 914.869 3360.5 909.944 3355.57 909.944 3349.5 909.944 3343.42 914.869 3338.5 920.944 3338.5 927.019 3338.5 931.944 3343.42 931.944 3349.5Z" stroke="#C00000" stroke-width="3.4375" stroke-linecap="butt" stroke-linejoin="round" stroke-miterlimit="10" stroke-opacity="1" fill="#C00000" fill-rule="evenodd" fill-opacity="1"/><path d="M1077.94 3335.5C1077.94 3341.57 1073.02 3346.5 1066.94 3346.5 1060.87 3346.5 1055.94 3341.57 1055.94 3335.5 1055.94 3329.42 1060.87 3324.5 1066.94 3324.5 1073.02 3324.5 1077.94 3329.42 1077.94 3335.5Z" stroke="#C00000" stroke-width="3.4375" stroke-linecap="butt" stroke-linejoin="round" stroke-miterlimit="10" stroke-opacity="1" fill="#C00000" fill-rule="evenodd" fill-opacity="1"/><path d="M1181.94 3318.5C1181.94 3324.57 1177.02 3329.5 1170.94 3329.5 1164.87 3329.5 1159.94 3324.57 1159.94 3318.5 1159.94 3312.42 1164.87 3307.5 1170.94 3307.5 1177.02 3307.5 1181.94 3312.42 1181.94 3318.5Z" stroke="#C00000" stroke-width="3.4375" stroke-linecap="butt" stroke-linejoin="round" stroke-miterlimit="10" stroke-opacity="1" fill="#C00000" fill-rule="evenodd" fill-opacity="1"/><path d="M1253.94 3300.5C1253.94 3306.57 1249.02 3311.5 1242.94 3311.5 1236.87 3311.5 1231.94 3306.57 1231.94 3300.5 1231.94 3294.42 1236.87 3289.5 1242.94 3289.5 1249.02 3289.5 1253.94 3294.42 1253.94 3300.5Z" stroke="#C00000" stroke-width="3.4375" stroke-linecap="butt" stroke-linejoin="round" stroke-miterlimit="10" stroke-opacity="1" fill="#C00000" fill-rule="evenodd" fill-opacity="1"/><path d="M1315.94 3283.5C1315.94 3289.57 1311.02 3294.5 1304.94 3294.5 1298.87 3294.5 1293.94 3289.57 1293.94 3283.5 1293.94 3277.42 1298.87 3272.5 1304.94 3272.5 1311.02 3272.5 1315.94 3277.42 1315.94 3283.5Z" stroke="#C00000" stroke-width="3.4375" stroke-linecap="butt" stroke-linejoin="round" stroke-miterlimit="10" stroke-opacity="1" fill="#C00000" fill-rule="evenodd" fill-opacity="1"/><path d="M1357.94 3264.5C1357.94 3270.57 1353.02 3275.5 1346.94 3275.5 1340.87 3275.5 1335.94 3270.57 1335.94 3264.5 1335.94 3258.42 1340.87 3253.5 1346.94 3253.5 1353.02 3253.5 1357.94 3258.42 1357.94 3264.5Z" stroke="#C00000" stroke-width="3.4375" stroke-linecap="butt" stroke-linejoin="round" stroke-miterlimit="10" stroke-opacity="1" fill="#C00000" fill-rule="evenodd" fill-opacity="1"/><path d="M1389.94 3245.5C1389.94 3251.57 1385.02 3256.5 1378.94 3256.5 1372.87 3256.5 1367.94 3251.57 1367.94 3245.5 1367.94 3239.42 1372.87 3234.5 1378.94 3234.5 1385.02 3234.5 1389.94 3239.42 1389.94 3245.5Z" stroke="#C00000" stroke-width="3.4375" stroke-linecap="butt" stroke-linejoin="round" stroke-miterlimit="10" stroke-opacity="1" fill="#C00000" fill-rule="evenodd" fill-opacity="1"/><path d="M1420.94 3201.5C1420.94 3207.57 1416.02 3212.5 1409.94 3212.5 1403.87 3212.5 1398.94 3207.57 1398.94 3201.5 1398.94 3195.42 1403.87 3190.5 1409.94 3190.5 1416.02 3190.5 1420.94 3195.42 1420.94 3201.5Z" stroke="#C00000" stroke-width="3.4375" stroke-linecap="butt" stroke-linejoin="round" stroke-miterlimit="10" stroke-opacity="1" fill="#C00000" fill-rule="evenodd" fill-opacity="1"/><path d="M1417.94 3150.5C1417.94 3156.57 1413.02 3161.5 1406.94 3161.5 1400.87 3161.5 1395.94 3156.57 1395.94 3150.5 1395.94 3144.42 1400.87 3139.5 1406.94 3139.5 1413.02 3139.5 1417.94 3144.42 1417.94 3150.5Z" stroke="#C00000" stroke-width="3.4375" stroke-linecap="butt" stroke-linejoin="round" stroke-miterlimit="10" stroke-opacity="1" fill="#C00000" fill-rule="evenodd" fill-opacity="1"/></g><g clip-path="url(#clip9)"><path d="M538.5 3359.5 605.52 3356.61 727.524 3350.61 838.528 3345.61 926.531 3337.61 990.533 3325.61 1034.53 3312.61 1049.5 3304.61 1042.53 3290.61 1034.53 3264.61 1029.53 3238.5" stroke="#FFC000" stroke-width="6.875" stroke-linecap="round" stroke-linejoin="round" stroke-miterlimit="10" stroke-opacity="1" fill="none" fill-rule="evenodd"/></g><g clip-path="url(#clip10)"><path d="M549.944 3359.5C549.944 3365.57 545.019 3370.5 538.944 3370.5 532.869 3370.5 527.944 3365.57 527.944 3359.5 527.944 3353.42 532.869 3348.5 538.944 3348.5 545.019 3348.5 549.944 3353.42 549.944 3359.5Z" stroke="#FFC000" stroke-width="3.4375" stroke-linecap="butt" stroke-linejoin="round" stroke-miterlimit="10" stroke-opacity="1" fill="#FFC000" fill-rule="evenodd" fill-opacity="1"/><path d="M616.944 3357.5C616.944 3363.57 612.019 3368.5 605.944 3368.5 599.869 3368.5 594.944 3363.57 594.944 3357.5 594.944 3351.42 599.869 3346.5 605.944 3346.5 612.019 3346.5 616.944 3351.42 616.944 3357.5Z" stroke="#FFC000" stroke-width="3.4375" stroke-linecap="butt" stroke-linejoin="round" stroke-miterlimit="10" stroke-opacity="1" fill="#FFC000" fill-rule="evenodd" fill-opacity="1"/><path d="M738.943 3350.5C738.943 3356.57 734.019 3361.5 727.944 3361.5 721.869 3361.5 716.944 3356.57 716.944 3350.5 716.944 3344.42 721.869 3339.5 727.944 3339.5 734.019 3339.5 738.943 3344.42 738.943 3350.5Z" stroke="#FFC000" stroke-width="3.4375" stroke-linecap="butt" stroke-linejoin="round" stroke-miterlimit="10" stroke-opacity="1" fill="#FFC000" fill-rule="evenodd" fill-opacity="1"/><path d="M849.943 3345.5C849.943 3351.57 845.019 3356.5 838.944 3356.5 832.869 3356.5 827.944 3351.57 827.944 3345.5 827.944 3339.42 832.869 3334.5 838.944 3334.5 845.019 3334.5 849.943 3339.42 849.943 3345.5Z" stroke="#FFC000" stroke-width="3.4375" stroke-linecap="butt" stroke-linejoin="round" stroke-miterlimit="10" stroke-opacity="1" fill="#FFC000" fill-rule="evenodd" fill-opacity="1"/><path d="M937.943 3337.5C937.943 3343.57 933.019 3348.5 926.944 3348.5 920.869 3348.5 915.944 3343.57 915.944 3337.5 915.944 3331.42 920.869 3326.5 926.944 3326.5 933.019 3326.5 937.943 3331.42 937.943 3337.5Z" stroke="#FFC000" stroke-width="3.4375" stroke-linecap="butt" stroke-linejoin="round" stroke-miterlimit="10" stroke-opacity="1" fill="#FFC000" fill-rule="evenodd" fill-opacity="1"/><path d="M1002.94 3326.5C1002.94 3332.57 998.019 3337.5 991.944 3337.5 985.869 3337.5 980.944 3332.57 980.944 3326.5 980.944 3320.42 985.869 3315.5 991.944 3315.5 998.019 3315.5 1002.94 3320.42 1002.94 3326.5Z" stroke="#FFC000" stroke-width="3.4375" stroke-linecap="butt" stroke-linejoin="round" stroke-miterlimit="10" stroke-opacity="1" fill="#FFC000" fill-rule="evenodd" fill-opacity="1"/><path d="M1045.94 3312.5C1045.94 3318.57 1041.02 3323.5 1034.94 3323.5 1028.87 3323.5 1023.94 3318.57 1023.94 3312.5 1023.94 3306.42 1028.87 3301.5 1034.94 3301.5 1041.02 3301.5 1045.94 3306.42 1045.94 3312.5Z" stroke="#FFC000" stroke-width="3.4375" stroke-linecap="butt" stroke-linejoin="round" stroke-miterlimit="10" stroke-opacity="1" fill="#FFC000" fill-rule="evenodd" fill-opacity="1"/><path d="M1060.94 3304.5C1060.94 3310.57 1056.02 3315.5 1049.94 3315.5 1043.87 3315.5 1038.94 3310.57 1038.94 3304.5 1038.94 3298.42 1043.87 3293.5 1049.94 3293.5 1056.02 3293.5 1060.94 3298.42 1060.94 3304.5Z" stroke="#FFC000" stroke-width="3.4375" stroke-linecap="butt" stroke-linejoin="round" stroke-miterlimit="10" stroke-opacity="1" fill="#FFC000" fill-rule="evenodd" fill-opacity="1"/><path d="M1053.94 3290.5C1053.94 3296.57 1049.02 3301.5 1042.94 3301.5 1036.87 3301.5 1031.94 3296.57 1031.94 3290.5 1031.94 3284.42 1036.87 3279.5 1042.94 3279.5 1049.02 3279.5 1053.94 3284.42 1053.94 3290.5Z" stroke="#FFC000" stroke-width="3.4375" stroke-linecap="butt" stroke-linejoin="round" stroke-miterlimit="10" stroke-opacity="1" fill="#FFC000" fill-rule="evenodd" fill-opacity="1"/><path d="M1045.94 3264.5C1045.94 3270.57 1041.02 3275.5 1034.94 3275.5 1028.87 3275.5 1023.94 3270.57 1023.94 3264.5 1023.94 3258.42 1028.87 3253.5 1034.94 3253.5 1041.02 3253.5 1045.94 3258.42 1045.94 3264.5Z" stroke="#FFC000" stroke-width="3.4375" stroke-linecap="butt" stroke-linejoin="round" stroke-miterlimit="10" stroke-opacity="1" fill="#FFC000" fill-rule="evenodd" fill-opacity="1"/><path d="M1040.94 3238.5C1040.94 3244.57 1036.02 3249.5 1029.94 3249.5 1023.87 3249.5 1018.94 3244.57 1018.94 3238.5 1018.94 3232.42 1023.87 3227.5 1029.94 3227.5 1036.02 3227.5 1040.94 3232.42 1040.94 3238.5Z" stroke="#FFC000" stroke-width="3.4375" stroke-linecap="butt" stroke-linejoin="round" stroke-miterlimit="10" stroke-opacity="1" fill="#FFC000" fill-rule="evenodd" fill-opacity="1"/></g><g clip-path="url(#clip11)"><path d="M544.5 3306.5 615.52 3299.61 662.522 3278.61 699.523 3257.61 713.5 3222.61 697.523 3156.6 702.523 3114.5" stroke="#70AD47" stroke-width="6.875" stroke-linecap="round" stroke-linejoin="round" stroke-miterlimit="10" stroke-opacity="1" fill="none" fill-rule="evenodd"/></g><g clip-path="url(#clip12)"><path d="M555.944 3306.5C555.944 3312.57 551.019 3317.5 544.944 3317.5 538.869 3317.5 533.944 3312.57 533.944 3306.5 533.944 3300.42 538.869 3295.5 544.944 3295.5 551.019 3295.5 555.944 3300.42 555.944 3306.5Z" stroke="#70AD47" stroke-width="3.4375" stroke-linecap="butt" stroke-linejoin="round" stroke-miterlimit="10" stroke-opacity="1" fill="#70AD47" fill-rule="evenodd" fill-opacity="1"/><path d="M626.944 3299.5C626.944 3305.57 622.019 3310.5 615.944 3310.5 609.869 3310.5 604.944 3305.57 604.944 3299.5 604.944 3293.42 609.869 3288.5 615.944 3288.5 622.019 3288.5 626.944 3293.42 626.944 3299.5Z" stroke="#70AD47" stroke-width="3.4375" stroke-linecap="butt" stroke-linejoin="round" stroke-miterlimit="10" stroke-opacity="1" fill="#70AD47" fill-rule="evenodd" fill-opacity="1"/><path d="M673.943 3278.5C673.943 3284.57 669.019 3289.5 662.944 3289.5 656.869 3289.5 651.944 3284.57 651.944 3278.5 651.944 3272.42 656.869 3267.5 662.944 3267.5 669.019 3267.5 673.943 3272.42 673.943 3278.5Z" stroke="#70AD47" stroke-width="3.4375" stroke-linecap="butt" stroke-linejoin="round" stroke-miterlimit="10" stroke-opacity="1" fill="#70AD47" fill-rule="evenodd" fill-opacity="1"/><path d="M710.944 3257.5C710.944 3263.57 706.019 3268.5 699.944 3268.5 693.869 3268.5 688.944 3263.57 688.944 3257.5 688.944 3251.42 693.869 3246.5 699.944 3246.5 706.019 3246.5 710.944 3251.42 710.944 3257.5Z" stroke="#70AD47" stroke-width="3.4375" stroke-linecap="butt" stroke-linejoin="round" stroke-miterlimit="10" stroke-opacity="1" fill="#70AD47" fill-rule="evenodd" fill-opacity="1"/><path d="M724.944 3222.5C724.944 3228.57 720.019 3233.5 713.944 3233.5 707.869 3233.5 702.944 3228.57 702.944 3222.5 702.944 3216.42 707.869 3211.5 713.944 3211.5 720.019 3211.5 724.944 3216.42 724.944 3222.5Z" stroke="#70AD47" stroke-width="3.4375" stroke-linecap="butt" stroke-linejoin="round" stroke-miterlimit="10" stroke-opacity="1" fill="#70AD47" fill-rule="evenodd" fill-opacity="1"/><path d="M708.943 3156.5C708.943 3162.57 704.019 3167.5 697.944 3167.5 691.869 3167.5 686.944 3162.57 686.944 3156.5 686.944 3150.42 691.869 3145.5 697.944 3145.5 704.019 3145.5 708.943 3150.42 708.943 3156.5Z" stroke="#70AD47" stroke-width="3.4375" stroke-linecap="butt" stroke-linejoin="round" stroke-miterlimit="10" stroke-opacity="1" fill="#70AD47" fill-rule="evenodd" fill-opacity="1"/><path d="M713.944 3114.5C713.944 3120.57 709.019 3125.5 702.944 3125.5 696.869 3125.5 691.944 3120.57 691.944 3114.5 691.944 3108.42 696.869 3103.5 702.944 3103.5 709.019 3103.5 713.944 3108.42 713.944 3114.5Z" stroke="#70AD47" stroke-width="3.4375" stroke-linecap="butt" stroke-linejoin="round" stroke-miterlimit="10" stroke-opacity="1" fill="#70AD47" fill-rule="evenodd" fill-opacity="1"/></g><g clip-path="url(#clip13)"><path d="M492.422 3217.76 503.822 3225.44C505.396 3226.51 505.811 3228.64 504.75 3230.22 503.689 3231.79 501.552 3232.21 499.978 3231.14L488.578 3223.46C487.004 3222.39 486.589 3220.26 487.65 3218.68 488.712 3217.11 490.848 3216.69 492.422 3217.76ZM515.222 3233.13 520.439 3236.65 516.383 3236.81 522.228 3232.17C523.716 3231 525.878 3231.25 527.057 3232.74 528.236 3234.22 527.985 3236.39 526.497 3237.56L520.652 3242.19C519.478 3243.12 517.837 3243.19 516.595 3242.35L511.378 3238.83C509.804 3237.77 509.388 3235.63 510.45 3234.06 511.511 3232.49 513.648 3232.07 515.222 3233.13ZM533.006 3223.64 543.784 3215.1C545.273 3213.92 547.435 3214.17 548.613 3215.66 549.792 3217.15 549.542 3219.31 548.053 3220.49L537.275 3229.03C535.787 3230.21 533.625 3229.95 532.446 3228.47 531.267 3226.98 531.518 3224.82 533.006 3223.64ZM554.563 3206.56 555.384 3205.91 554.636 3206.73 561.559 3196.08C562.593 3194.49 564.723 3194.04 566.314 3195.07 567.906 3196.11 568.358 3198.24 567.323 3199.83L560.401 3210.48C560.198 3210.79 559.945 3211.07 559.653 3211.3L558.832 3211.95C557.343 3213.13 555.181 3212.88 554.003 3211.39 552.824 3209.9 553.074 3207.74 554.563 3206.56ZM569.052 3184.55 576.546 3173.02C577.581 3171.43 579.71 3170.98 581.302 3172.02 582.893 3173.05 583.345 3175.18 582.31 3176.77L574.817 3188.3C573.782 3189.89 571.653 3190.34 570.061 3189.31 568.469 3188.27 568.018 3186.15 569.052 3184.55ZM583.611 3161.48 590.398 3149.52C591.336 3147.87 593.434 3147.29 595.085 3148.23 596.736 3149.16 597.315 3151.26 596.378 3152.91L589.591 3164.87C588.653 3166.52 586.555 3167.1 584.904 3166.16 583.253 3165.23 582.674 3163.13 583.611 3161.48ZM597.186 3137.56 601.53 3129.91 603.871 3125.61C604.781 3123.95 606.869 3123.33 608.535 3124.24 610.202 3125.15 610.816 3127.24 609.907 3128.91L607.51 3133.3 603.165 3140.95C602.228 3142.61 600.129 3143.18 598.478 3142.25 596.827 3141.31 596.248 3139.21 597.186 3137.56ZM610.456 3113.54 617.04 3101.47C617.949 3099.8 620.037 3099.19 621.704 3100.1 623.37 3101.01 623.984 3103.1 623.075 3104.76L616.491 3116.83C615.582 3118.5 613.494 3119.12 611.827 3118.21 610.161 3117.3 609.547 3115.21 610.456 3113.54ZM622.436 3089.33 627.42 3076.52C628.108 3074.75 630.1 3073.87 631.87 3074.56 633.639 3075.25 634.516 3077.24 633.827 3079.01L628.844 3091.83C628.156 3093.6 626.163 3094.47 624.394 3093.78 622.625 3093.1 621.748 3091.1 622.436 3089.33ZM632.404 3063.7 633.317 3061.35 633.1 3062.27 634.192 3051.09C634.377 3049.2 636.058 3047.82 637.948 3048 639.837 3048.19 641.219 3049.87 641.035 3051.76L639.942 3062.93C639.912 3063.25 639.839 3063.55 639.725 3063.85L638.811 3066.2C638.123 3067.97 636.131 3068.84 634.361 3068.15 632.592 3067.47 631.715 3065.47 632.404 3063.7ZM635.53 3037.41 636.867 3023.72C637.052 3021.83 638.733 3020.45 640.623 3020.63 642.512 3020.82 643.894 3022.5 643.71 3024.39L642.372 3038.07C642.187 3039.96 640.506 3041.35 638.616 3041.16 636.727 3040.98 635.345 3039.3 635.53 3037.41ZM638.205 3010.04 639.542 2996.35C639.727 2994.46 641.408 2993.08 643.298 2993.26 645.187 2993.45 646.569 2995.13 646.385 2997.02L645.047 3010.71C644.862 3012.59 643.181 3013.98 641.292 3013.79 639.402 3013.61 638.02 3011.93 638.205 3010.04ZM640.88 2982.67 642.217 2968.98C642.402 2967.09 644.083 2965.71 645.973 2965.9 647.862 2966.08 649.244 2967.76 649.06 2969.65L647.722 2983.34C647.537 2985.22 645.856 2986.61 643.966 2986.42 642.077 2986.24 640.695 2984.56 640.88 2982.67Z" fill="#ED7D31" fill-rule="evenodd" fill-opacity="1"/></g><g clip-path="url(#clip14)"><path d="M490.944 3209.5 501.944 3231.5 479.944 3231.5Z" stroke="#ED7D31" stroke-width="3.4375" stroke-linecap="butt" stroke-linejoin="round" stroke-miterlimit="10" stroke-opacity="1" fill="#ED7D31" fill-rule="evenodd" fill-opacity="1"/><path d="M518.944 3228.5 529.943 3250.5 507.944 3250.5Z" stroke="#ED7D31" stroke-width="3.4375" stroke-linecap="butt" stroke-linejoin="round" stroke-miterlimit="10" stroke-opacity="1" fill="#ED7D31" fill-rule="evenodd" fill-opacity="1"/><path d="M557.944 3197.5 568.944 3219.5 546.944 3219.5Z" stroke="#ED7D31" stroke-width="3.4375" stroke-linecap="butt" stroke-linejoin="round" stroke-miterlimit="10" stroke-opacity="1" fill="#ED7D31" fill-rule="evenodd" fill-opacity="1"/><path d="M583.944 3157.5 594.944 3179.5 572.944 3179.5Z" stroke="#ED7D31" stroke-width="3.4375" stroke-linecap="butt" stroke-linejoin="round" stroke-miterlimit="10" stroke-opacity="1" fill="#ED7D31" fill-rule="evenodd" fill-opacity="1"/><path d="M604.944 3120.5 615.944 3142.5 593.944 3142.5Z" stroke="#ED7D31" stroke-width="3.4375" stroke-linecap="butt" stroke-linejoin="round" stroke-miterlimit="10" stroke-opacity="1" fill="#ED7D31" fill-rule="evenodd" fill-opacity="1"/><path d="M622.944 3087.5 633.944 3109.5 611.944 3109.5Z" stroke="#ED7D31" stroke-width="3.4375" stroke-linecap="butt" stroke-linejoin="round" stroke-miterlimit="10" stroke-opacity="1" fill="#ED7D31" fill-rule="evenodd" fill-opacity="1"/><path d="M636.944 3051.5 647.944 3073.5 625.944 3073.5Z" stroke="#ED7D31" stroke-width="3.4375" stroke-linecap="butt" stroke-linejoin="round" stroke-miterlimit="10" stroke-opacity="1" fill="#ED7D31" fill-rule="evenodd" fill-opacity="1"/><path d="M646.944 2949.5 657.944 2971.5 635.944 2971.5Z" stroke="#ED7D31" stroke-width="3.4375" stroke-linecap="butt" stroke-linejoin="round" stroke-miterlimit="10" stroke-opacity="1" fill="#ED7D31" fill-rule="evenodd" fill-opacity="1"/></g><g clip-path="url(#clip15)"><path d="M494.508 3206.32 507.654 3210.35C509.469 3210.91 510.489 3212.83 509.933 3214.64 509.377 3216.46 507.454 3217.48 505.639 3216.92L492.493 3212.89C490.678 3212.34 489.657 3210.41 490.214 3208.6 490.77 3206.78 492.692 3205.76 494.508 3206.32ZM520.8 3214.38 523.525 3215.21 520.555 3215.68 529.505 3209.46C531.064 3208.37 533.206 3208.76 534.29 3210.32 535.373 3211.87 534.988 3214.02 533.429 3215.1L524.479 3221.32C523.613 3221.92 522.519 3222.1 521.51 3221.79L518.785 3220.95C516.97 3220.4 515.95 3218.47 516.506 3216.66 517.062 3214.84 518.985 3213.82 520.8 3214.38ZM540.795 3201.61 552.084 3193.76C553.643 3192.67 555.785 3193.06 556.869 3194.62 557.953 3196.18 557.568 3198.32 556.009 3199.4L544.719 3207.25C543.16 3208.34 541.018 3207.95 539.935 3206.39 538.851 3204.83 539.236 3202.69 540.795 3201.61ZM563.374 3185.91 563.557 3185.78 562.69 3186.65 570.377 3175.52C571.455 3173.96 573.596 3173.57 575.158 3174.64 576.721 3175.72 577.113 3177.86 576.034 3179.43L568.347 3190.56C568.113 3190.9 567.82 3191.19 567.481 3191.43L567.299 3191.55C565.74 3192.64 563.598 3192.25 562.514 3190.69 561.43 3189.14 561.815 3186.99 563.374 3185.91ZM578.189 3164.2 586.002 3152.89C587.08 3151.33 589.221 3150.94 590.784 3152.01 592.346 3153.09 592.738 3155.23 591.659 3156.8L583.847 3168.11C582.768 3169.67 580.627 3170.07 579.065 3168.99 577.502 3167.91 577.11 3165.77 578.189 3164.2ZM592.857 3141.81 598.34 3129.2C599.097 3127.45 601.122 3126.66 602.863 3127.41 604.604 3128.17 605.402 3130.2 604.645 3131.94L599.162 3144.55C598.405 3146.29 596.38 3147.09 594.639 3146.33 592.898 3145.57 592.1 3143.55 592.857 3141.81ZM603.822 3116.59 609.305 3103.98C610.062 3102.24 612.087 3101.44 613.828 3102.19 615.569 3102.95 616.367 3104.98 615.61 3106.72L610.127 3119.33C609.37 3121.07 607.345 3121.87 605.604 3121.11 603.863 3120.35 603.065 3118.33 603.822 3116.59ZM614.091 3091.37 618.608 3078.39C619.232 3076.59 621.191 3075.65 622.984 3076.27 624.777 3076.89 625.725 3078.85 625.102 3080.64L620.584 3093.63C619.961 3095.42 618.001 3096.37 616.208 3095.75 614.415 3095.13 613.467 3093.17 614.091 3091.37ZM623.125 3065.4 627.274 3053.47 627.696 3052.34C628.362 3050.57 630.344 3049.67 632.121 3050.33 633.899 3051 634.8 3052.98 634.133 3054.76L633.768 3055.73 629.619 3067.66C628.995 3069.45 627.036 3070.4 625.243 3069.78 623.45 3069.15 622.502 3067.19 623.125 3065.4ZM632.524 3039.47 637.352 3026.59C638.018 3024.82 640 3023.92 641.777 3024.58 643.555 3025.25 644.456 3027.23 643.789 3029.01L638.961 3041.88C638.294 3043.66 636.313 3044.56 634.535 3043.9 632.758 3043.23 631.857 3041.25 632.524 3039.47ZM642.18 3013.72 642.303 3013.39 642.091 3014.37 642.968 3001C643.092 2999.11 644.729 2997.67 646.623 2997.8 648.517 2997.92 649.953 2999.56 649.828 3001.45L648.951 3014.82C648.929 3015.16 648.858 3015.49 648.74 3015.81L648.617 3016.13C647.95 3017.91 645.969 3018.81 644.191 3018.15 642.414 3017.48 641.513 3015.5 642.18 3013.72ZM643.868 2987.28 644.767 2973.56C644.892 2971.67 646.528 2970.23 648.422 2970.36 650.317 2970.48 651.752 2972.12 651.628 2974.01L650.728 2987.73C650.604 2989.63 648.967 2991.06 647.073 2990.94 645.178 2990.81 643.743 2989.18 643.868 2987.28ZM645.667 2959.84 646.091 2953.37 646.717 2946.06C646.879 2944.17 648.544 2942.77 650.435 2942.93 652.327 2943.09 653.729 2944.76 653.567 2946.65L652.952 2953.82 652.527 2960.29C652.403 2962.19 650.767 2963.62 648.872 2963.5 646.978 2963.37 645.543 2961.74 645.667 2959.84ZM647.891 2932.36 649.065 2918.66C649.227 2916.77 650.892 2915.37 652.783 2915.53 654.675 2915.69 656.077 2917.36 655.915 2919.25L654.741 2932.95C654.579 2934.84 652.914 2936.24 651.022 2936.08 649.131 2935.92 647.729 2934.26 647.891 2932.36ZM650.239 2904.96 651.075 2895.21C651.237 2893.31 652.902 2891.91 654.793 2892.07 656.685 2892.24 658.087 2893.9 657.925 2895.79L657.089 2905.55C656.927 2907.44 655.262 2908.84 653.37 2908.68 651.479 2908.52 650.077 2906.86 650.239 2904.96Z" fill="#7030A0" fill-rule="evenodd" fill-opacity="1"/></g><g clip-path="url(#clip16)"><path d="M493.944 3198.5 504.944 3220.5 482.944 3220.5Z" stroke="#7030A0" stroke-width="3.4375" stroke-linecap="butt" stroke-linejoin="round" stroke-miterlimit="10" stroke-opacity="1" fill="#7030A0" fill-rule="evenodd" fill-opacity="1"/><path d="M522.944 3207.5 533.944 3229.5 511.944 3229.5Z" stroke="#7030A0" stroke-width="3.4375" stroke-linecap="butt" stroke-linejoin="round" stroke-miterlimit="10" stroke-opacity="1" fill="#7030A0" fill-rule="evenodd" fill-opacity="1"/><path d="M565.944 3177.5 576.943 3199.5 554.944 3199.5Z" stroke="#7030A0" stroke-width="3.4375" stroke-linecap="butt" stroke-linejoin="round" stroke-miterlimit="10" stroke-opacity="1" fill="#7030A0" fill-rule="evenodd" fill-opacity="1"/><path d="M594.944 3135.5 605.944 3157.5 583.944 3157.5Z" stroke="#7030A0" stroke-width="3.4375" stroke-linecap="butt" stroke-linejoin="round" stroke-miterlimit="10" stroke-opacity="1" fill="#7030A0" fill-rule="evenodd" fill-opacity="1"/><path d="M614.944 3089.5 625.944 3111.5 603.944 3111.5Z" stroke="#7030A0" stroke-width="3.4375" stroke-linecap="butt" stroke-linejoin="round" stroke-miterlimit="10" stroke-opacity="1" fill="#7030A0" fill-rule="evenodd" fill-opacity="1"/><path d="M630.944 3043.5 641.943 3065.5 619.944 3065.5Z" stroke="#7030A0" stroke-width="3.4375" stroke-linecap="butt" stroke-linejoin="round" stroke-miterlimit="10" stroke-opacity="1" fill="#7030A0" fill-rule="evenodd" fill-opacity="1"/><path d="M645.944 3003.5 656.944 3025.5 634.944 3025.5Z" stroke="#7030A0" stroke-width="3.4375" stroke-linecap="butt" stroke-linejoin="round" stroke-miterlimit="10" stroke-opacity="1" fill="#7030A0" fill-rule="evenodd" fill-opacity="1"/><path d="M649.944 2942.5 660.944 2964.5 638.944 2964.5Z" stroke="#7030A0" stroke-width="3.4375" stroke-linecap="butt" stroke-linejoin="round" stroke-miterlimit="10" stroke-opacity="1" fill="#7030A0" fill-rule="evenodd" fill-opacity="1"/><path d="M654.944 2884.5 665.944 2906.5 643.944 2906.5Z" stroke="#7030A0" stroke-width="3.4375" stroke-linecap="butt" stroke-linejoin="round" stroke-miterlimit="10" stroke-opacity="1" fill="#7030A0" fill-rule="evenodd" fill-opacity="1"/></g><g clip-path="url(#clip17)"><path d="M535.866 3204.19 549.538 3205.65C551.426 3205.85 552.792 3207.55 552.59 3209.44 552.388 3211.32 550.693 3212.69 548.806 3212.49L535.134 3211.02C533.246 3210.82 531.88 3209.13 532.082 3207.24 532.284 3205.35 533.979 3203.99 535.866 3204.19ZM560.77 3207.52 571.916 3199.47C573.455 3198.36 575.604 3198.7 576.715 3200.24 577.827 3201.78 577.481 3203.93 575.942 3205.04L564.797 3213.1C563.258 3214.21 561.109 3213.86 559.997 3212.32 558.885 3210.78 559.232 3208.63 560.77 3207.52ZM582.293 3191.9 591 3181.26C592.202 3179.79 594.367 3179.57 595.837 3180.77 597.306 3181.97 597.523 3184.14 596.32 3185.61L587.613 3196.25C586.411 3197.72 584.246 3197.94 582.776 3196.74 581.307 3195.53 581.09 3193.37 582.293 3191.9ZM599.707 3170.61 599.859 3170.43 607.153 3159.46C608.206 3157.88 610.34 3157.45 611.92 3158.5 613.5 3159.56 613.926 3161.69 612.873 3163.27L605.18 3174.78 605.028 3174.97C603.825 3176.44 601.66 3176.65 600.19 3175.45 598.721 3174.25 598.504 3172.08 599.707 3170.61ZM614.78 3148.02 615.66 3146.7 621.099 3136.23C621.977 3134.55 624.054 3133.89 625.737 3134.77 627.42 3135.65 628.073 3137.73 627.194 3139.41L621.381 3150.51 620.5 3151.83C619.447 3153.41 617.313 3153.84 615.733 3152.78 614.154 3151.73 613.727 3149.6 614.78 3148.02ZM627.459 3124.04 627.473 3124.01 633.801 3111.84C634.677 3110.16 636.752 3109.5 638.437 3110.38 640.121 3111.26 640.776 3113.33 639.9 3115.02L633.569 3127.19 633.555 3127.22C632.677 3128.9 630.6 3129.55 628.917 3128.68 627.234 3127.8 626.581 3125.72 627.459 3124.04ZM640.144 3099.64 640.471 3099.02 645.788 3087.31C646.574 3085.58 648.612 3084.81 650.34 3085.6 652.069 3086.39 652.833 3088.42 652.047 3090.15L646.571 3102.19 646.244 3102.82C645.368 3104.5 643.293 3105.16 641.608 3104.28 639.924 3103.4 639.269 3101.33 640.144 3099.64ZM651.188 3074.96 655.887 3062.04C656.536 3060.25 658.508 3059.33 660.292 3059.98 662.076 3060.63 662.997 3062.6 662.348 3064.39L657.649 3077.31C657 3079.09 655.028 3080.01 653.244 3079.37 651.46 3078.72 650.539 3076.74 651.188 3074.96ZM659.948 3049.22 663.523 3035.95C664.016 3034.11 665.902 3033.03 667.736 3033.52 669.569 3034.01 670.655 3035.9 670.161 3037.73L666.587 3051.01C666.093 3052.84 664.207 3053.93 662.374 3053.44 660.541 3052.94 659.455 3051.06 659.948 3049.22ZM666.891 3022.71 670.117 3009.34C670.562 3007.5 672.419 3006.36 674.265 3006.81 676.11 3007.25 677.245 3009.11 676.8 3010.96L673.574 3024.32C673.128 3026.17 671.271 3027.3 669.425 3026.86 667.58 3026.41 666.445 3024.55 666.891 3022.71ZM672.984 2996.13 675.34 2982.58C675.666 2980.71 677.446 2979.46 679.316 2979.78 681.186 2980.11 682.439 2981.89 682.114 2983.76L679.758 2997.31C679.432 2999.18 677.653 3000.43 675.782 3000.1 673.912 2999.78 672.659 2998 672.984 2996.13ZM676.748 2969.27 677.736 2955.55C677.872 2953.66 679.518 2952.23 681.412 2952.37 683.305 2952.51 684.73 2954.15 684.593 2956.05L683.605 2969.76C683.469 2971.65 681.823 2973.08 679.93 2972.94 678.036 2972.81 676.612 2971.16 676.748 2969.27ZM678.724 2941.84 679.712 2928.12C679.848 2926.23 681.494 2924.81 683.388 2924.94 685.281 2925.08 686.706 2926.72 686.569 2928.62L685.581 2942.33C685.445 2944.23 683.799 2945.65 681.906 2945.51 680.012 2945.38 678.588 2943.73 678.724 2941.84ZM680.7 2914.41 681.071 2909.25C681.208 2907.36 682.853 2905.94 684.747 2906.07 686.64 2906.21 688.065 2907.85 687.929 2909.75L687.557 2914.9C687.421 2916.8 685.775 2918.22 683.881 2918.08 681.988 2917.95 680.563 2916.3 680.7 2914.41Z" fill="#595959" fill-rule="evenodd" fill-opacity="1"/></g><g clip-path="url(#clip18)"><path d="M535.944 3196.5 546.944 3218.5 524.944 3218.5Z" stroke="#595959" stroke-width="3.4375" stroke-linecap="butt" stroke-linejoin="round" stroke-miterlimit="10" stroke-opacity="1" fill="#595959" fill-rule="evenodd" fill-opacity="1"/><path d="M562.944 3199.5 573.943 3221.5 551.944 3221.5Z" stroke="#595959" stroke-width="3.4375" stroke-linecap="butt" stroke-linejoin="round" stroke-miterlimit="10" stroke-opacity="1" fill="#595959" fill-rule="evenodd" fill-opacity="1"/><path d="M584.944 3183.5 595.943 3205.5 573.944 3205.5Z" stroke="#595959" stroke-width="3.4375" stroke-linecap="butt" stroke-linejoin="round" stroke-miterlimit="10" stroke-opacity="1" fill="#595959" fill-rule="evenodd" fill-opacity="1"/><path d="M602.944 3161.5 613.944 3183.5 591.944 3183.5Z" stroke="#595959" stroke-width="3.4375" stroke-linecap="butt" stroke-linejoin="round" stroke-miterlimit="10" stroke-opacity="1" fill="#595959" fill-rule="evenodd" fill-opacity="1"/><path d="M618.944 3137.5 629.943 3159.5 607.944 3159.5Z" stroke="#595959" stroke-width="3.4375" stroke-linecap="butt" stroke-linejoin="round" stroke-miterlimit="10" stroke-opacity="1" fill="#595959" fill-rule="evenodd" fill-opacity="1"/><path d="M630.944 3115.5 641.943 3137.5 619.944 3137.5Z" stroke="#595959" stroke-width="3.4375" stroke-linecap="butt" stroke-linejoin="round" stroke-miterlimit="10" stroke-opacity="1" fill="#595959" fill-rule="evenodd" fill-opacity="1"/><path d="M643.944 3089.5 654.944 3111.5 632.944 3111.5Z" stroke="#595959" stroke-width="3.4375" stroke-linecap="butt" stroke-linejoin="round" stroke-miterlimit="10" stroke-opacity="1" fill="#595959" fill-rule="evenodd" fill-opacity="1"/><path d="M653.944 3067.5 664.943 3089.5 642.944 3089.5Z" stroke="#595959" stroke-width="3.4375" stroke-linecap="butt" stroke-linejoin="round" stroke-miterlimit="10" stroke-opacity="1" fill="#595959" fill-rule="evenodd" fill-opacity="1"/><path d="M661.944 3045.5 672.943 3067.5 650.944 3067.5Z" stroke="#595959" stroke-width="3.4375" stroke-linecap="butt" stroke-linejoin="round" stroke-miterlimit="10" stroke-opacity="1" fill="#595959" fill-rule="evenodd" fill-opacity="1"/><path d="M668.944 3019.5 679.944 3041.5 657.944 3041.5Z" stroke="#595959" stroke-width="3.4375" stroke-linecap="butt" stroke-linejoin="round" stroke-miterlimit="10" stroke-opacity="1" fill="#595959" fill-rule="evenodd" fill-opacity="1"/><path d="M675.944 2990.5 686.943 3012.5 664.944 3012.5Z" stroke="#595959" stroke-width="3.4375" stroke-linecap="butt" stroke-linejoin="round" stroke-miterlimit="10" stroke-opacity="1" fill="#595959" fill-rule="evenodd" fill-opacity="1"/><path d="M679.944 2967.5 690.944 2989.5 668.944 2989.5Z" stroke="#595959" stroke-width="3.4375" stroke-linecap="butt" stroke-linejoin="round" stroke-miterlimit="10" stroke-opacity="1" fill="#595959" fill-rule="evenodd" fill-opacity="1"/><path d="M684.944 2898.5 695.943 2920.5 673.944 2920.5Z" stroke="#595959" stroke-width="3.4375" stroke-linecap="butt" stroke-linejoin="round" stroke-miterlimit="10" stroke-opacity="1" fill="#595959" fill-rule="evenodd" fill-opacity="1"/></g><g clip-path="url(#clip19)"><path d="M524.134 3219.08 537.806 3217.62C539.693 3217.42 541.388 3218.78 541.59 3220.67 541.792 3222.56 540.426 3224.25 538.538 3224.45L524.866 3225.92C522.979 3226.12 521.284 3224.75 521.082 3222.87 520.88 3220.98 522.246 3219.28 524.134 3219.08ZM551.477 3216.15 565.149 3214.69C567.037 3214.49 568.731 3215.85 568.933 3217.74 569.135 3219.63 567.769 3221.32 565.882 3221.52L552.21 3222.99C550.322 3223.19 548.628 3221.82 548.426 3219.94 548.223 3218.05 549.59 3216.36 551.477 3216.15ZM578.821 3213.22 579.153 3213.19 592.343 3211.38C594.224 3211.12 595.958 3212.43 596.216 3214.31 596.474 3216.19 595.159 3217.93 593.278 3218.19L579.885 3220.02 579.553 3220.06C577.666 3220.26 575.971 3218.9 575.769 3217.01 575.567 3215.12 576.933 3213.43 578.821 3213.22ZM605.965 3209.51 619.588 3207.64C621.469 3207.38 623.203 3208.69 623.461 3210.57 623.719 3212.46 622.403 3214.19 620.523 3214.45L606.9 3216.32C605.019 3216.58 603.285 3215.26 603.027 3213.38 602.769 3211.5 604.085 3209.76 605.965 3209.51ZM631.051 3204.95 642.129 3196.8C643.659 3195.68 645.81 3196.01 646.935 3197.54 648.06 3199.07 647.731 3201.22 646.202 3202.34L635.124 3210.49C633.595 3211.61 631.443 3211.28 630.318 3209.75 629.194 3208.22 629.522 3206.07 631.051 3204.95ZM653.207 3188.66 662.486 3181.84 664.051 3180.53C665.513 3179.32 667.68 3179.53 668.89 3180.99 670.101 3182.45 669.896 3184.62 668.434 3185.83L666.558 3187.37 657.28 3194.2C655.75 3195.32 653.598 3194.99 652.474 3193.46 651.349 3191.93 651.677 3189.78 653.207 3188.66ZM674.643 3171.77 685.236 3163C686.699 3161.79 688.866 3161.99 690.076 3163.46 691.287 3164.92 691.082 3167.09 689.62 3168.3L679.027 3177.06C677.564 3178.27 675.397 3178.07 674.187 3176.61 672.977 3175.14 673.181 3172.98 674.643 3171.77ZM690.292 3154.65 690.774 3140.91C690.841 3139.01 692.433 3137.53 694.33 3137.59 696.228 3137.66 697.712 3139.25 697.645 3141.15L697.163 3154.89C697.096 3156.79 695.504 3158.27 693.607 3158.2 691.71 3158.14 690.226 3156.55 690.292 3154.65ZM691.257 3127.17 691.739 3113.42C691.805 3111.53 693.397 3110.04 695.295 3110.11 697.192 3110.18 698.676 3111.77 698.61 3113.66L698.127 3127.41C698.061 3129.3 696.469 3130.79 694.571 3130.72 692.674 3130.65 691.19 3129.06 691.257 3127.17ZM692.227 3099.68 692.729 3085.94C692.798 3084.04 694.392 3082.56 696.289 3082.63 698.187 3082.7 699.668 3084.29 699.599 3086.19L699.097 3099.93C699.028 3101.83 697.434 3103.31 695.536 3103.24 693.639 3103.17 692.157 3101.57 692.227 3099.68ZM693.231 3072.2 693.733 3058.46C693.802 3056.56 695.396 3055.08 697.294 3055.15 699.191 3055.21 700.673 3056.81 700.603 3058.71L700.101 3072.45C700.032 3074.34 698.438 3075.83 696.541 3075.76 694.643 3075.69 693.161 3074.09 693.231 3072.2Z" fill="#A486D5" fill-rule="evenodd" fill-opacity="1"/></g><g clip-path="url(#clip20)"><path d="M524.944 3211.5 535.944 3233.5 513.944 3233.5Z" stroke="#A486D5" stroke-width="3.4375" stroke-linecap="butt" stroke-linejoin="round" stroke-miterlimit="10" stroke-opacity="1" fill="#A486D5" fill-rule="evenodd" fill-opacity="1"/><path d="M579.944 3205.5 590.944 3227.5 568.944 3227.5Z" stroke="#A486D5" stroke-width="3.4375" stroke-linecap="butt" stroke-linejoin="round" stroke-miterlimit="10" stroke-opacity="1" fill="#A486D5" fill-rule="evenodd" fill-opacity="1"/><path d="M630.944 3198.5 641.943 3220.5 619.944 3220.5Z" stroke="#A486D5" stroke-width="3.4375" stroke-linecap="butt" stroke-linejoin="round" stroke-miterlimit="10" stroke-opacity="1" fill="#A486D5" fill-rule="evenodd" fill-opacity="1"/><path d="M664.944 3173.5 675.943 3195.5 653.944 3195.5Z" stroke="#A486D5" stroke-width="3.4375" stroke-linecap="butt" stroke-linejoin="round" stroke-miterlimit="10" stroke-opacity="1" fill="#A486D5" fill-rule="evenodd" fill-opacity="1"/><path d="M693.944 3149.5 704.944 3171.5 682.944 3171.5Z" stroke="#A486D5" stroke-width="3.4375" stroke-linecap="butt" stroke-linejoin="round" stroke-miterlimit="10" stroke-opacity="1" fill="#A486D5" fill-rule="evenodd" fill-opacity="1"/><path d="M695.944 3092.5 706.943 3114.5 684.944 3114.5Z" stroke="#A486D5" stroke-width="3.4375" stroke-linecap="butt" stroke-linejoin="round" stroke-miterlimit="10" stroke-opacity="1" fill="#A486D5" fill-rule="evenodd" fill-opacity="1"/><path d="M697.944 3038.5 708.943 3060.5 686.944 3060.5Z" stroke="#A486D5" stroke-width="3.4375" stroke-linecap="butt" stroke-linejoin="round" stroke-miterlimit="10" stroke-opacity="1" fill="#A486D5" fill-rule="evenodd" fill-opacity="1"/></g><g clip-path="url(#clip21)"><text fill="#595959" fill-opacity="1" font-family="Calibri,Calibri_MSFontService,sans-serif" font-style="normal" font-variant="normal" font-weight="400" font-stretch="normal" font-size="41" text-anchor="start" direction="ltr" writing-mode="lr-tb" unicode-bidi="normal" text-decoration="none" transform="matrix(1 0 0 1 408.073 3465)">0</text></g><g clip-path="url(#clip22)"><text fill="#595959" fill-opacity="1" font-family="Calibri,Calibri_MSFontService,sans-serif" font-style="normal" font-variant="normal" font-weight="400" font-stretch="normal" font-size="41" text-anchor="start" direction="ltr" writing-mode="lr-tb" unicode-bidi="normal" text-decoration="none" transform="matrix(1 0 0 1 376.883 3324)">0,5</text></g><g clip-path="url(#clip23)"><text fill="#595959" fill-opacity="1" font-family="Calibri,Calibri_MSFontService,sans-serif" font-style="normal" font-variant="normal" font-weight="400" font-stretch="normal" font-size="41" text-anchor="start" direction="ltr" writing-mode="lr-tb" unicode-bidi="normal" text-decoration="none" transform="matrix(1 0 0 1 408.073 3183)">1</text></g><g clip-path="url(#clip24)"><text fill="#595959" fill-opacity="1" font-family="Calibri,Calibri_MSFontService,sans-serif" font-style="normal" font-variant="normal" font-weight="400" font-stretch="normal" font-size="41" text-anchor="start" direction="ltr" writing-mode="lr-tb" unicode-bidi="normal" text-decoration="none" transform="matrix(1 0 0 1 376.883 3042)">1,5</text></g><g clip-path="url(#clip25)"><text fill="#595959" fill-opacity="1" font-family="Calibri,Calibri_MSFontService,sans-serif" font-style="normal" font-variant="normal" font-weight="400" font-stretch="normal" font-size="41" text-anchor="start" direction="ltr" writing-mode="lr-tb" unicode-bidi="normal" text-decoration="none" transform="matrix(1 0 0 1 408.073 2901)">2</text></g><g clip-path="url(#clip26)"><text fill="#595959" fill-opacity="1" font-family="Calibri,Calibri_MSFontService,sans-serif" font-style="normal" font-variant="normal" font-weight="400" font-stretch="normal" font-size="41" text-anchor="start" direction="ltr" writing-mode="lr-tb" unicode-bidi="normal" text-decoration="none" transform="matrix(1 0 0 1 456.79 3520)">0</text></g><g clip-path="url(#clip27)"><text fill="#595959" fill-opacity="1" font-family="Calibri,Calibri_MSFontService,sans-serif" font-style="normal" font-variant="normal" font-weight="400" font-stretch="normal" font-size="41" text-anchor="start" direction="ltr" writing-mode="lr-tb" unicode-bidi="normal" text-decoration="none" transform="matrix(1 0 0 1 605.323 3520)">0,5</text></g><g clip-path="url(#clip28)"><text fill="#595959" fill-opacity="1" font-family="Calibri,Calibri_MSFontService,sans-serif" font-style="normal" font-variant="normal" font-weight="400" font-stretch="normal" font-size="41" text-anchor="start" direction="ltr" writing-mode="lr-tb" unicode-bidi="normal" text-decoration="none" transform="matrix(1 0 0 1 785.046 3520)">1</text></g><g clip-path="url(#clip29)"><text fill="#595959" fill-opacity="1" font-family="Calibri,Calibri_MSFontService,sans-serif" font-style="normal" font-variant="normal" font-weight="400" font-stretch="normal" font-size="41" text-anchor="start" direction="ltr" writing-mode="lr-tb" unicode-bidi="normal" text-decoration="none" transform="matrix(1 0 0 1 933.579 3520)">1,5</text></g><g clip-path="url(#clip30)"><text fill="#595959" fill-opacity="1" font-family="Calibri,Calibri_MSFontService,sans-serif" font-style="normal" font-variant="normal" font-weight="400" font-stretch="normal" font-size="41" text-anchor="start" direction="ltr" writing-mode="lr-tb" unicode-bidi="normal" text-decoration="none" transform="matrix(1 0 0 1 1113.3 3520)">2</text></g><g clip-path="url(#clip31)"><text fill="#595959" fill-opacity="1" font-family="Calibri,Calibri_MSFontService,sans-serif" font-style="normal" font-variant="normal" font-weight="400" font-stretch="normal" font-size="41" text-anchor="start" direction="ltr" writing-mode="lr-tb" unicode-bidi="normal" text-decoration="none" transform="matrix(1 0 0 1 1261.84 3520)">2,5</text></g><g clip-path="url(#clip32)"><text fill="#595959" fill-opacity="1" font-family="Calibri,Calibri_MSFontService,sans-serif" font-style="normal" font-variant="normal" font-weight="400" font-stretch="normal" font-size="41" text-anchor="start" direction="ltr" writing-mode="lr-tb" unicode-bidi="normal" text-decoration="none" transform="matrix(1 0 0 1 1441.56 3520)">3</text></g><g clip-path="url(#clip33)"><text fill="#595959" fill-opacity="1" font-family="Calibri,Calibri_MSFontService,sans-serif" font-style="normal" font-variant="normal" font-weight="400" font-stretch="normal" font-size="41" text-anchor="start" direction="ltr" writing-mode="lr-tb" unicode-bidi="normal" text-decoration="none" transform="matrix(1 0 0 1 1590.09 3520)">3,5</text></g><g clip-path="url(#clip34)"><text fill="#595959" fill-opacity="1" font-family="Calibri,Calibri_MSFontService,sans-serif" font-style="normal" font-variant="normal" font-weight="400" font-stretch="normal" font-size="46" text-anchor="start" direction="ltr" writing-mode="lr-tb" unicode-bidi="normal" text-decoration="none" transform="matrix(6.12323e-17 -1 1 6.12323e-17 355.936 3559)">Latency per transaction (ms)</text></g><g clip-path="url(#clip35)"><text fill="#595959" fill-opacity="1" font-family="Calibri,Calibri_MSFontService,sans-serif" font-style="normal" font-variant="normal" font-weight="400" font-stretch="normal" font-size="46" text-anchor="start" direction="ltr" writing-mode="lr-tb" unicode-bidi="normal" text-decoration="none" transform="matrix(1 0 0 1 692.245 3568)">Millions Ops/s (query + updates)</text></g><g clip-path="url(#clip36)"><rect x="928.5" y="2894.5" width="691" height="198" stroke="#000000" stroke-width="3.4375" stroke-linecap="butt" stroke-linejoin="round" stroke-miterlimit="10" stroke-opacity="1" fill="#FFFFFF" fill-opacity="1"/></g><g clip-path="url(#clip37)"><path d="M972.5 2919.5 1088.5 2919.5" stroke="#4472C4" stroke-width="6.875" stroke-linecap="round" stroke-linejoin="round" stroke-miterlimit="10" stroke-opacity="1" fill="none" fill-rule="evenodd"/></g><g clip-path="url(#clip38)"><path d="M1041 2919C1041 2925.07 1036.08 2930 1030 2930 1023.93 2930 1019 2925.07 1019 2919 1019 2912.92 1023.93 2908 1030 2908 1036.08 2908 1041 2912.92 1041 2919Z" stroke="#4472C4" stroke-width="3.4375" stroke-linecap="butt" stroke-linejoin="round" stroke-miterlimit="10" stroke-opacity="1" fill="#4472C4" fill-rule="evenodd" fill-opacity="1"/></g><g clip-path="url(#clip39)"><text fill="#595959" fill-opacity="1" font-family="Calibri,Calibri_MSFontService,sans-serif" font-style="normal" font-variant="normal" font-weight="400" font-stretch="normal" font-size="41" text-anchor="start" direction="ltr" writing-mode="lr-tb" unicode-bidi="normal" text-decoration="none" transform="matrix(1 0 0 1 1101.01 2929)">P_0%</text></g><g clip-path="url(#clip40)"><path d="M1318.5 2919.5 1433.5 2919.5" stroke="#C00000" stroke-width="6.875" stroke-linecap="round" stroke-linejoin="round" stroke-miterlimit="10" stroke-opacity="1" fill="none" fill-rule="evenodd"/></g><g clip-path="url(#clip41)"><path d="M1386.02 2919C1386.02 2925.07 1381.31 2930 1375.5 2930 1369.69 2930 1364.98 2925.07 1364.98 2919 1364.98 2912.92 1369.69 2908 1375.5 2908 1381.31 2908 1386.02 2912.92 1386.02 2919Z" stroke="#C00000" stroke-width="3.4375" stroke-linecap="butt" stroke-linejoin="round" stroke-miterlimit="10" stroke-opacity="1" fill="#C00000" fill-rule="evenodd" fill-opacity="1"/></g><g clip-path="url(#clip42)"><text fill="#595959" fill-opacity="1" font-family="Calibri,Calibri_MSFontService,sans-serif" font-style="normal" font-variant="normal" font-weight="400" font-stretch="normal" font-size="41" text-anchor="start" direction="ltr" writing-mode="lr-tb" unicode-bidi="normal" text-decoration="none" transform="matrix(1 0 0 1 1446.46 2929)">P_10%</text></g><g clip-path="url(#clip43)"><path d="M972.5 2968.5 1088.5 2968.5" stroke="#FFC000" stroke-width="6.875" stroke-linecap="round" stroke-linejoin="round" stroke-miterlimit="10" stroke-opacity="1" fill="none" fill-rule="evenodd"/></g><g clip-path="url(#clip44)"><path d="M1041 2968C1041 2974.07 1036.08 2979 1030 2979 1023.93 2979 1019 2974.07 1019 2968 1019 2961.92 1023.93 2957 1030 2957 1036.08 2957 1041 2961.92 1041 2968Z" stroke="#FFC000" stroke-width="3.4375" stroke-linecap="butt" stroke-linejoin="round" stroke-miterlimit="10" stroke-opacity="1" fill="#FFC000" fill-rule="evenodd" fill-opacity="1"/></g><g clip-path="url(#clip45)"><text fill="#595959" fill-opacity="1" font-family="Calibri,Calibri_MSFontService,sans-serif" font-style="normal" font-variant="normal" font-weight="400" font-stretch="normal" font-size="41" text-anchor="start" direction="ltr" writing-mode="lr-tb" unicode-bidi="normal" text-decoration="none" transform="matrix(1 0 0 1 1101.01 2979)">P_25%</text></g><g clip-path="url(#clip46)"><path d="M1318.5 2968.5 1433.5 2968.5" stroke="#70AD47" stroke-width="6.875" stroke-linecap="round" stroke-linejoin="round" stroke-miterlimit="10" stroke-opacity="1" fill="none" fill-rule="evenodd"/></g><g clip-path="url(#clip47)"><path d="M1386.02 2968C1386.02 2974.07 1381.31 2979 1375.5 2979 1369.69 2979 1364.98 2974.07 1364.98 2968 1364.98 2961.92 1369.69 2957 1375.5 2957 1381.31 2957 1386.02 2961.92 1386.02 2968Z" stroke="#70AD47" stroke-width="3.4375" stroke-linecap="butt" stroke-linejoin="round" stroke-miterlimit="10" stroke-opacity="1" fill="#70AD47" fill-rule="evenodd" fill-opacity="1"/></g><g clip-path="url(#clip48)"><text fill="#595959" fill-opacity="1" font-family="Calibri,Calibri_MSFontService,sans-serif" font-style="normal" font-variant="normal" font-weight="400" font-stretch="normal" font-size="41" text-anchor="start" direction="ltr" writing-mode="lr-tb" unicode-bidi="normal" text-decoration="none" transform="matrix(1 0 0 1 1446.46 2979)">P_100%</text></g><g clip-path="url(#clip49)"><path d="M972.5 3014.06 986.25 3014.06C988.148 3014.06 989.687 3015.6 989.687 3017.5 989.687 3019.4 988.148 3020.94 986.25 3020.94L972.5 3020.94C970.601 3020.94 969.062 3019.4 969.062 3017.5 969.062 3015.6 970.601 3014.06 972.5 3014.06ZM1000 3014.06 1013.75 3014.06C1015.65 3014.06 1017.19 3015.6 1017.19 3017.5 1017.19 3019.4 1015.65 3020.94 1013.75 3020.94L1000 3020.94C998.101 3020.94 996.562 3019.4 996.562 3017.5 996.562 3015.6 998.101 3014.06 1000 3014.06ZM1027.5 3014.06 1041.25 3014.06C1043.15 3014.06 1044.69 3015.6 1044.69 3017.5 1044.69 3019.4 1043.15 3020.94 1041.25 3020.94L1027.5 3020.94C1025.6 3020.94 1024.06 3019.4 1024.06 3017.5 1024.06 3015.6 1025.6 3014.06 1027.5 3014.06ZM1055 3014.06 1068.75 3014.06C1070.65 3014.06 1072.19 3015.6 1072.19 3017.5 1072.19 3019.4 1070.65 3020.94 1068.75 3020.94L1055 3020.94C1053.1 3020.94 1051.56 3019.4 1051.56 3017.5 1051.56 3015.6 1053.1 3014.06 1055 3014.06ZM1082.5 3014.06 1088.5 3014.06C1090.4 3014.06 1091.94 3015.6 1091.94 3017.5 1091.94 3019.4 1090.4 3020.94 1088.5 3020.94L1082.5 3020.94C1080.6 3020.94 1079.06 3019.4 1079.06 3017.5 1079.06 3015.6 1080.6 3014.06 1082.5 3014.06Z" fill="#ED7D31" fill-rule="evenodd" fill-opacity="1"/></g><g clip-path="url(#clip50)"><path d="M1030.5 3006.5 1041.5 3028.5 1019.5 3028.5Z" stroke="#ED7D31" stroke-width="3.4375" stroke-linecap="butt" stroke-linejoin="round" stroke-miterlimit="10" stroke-opacity="1" fill="#ED7D31" fill-rule="evenodd" fill-opacity="1"/></g><g clip-path="url(#clip51)"><text fill="#595959" fill-opacity="1" font-family="Calibri,Calibri_MSFontService,sans-serif" font-style="normal" font-variant="normal" font-weight="400" font-stretch="normal" font-size="41" text-anchor="start" direction="ltr" writing-mode="lr-tb" unicode-bidi="normal" text-decoration="none" transform="matrix(1 0 0 1 1101.01 3028)">L_0%</text></g><g clip-path="url(#clip52)"><path d="M1318.5 3014.06 1332.25 3014.06C1334.15 3014.06 1335.69 3015.6 1335.69 3017.5 1335.69 3019.4 1334.15 3020.94 1332.25 3020.94L1318.5 3020.94C1316.6 3020.94 1315.06 3019.4 1315.06 3017.5 1315.06 3015.6 1316.6 3014.06 1318.5 3014.06ZM1346 3014.06 1359.75 3014.06C1361.65 3014.06 1363.19 3015.6 1363.19 3017.5 1363.19 3019.4 1361.65 3020.94 1359.75 3020.94L1346 3020.94C1344.1 3020.94 1342.56 3019.4 1342.56 3017.5 1342.56 3015.6 1344.1 3014.06 1346 3014.06ZM1373.5 3014.06 1387.25 3014.06C1389.15 3014.06 1390.69 3015.6 1390.69 3017.5 1390.69 3019.4 1389.15 3020.94 1387.25 3020.94L1373.5 3020.94C1371.6 3020.94 1370.06 3019.4 1370.06 3017.5 1370.06 3015.6 1371.6 3014.06 1373.5 3014.06ZM1401 3014.06 1414.75 3014.06C1416.65 3014.06 1418.19 3015.6 1418.19 3017.5 1418.19 3019.4 1416.65 3020.94 1414.75 3020.94L1401 3020.94C1399.1 3020.94 1397.56 3019.4 1397.56 3017.5 1397.56 3015.6 1399.1 3014.06 1401 3014.06ZM1428.5 3014.06 1433.5 3014.06C1435.4 3014.06 1436.94 3015.6 1436.94 3017.5 1436.94 3019.4 1435.4 3020.94 1433.5 3020.94L1428.5 3020.94C1426.6 3020.94 1425.06 3019.4 1425.06 3017.5 1425.06 3015.6 1426.6 3014.06 1428.5 3014.06Z" fill="#7030A0" fill-rule="evenodd" fill-opacity="1"/></g><g clip-path="url(#clip53)"><path d="M1375.5 3006.5 1386.5 3028.5 1364.5 3028.5Z" stroke="#7030A0" stroke-width="3.4375" stroke-linecap="butt" stroke-linejoin="round" stroke-miterlimit="10" stroke-opacity="1" fill="#7030A0" fill-rule="evenodd" fill-opacity="1"/></g><g clip-path="url(#clip54)"><text fill="#595959" fill-opacity="1" font-family="Calibri,Calibri_MSFontService,sans-serif" font-style="normal" font-variant="normal" font-weight="400" font-stretch="normal" font-size="41" text-anchor="start" direction="ltr" writing-mode="lr-tb" unicode-bidi="normal" text-decoration="none" transform="matrix(1 0 0 1 1446.46 3028)">L_10%</text></g><g clip-path="url(#clip55)"><path d="M972.5 3064.06 986.25 3064.06C988.148 3064.06 989.687 3065.6 989.687 3067.5 989.687 3069.4 988.148 3070.94 986.25 3070.94L972.5 3070.94C970.601 3070.94 969.062 3069.4 969.062 3067.5 969.062 3065.6 970.601 3064.06 972.5 3064.06ZM1000 3064.06 1013.75 3064.06C1015.65 3064.06 1017.19 3065.6 1017.19 3067.5 1017.19 3069.4 1015.65 3070.94 1013.75 3070.94L1000 3070.94C998.101 3070.94 996.562 3069.4 996.562 3067.5 996.562 3065.6 998.101 3064.06 1000 3064.06ZM1027.5 3064.06 1041.25 3064.06C1043.15 3064.06 1044.69 3065.6 1044.69 3067.5 1044.69 3069.4 1043.15 3070.94 1041.25 3070.94L1027.5 3070.94C1025.6 3070.94 1024.06 3069.4 1024.06 3067.5 1024.06 3065.6 1025.6 3064.06 1027.5 3064.06ZM1055 3064.06 1068.75 3064.06C1070.65 3064.06 1072.19 3065.6 1072.19 3067.5 1072.19 3069.4 1070.65 3070.94 1068.75 3070.94L1055 3070.94C1053.1 3070.94 1051.56 3069.4 1051.56 3067.5 1051.56 3065.6 1053.1 3064.06 1055 3064.06ZM1082.5 3064.06 1088.5 3064.06C1090.4 3064.06 1091.94 3065.6 1091.94 3067.5 1091.94 3069.4 1090.4 3070.94 1088.5 3070.94L1082.5 3070.94C1080.6 3070.94 1079.06 3069.4 1079.06 3067.5 1079.06 3065.6 1080.6 3064.06 1082.5 3064.06Z" fill="#595959" fill-rule="evenodd" fill-opacity="1"/></g><g clip-path="url(#clip56)"><path d="M1030.5 3056.5 1041.5 3078.5 1019.5 3078.5Z" stroke="#595959" stroke-width="3.4375" stroke-linecap="butt" stroke-linejoin="round" stroke-miterlimit="10" stroke-opacity="1" fill="#595959" fill-rule="evenodd" fill-opacity="1"/></g><g clip-path="url(#clip57)"><text fill="#595959" fill-opacity="1" font-family="Calibri,Calibri_MSFontService,sans-serif" font-style="normal" font-variant="normal" font-weight="400" font-stretch="normal" font-size="41" text-anchor="start" direction="ltr" writing-mode="lr-tb" unicode-bidi="normal" text-decoration="none" transform="matrix(1 0 0 1 1101.01 3077)">L_25%</text></g><g clip-path="url(#clip58)"><path d="M1318.5 3064.06 1332.25 3064.06C1334.15 3064.06 1335.69 3065.6 1335.69 3067.5 1335.69 3069.4 1334.15 3070.94 1332.25 3070.94L1318.5 3070.94C1316.6 3070.94 1315.06 3069.4 1315.06 3067.5 1315.06 3065.6 1316.6 3064.06 1318.5 3064.06ZM1346 3064.06 1359.75 3064.06C1361.65 3064.06 1363.19 3065.6 1363.19 3067.5 1363.19 3069.4 1361.65 3070.94 1359.75 3070.94L1346 3070.94C1344.1 3070.94 1342.56 3069.4 1342.56 3067.5 1342.56 3065.6 1344.1 3064.06 1346 3064.06ZM1373.5 3064.06 1387.25 3064.06C1389.15 3064.06 1390.69 3065.6 1390.69 3067.5 1390.69 3069.4 1389.15 3070.94 1387.25 3070.94L1373.5 3070.94C1371.6 3070.94 1370.06 3069.4 1370.06 3067.5 1370.06 3065.6 1371.6 3064.06 1373.5 3064.06ZM1401 3064.06 1414.75 3064.06C1416.65 3064.06 1418.19 3065.6 1418.19 3067.5 1418.19 3069.4 1416.65 3070.94 1414.75 3070.94L1401 3070.94C1399.1 3070.94 1397.56 3069.4 1397.56 3067.5 1397.56 3065.6 1399.1 3064.06 1401 3064.06ZM1428.5 3064.06 1433.5 3064.06C1435.4 3064.06 1436.94 3065.6 1436.94 3067.5 1436.94 3069.4 1435.4 3070.94 1433.5 3070.94L1428.5 3070.94C1426.6 3070.94 1425.06 3069.4 1425.06 3067.5 1425.06 3065.6 1426.6 3064.06 1428.5 3064.06Z" fill="#A486D5" fill-rule="evenodd" fill-opacity="1"/></g><g clip-path="url(#clip59)"><path d="M1375.5 3056.5 1386.5 3078.5 1364.5 3078.5Z" stroke="#A486D5" stroke-width="3.4375" stroke-linecap="butt" stroke-linejoin="round" stroke-miterlimit="10" stroke-opacity="1" fill="#A486D5" fill-rule="evenodd" fill-opacity="1"/></g><g clip-path="url(#clip60)"><text fill="#595959" fill-opacity="1" font-family="Calibri,Calibri_MSFontService,sans-serif" font-style="normal" font-variant="normal" font-weight="400" font-stretch="normal" font-size="41" text-anchor="start" direction="ltr" writing-mode="lr-tb" unicode-bidi="normal" text-decoration="none" transform="matrix(1 0 0 1 1446.46 3077)">L_100%</text></g></g></svg>